  0
SECTION
  2
HEADER
  9
$ACADVER
  1
AC1032
  9
$ACADMAINTVER
 90
4
  9
$DWGCODEPAGE
  3
ANSI_1252
  9
$LASTSAVEDBY
  1
ezdxf
  9
$CUSTOMPROPERTYTAG
  1
KR_SHEET_ID
  9
$CUSTOMPROPERTY
  1
A-103
  9
$CUSTOMPROPERTYTAG
  1
KR_TITLE
  9
$CUSTOMPROPERTY
  1
Room schedule
  9
$CUSTOMPROPERTYTAG
  1
KR_FLOOR
  9
$CUSTOMPROPERTY
  1
L1, L2
  9
$CUSTOMPROPERTYTAG
  1
KR_SCALE
  9
$CUSTOMPROPERTY
  1
NTS @ A3
  9
$CUSTOMPROPERTYTAG
  1
KR_REVISION
  9
$CUSTOMPROPERTY
  1
P02
  9
$CUSTOMPROPERTYTAG
  1
KR_REV_DATE
  9
$CUSTOMPROPERTY
  1
2026-10-01
  9
$CUSTOMPROPERTYTAG
  1
KR_RENDER_UTC
  9
$CUSTOMPROPERTY
  1
2026-10-01T12:12:53Z
  9
$CUSTOMPROPERTYTAG
  1
KR_STATUS
  9
$CUSTOMPROPERTY
  1
KONSEP
  9
$CUSTOMPROPERTYTAG
  1
KR_NOTE
  9
$CUSTOMPROPERTY
  1
Bukan untuk konstruksi
  9
$CUSTOMPROPERTYTAG
  1
KR_DRAWN
  9
$CUSTOMPROPERTY
  1
Claude Code cloud (generator)
  9
$CUSTOMPROPERTYTAG
  1
KR_CHECK
  9
$CUSTOMPROPERTY
  1
Max (supervisor) belum review
  9
$CUSTOMPROPERTYTAG
  1
KR_WORLD_SHA256
  9
$CUSTOMPROPERTY
  1
ac39b320919d6410f01d798ea0af1508e8c37de5e08f0e72047b9bf11e1f4afa
  9
$CUSTOMPROPERTYTAG
  1
KR_GENERATOR
  9
$CUSTOMPROPERTY
  1
cad/generate.py v1
  9
$REQUIREDVERSIONS
160
0
  9
$INSBASE
 10
0.0
 20
0.0
 30
0.0
  9
$EXTMIN
 10
1e+20
 20
1e+20
 30
1e+20
  9
$EXTMAX
 10
-1e+20
 20
-1e+20
 30
-1e+20
  9
$LIMMIN
 10
0.0
 20
0.0
  9
$LIMMAX
 10
420.0
 20
297.0
  9
$ORTHOMODE
 70
0
  9
$REGENMODE
 70
1
  9
$FILLMODE
 70
1
  9
$QTEXTMODE
 70
0
  9
$MIRRTEXT
 70
1
  9
$LTSCALE
 40
1.0
  9
$ATTMODE
 70
1
  9
$TEXTSIZE
 40
2.5
  9
$TRACEWID
 40
1.0
  9
$TEXTSTYLE
  7
OpenSans
  9
$CLAYER
  8
0
  9
$CELTYPE
  6
ByLayer
  9
$CECOLOR
 62
256
  9
$CELTSCALE
 40
1.0
  9
$DISPSILH
 70
0
  9
$DIMSCALE
 40
1.0
  9
$DIMASZ
 40
0.175
  9
$DIMEXO
 40
0.125
  9
$DIMDLI
 40
3.75
  9
$DIMRND
 40
0.0
  9
$DIMDLE
 40
0.0
  9
$DIMEXE
 40
0.375
  9
$DIMTP
 40
0.0
  9
$DIMTM
 40
0.0
  9
$DIMTXT
 40
0.25
  9
$DIMCEN
 40
2.5
  9
$DIMTSZ
 40
0.0
  9
$DIMTOL
 70
0
  9
$DIMLIM
 70
0
  9
$DIMTIH
 70
0
  9
$DIMTOH
 70
0
  9
$DIMSE1
 70
0
  9
$DIMSE2
 70
0
  9
$DIMTAD
 70
1
  9
$DIMZIN
 70
12
  9
$DIMBLK
  1
ARCHTICK
  9
$DIMASO
 70
1
  9
$DIMSHO
 70
1
  9
$DIMPOST
  1

  9
$DIMAPOST
  1

  9
$DIMALT
 70
0
  9
$DIMALTD
 70
3
  9
$DIMALTF
 40
0.03937007874
  9
$DIMLFAC
 40
100.0
  9
$DIMTOFL
 70
1
  9
$DIMTVP
 40
0.0
  9
$DIMTIX
 70
0
  9
$DIMSOXD
 70
0
  9
$DIMSAH
 70
0
  9
$DIMBLK1
  1

  9
$DIMBLK2
  1

  9
$DIMSTYLE
  2
EZDXF
  9
$DIMCLRD
 70
0
  9
$DIMCLRE
 70
0
  9
$DIMCLRT
 70
0
  9
$DIMTFAC
 40
0.5
  9
$DIMGAP
 40
0.1
  9
$DIMJUST
 70
0
  9
$DIMSD1
 70
0
  9
$DIMSD2
 70
0
  9
$DIMTOLJ
 70
0
  9
$DIMTZIN
 70
8
  9
$DIMALTZ
 70
0
  9
$DIMALTTZ
 70
0
  9
$DIMUPT
 70
1
  9
$DIMDEC
 70
2
  9
$DIMTDEC
 70
2
  9
$DIMALTU
 70
2
  9
$DIMALTTD
 70
3
  9
$DIMTXSTY
  7
OpenSansCondensed-Light
  9
$DIMAUNIT
 70
0
  9
$DIMADEC
 70
2
  9
$DIMALTRND
 40
0.0
  9
$DIMAZIN
 70
3
  9
$DIMDSEP
 70
46
  9
$DIMATFIT
 70
3
  9
$DIMFRAC
 70
0
  9
$DIMLDRBLK
  1

  9
$DIMLUNIT
 70
2
  9
$DIMLWD
 70
-2
  9
$DIMLWE
 70
-2
  9
$DIMTMOVE
 70
2
  9
$DIMFXL
 40
1.0
  9
$DIMFXLON
 70
0
  9
$DIMJOGANG
 40
0.785398163397
  9
$DIMTFILL
 70
0
  9
$DIMTFILLCLR
 70
0
  9
$DIMARCSYM
 70
0
  9
$DIMLTYPE
  6

  9
$DIMLTEX1
  6

  9
$DIMLTEX2
  6

  9
$DIMTXTDIRECTION
 70
0
  9
$LUNITS
 70
2
  9
$LUPREC
 70
4
  9
$SKETCHINC
 40
1.0
  9
$FILLETRAD
 40
10.0
  9
$AUNITS
 70
0
  9
$AUPREC
 70
2
  9
$MENU
  1
.
  9
$ELEVATION
 40
0.0
  9
$PELEVATION
 40
0.0
  9
$THICKNESS
 40
0.0
  9
$LIMCHECK
 70
0
  9
$CHAMFERA
 40
0.0
  9
$CHAMFERB
 40
0.0
  9
$CHAMFERC
 40
0.0
  9
$CHAMFERD
 40
0.0
  9
$SKPOLY
 70
0
  9
$TDCREATE
 40
2461315.509224537
  9
$TDUCREATE
 40
2458532.153996898
  9
$TDUPDATE
 40
2461315.509224537
  9
$TDUUPDATE
 40
2458532.1544311
  9
$TDINDWG
 40
0.0
  9
$TDUSRTIMER
 40
0.0
  9
$USRTIMER
 70
1
  9
$ANGBASE
 50
0.0
  9
$ANGDIR
 70
0
  9
$PDMODE
 70
0
  9
$PDSIZE
 40
0.0
  9
$PLINEWID
 40
0.0
  9
$SPLFRAME
 70
0
  9
$SPLINETYPE
 70
6
  9
$SPLINESEGS
 70
8
  9
$HANDSEED
  5
2D4
  9
$SURFTAB1
 70
6
  9
$SURFTAB2
 70
6
  9
$SURFTYPE
 70
6
  9
$SURFU
 70
6
  9
$SURFV
 70
6
  9
$UCSBASE
  2

  9
$UCSNAME
  2

  9
$UCSORG
 10
0.0
 20
0.0
 30
0.0
  9
$UCSXDIR
 10
1.0
 20
0.0
 30
0.0
  9
$UCSYDIR
 10
0.0
 20
1.0
 30
0.0
  9
$UCSORTHOREF
  2

  9
$UCSORTHOVIEW
 70
0
  9
$UCSORGTOP
 10
0.0
 20
0.0
 30
0.0
  9
$UCSORGBOTTOM
 10
0.0
 20
0.0
 30
0.0
  9
$UCSORGLEFT
 10
0.0
 20
0.0
 30
0.0
  9
$UCSORGRIGHT
 10
0.0
 20
0.0
 30
0.0
  9
$UCSORGFRONT
 10
0.0
 20
0.0
 30
0.0
  9
$UCSORGBACK
 10
0.0
 20
0.0
 30
0.0
  9
$PUCSBASE
  2

  9
$PUCSNAME
  2

  9
$PUCSORG
 10
0.0
 20
0.0
 30
0.0
  9
$PUCSXDIR
 10
1.0
 20
0.0
 30
0.0
  9
$PUCSYDIR
 10
0.0
 20
1.0
 30
0.0
  9
$PUCSORTHOREF
  2

  9
$PUCSORTHOVIEW
 70
0
  9
$PUCSORGTOP
 10
0.0
 20
0.0
 30
0.0
  9
$PUCSORGBOTTOM
 10
0.0
 20
0.0
 30
0.0
  9
$PUCSORGLEFT
 10
0.0
 20
0.0
 30
0.0
  9
$PUCSORGRIGHT
 10
0.0
 20
0.0
 30
0.0
  9
$PUCSORGFRONT
 10
0.0
 20
0.0
 30
0.0
  9
$PUCSORGBACK
 10
0.0
 20
0.0
 30
0.0
  9
$USERI1
 70
0
  9
$USERI2
 70
0
  9
$USERI3
 70
0
  9
$USERI4
 70
0
  9
$USERI5
 70
0
  9
$USERR1
 40
0.0
  9
$USERR2
 40
0.0
  9
$USERR3
 40
0.0
  9
$USERR4
 40
0.0
  9
$USERR5
 40
0.0
  9
$WORLDVIEW
 70
1
  9
$SHADEDGE
 70
3
  9
$SHADEDIF
 70
70
  9
$TILEMODE
 70
1
  9
$MAXACTVP
 70
64
  9
$PINSBASE
 10
0.0
 20
0.0
 30
0.0
  9
$PLIMCHECK
 70
0
  9
$PEXTMIN
 10
1e+20
 20
1e+20
 30
1e+20
  9
$PEXTMAX
 10
-1e+20
 20
-1e+20
 30
-1e+20
  9
$PLIMMIN
 10
-0.0
 20
-0.0
  9
$PLIMMAX
 10
420.0
 20
297.0
  9
$UNITMODE
 70
0
  9
$VISRETAIN
 70
1
  9
$PLINEGEN
 70
0
  9
$PSLTSCALE
 70
0
  9
$TREEDEPTH
 70
3020
  9
$CMLSTYLE
  2
Standard
  9
$CMLJUST
 70
0
  9
$CMLSCALE
 40
20.0
  9
$PROXYGRAPHICS
 70
1
  9
$MEASUREMENT
 70
1
  9
$CELWEIGHT
370
-1
  9
$ENDCAPS
280
0
  9
$JOINSTYLE
280
0
  9
$LWDISPLAY
290
0
  9
$INSUNITS
 70
4
  9
$HYPERLINKBASE
  1

  9
$STYLESHEET
  1

  9
$XEDIT
290
1
  9
$CEPSNTYPE
380
0
  9
$PSTYLEMODE
290
1
  9
$FINGERPRINTGUID
  2
{FF2FD0B8-2423-4C5F-8CF1-AD6B8BB50521}
  9
$VERSIONGUID
  2
{D7607CF0-7BDC-4C94-8677-3DD6F3AF531B}
  9
$EXTNAMES
290
1
  9
$PSVPSCALE
 40
0.0
  9
$OLESTARTUP
290
0
  9
$SORTENTS
280
127
  9
$INDEXCTL
280
0
  9
$HIDETEXT
280
1
  9
$XCLIPFRAME
280
1
  9
$HALOGAP
280
0
  9
$OBSCOLOR
 70
257
  9
$OBSLTYPE
280
0
  9
$INTERSECTIONDISPLAY
280
0
  9
$INTERSECTIONCOLOR
 70
257
  9
$DIMASSOC
280
2
  9
$PROJECTNAME
  1

  9
$CAMERADISPLAY
290
0
  9
$LENSLENGTH
 40
50.0
  9
$CAMERAHEIGHT
 40
0.0
  9
$STEPSPERSEC
 40
24.0
  9
$STEPSIZE
 40
100.0
  9
$3DDWFPREC
 40
2.0
  9
$PSOLWIDTH
 40
0.005
  9
$PSOLHEIGHT
 40
0.08
  9
$LOFTANG1
 40
1.570796326795
  9
$LOFTANG2
 40
1.570796326795
  9
$LOFTMAG1
 40
0.0
  9
$LOFTMAG2
 40
0.0
  9
$LOFTPARAM
 70
7
  9
$LOFTNORMALS
280
1
  9
$LATITUDE
 40
37.795
  9
$LONGITUDE
 40
-122.394
  9
$NORTHDIRECTION
 40
0.0
  9
$TIMEZONE
 70
-8000
  9
$LIGHTGLYPHDISPLAY
280
1
  9
$TILEMODELIGHTSYNCH
280
1
  9
$CMATERIAL
347
20
  9
$SOLIDHIST
280
0
  9
$SHOWHIST
280
1
  9
$DWFFRAME
280
2
  9
$DGNFRAME
280
2
  9
$REALWORLDSCALE
290
1
  9
$INTERFERECOLOR
 62
256
  9
$CSHADOW
280
0
  9
$SHADOWPLANELOCATION
 40
0.0
  0
ENDSEC
  0
SECTION
  2
CLASSES
  0
CLASS
  1
ACDBDICTIONARYWDFLT
  2
AcDbDictionaryWithDefault
  3
ObjectDBX Classes
 90
0
 91
0
280
0
281
0
  0
CLASS
  1
SUN
  2
AcDbSun
  3
SCENEOE
 90
1153
 91
0
280
0
281
0
  0
CLASS
  1
VISUALSTYLE
  2
AcDbVisualStyle
  3
ObjectDBX Classes
 90
4095
 91
0
280
0
281
0
  0
CLASS
  1
MATERIAL
  2
AcDbMaterial
  3
ObjectDBX Classes
 90
1153
 91
0
280
0
281
0
  0
CLASS
  1
SCALE
  2
AcDbScale
  3
ObjectDBX Classes
 90
1153
 91
0
280
0
281
0
  0
CLASS
  1
TABLESTYLE
  2
AcDbTableStyle
  3
ObjectDBX Classes
 90
4095
 91
0
280
0
281
0
  0
CLASS
  1
MLEADERSTYLE
  2
AcDbMLeaderStyle
  3
ACDB_MLEADERSTYLE_CLASS
 90
4095
 91
0
280
0
281
0
  0
CLASS
  1
DICTIONARYVAR
  2
AcDbDictionaryVar
  3
ObjectDBX Classes
 90
0
 91
0
280
0
281
0
  0
CLASS
  1
CELLSTYLEMAP
  2
AcDbCellStyleMap
  3
ObjectDBX Classes
 90
1152
 91
0
280
0
281
0
  0
CLASS
  1
MENTALRAYRENDERSETTINGS
  2
AcDbMentalRayRenderSettings
  3
SCENEOE
 90
1024
 91
0
280
0
281
0
  0
CLASS
  1
ACDBDETAILVIEWSTYLE
  2
AcDbDetailViewStyle
  3
ObjectDBX Classes
 90
1025
 91
0
280
0
281
0
  0
CLASS
  1
ACDBSECTIONVIEWSTYLE
  2
AcDbSectionViewStyle
  3
ObjectDBX Classes
 90
1025
 91
0
280
0
281
0
  0
CLASS
  1
RASTERVARIABLES
  2
AcDbRasterVariables
  3
ISM
 90
0
 91
0
280
0
281
0
  0
CLASS
  1
LAYOUT
  2
AcDbLayout
  3
ObjectDBX Classes
 90
0
 91
0
280
0
281
0
  0
CLASS
  1
ACDBPLACEHOLDER
  2
AcDbPlaceHolder
  3
ObjectDBX Classes
 90
0
 91
0
280
0
281
0
  0
ENDSEC
  0
SECTION
  2
TABLES
  0
TABLE
  2
VPORT
  5
8
330
0
100
AcDbSymbolTable
 70
1
  0
VPORT
  5
23
330
8
100
AcDbSymbolTableRecord
100
AcDbViewportTableRecord
  2
*Active
 70
0
 10
0.0
 20
0.0
 11
1.0
 21
1.0
 12
0.0
 22
0.0
 13
0.0
 23
0.0
 14
0.5
 24
0.5
 15
0.5
 25
0.5
 16
0.0
 26
0.0
 36
1.0
 17
0.0
 27
0.0
 37
0.0
 40
1000.0
 41
1.34
 42
50.0
 43
0.0
 44
0.0
 50
0.0
 51
0.0
 71
0
 72
1000
 73
1
 74
3
 75
0
 76
0
 77
0
 78
0
281
0
 65
0
146
0.0
  0
ENDTAB
  0
TABLE
  2
LTYPE
  5
2
330
0
100
AcDbSymbolTable
 70
21
  0
LTYPE
  5
24
330
2
100
AcDbSymbolTableRecord
100
AcDbLinetypeTableRecord
  2
ByBlock
 70
0
  3

 72
65
 73
0
 40
0.0
  0
LTYPE
  5
25
330
2
100
AcDbSymbolTableRecord
100
AcDbLinetypeTableRecord
  2
ByLayer
 70
0
  3

 72
65
 73
0
 40
0.0
  0
LTYPE
  5
26
330
2
100
AcDbSymbolTableRecord
100
AcDbLinetypeTableRecord
  2
Continuous
 70
0
  3

 72
65
 73
0
 40
0.0
  0
LTYPE
  5
2F
330
2
100
AcDbSymbolTableRecord
100
AcDbLinetypeTableRecord
  2
CENTER
 70
0
  3
Center ____ _ ____ _ ____ _ ____ _ ____ _ ____
 72
65
 73
4
 40
5.08
 49
3.175
 74
0
 49
-0.635
 74
0
 49
0.635
 74
0
 49
-0.635
 74
0
  0
LTYPE
  5
30
330
2
100
AcDbSymbolTableRecord
100
AcDbLinetypeTableRecord
  2
CENTERX2
 70
0
  3
Center (2x) ________  __  ________  __  ________
 72
65
 73
4
 40
8.89
 49
6.35
 74
0
 49
-0.635
 74
0
 49
1.27
 74
0
 49
-0.635
 74
0
  0
LTYPE
  5
31
330
2
100
AcDbSymbolTableRecord
100
AcDbLinetypeTableRecord
  2
CENTER2
 70
0
  3
Center (.5x) ____ _ ____ _ ____ _ ____ _ ____
 72
65
 73
4
 40
2.54
 49
1.587
 74
0
 49
-0.318
 74
0
 49
0.318
 74
0
 49
-0.318
 74
0
  0
LTYPE
  5
32
330
2
100
AcDbSymbolTableRecord
100
AcDbLinetypeTableRecord
  2
DASHED
 70
0
  3
Dashed __ __ __ __ __ __ __ __ __ __ __ __ __ _
 72
65
 73
2
 40
1.524
 49
1.27
 74
0
 49
-0.254
 74
0
  0
LTYPE
  5
33
330
2
100
AcDbSymbolTableRecord
100
AcDbLinetypeTableRecord
  2
DASHEDX2
 70
0
  3
Dashed (2x) ____  ____  ____  ____  ____  ____
 72
65
 73
2
 40
3.048
 49
2.54
 74
0
 49
-0.508
 74
0
  0
LTYPE
  5
34
330
2
100
AcDbSymbolTableRecord
100
AcDbLinetypeTableRecord
  2
DASHED2
 70
0
  3
Dashed (.5x) _ _ _ _ _ _ _ _ _ _ _ _ _ _
 72
65
 73
2
 40
0.762
 49
0.635
 74
0
 49
-0.127
 74
0
  0
LTYPE
  5
35
330
2
100
AcDbSymbolTableRecord
100
AcDbLinetypeTableRecord
  2
PHANTOM
 70
0
  3
Phantom ______  __  __  ______  __  __  ______
 72
65
 73
6
 40
6.35
 49
3.175
 74
0
 49
-0.635
 74
0
 49
0.635
 74
0
 49
-0.635
 74
0
 49
0.635
 74
0
 49
-0.635
 74
0
  0
LTYPE
  5
36
330
2
100
AcDbSymbolTableRecord
100
AcDbLinetypeTableRecord
  2
PHANTOMX2
 70
0
  3
Phantom (2x)____________    ____    ____    ____________
 72
65
 73
6
 40
10.795
 49
6.35
 74
0
 49
-0.635
 74
0
 49
1.27
 74
0
 49
-0.635
 74
0
 49
1.27
 74
0
 49
-0.635
 74
0
  0
LTYPE
  5
37
330
2
100
AcDbSymbolTableRecord
100
AcDbLinetypeTableRecord
  2
PHANTOM2
 70
0
  3
Phantom (.5x) ___ _ _ ___ _ _ ___ _ _ ___ _ _ ___
 72
65
 73
6
 40
3.175
 49
1.587
 74
0
 49
-0.318
 74
0
 49
0.318
 74
0
 49
-0.318
 74
0
 49
0.318
 74
0
 49
-0.318
 74
0
  0
LTYPE
  5
38
330
2
100
AcDbSymbolTableRecord
100
AcDbLinetypeTableRecord
  2
DASHDOT
 70
0
  3
Dash dot __ . __ . __ . __ . __ . __ . __ . __
 72
65
 73
4
 40
3.556
 49
2.54
 74
0
 49
-0.508
 74
0
 49
0.0
 74
0
 49
-0.508
 74
0
  0
LTYPE
  5
39
330
2
100
AcDbSymbolTableRecord
100
AcDbLinetypeTableRecord
  2
DASHDOTX2
 70
0
  3
Dash dot (2x) ____  .  ____  .  ____  .  ____
 72
65
 73
4
 40
6.096
 49
5.08
 74
0
 49
-0.508
 74
0
 49
0.0
 74
0
 49
-0.508
 74
0
  0
LTYPE
  5
3A
330
2
100
AcDbSymbolTableRecord
100
AcDbLinetypeTableRecord
  2
DASHDOT2
 70
0
  3
Dash dot (.5x) _ . _ . _ . _ . _ . _ . _ . _
 72
65
 73
4
 40
1.778
 49
1.27
 74
0
 49
-0.254
 74
0
 49
0.0
 74
0
 49
-0.254
 74
0
  0
LTYPE
  5
3B
330
2
100
AcDbSymbolTableRecord
100
AcDbLinetypeTableRecord
  2
DOT
 70
0
  3
Dot .  .  .  .  .  .  .  .  .  .  .  .  .  .  .  .
 72
65
 73
2
 40
0.508
 49
0.0
 74
0
 49
-0.508
 74
0
  0
LTYPE
  5
3C
330
2
100
AcDbSymbolTableRecord
100
AcDbLinetypeTableRecord
  2
DOTX2
 70
0
  3
Dot (2x) .    .    .    .    .    .    .    . 
 72
65
 73
2
 40
1.016
 49
0.0
 74
0
 49
-1.016
 74
0
  0
LTYPE
  5
3D
330
2
100
AcDbSymbolTableRecord
100
AcDbLinetypeTableRecord
  2
DOT2
 70
0
  3
Dot (.5) . . . . . . . . . . . . . . . . . . . 
 72
65
 73
2
 40
0.254
 49
0.0
 74
0
 49
-0.254
 74
0
  0
LTYPE
  5
3E
330
2
100
AcDbSymbolTableRecord
100
AcDbLinetypeTableRecord
  2
DIVIDE
 70
0
  3
Divide __ . . __ . . __ . . __ . . __ . . __
 72
65
 73
6
 40
4.064
 49
2.54
 74
0
 49
-0.508
 74
0
 49
0.0
 74
0
 49
-0.508
 74
0
 49
0.0
 74
0
 49
-0.508
 74
0
  0
LTYPE
  5
3F
330
2
100
AcDbSymbolTableRecord
100
AcDbLinetypeTableRecord
  2
DIVIDEX2
 70
0
  3
Divide (2x) ____  . .  ____  . .  ____  . .  ____
 72
65
 73
6
 40
6.604
 49
5.08
 74
0
 49
-0.508
 74
0
 49
0.0
 74
0
 49
-0.508
 74
0
 49
0.0
 74
0
 49
-0.508
 74
0
  0
LTYPE
  5
40
330
2
100
AcDbSymbolTableRecord
100
AcDbLinetypeTableRecord
  2
DIVIDE2
 70
0
  3
Divide(.5x) _ . _ . _ . _ . _ . _ . _ . _
 72
65
 73
6
 40
2.032
 49
1.27
 74
0
 49
-0.254
 74
0
 49
0.0
 74
0
 49
-0.254
 74
0
 49
0.0
 74
0
 49
-0.254
 74
0
  0
ENDTAB
  0
TABLE
  2
LAYER
  5
1
330
0
100
AcDbSymbolTable
 70
18
  0
LAYER
  5
27
330
1
100
AcDbSymbolTableRecord
100
AcDbLayerTableRecord
  2
0
 70
0
 62
7
  6
Continuous
370
-3
390
13
347
21
  0
LAYER
  5
28
330
1
100
AcDbSymbolTableRecord
100
AcDbLayerTableRecord
  2
Defpoints
 70
0
 62
7
  6
Continuous
290
0
370
-3
390
13
347
21
  0
LAYER
  5
8B
330
1
100
AcDbSymbolTableRecord
100
AcDbLayerTableRecord
  2
A-WALL
 70
0
 62
3
420
2051386
  6
Continuous
370
50
390
13
347
21
  0
LAYER
  5
8C
330
1
100
AcDbSymbolTableRecord
100
AcDbLayerTableRecord
  2
A-DOOR
 70
0
 62
3
420
2051386
  6
Continuous
370
25
390
13
347
21
  0
LAYER
  5
8D
330
1
100
AcDbSymbolTableRecord
100
AcDbLayerTableRecord
  2
A-DOOR-IDEN
 70
0
 62
8
420
4020812
  6
Continuous
370
13
390
13
347
21
  0
LAYER
  5
8E
330
1
100
AcDbSymbolTableRecord
100
AcDbLayerTableRecord
  2
A-AREA
 70
0
 62
9
420
10532010
  6
Continuous
290
0
370
13
390
13
347
21
  0
LAYER
  5
8F
330
1
100
AcDbSymbolTableRecord
100
AcDbLayerTableRecord
  2
A-ANNO-RMNM
 70
0
 62
7
420
2240554
  6
Continuous
370
18
390
13
347
21
  0
LAYER
  5
90
330
1
100
AcDbSymbolTableRecord
100
AcDbLayerTableRecord
  2
A-FURN
 70
0
 62
8
420
9076854
  6
Continuous
370
18
390
13
347
21
  0
LAYER
  5
91
330
1
100
AcDbSymbolTableRecord
100
AcDbLayerTableRecord
  2
A-FURN-IDEN
 70
0
 62
8
420
9076854
  6
Continuous
370
9
390
13
347
21
  0
LAYER
  5
92
330
1
100
AcDbSymbolTableRecord
100
AcDbLayerTableRecord
  2
A-STRS
 70
0
 62
30
420
11883311
  6
Continuous
370
25
390
13
347
21
  0
LAYER
  5
93
330
1
100
AcDbSymbolTableRecord
100
AcDbLayerTableRecord
  2
A-ANNO-DIMS
 70
0
 62
7
420
3097144
  6
Continuous
370
18
390
13
347
21
  0
LAYER
  5
94
330
1
100
AcDbSymbolTableRecord
100
AcDbLayerTableRecord
  2
A-GRID
 70
0
 62
8
420
9415067
  6
CENTER
370
13
390
13
347
21
  0
LAYER
  5
95
330
1
100
AcDbSymbolTableRecord
100
AcDbLayerTableRecord
  2
A-GRID-IDEN
 70
0
 62
8
420
3097144
  6
Continuous
370
18
390
13
347
21
  0
LAYER
  5
96
330
1
100
AcDbSymbolTableRecord
100
AcDbLayerTableRecord
  2
A-ANNO-TTLB
 70
0
 62
3
420
2051386
  6
Continuous
370
35
390
13
347
21
  0
LAYER
  5
97
330
1
100
AcDbSymbolTableRecord
100
AcDbLayerTableRecord
  2
A-ANNO-NOTE
 70
0
 62
7
420
2240554
  6
Continuous
370
18
390
13
347
21
  0
LAYER
  5
98
330
1
100
AcDbSymbolTableRecord
100
AcDbLayerTableRecord
  2
A-ANNO-WMRK
 70
0
 62
9
420
15265514
  6
Continuous
370
13
390
13
347
21
  0
LAYER
  5
99
330
1
100
AcDbSymbolTableRecord
100
AcDbLayerTableRecord
  2
A-ANNO-VPRT
 70
0
 62
8
420
8421504
  6
Continuous
290
0
370
13
390
13
347
21
  0
LAYER
  5
9C
330
1
100
AcDbSymbolTableRecord
100
AcDbLayerTableRecord
  2
A-ANNO-SCHD
 70
0
 62
7
  6
Continuous
370
-3
390
13
347
21
  0
ENDTAB
  0
TABLE
  2
STYLE
  5
5
330
0
100
AcDbSymbolTable
 70
27
  0
STYLE
  5
29
330
5
100
AcDbSymbolTableRecord
100
AcDbTextStyleTableRecord
  2
Standard
 70
0
 40
0.0
 41
1.0
 50
0.0
 71
0
 42
2.5
  3
txt
  4

  0
STYLE
  5
41
330
5
100
AcDbSymbolTableRecord
100
AcDbTextStyleTableRecord
  2
OpenSans-Light
 70
0
 40
0.0
 41
1.0
 50
0.0
 71
0
 42
2.5
  3
OpenSans-Light.ttf
  4

  0
STYLE
  5
42
330
5
100
AcDbSymbolTableRecord
100
AcDbTextStyleTableRecord
  2
OpenSans-Light-Italic
 70
0
 40
0.0
 41
1.0
 50
0.0
 71
0
 42
2.5
  3
OpenSans-LightItalic.ttf
  4

  0
STYLE
  5
43
330
5
100
AcDbSymbolTableRecord
100
AcDbTextStyleTableRecord
  2
OpenSans
 70
0
 40
0.0
 41
1.0
 50
0.0
 71
0
 42
2.5
  3
OpenSans-Regular.ttf
  4

  0
STYLE
  5
44
330
5
100
AcDbSymbolTableRecord
100
AcDbTextStyleTableRecord
  2
OpenSans-Italic
 70
0
 40
0.0
 41
1.0
 50
0.0
 71
0
 42
2.5
  3
OpenSans-Italic.ttf
  4

  0
STYLE
  5
45
330
5
100
AcDbSymbolTableRecord
100
AcDbTextStyleTableRecord
  2
OpenSans-SemiBold
 70
0
 40
0.0
 41
1.0
 50
0.0
 71
0
 42
2.5
  3
OpenSans-SemiBold.ttf
  4

  0
STYLE
  5
46
330
5
100
AcDbSymbolTableRecord
100
AcDbTextStyleTableRecord
  2
OpenSans-SemiBoldItalic
 70
0
 40
0.0
 41
1.0
 50
0.0
 71
0
 42
2.5
  3
OpenSans-SemiBoldItalic.ttf
  4

  0
STYLE
  5
47
330
5
100
AcDbSymbolTableRecord
100
AcDbTextStyleTableRecord
  2
OpenSans-Bold
 70
0
 40
0.0
 41
1.0
 50
0.0
 71
0
 42
2.5
  3
OpenSans-Bold.ttf
  4

  0
STYLE
  5
48
330
5
100
AcDbSymbolTableRecord
100
AcDbTextStyleTableRecord
  2
OpenSans-BoldItalic
 70
0
 40
0.0
 41
1.0
 50
0.0
 71
0
 42
2.5
  3
OpenSans-BoldItalic.ttf
  4

  0
STYLE
  5
49
330
5
100
AcDbSymbolTableRecord
100
AcDbTextStyleTableRecord
  2
OpenSans-ExtraBold
 70
0
 40
0.0
 41
1.0
 50
0.0
 71
0
 42
2.5
  3
OpenSans-ExtraBold.ttf
  4

  0
STYLE
  5
4A
330
5
100
AcDbSymbolTableRecord
100
AcDbTextStyleTableRecord
  2
OpenSans-ExtraBoldItalic
 70
0
 40
0.0
 41
1.0
 50
0.0
 71
0
 42
2.5
  3
OpenSans-ExtraBoldItalic.ttf
  4

  0
STYLE
  5
4B
330
5
100
AcDbSymbolTableRecord
100
AcDbTextStyleTableRecord
  2
OpenSansCondensed-Bold
 70
0
 40
0.0
 41
1.0
 50
0.0
 71
0
 42
2.5
  3
OpenSansCondensed-Bold.ttf
  4

  0
STYLE
  5
4C
330
5
100
AcDbSymbolTableRecord
100
AcDbTextStyleTableRecord
  2
OpenSansCondensed-Light
 70
0
 40
0.0
 41
1.0
 50
0.0
 71
0
 42
2.5
  3
OpenSansCondensed-Light.ttf
  4

  0
STYLE
  5
4D
330
5
100
AcDbSymbolTableRecord
100
AcDbTextStyleTableRecord
  2
OpenSansCondensed-Italic
 70
0
 40
0.0
 41
1.0
 50
0.0
 71
0
 42
2.5
  3
OpenSansCondensed-LightItalic.ttf
  4

  0
STYLE
  5
4E
330
5
100
AcDbSymbolTableRecord
100
AcDbTextStyleTableRecord
  2
LiberationSans
 70
0
 40
0.0
 41
1.0
 50
0.0
 71
0
 42
2.5
  3
LiberationSans-Regular.ttf
  4

  0
STYLE
  5
4F
330
5
100
AcDbSymbolTableRecord
100
AcDbTextStyleTableRecord
  2
LiberationSans-Bold
 70
0
 40
0.0
 41
1.0
 50
0.0
 71
0
 42
2.5
  3
LiberationSans-Bold.ttf
  4

  0
STYLE
  5
50
330
5
100
AcDbSymbolTableRecord
100
AcDbTextStyleTableRecord
  2
LiberationSans-BoldItalic
 70
0
 40
0.0
 41
1.0
 50
0.0
 71
0
 42
2.5
  3
LiberationSans-BoldItalic.ttf
  4

  0
STYLE
  5
51
330
5
100
AcDbSymbolTableRecord
100
AcDbTextStyleTableRecord
  2
LiberationSans-Italic
 70
0
 40
0.0
 41
1.0
 50
0.0
 71
0
 42
2.5
  3
LiberationSans-Italic.ttf
  4

  0
STYLE
  5
52
330
5
100
AcDbSymbolTableRecord
100
AcDbTextStyleTableRecord
  2
LiberationSerif
 70
0
 40
0.0
 41
1.0
 50
0.0
 71
0
 42
2.5
  3
LiberationSerif-Regular.ttf
  4

  0
STYLE
  5
53
330
5
100
AcDbSymbolTableRecord
100
AcDbTextStyleTableRecord
  2
LiberationSerif-Bold
 70
0
 40
0.0
 41
1.0
 50
0.0
 71
0
 42
2.5
  3
LiberationSerif-Bold.ttf
  4

  0
STYLE
  5
54
330
5
100
AcDbSymbolTableRecord
100
AcDbTextStyleTableRecord
  2
LiberationSerif-BoldItalic
 70
0
 40
0.0
 41
1.0
 50
0.0
 71
0
 42
2.5
  3
LiberationSerif-BoldItalic.ttf
  4

  0
STYLE
  5
55
330
5
100
AcDbSymbolTableRecord
100
AcDbTextStyleTableRecord
  2
LiberationSerif-Italic
 70
0
 40
0.0
 41
1.0
 50
0.0
 71
0
 42
2.5
  3
LiberationSerif-Italic.ttf
  4

  0
STYLE
  5
56
330
5
100
AcDbSymbolTableRecord
100
AcDbTextStyleTableRecord
  2
LiberationMono
 70
0
 40
0.0
 41
1.0
 50
0.0
 71
0
 42
2.5
  3
LiberationMono-Regular.ttf
  4

  0
STYLE
  5
57
330
5
100
AcDbSymbolTableRecord
100
AcDbTextStyleTableRecord
  2
LiberationMono-Bold
 70
0
 40
0.0
 41
1.0
 50
0.0
 71
0
 42
2.5
  3
LiberationMono-Bold.ttf
  4

  0
STYLE
  5
58
330
5
100
AcDbSymbolTableRecord
100
AcDbTextStyleTableRecord
  2
LiberationMono-BoldItalic
 70
0
 40
0.0
 41
1.0
 50
0.0
 71
0
 42
2.5
  3
LiberationMono-BoldItalic.ttf
  4

  0
STYLE
  5
59
330
5
100
AcDbSymbolTableRecord
100
AcDbTextStyleTableRecord
  2
LiberationMono-Italic
 70
0
 40
0.0
 41
1.0
 50
0.0
 71
0
 42
2.5
  3
LiberationMono-Italic.ttf
  4

  0
STYLE
  5
9A
330
5
100
AcDbSymbolTableRecord
100
AcDbTextStyleTableRecord
  2
KR-SANS
 70
0
 40
0.0
 41
0.8
 50
0.0
 71
0
 42
2.5
  3
DejaVuSans.ttf
  4

  0
ENDTAB
  0
TABLE
  2
VIEW
  5
7
330
0
100
AcDbSymbolTable
 70
0
  0
ENDTAB
  0
TABLE
  2
UCS
  5
6
330
0
100
AcDbSymbolTable
 70
0
  0
ENDTAB
  0
TABLE
  2
APPID
  5
3
330
0
100
AcDbSymbolTable
 70
4
  0
APPID
  5
2A
330
3
100
AcDbSymbolTableRecord
100
AcDbRegAppTableRecord
  2
ACAD
 70
0
  0
APPID
  5
8A
330
3
100
AcDbSymbolTableRecord
100
AcDbRegAppTableRecord
  2
KANTOR_RPG
 70
0
  0
APPID
  5
2D1
330
3
100
AcDbSymbolTableRecord
100
AcDbRegAppTableRecord
  2
HATCHBACKGROUNDCOLOR
 70
0
  0
APPID
  5
2D2
330
3
100
AcDbSymbolTableRecord
100
AcDbRegAppTableRecord
  2
EZDXF
 70
0
  0
ENDTAB
  0
TABLE
  2
DIMSTYLE
  5
4
330
0
100
AcDbSymbolTable
 70
13
100
AcDbDimStyleTable
  0
DIMSTYLE
105
2B
330
4
100
AcDbSymbolTableRecord
100
AcDbDimStyleTableRecord
  2
Standard
 70
0
 40
1.0
 41
2.5
 42
0.625
 43
3.75
 44
1.25
 45
0.0
 46
0.0
 47
0.0
 48
0.0
 49
2.5
140
2.5
141
2.5
142
0.0
143
0.03937007874
144
1.0
145
0.0
146
1.0
147
0.625
148
0.0
 69
0
 70
0
 71
0
 72
0
 73
0
 74
0
 75
0
 76
0
 77
1
 78
8
 79
3
170
0
171
3
172
1
173
0
174
0
175
0
176
0
177
0
178
0
179
2
271
2
272
2
273
2
274
3
275
0
276
0
277
2
278
44
279
0
280
0
281
0
282
0
283
0
284
8
285
0
286
0
288
0
289
3
290
0
371
-2
372
-2
  0
DIMSTYLE
105
73
330
4
100
AcDbSymbolTableRecord
100
AcDbDimStyleTableRecord
  2
EZDXF
 70
0
 40
1.0
 41
0.175
 42
0.125
 43
3.75
 44
0.375
 45
0.0
 46
0.0
 47
0.0
 48
0.0
 49
2.5
140
0.25
141
2.5
142
0.0
143
0.03937007874
144
100.0
145
0.0
146
0.5
147
0.1
148
0.0
 69
0
 70
0
 71
0
 72
0
 73
0
 74
0
 75
0
 76
0
 77
1
 78
12
 79
3
170
0
171
3
172
1
173
0
174
0
175
0
176
0
177
0
178
0
179
2
271
2
272
2
273
2
274
3
275
0
276
0
277
2
278
46
279
2
280
0
281
0
282
0
283
0
284
8
285
0
286
0
288
1
289
3
290
0
340
4C
342
74
371
-2
372
-2
  0
DIMSTYLE
105
7C
330
4
100
AcDbSymbolTableRecord
100
AcDbDimStyleTableRecord
  2
EZ_M_100_H25_CM
 70
0
 40
1.0
 41
0.25
 42
0.125
 43
3.75
 44
0.375
 45
0.0
 46
0.0
 47
0.0
 48
0.0
 49
2.5
140
0.25
141
2.5
142
0.125
143
0.03937007874
144
100.0
145
0.0
146
0.5
147
0.1
148
0.0
 69
0
 70
0
 71
0
 72
0
 73
0
 74
0
 75
0
 76
0
 77
1
 78
12
 79
3
170
0
171
3
172
1
173
0
174
0
175
0
176
0
177
0
178
0
179
2
271
2
272
2
273
2
274
3
275
0
276
0
277
2
278
46
279
2
280
0
281
0
282
0
283
0
284
8
285
0
286
0
288
1
289
3
290
0
340
4C
371
-2
372
-2
  0
DIMSTYLE
105
7D
330
4
100
AcDbSymbolTableRecord
100
AcDbDimStyleTableRecord
  2
EZ_M_50_H25_CM
 70
0
 40
1.0
 41
0.125
 42
0.0625
 43
3.75
 44
0.1875
 45
0.0
 46
0.0
 47
0.0
 48
0.0
 49
2.5
140
0.125
141
2.5
142
0.0625
143
0.03937007874
144
100.0
145
0.0
146
0.5
147
0.05
148
0.0
 69
0
 70
0
 71
0
 72
0
 73
0
 74
0
 75
0
 76
0
 77
1
 78
12
 79
3
170
0
171
3
172
1
173
0
174
0
175
0
176
0
177
0
178
0
179
2
271
2
272
2
273
2
274
3
275
0
276
0
277
2
278
46
279
2
280
0
281
0
282
0
283
0
284
8
285
0
286
0
288
1
289
3
290
0
340
4C
371
-2
372
-2
  0
DIMSTYLE
105
7E
330
4
100
AcDbSymbolTableRecord
100
AcDbDimStyleTableRecord
  2
EZ_M_25_H25_CM
 70
0
 40
1.0
 41
0.0625
 42
0.03125
 43
3.75
 44
0.09375
 45
0.0
 46
0.0
 47
0.0
 48
0.0
 49
2.5
140
0.0625
141
2.5
142
0.03125
143
0.03937007874
144
100.0
145
0.0
146
0.5
147
0.025
148
0.0
 69
0
 70
0
 71
0
 72
0
 73
0
 74
0
 75
0
 76
0
 77
1
 78
12
 79
3
170
0
171
3
172
1
173
0
174
0
175
0
176
0
177
0
178
0
179
2
271
2
272
2
273
2
274
3
275
0
276
0
277
2
278
46
279
2
280
0
281
0
282
0
283
0
284
8
285
0
286
0
288
1
289
3
290
0
340
4C
371
-2
372
-2
  0
DIMSTYLE
105
7F
330
4
100
AcDbSymbolTableRecord
100
AcDbDimStyleTableRecord
  2
EZ_M_20_H25_CM
 70
0
 40
1.0
 41
0.05
 42
0.025
 43
3.75
 44
0.07500000000000001
 45
0.0
 46
0.0
 47
0.0
 48
0.0
 49
2.5
140
0.05
141
2.5
142
0.025
143
0.03937007874
144
100.0
145
0.0
146
0.5
147
0.020000000000000004
148
0.0
 69
0
 70
0
 71
0
 72
0
 73
0
 74
0
 75
0
 76
0
 77
1
 78
12
 79
3
170
0
171
3
172
1
173
0
174
0
175
0
176
0
177
0
178
0
179
2
271
2
272
2
273
2
274
3
275
0
276
0
277
2
278
46
279
2
280
0
281
0
282
0
283
0
284
8
285
0
286
0
288
1
289
3
290
0
340
4C
371
-2
372
-2
  0
DIMSTYLE
105
80
330
4
100
AcDbSymbolTableRecord
100
AcDbDimStyleTableRecord
  2
EZ_M_10_H25_CM
 70
0
 40
1.0
 41
0.025
 42
0.0125
 43
3.75
 44
0.037500000000000006
 45
0.0
 46
0.0
 47
0.0
 48
0.0
 49
2.5
140
0.025
141
2.5
142
0.0125
143
0.03937007874
144
100.0
145
0.0
146
0.5
147
0.010000000000000002
148
0.0
 69
0
 70
0
 71
0
 72
0
 73
0
 74
0
 75
0
 76
0
 77
1
 78
12
 79
3
170
0
171
3
172
1
173
0
174
0
175
0
176
0
177
0
178
0
179
2
271
2
272
2
273
2
274
3
275
0
276
0
277
2
278
46
279
2
280
0
281
0
282
0
283
0
284
8
285
0
286
0
288
1
289
3
290
0
340
4C
371
-2
372
-2
  0
DIMSTYLE
105
81
330
4
100
AcDbSymbolTableRecord
100
AcDbDimStyleTableRecord
  2
EZ_M_5_H25_CM
 70
0
 40
1.0
 41
0.0125
 42
0.00625
 43
3.75
 44
0.018750000000000003
 45
0.0
 46
0.0
 47
0.0
 48
0.0
 49
2.5
140
0.0125
141
2.5
142
0.00625
143
0.03937007874
144
100.0
145
0.0
146
0.5
147
0.005000000000000001
148
0.0
 69
0
 70
0
 71
0
 72
0
 73
0
 74
0
 75
0
 76
0
 77
1
 78
12
 79
3
170
0
171
3
172
1
173
0
174
0
175
0
176
0
177
0
178
0
179
2
271
2
272
2
273
2
274
3
275
0
276
0
277
2
278
46
279
2
280
0
281
0
282
0
283
0
284
8
285
0
286
0
288
1
289
3
290
0
340
4C
371
-2
372
-2
  0
DIMSTYLE
105
82
330
4
100
AcDbSymbolTableRecord
100
AcDbDimStyleTableRecord
  2
EZ_M_1_H25_CM
 70
0
 40
1.0
 41
0.0025
 42
0.00125
 43
3.75
 44
0.00375
 45
0.0
 46
0.0
 47
0.0
 48
0.0
 49
2.5
140
0.0025
141
2.5
142
0.00125
143
0.03937007874
144
100.0
145
0.0
146
0.5
147
0.001
148
0.0
 69
0
 70
0
 71
0
 72
0
 73
0
 74
0
 75
0
 76
0
 77
1
 78
12
 79
3
170
0
171
3
172
1
173
0
174
0
175
0
176
0
177
0
178
0
179
2
271
2
272
2
273
2
274
3
275
0
276
0
277
2
278
46
279
2
280
0
281
0
282
0
283
0
284
8
285
0
286
0
288
1
289
3
290
0
340
4C
371
-2
372
-2
  0
DIMSTYLE
105
83
330
4
100
AcDbSymbolTableRecord
100
AcDbDimStyleTableRecord
  2
EZ_RADIUS
 70
0
 40
1.0
 41
0.25
 42
0.125
 43
3.75
 44
0.375
 45
0.0
 46
0.0
 47
0.0
 48
0.0
 49
2.5
140
0.25
141
0.0
142
0.0
143
0.03937007874
144
100.0
145
0.0
146
0.5
147
0.1
148
0.0
 69
0
 70
0
 71
0
 72
0
 73
0
 74
0
 75
0
 76
0
 77
1
 78
12
 79
3
170
0
171
3
172
0
173
0
174
0
175
0
176
0
177
0
178
0
179
2
271
2
272
2
273
2
274
3
275
0
276
0
277
2
278
46
279
1
280
0
281
0
282
0
283
0
284
8
285
0
286
0
288
1
289
3
290
0
340
4C
342
84
371
-2
372
-2
  0
DIMSTYLE
105
88
330
4
100
AcDbSymbolTableRecord
100
AcDbDimStyleTableRecord
  2
EZ_RADIUS_INSIDE
 70
0
 40
1.0
 41
0.25
 42
0.125
 43
3.75
 44
0.375
 45
0.0
 46
0.0
 47
0.0
 48
0.0
 49
2.5
140
0.25
141
0.0
142
0.0
143
0.03937007874
144
100.0
145
0.0
146
0.5
147
0.1
148
0.0
 69
0
 70
0
 71
0
 72
0
 73
0
 74
0
 75
0
 76
0
 77
0
 78
12
 79
3
170
0
171
3
172
0
173
0
174
1
175
0
176
0
177
0
178
0
179
2
271
2
272
2
273
2
274
3
275
0
276
0
277
2
278
46
279
0
280
0
281
0
282
0
283
0
284
8
285
0
286
0
288
1
289
0
290
0
340
4C
342
84
371
-2
372
-2
  0
DIMSTYLE
105
89
330
4
100
AcDbSymbolTableRecord
100
AcDbDimStyleTableRecord
  2
EZ_CURVED
 70
0
 40
1.0
 41
0.25
 42
0.125
 43
3.75
 44
0.375
 45
0.0
 46
0.0
 47
0.0
 48
0.0
 49
2.5
140
0.25
141
2.5
142
0.0
143
0.03937007874
144
100.0
145
0.0
146
0.5
147
0.1
148
0.0
 69
0
 70
0
 71
0
 72
0
 73
0
 74
0
 75
0
 76
0
 77
1
 78
12
 79
2
 90
2
170
0
171
3
172
1
173
0
174
0
175
0
176
0
177
0
178
0
179
2
271
2
272
2
273
2
274
3
275
0
276
0
277
2
278
46
279
2
280
0
281
0
282
0
283
0
284
8
285
0
286
0
288
1
289
3
290
0
340
4C
371
-2
372
-2
  0
DIMSTYLE
105
9B
330
4
100
AcDbSymbolTableRecord
100
AcDbDimStyleTableRecord
  2
KR-100
 70
0
 40
100.0
 41
0.0
 42
1.0
 43
3.75
 44
1.5
 45
0.0
 46
0.0
 47
0.0
 48
0.0
 49
2.5
140
2.0
141
2.5
142
1.0
143
0.03937007874
144
1.0
145
0.0
146
1.0
147
0.8
148
0.0
 69
0
 70
0
 71
0
 72
0
 73
0
 74
0
 75
0
 76
0
 77
1
 78
8
 79
3
170
0
171
3
172
1
173
0
174
0
175
0
176
256
177
256
178
256
179
2
271
0
272
2
273
2
274
3
275
0
276
0
277
2
278
44
279
0
280
0
281
0
282
0
283
0
284
8
285
0
286
0
288
0
289
3
290
0
340
9A
371
-2
372
-2
  0
ENDTAB
  0
TABLE
  2
BLOCK_RECORD
  5
9
330
0
100
AcDbSymbolTable
 70
6
  0
BLOCK_RECORD
  5
17
330
9
100
AcDbSymbolTableRecord
100
AcDbBlockTableRecord
  2
*Model_Space
340
1A
 70
0
280
1
281
0
  0
BLOCK_RECORD
  5
1B
330
9
100
AcDbSymbolTableRecord
100
AcDbBlockTableRecord
  2
*Paper_Space
340
1E
 70
0
280
1
281
0
  0
BLOCK_RECORD
  5
74
330
9
100
AcDbSymbolTableRecord
100
AcDbBlockTableRecord
  2
_ARCHTICK
340
0
 70
0
280
1
281
0
  0
BLOCK_RECORD
  5
78
330
9
100
AcDbSymbolTableRecord
100
AcDbBlockTableRecord
  2
_CLOSEDFILLED
340
0
 70
0
280
1
281
0
  0
BLOCK_RECORD
  5
84
330
9
100
AcDbSymbolTableRecord
100
AcDbBlockTableRecord
  2
_CLOSEDBLANK
340
0
 70
0
280
1
281
0
  0
BLOCK_RECORD
  5
9D
330
9
100
AcDbSymbolTableRecord
100
AcDbBlockTableRecord
  2
KR-TTLB-G
340
0
 70
0
280
1
281
0
  0
ENDTAB
  0
ENDSEC
  0
SECTION
  2
BLOCKS
  0
BLOCK
  5
18
330
17
100
AcDbEntity
  8
0
100
AcDbBlockBegin
  2
*Model_Space
 70
0
 10
0.0
 20
0.0
 30
0.0
  3
*Model_Space
  1

  0
ENDBLK
  5
19
330
17
100
AcDbEntity
  8
0
100
AcDbBlockEnd
  0
BLOCK
  5
1C
330
1B
100
AcDbEntity
  8
0
100
AcDbBlockBegin
  2
*Paper_Space
 70
0
 10
0.0
 20
0.0
 30
0.0
  3
*Paper_Space
  1

  0
ENDBLK
  5
1D
330
1B
100
AcDbEntity
  8
0
100
AcDbBlockEnd
  0
BLOCK
  5
75
330
74
100
AcDbEntity
  8
0
100
AcDbBlockBegin
  2
_ARCHTICK
 70
0
 10
0.0
 20
0.0
 30
0.0
  3
_ARCHTICK
  1

  0
LWPOLYLINE
  5
77
330
74
100
AcDbEntity
  8
0
  6
BYBLOCK
 62
0
100
AcDbPolyline
 90
2
 70
0
 43
0.15
 10
-0.5
 20
-0.5
 10
0.5
 20
0.5
  0
ENDBLK
  5
76
330
74
100
AcDbEntity
  8
0
100
AcDbBlockEnd
  0
BLOCK
  5
79
330
78
100
AcDbEntity
  8
0
100
AcDbBlockBegin
  2
_CLOSEDFILLED
 70
0
 10
0.0
 20
0.0
 30
0.0
  3
_CLOSEDFILLED
  1

  0
SOLID
  5
7B
330
78
100
AcDbEntity
  8
0
  6
BYBLOCK
 62
0
100
AcDbTrace
 10
-1.0
 20
0.16439898372402537
 30
0.0
 11
0.0
 21
0.0
 31
0.0
 12
-1.0
 22
-0.16439898372402537
 32
0.0
 13
-1.0
 23
-0.16439898372402537
 33
0.0
  0
ENDBLK
  5
7A
330
78
100
AcDbEntity
  8
0
100
AcDbBlockEnd
  0
BLOCK
  5
85
330
84
100
AcDbEntity
  8
0
100
AcDbBlockBegin
  2
_CLOSEDBLANK
 70
0
 10
0.0
 20
0.0
 30
0.0
  3
_CLOSEDBLANK
  1

  0
LWPOLYLINE
  5
87
330
84
100
AcDbEntity
  8
0
  6
BYBLOCK
 62
0
100
AcDbPolyline
 90
3
 70
1
 10
-1.0
 20
0.16439898372402537
 10
0.0
 20
0.0
 10
-1.0
 20
-0.16439898372402537
  0
ENDBLK
  5
86
330
84
100
AcDbEntity
  8
0
100
AcDbBlockEnd
  0
BLOCK
  5
9E
330
9D
100
AcDbEntity
  8
0
100
AcDbBlockBegin
  2
KR-TTLB-G
 70
2
 10
0.0
 20
0.0
 30
0.0
  3
KR-TTLB-G
  1

  0
ATTDEF
  5
A0
330
9D
100
AcDbEntity
  8
A-ANNO-TTLB
100
AcDbText
 10
3.0
 20
43.0
 30
0.0
 40
4.0
  1

  7
KR-SANS
100
AcDbAttributeDefinition
  3

  2
KR_SHEET_ID
 70
0
 71
1
 72
0
  0
ATTDEF
  5
A1
330
9D
100
AcDbEntity
  8
A-ANNO-TTLB
100
AcDbText
 10
3.0
 20
36.8
 30
0.0
 40
2.0
  1

  7
KR-SANS
100
AcDbAttributeDefinition
  3

  2
KR_TITLE
 70
0
 71
1
 72
0
  0
ATTDEF
  5
A2
330
9D
100
AcDbEntity
  8
A-ANNO-TTLB
100
AcDbText
 10
3.0
 20
30.6
 30
0.0
 40
2.0
  1

  7
KR-SANS
100
AcDbAttributeDefinition
  3

  2
KR_FLOOR
 70
0
 71
1
 72
0
  0
ATTDEF
  5
A3
330
9D
100
AcDbEntity
  8
A-ANNO-TTLB
100
AcDbText
 10
3.0
 20
24.4
 30
0.0
 40
2.0
  1

  7
KR-SANS
100
AcDbAttributeDefinition
  3

  2
KR_SCALE
 70
0
 71
1
 72
0
  0
ATTDEF
  5
A4
330
9D
100
AcDbEntity
  8
A-ANNO-TTLB
100
AcDbText
 10
3.0
 20
18.2
 30
0.0
 40
2.0
  1

  7
KR-SANS
100
AcDbAttributeDefinition
  3

  2
KR_REVISION
 70
0
 71
1
 72
0
  0
ATTDEF
  5
A5
330
9D
100
AcDbEntity
  8
A-ANNO-TTLB
100
AcDbText
 10
3.0
 20
12.0
 30
0.0
 40
2.0
  1

  7
KR-SANS
100
AcDbAttributeDefinition
  3

  2
KR_REV_DATE
 70
0
 71
1
 72
0
  0
ATTDEF
  5
A6
330
9D
100
AcDbEntity
  8
A-ANNO-TTLB
100
AcDbText
 10
3.0
 20
5.799999999999997
 30
0.0
 40
2.0
  1

  7
KR-SANS
100
AcDbAttributeDefinition
  3

  2
KR_RENDER_UTC
 70
0
 71
1
 72
0
  0
ATTDEF
  5
A7
330
9D
100
AcDbEntity
  8
A-ANNO-TTLB
100
AcDbText
 10
88.0
 20
43.0
 30
0.0
 40
2.0
  1

  7
KR-SANS
100
AcDbAttributeDefinition
  3

  2
KR_STATUS
 70
0
 71
1
 72
0
  0
ATTDEF
  5
A8
330
9D
100
AcDbEntity
  8
A-ANNO-TTLB
100
AcDbText
 10
88.0
 20
36.8
 30
0.0
 40
2.0
  1

  7
KR-SANS
100
AcDbAttributeDefinition
  3

  2
KR_NOTE
 70
0
 71
1
 72
0
  0
ATTDEF
  5
A9
330
9D
100
AcDbEntity
  8
A-ANNO-TTLB
100
AcDbText
 10
88.0
 20
30.6
 30
0.0
 40
2.0
  1

  7
KR-SANS
100
AcDbAttributeDefinition
  3

  2
KR_DRAWN
 70
0
 71
1
 72
0
  0
ATTDEF
  5
AA
330
9D
100
AcDbEntity
  8
A-ANNO-TTLB
100
AcDbText
 10
88.0
 20
24.4
 30
0.0
 40
2.0
  1

  7
KR-SANS
100
AcDbAttributeDefinition
  3

  2
KR_CHECK
 70
0
 71
1
 72
0
  0
ATTDEF
  5
AB
330
9D
100
AcDbEntity
  8
A-ANNO-TTLB
100
AcDbText
 10
88.0
 20
18.2
 30
0.0
 40
2.0
  1

  7
KR-SANS
100
AcDbAttributeDefinition
  3

  2
KR_PAGE
 70
0
 71
1
 72
0
  0
ATTDEF
  5
AC
330
9D
100
AcDbEntity
  8
A-ANNO-TTLB
100
AcDbText
 10
88.0
 20
12.0
 30
0.0
 40
1.3
  1

  7
KR-SANS
100
AcDbAttributeDefinition
  3

  2
KR_WORLD_SHA256
 70
0
 71
1
 72
0
  0
LWPOLYLINE
  5
AD
330
9D
100
AcDbEntity
  8
A-ANNO-TTLB
100
AcDbPolyline
 90
4
 70
1
 10
0.0
 20
0.0
 10
175.0
 20
0.0
 10
175.0
 20
50.0
 10
0.0
 20
50.0
  0
ENDBLK
  5
9F
330
9D
100
AcDbEntity
  8
0
100
AcDbBlockEnd
  0
ENDSEC
  0
SECTION
  2
ENTITIES
  0
VIEWPORT
  5
AE
330
1B
100
AcDbEntity
 67
1
  8
VIEWPORTS
100
AcDbViewport
 10
322560.0
 20
228096.0
 30
0.0
 40
709632.0
 41
501811.2
 68
1
 69
1
 12
322560.0
 22
228096.0
 13
0.0
 23
0.0
 14
10.0
 24
10.0
 15
10.0
 25
10.0
 16
0.0
 26
0.0
 36
1.0
 17
0.0
 27
0.0
 37
0.0
 42
50.0
 43
0.0
 44
0.0
 45
501811.2
 50
0.0
 51
0.0
 72
100
 90
557088
  1

281
0
 71
0
 74
0
110
0.0
120
0.0
130
0.0
111
1.0
121
0.0
131
0.0
112
0.0
122
1.0
132
0.0
 79
0
146
0.0
282
0
  0
LWPOLYLINE
  5
AF
330
1B
100
AcDbEntity
 67
1
  8
A-ANNO-TTLB
420
2051386
100
AcDbPolyline
 90
4
 70
1
 10
20.0
 20
10.0
 10
410.0
 20
10.0
 10
410.0
 20
287.0
 10
20.0
 20
287.0
  0
HATCH
  5
B0
330
1B
100
AcDbEntity
 67
1
  8
A-ANNO-TTLB
 62
7
420
16777215
100
AcDbHatch
 10
0.0
 20
0.0
 30
0.0
210
0.0
220
0.0
230
1.0
  2
SOLID
 70
1
 71
0
 91
1
 92
3
 72
0
 73
1
 93
4
 10
235.0
 20
10.0
 10
410.0
 20
10.0
 10
410.0
 20
60.0
 10
235.0
 20
60.0
 97
0
 75
1
 76
1
 98
0
  0
LWPOLYLINE
  5
B1
330
1B
100
AcDbEntity
 67
1
  8
A-ANNO-TTLB
420
2051386
100
AcDbPolyline
 90
4
 70
1
 10
235.0
 20
10.0
 10
410.0
 20
10.0
 10
410.0
 20
60.0
 10
235.0
 20
60.0
  0
TEXT
  5
B2
330
1B
100
AcDbEntity
 67
1
  8
A-ANNO-WMRK
420
14542049
100
AcDbText
 10
215.0
 20
148.5
 30
0.0
 40
10.865555555555554
  1
KONSEP - BUKAN UNTUK KONSTRUKSI
 50
35.38451811434469
  7
KR-SANS
 41
0.8
 72
1
 11
215.0
 21
148.5
 31
0.0
100
AcDbText
  0
TEXT
  5
B3
330
1B
100
AcDbEntity
 67
1
  8
A-ANNO-NOTE
420
2051386
100
AcDbText
 10
24.0
 20
278.0
 30
0.0
 40
2.469444444444444
  1
ROOM SCHEDULE
  7
KR-SANS
 41
0.8
 11
24.0
 21
278.0
 31
0.0
100
AcDbText
  0
TEXT
  5
B4
330
1B
100
AcDbEntity
 67
1
  8
A-ANNO-NOTE
420
2240554
100
AcDbText
 10
53.678694444444446
 20
278.3
 30
0.0
 40
1.7286111111111109
  1
NTS · luas as-drawn dari polygon (AS-DIM-02)
  7
KR-SANS
 41
0.8
 11
53.678694444444446
 21
278.3
 31
0.0
100
AcDbText
  0
LWPOLYLINE
  5
B5
330
1B
100
AcDbEntity
 67
1
  8
A-ANNO-NOTE
420
2051386
100
AcDbPolyline
 90
2
 70
0
 10
24.0
 20
276.4
 10
49.678694444444446
 20
276.4
  0
HATCH
  5
B6
330
1B
100
AcDbEntity
 67
1
  8
A-ANNO-SCHD
 62
7
420
14674403
100
AcDbHatch
 10
0.0
 20
0.0
 30
0.0
210
0.0
220
0.0
230
1.0
  2
SOLID
 70
1
 71
0
 91
1
 92
3
 72
0
 73
1
 93
4
 10
24.0
 20
269.206
 10
369.0
 20
269.206
 10
369.0
 20
274.0
 10
24.0
 20
274.0
 97
0
 75
1
 76
1
 98
0
  0
TEXT
  5
B7
330
1B
100
AcDbEntity
 67
1
  8
A-ANNO-SCHD
420
2051386
100
AcDbText
 10
25.0
 20
269.956
 30
0.0
 40
1.6298333333333328
  1
ID
  7
KR-SANS
 41
0.8
 11
25.0
 21
269.956
 31
0.0
100
AcDbText
  0
TEXT
  5
B8
330
1B
100
AcDbEntity
 67
1
  8
A-ANNO-SCHD
420
2051386
100
AcDbText
 10
47.0
 20
269.956
 30
0.0
 40
1.6298333333333328
  1
Nama
  7
KR-SANS
 41
0.8
 11
47.0
 21
269.956
 31
0.0
100
AcDbText
  0
TEXT
  5
B9
330
1B
100
AcDbEntity
 67
1
  8
A-ANNO-SCHD
420
2051386
100
AcDbText
 10
101.5
 20
269.956
 30
0.0
 40
1.6298333333333328
  1
Lantai
  7
KR-SANS
 41
0.8
 72
1
 11
101.5
 21
269.956
 31
0.0
100
AcDbText
  0
TEXT
  5
BA
330
1B
100
AcDbEntity
 67
1
  8
A-ANNO-SCHD
420
2051386
100
AcDbText
 10
108.0
 20
269.956
 30
0.0
 40
1.6298333333333328
  1
Kategori
  7
KR-SANS
 41
0.8
 11
108.0
 21
269.956
 31
0.0
100
AcDbText
  0
TEXT
  5
BB
330
1B
100
AcDbEntity
 67
1
  8
A-ANNO-SCHD
420
2051386
100
AcDbText
 10
127.0
 20
269.956
 30
0.0
 40
1.6298333333333328
  1
Akses
  7
KR-SANS
 41
0.8
 11
127.0
 21
269.956
 31
0.0
100
AcDbText
  0
TEXT
  5
BC
330
1B
100
AcDbEntity
 67
1
  8
A-ANNO-SCHD
420
2051386
100
AcDbText
 10
159.0
 20
269.956
 30
0.0
 40
1.6298333333333328
  1
Luas m²
  7
KR-SANS
 41
0.8
 72
2
 11
159.0
 21
269.956
 31
0.0
100
AcDbText
  0
TEXT
  5
BD
330
1B
100
AcDbEntity
 67
1
  8
A-ANNO-SCHD
420
2051386
100
AcDbText
 10
170.0
 20
269.956
 30
0.0
 40
1.6298333333333328
  1
Kursi
  7
KR-SANS
 41
0.8
 72
2
 11
170.0
 21
269.956
 31
0.0
100
AcDbText
  0
TEXT
  5
BE
330
1B
100
AcDbEntity
 67
1
  8
A-ANNO-SCHD
420
2051386
100
AcDbText
 10
172.0
 20
269.956
 30
0.0
 40
1.6298333333333328
  1
Pintu
  7
KR-SANS
 41
0.8
 11
172.0
 21
269.956
 31
0.0
100
AcDbText
  0
TEXT
  5
BF
330
1B
100
AcDbEntity
 67
1
  8
A-ANNO-SCHD
420
2051386
100
AcDbText
 10
248.0
 20
269.956
 30
0.0
 40
1.6298333333333328
  1
Finish lantai
  7
KR-SANS
 41
0.8
 11
248.0
 21
269.956
 31
0.0
100
AcDbText
  0
TEXT
  5
C0
330
1B
100
AcDbEntity
 67
1
  8
A-ANNO-SCHD
420
2051386
100
AcDbText
 10
290.0
 20
269.956
 30
0.0
 40
1.6298333333333328
  1
Finish dinding
  7
KR-SANS
 41
0.8
 11
290.0
 21
269.956
 31
0.0
100
AcDbText
  0
TEXT
  5
C1
330
1B
100
AcDbEntity
 67
1
  8
A-ANNO-SCHD
420
2051386
100
AcDbText
 10
330.0
 20
269.956
 30
0.0
 40
1.6298333333333328
  1
Finish plafon
  7
KR-SANS
 41
0.8
 11
330.0
 21
269.956
 31
0.0
100
AcDbText
  0
TEXT
  5
C2
330
1B
100
AcDbEntity
 67
1
  8
A-ANNO-SCHD
420
2051386
100
AcDbText
 10
25.0
 20
266.562
 30
0.0
 40
1.6298333333333328
  1
L1-MEET
  7
KR-SANS
 41
0.8
 11
25.0
 21
266.562
 31
0.0
100
AcDbText
1001
KANTOR_RPG
1000
room
1000
L1-MEET
  0
TEXT
  5
C3
330
1B
100
AcDbEntity
 67
1
  8
A-ANNO-SCHD
420
2240554
100
AcDbText
 10
47.0
 20
266.562
 30
0.0
 40
1.6298333333333328
  1
Ruang rapat besar
  7
KR-SANS
 41
0.8
 11
47.0
 21
266.562
 31
0.0
100
AcDbText
  0
TEXT
  5
C4
330
1B
100
AcDbEntity
 67
1
  8
A-ANNO-SCHD
420
2240554
100
AcDbText
 10
101.5
 20
266.562
 30
0.0
 40
1.6298333333333328
  1
L1
  7
KR-SANS
 41
0.8
 72
1
 11
101.5
 21
266.562
 31
0.0
100
AcDbText
  0
TEXT
  5
C5
330
1B
100
AcDbEntity
 67
1
  8
A-ANNO-SCHD
420
2240554
100
AcDbText
 10
108.0
 20
266.562
 30
0.0
 40
1.6298333333333328
  1
work
  7
KR-SANS
 41
0.8
 11
108.0
 21
266.562
 31
0.0
100
AcDbText
  0
TEXT
  5
C6
330
1B
100
AcDbEntity
 67
1
  8
A-ANNO-SCHD
420
2240554
100
AcDbText
 10
127.0
 20
266.562
 30
0.0
 40
1.6298333333333328
  1
public
  7
KR-SANS
 41
0.8
 11
127.0
 21
266.562
 31
0.0
100
AcDbText
  0
TEXT
  5
C7
330
1B
100
AcDbEntity
 67
1
  8
A-ANNO-SCHD
420
2240554
100
AcDbText
 10
159.0
 20
266.562
 30
0.0
 40
1.6298333333333328
  1
64,00
  7
KR-SANS
 41
0.8
 72
2
 11
159.0
 21
266.562
 31
0.0
100
AcDbText
  0
TEXT
  5
C8
330
1B
100
AcDbEntity
 67
1
  8
A-ANNO-SCHD
420
2240554
100
AcDbText
 10
170.0
 20
266.562
 30
0.0
 40
1.6298333333333328
  1
10
  7
KR-SANS
 41
0.8
 72
2
 11
170.0
 21
266.562
 31
0.0
100
AcDbText
  0
TEXT
  5
C9
330
1B
100
AcDbEntity
 67
1
  8
A-ANNO-SCHD
420
2240554
100
AcDbText
 10
172.0
 20
266.562
 30
0.0
 40
1.6298333333333328
  1
D-L1-02, D-L1-03
  7
KR-SANS
 41
0.8
 11
172.0
 21
266.562
 31
0.0
100
AcDbText
  0
TEXT
  5
CA
330
1B
100
AcDbEntity
 67
1
  8
A-ANNO-SCHD
420
2240554
100
AcDbText
 10
248.0
 20
266.562
 30
0.0
 40
1.6298333333333328
  1
karpet tile matte
  7
KR-SANS
 41
0.8
 11
248.0
 21
266.562
 31
0.0
100
AcDbText
  0
TEXT
  5
CB
330
1B
100
AcDbEntity
 67
1
  8
A-ANNO-SCHD
420
2240554
100
AcDbText
 10
290.0
 20
266.562
 30
0.0
 40
1.6298333333333328
  1
cat matte krem
  7
KR-SANS
 41
0.8
 11
290.0
 21
266.562
 31
0.0
100
AcDbText
  0
TEXT
  5
CC
330
1B
100
AcDbEntity
 67
1
  8
A-ANNO-SCHD
420
2240554
100
AcDbText
 10
330.0
 20
266.562
 30
0.0
 40
1.6298333333333328
  1
akustik panel
  7
KR-SANS
 41
0.8
 11
330.0
 21
266.562
 31
0.0
100
AcDbText
  0
LWPOLYLINE
  5
CD
330
1B
100
AcDbEntity
 67
1
  8
A-ANNO-SCHD
420
13227727
100
AcDbPolyline
 90
2
 70
0
 10
24.0
 20
265.012
 10
369.0
 20
265.012
  0
HATCH
  5
CE
330
1B
100
AcDbEntity
 67
1
  8
A-ANNO-SCHD
 62
7
420
15857138
100
AcDbHatch
 10
0.0
 20
0.0
 30
0.0
210
0.0
220
0.0
230
1.0
  2
SOLID
 70
1
 71
0
 91
1
 92
3
 72
0
 73
1
 93
4
 10
24.0
 20
260.818
 10
369.0
 20
260.818
 10
369.0
 20
265.012
 10
24.0
 20
265.012
 97
0
 75
1
 76
1
 98
0
  0
TEXT
  5
CF
330
1B
100
AcDbEntity
 67
1
  8
A-ANNO-SCHD
420
2051386
100
AcDbText
 10
25.0
 20
262.368
 30
0.0
 40
1.6298333333333328
  1
L1-LOBBY
  7
KR-SANS
 41
0.8
 11
25.0
 21
262.368
 31
0.0
100
AcDbText
1001
KANTOR_RPG
1000
room
1000
L1-LOBBY
  0
TEXT
  5
D0
330
1B
100
AcDbEntity
 67
1
  8
A-ANNO-SCHD
420
2240554
100
AcDbText
 10
47.0
 20
262.368
 30
0.0
 40
1.6298333333333328
  1
Lobby & resepsi
  7
KR-SANS
 41
0.8
 11
47.0
 21
262.368
 31
0.0
100
AcDbText
  0
TEXT
  5
D1
330
1B
100
AcDbEntity
 67
1
  8
A-ANNO-SCHD
420
2240554
100
AcDbText
 10
101.5
 20
262.368
 30
0.0
 40
1.6298333333333328
  1
L1
  7
KR-SANS
 41
0.8
 72
1
 11
101.5
 21
262.368
 31
0.0
100
AcDbText
  0
TEXT
  5
D2
330
1B
100
AcDbEntity
 67
1
  8
A-ANNO-SCHD
420
2240554
100
AcDbText
 10
108.0
 20
262.368
 30
0.0
 40
1.6298333333333328
  1
public
  7
KR-SANS
 41
0.8
 11
108.0
 21
262.368
 31
0.0
100
AcDbText
  0
TEXT
  5
D3
330
1B
100
AcDbEntity
 67
1
  8
A-ANNO-SCHD
420
2240554
100
AcDbText
 10
127.0
 20
262.368
 30
0.0
 40
1.6298333333333328
  1
public
  7
KR-SANS
 41
0.8
 11
127.0
 21
262.368
 31
0.0
100
AcDbText
  0
TEXT
  5
D4
330
1B
100
AcDbEntity
 67
1
  8
A-ANNO-SCHD
420
2240554
100
AcDbText
 10
159.0
 20
262.368
 30
0.0
 40
1.6298333333333328
  1
96,00
  7
KR-SANS
 41
0.8
 72
2
 11
159.0
 21
262.368
 31
0.0
100
AcDbText
  0
TEXT
  5
D5
330
1B
100
AcDbEntity
 67
1
  8
A-ANNO-SCHD
420
2240554
100
AcDbText
 10
170.0
 20
262.368
 30
0.0
 40
1.6298333333333328
  1
5
  7
KR-SANS
 41
0.8
 72
2
 11
170.0
 21
262.368
 31
0.0
100
AcDbText
  0
TEXT
  5
D6
330
1B
100
AcDbEntity
 67
1
  8
A-ANNO-SCHD
420
2240554
100
AcDbText
 10
172.0
 20
262.368
 30
0.0
 40
1.6298333333333328
  1
D-L1-ENT, D-L1-01, D-L1-02, D-L1-04
  7
KR-SANS
 41
0.8
 11
172.0
 21
262.368
 31
0.0
100
AcDbText
  0
TEXT
  5
D7
330
1B
100
AcDbEntity
 67
1
  8
A-ANNO-SCHD
420
2240554
100
AcDbText
 10
248.0
 20
262.368
 30
0.0
 40
1.6298333333333328
  1
vinyl motif kayu
  7
KR-SANS
 41
0.8
 11
248.0
 21
262.368
 31
0.0
100
AcDbText
  0
TEXT
  5
D8
330
1B
100
AcDbEntity
 67
1
  8
A-ANNO-SCHD
420
2240554
100
AcDbText
 10
290.0
 20
262.368
 30
0.0
 40
1.6298333333333328
  1
cat matte krem + panel kayu
  7
KR-SANS
 41
0.8
 11
290.0
 21
262.368
 31
0.0
100
AcDbText
  0
TEXT
  5
D9
330
1B
100
AcDbEntity
 67
1
  8
A-ANNO-SCHD
420
2240554
100
AcDbText
 10
330.0
 20
262.368
 30
0.0
 40
1.6298333333333328
  1
gypsum
  7
KR-SANS
 41
0.8
 11
330.0
 21
262.368
 31
0.0
100
AcDbText
  0
LWPOLYLINE
  5
DA
330
1B
100
AcDbEntity
 67
1
  8
A-ANNO-SCHD
420
13227727
100
AcDbPolyline
 90
2
 70
0
 10
24.0
 20
260.818
 10
369.0
 20
260.818
  0
TEXT
  5
DB
330
1B
100
AcDbEntity
 67
1
  8
A-ANNO-SCHD
420
2051386
100
AcDbText
 10
25.0
 20
258.174
 30
0.0
 40
1.6298333333333328
  1
L1-GALLERY
  7
KR-SANS
 41
0.8
 11
25.0
 21
258.174
 31
0.0
100
AcDbText
1001
KANTOR_RPG
1000
room
1000
L1-GALLERY
  0
TEXT
  5
DC
330
1B
100
AcDbEntity
 67
1
  8
A-ANNO-SCHD
420
2240554
100
AcDbText
 10
47.0
 20
258.174
 30
0.0
 40
1.6298333333333328
  1
Galeri portofolio
  7
KR-SANS
 41
0.8
 11
47.0
 21
258.174
 31
0.0
100
AcDbText
  0
TEXT
  5
DD
330
1B
100
AcDbEntity
 67
1
  8
A-ANNO-SCHD
420
2240554
100
AcDbText
 10
101.5
 20
258.174
 30
0.0
 40
1.6298333333333328
  1
L1
  7
KR-SANS
 41
0.8
 72
1
 11
101.5
 21
258.174
 31
0.0
100
AcDbText
  0
TEXT
  5
DE
330
1B
100
AcDbEntity
 67
1
  8
A-ANNO-SCHD
420
2240554
100
AcDbText
 10
108.0
 20
258.174
 30
0.0
 40
1.6298333333333328
  1
public
  7
KR-SANS
 41
0.8
 11
108.0
 21
258.174
 31
0.0
100
AcDbText
  0
TEXT
  5
DF
330
1B
100
AcDbEntity
 67
1
  8
A-ANNO-SCHD
420
2240554
100
AcDbText
 10
127.0
 20
258.174
 30
0.0
 40
1.6298333333333328
  1
public
  7
KR-SANS
 41
0.8
 11
127.0
 21
258.174
 31
0.0
100
AcDbText
  0
TEXT
  5
E0
330
1B
100
AcDbEntity
 67
1
  8
A-ANNO-SCHD
420
2240554
100
AcDbText
 10
159.0
 20
258.174
 30
0.0
 40
1.6298333333333328
  1
48,00
  7
KR-SANS
 41
0.8
 72
2
 11
159.0
 21
258.174
 31
0.0
100
AcDbText
  0
TEXT
  5
E1
330
1B
100
AcDbEntity
 67
1
  8
A-ANNO-SCHD
420
2240554
100
AcDbText
 10
170.0
 20
258.174
 30
0.0
 40
1.6298333333333328
  1
2
  7
KR-SANS
 41
0.8
 72
2
 11
170.0
 21
258.174
 31
0.0
100
AcDbText
  0
TEXT
  5
E2
330
1B
100
AcDbEntity
 67
1
  8
A-ANNO-SCHD
420
2240554
100
AcDbText
 10
172.0
 20
258.174
 30
0.0
 40
1.6298333333333328
  1
D-L1-04, D-L1-05
  7
KR-SANS
 41
0.8
 11
172.0
 21
258.174
 31
0.0
100
AcDbText
  0
TEXT
  5
E3
330
1B
100
AcDbEntity
 67
1
  8
A-ANNO-SCHD
420
2240554
100
AcDbText
 10
248.0
 20
258.174
 30
0.0
 40
1.6298333333333328
  1
vinyl motif kayu
  7
KR-SANS
 41
0.8
 11
248.0
 21
258.174
 31
0.0
100
AcDbText
  0
TEXT
  5
E4
330
1B
100
AcDbEntity
 67
1
  8
A-ANNO-SCHD
420
2240554
100
AcDbText
 10
290.0
 20
258.174
 30
0.0
 40
1.6298333333333328
  1
cat matte krem + panel kayu
  7
KR-SANS
 41
0.8
 11
290.0
 21
258.174
 31
0.0
100
AcDbText
  0
TEXT
  5
E5
330
1B
100
AcDbEntity
 67
1
  8
A-ANNO-SCHD
420
2240554
100
AcDbText
 10
330.0
 20
258.174
 30
0.0
 40
1.6298333333333328
  1
gypsum
  7
KR-SANS
 41
0.8
 11
330.0
 21
258.174
 31
0.0
100
AcDbText
  0
LWPOLYLINE
  5
E6
330
1B
100
AcDbEntity
 67
1
  8
A-ANNO-SCHD
420
13227727
100
AcDbPolyline
 90
2
 70
0
 10
24.0
 20
256.62399999999997
 10
369.0
 20
256.62399999999997
  0
HATCH
  5
E7
330
1B
100
AcDbEntity
 67
1
  8
A-ANNO-SCHD
 62
7
420
15857138
100
AcDbHatch
 10
0.0
 20
0.0
 30
0.0
210
0.0
220
0.0
230
1.0
  2
SOLID
 70
1
 71
0
 91
1
 92
3
 72
0
 73
1
 93
4
 10
24.0
 20
252.42999999999998
 10
369.0
 20
252.42999999999998
 10
369.0
 20
256.62399999999997
 10
24.0
 20
256.62399999999997
 97
0
 75
1
 76
1
 98
0
  0
TEXT
  5
E8
330
1B
100
AcDbEntity
 67
1
  8
A-ANNO-SCHD
420
2051386
100
AcDbText
 10
25.0
 20
253.97999999999996
 30
0.0
 40
1.6298333333333328
  1
L1-PANTRY
  7
KR-SANS
 41
0.8
 11
25.0
 21
253.97999999999996
 31
0.0
100
AcDbText
1001
KANTOR_RPG
1000
room
1000
L1-PANTRY
  0
TEXT
  5
E9
330
1B
100
AcDbEntity
 67
1
  8
A-ANNO-SCHD
420
2240554
100
AcDbText
 10
47.0
 20
253.97999999999996
 30
0.0
 40
1.6298333333333328
  1
Pantry kerja
  7
KR-SANS
 41
0.8
 11
47.0
 21
253.97999999999996
 31
0.0
100
AcDbText
  0
TEXT
  5
EA
330
1B
100
AcDbEntity
 67
1
  8
A-ANNO-SCHD
420
2240554
100
AcDbText
 10
101.5
 20
253.97999999999996
 30
0.0
 40
1.6298333333333328
  1
L1
  7
KR-SANS
 41
0.8
 72
1
 11
101.5
 21
253.97999999999996
 31
0.0
100
AcDbText
  0
TEXT
  5
EB
330
1B
100
AcDbEntity
 67
1
  8
A-ANNO-SCHD
420
2240554
100
AcDbText
 10
108.0
 20
253.97999999999996
 30
0.0
 40
1.6298333333333328
  1
wet
  7
KR-SANS
 41
0.8
 11
108.0
 21
253.97999999999996
 31
0.0
100
AcDbText
  0
TEXT
  5
EC
330
1B
100
AcDbEntity
 67
1
  8
A-ANNO-SCHD
420
2240554
100
AcDbText
 10
127.0
 20
253.97999999999996
 30
0.0
 40
1.6298333333333328
  1
staff
  7
KR-SANS
 41
0.8
 11
127.0
 21
253.97999999999996
 31
0.0
100
AcDbText
  0
TEXT
  5
ED
330
1B
100
AcDbEntity
 67
1
  8
A-ANNO-SCHD
420
2240554
100
AcDbText
 10
159.0
 20
253.97999999999996
 30
0.0
 40
1.6298333333333328
  1
28,00
  7
KR-SANS
 41
0.8
 72
2
 11
159.0
 21
253.97999999999996
 31
0.0
100
AcDbText
  0
TEXT
  5
EE
330
1B
100
AcDbEntity
 67
1
  8
A-ANNO-SCHD
420
2240554
100
AcDbText
 10
170.0
 20
253.97999999999996
 30
0.0
 40
1.6298333333333328
  1
2
  7
KR-SANS
 41
0.8
 72
2
 11
170.0
 21
253.97999999999996
 31
0.0
100
AcDbText
  0
TEXT
  5
EF
330
1B
100
AcDbEntity
 67
1
  8
A-ANNO-SCHD
420
2240554
100
AcDbText
 10
172.0
 20
253.97999999999996
 30
0.0
 40
1.6298333333333328
  1
D-L1-06
  7
KR-SANS
 41
0.8
 11
172.0
 21
253.97999999999996
 31
0.0
100
AcDbText
  0
TEXT
  5
F0
330
1B
100
AcDbEntity
 67
1
  8
A-ANNO-SCHD
420
2240554
100
AcDbText
 10
248.0
 20
253.97999999999996
 30
0.0
 40
1.6298333333333328
  1
keramik anti-slip
  7
KR-SANS
 41
0.8
 11
248.0
 21
253.97999999999996
 31
0.0
100
AcDbText
  0
TEXT
  5
F1
330
1B
100
AcDbEntity
 67
1
  8
A-ANNO-SCHD
420
2240554
100
AcDbText
 10
290.0
 20
253.97999999999996
 30
0.0
 40
1.6298333333333328
  1
keramik dinding
  7
KR-SANS
 41
0.8
 11
290.0
 21
253.97999999999996
 31
0.0
100
AcDbText
  0
TEXT
  5
F2
330
1B
100
AcDbEntity
 67
1
  8
A-ANNO-SCHD
420
2240554
100
AcDbText
 10
330.0
 20
253.97999999999996
 30
0.0
 40
1.6298333333333328
  1
gypsum tahan lembab
  7
KR-SANS
 41
0.8
 11
330.0
 21
253.97999999999996
 31
0.0
100
AcDbText
  0
LWPOLYLINE
  5
F3
330
1B
100
AcDbEntity
 67
1
  8
A-ANNO-SCHD
420
13227727
100
AcDbPolyline
 90
2
 70
0
 10
24.0
 20
252.42999999999998
 10
369.0
 20
252.42999999999998
  0
TEXT
  5
F4
330
1B
100
AcDbEntity
 67
1
  8
A-ANNO-SCHD
420
2051386
100
AcDbText
 10
25.0
 20
249.78599999999997
 30
0.0
 40
1.6298333333333328
  1
L1-SHAFT-W
  7
KR-SANS
 41
0.8
 11
25.0
 21
249.78599999999997
 31
0.0
100
AcDbText
1001
KANTOR_RPG
1000
room
1000
L1-SHAFT-W
  0
TEXT
  5
F5
330
1B
100
AcDbEntity
 67
1
  8
A-ANNO-SCHD
420
2240554
100
AcDbText
 10
47.0
 20
249.78599999999997
 30
0.0
 40
1.6298333333333328
  1
Shaft basah
  7
KR-SANS
 41
0.8
 11
47.0
 21
249.78599999999997
 31
0.0
100
AcDbText
  0
TEXT
  5
F6
330
1B
100
AcDbEntity
 67
1
  8
A-ANNO-SCHD
420
2240554
100
AcDbText
 10
101.5
 20
249.78599999999997
 30
0.0
 40
1.6298333333333328
  1
L1
  7
KR-SANS
 41
0.8
 72
1
 11
101.5
 21
249.78599999999997
 31
0.0
100
AcDbText
  0
TEXT
  5
F7
330
1B
100
AcDbEntity
 67
1
  8
A-ANNO-SCHD
420
2240554
100
AcDbText
 10
108.0
 20
249.78599999999997
 30
0.0
 40
1.6298333333333328
  1
shaft
  7
KR-SANS
 41
0.8
 11
108.0
 21
249.78599999999997
 31
0.0
100
AcDbText
  0
TEXT
  5
F8
330
1B
100
AcDbEntity
 67
1
  8
A-ANNO-SCHD
420
2240554
100
AcDbText
 10
127.0
 20
249.78599999999997
 30
0.0
 40
1.6298333333333328
  1
restricted
  7
KR-SANS
 41
0.8
 11
127.0
 21
249.78599999999997
 31
0.0
100
AcDbText
  0
TEXT
  5
F9
330
1B
100
AcDbEntity
 67
1
  8
A-ANNO-SCHD
420
2240554
100
AcDbText
 10
159.0
 20
249.78599999999997
 30
0.0
 40
1.6298333333333328
  1
2,50
  7
KR-SANS
 41
0.8
 72
2
 11
159.0
 21
249.78599999999997
 31
0.0
100
AcDbText
  0
TEXT
  5
FA
330
1B
100
AcDbEntity
 67
1
  8
A-ANNO-SCHD
420
2240554
100
AcDbText
 10
170.0
 20
249.78599999999997
 30
0.0
 40
1.6298333333333328
  1
0
  7
KR-SANS
 41
0.8
 72
2
 11
170.0
 21
249.78599999999997
 31
0.0
100
AcDbText
  0
TEXT
  5
FB
330
1B
100
AcDbEntity
 67
1
  8
A-ANNO-SCHD
420
2240554
100
AcDbText
 10
172.0
 20
249.78599999999997
 30
0.0
 40
1.6298333333333328
  1
D-L1-08
  7
KR-SANS
 41
0.8
 11
172.0
 21
249.78599999999997
 31
0.0
100
AcDbText
  0
TEXT
  5
FC
330
1B
100
AcDbEntity
 67
1
  8
A-ANNO-SCHD
420
2240554
100
AcDbText
 10
248.0
 20
249.78599999999997
 30
0.0
 40
1.6298333333333328
  1
-
  7
KR-SANS
 41
0.8
 11
248.0
 21
249.78599999999997
 31
0.0
100
AcDbText
  0
TEXT
  5
FD
330
1B
100
AcDbEntity
 67
1
  8
A-ANNO-SCHD
420
2240554
100
AcDbText
 10
290.0
 20
249.78599999999997
 30
0.0
 40
1.6298333333333328
  1
-
  7
KR-SANS
 41
0.8
 11
290.0
 21
249.78599999999997
 31
0.0
100
AcDbText
  0
TEXT
  5
FE
330
1B
100
AcDbEntity
 67
1
  8
A-ANNO-SCHD
420
2240554
100
AcDbText
 10
330.0
 20
249.78599999999997
 30
0.0
 40
1.6298333333333328
  1
-
  7
KR-SANS
 41
0.8
 11
330.0
 21
249.78599999999997
 31
0.0
100
AcDbText
  0
LWPOLYLINE
  5
FF
330
1B
100
AcDbEntity
 67
1
  8
A-ANNO-SCHD
420
13227727
100
AcDbPolyline
 90
2
 70
0
 10
24.0
 20
248.236
 10
369.0
 20
248.236
  0
HATCH
  5
100
330
1B
100
AcDbEntity
 67
1
  8
A-ANNO-SCHD
 62
7
420
15857138
100
AcDbHatch
 10
0.0
 20
0.0
 30
0.0
210
0.0
220
0.0
230
1.0
  2
SOLID
 70
1
 71
0
 91
1
 92
3
 72
0
 73
1
 93
4
 10
24.0
 20
244.042
 10
369.0
 20
244.042
 10
369.0
 20
248.236
 10
24.0
 20
248.236
 97
0
 75
1
 76
1
 98
0
  0
TEXT
  5
101
330
1B
100
AcDbEntity
 67
1
  8
A-ANNO-SCHD
420
2051386
100
AcDbText
 10
25.0
 20
245.59199999999998
 30
0.0
 40
1.6298333333333328
  1
L1-WC
  7
KR-SANS
 41
0.8
 11
25.0
 21
245.59199999999998
 31
0.0
100
AcDbText
1001
KANTOR_RPG
1000
room
1000
L1-WC
  0
TEXT
  5
102
330
1B
100
AcDbEntity
 67
1
  8
A-ANNO-SCHD
420
2240554
100
AcDbText
 10
47.0
 20
245.59199999999998
 30
0.0
 40
1.6298333333333328
  1
Toilet aksesibel
  7
KR-SANS
 41
0.8
 11
47.0
 21
245.59199999999998
 31
0.0
100
AcDbText
  0
TEXT
  5
103
330
1B
100
AcDbEntity
 67
1
  8
A-ANNO-SCHD
420
2240554
100
AcDbText
 10
101.5
 20
245.59199999999998
 30
0.0
 40
1.6298333333333328
  1
L1
  7
KR-SANS
 41
0.8
 72
1
 11
101.5
 21
245.59199999999998
 31
0.0
100
AcDbText
  0
TEXT
  5
104
330
1B
100
AcDbEntity
 67
1
  8
A-ANNO-SCHD
420
2240554
100
AcDbText
 10
108.0
 20
245.59199999999998
 30
0.0
 40
1.6298333333333328
  1
wet
  7
KR-SANS
 41
0.8
 11
108.0
 21
245.59199999999998
 31
0.0
100
AcDbText
  0
TEXT
  5
105
330
1B
100
AcDbEntity
 67
1
  8
A-ANNO-SCHD
420
2240554
100
AcDbText
 10
127.0
 20
245.59199999999998
 30
0.0
 40
1.6298333333333328
  1
public
  7
KR-SANS
 41
0.8
 11
127.0
 21
245.59199999999998
 31
0.0
100
AcDbText
  0
TEXT
  5
106
330
1B
100
AcDbEntity
 67
1
  8
A-ANNO-SCHD
420
2240554
100
AcDbText
 10
159.0
 20
245.59199999999998
 30
0.0
 40
1.6298333333333328
  1
17,50
  7
KR-SANS
 41
0.8
 72
2
 11
159.0
 21
245.59199999999998
 31
0.0
100
AcDbText
  0
TEXT
  5
107
330
1B
100
AcDbEntity
 67
1
  8
A-ANNO-SCHD
420
2240554
100
AcDbText
 10
170.0
 20
245.59199999999998
 30
0.0
 40
1.6298333333333328
  1
0
  7
KR-SANS
 41
0.8
 72
2
 11
170.0
 21
245.59199999999998
 31
0.0
100
AcDbText
  0
TEXT
  5
108
330
1B
100
AcDbEntity
 67
1
  8
A-ANNO-SCHD
420
2240554
100
AcDbText
 10
172.0
 20
245.59199999999998
 30
0.0
 40
1.6298333333333328
  1
D-L1-07, D-L1-08
  7
KR-SANS
 41
0.8
 11
172.0
 21
245.59199999999998
 31
0.0
100
AcDbText
  0
TEXT
  5
109
330
1B
100
AcDbEntity
 67
1
  8
A-ANNO-SCHD
420
2240554
100
AcDbText
 10
248.0
 20
245.59199999999998
 30
0.0
 40
1.6298333333333328
  1
keramik anti-slip
  7
KR-SANS
 41
0.8
 11
248.0
 21
245.59199999999998
 31
0.0
100
AcDbText
  0
TEXT
  5
10A
330
1B
100
AcDbEntity
 67
1
  8
A-ANNO-SCHD
420
2240554
100
AcDbText
 10
290.0
 20
245.59199999999998
 30
0.0
 40
1.6298333333333328
  1
keramik dinding
  7
KR-SANS
 41
0.8
 11
290.0
 21
245.59199999999998
 31
0.0
100
AcDbText
  0
TEXT
  5
10B
330
1B
100
AcDbEntity
 67
1
  8
A-ANNO-SCHD
420
2240554
100
AcDbText
 10
330.0
 20
245.59199999999998
 30
0.0
 40
1.6298333333333328
  1
gypsum tahan lembab
  7
KR-SANS
 41
0.8
 11
330.0
 21
245.59199999999998
 31
0.0
100
AcDbText
  0
LWPOLYLINE
  5
10C
330
1B
100
AcDbEntity
 67
1
  8
A-ANNO-SCHD
420
13227727
100
AcDbPolyline
 90
2
 70
0
 10
24.0
 20
244.042
 10
369.0
 20
244.042
  0
TEXT
  5
10D
330
1B
100
AcDbEntity
 67
1
  8
A-ANNO-SCHD
420
2051386
100
AcDbText
 10
25.0
 20
241.398
 30
0.0
 40
1.6298333333333328
  1
L1-CORR
  7
KR-SANS
 41
0.8
 11
25.0
 21
241.398
 31
0.0
100
AcDbText
1001
KANTOR_RPG
1000
room
1000
L1-CORR
  0
TEXT
  5
10E
330
1B
100
AcDbEntity
 67
1
  8
A-ANNO-SCHD
420
2240554
100
AcDbText
 10
47.0
 20
241.398
 30
0.0
 40
1.6298333333333328
  1
Koridor utama L1
  7
KR-SANS
 41
0.8
 11
47.0
 21
241.398
 31
0.0
100
AcDbText
  0
TEXT
  5
10F
330
1B
100
AcDbEntity
 67
1
  8
A-ANNO-SCHD
420
2240554
100
AcDbText
 10
101.5
 20
241.398
 30
0.0
 40
1.6298333333333328
  1
L1
  7
KR-SANS
 41
0.8
 72
1
 11
101.5
 21
241.398
 31
0.0
100
AcDbText
  0
TEXT
  5
110
330
1B
100
AcDbEntity
 67
1
  8
A-ANNO-SCHD
420
2240554
100
AcDbText
 10
108.0
 20
241.398
 30
0.0
 40
1.6298333333333328
  1
circulation
  7
KR-SANS
 41
0.8
 11
108.0
 21
241.398
 31
0.0
100
AcDbText
  0
TEXT
  5
111
330
1B
100
AcDbEntity
 67
1
  8
A-ANNO-SCHD
420
2240554
100
AcDbText
 10
127.0
 20
241.398
 30
0.0
 40
1.6298333333333328
  1
public
  7
KR-SANS
 41
0.8
 11
127.0
 21
241.398
 31
0.0
100
AcDbText
  0
TEXT
  5
112
330
1B
100
AcDbEntity
 67
1
  8
A-ANNO-SCHD
420
2240554
100
AcDbText
 10
159.0
 20
241.398
 30
0.0
 40
1.6298333333333328
  1
80,00
  7
KR-SANS
 41
0.8
 72
2
 11
159.0
 21
241.398
 31
0.0
100
AcDbText
  0
TEXT
  5
113
330
1B
100
AcDbEntity
 67
1
  8
A-ANNO-SCHD
420
2240554
100
AcDbText
 10
170.0
 20
241.398
 30
0.0
 40
1.6298333333333328
  1
0
  7
KR-SANS
 41
0.8
 72
2
 11
170.0
 21
241.398
 31
0.0
100
AcDbText
  0
TEXT
  5
114
330
1B
100
AcDbEntity
 67
1
  8
A-ANNO-SCHD
420
2240554
100
AcDbText
 10
172.0
 20
241.398
 30
0.0
 40
1.6298333333333328
  1
D-L1-01, D-L1-03, D-L1-05, D-L1-06, D-L1-07, D-L1-EXW, D-L1-EXE, D-L1-09,
  7
KR-SANS
 41
0.8
 11
172.0
 21
241.398
 31
0.0
100
AcDbText
  0
TEXT
  5
115
330
1B
100
AcDbEntity
 67
1
  8
A-ANNO-SCHD
420
2240554
100
AcDbText
 10
172.0
 20
238.604
 30
0.0
 40
1.6298333333333328
  1
D-L1-10, D-L1-11, D-L1-12, D-L1-13
  7
KR-SANS
 41
0.8
 11
172.0
 21
238.604
 31
0.0
100
AcDbText
  0
TEXT
  5
116
330
1B
100
AcDbEntity
 67
1
  8
A-ANNO-SCHD
420
2240554
100
AcDbText
 10
248.0
 20
241.398
 30
0.0
 40
1.6298333333333328
  1
vinyl motif kayu
  7
KR-SANS
 41
0.8
 11
248.0
 21
241.398
 31
0.0
100
AcDbText
  0
TEXT
  5
117
330
1B
100
AcDbEntity
 67
1
  8
A-ANNO-SCHD
420
2240554
100
AcDbText
 10
290.0
 20
241.398
 30
0.0
 40
1.6298333333333328
  1
cat matte krem + panel kayu
  7
KR-SANS
 41
0.8
 11
290.0
 21
241.398
 31
0.0
100
AcDbText
  0
TEXT
  5
118
330
1B
100
AcDbEntity
 67
1
  8
A-ANNO-SCHD
420
2240554
100
AcDbText
 10
330.0
 20
241.398
 30
0.0
 40
1.6298333333333328
  1
gypsum
  7
KR-SANS
 41
0.8
 11
330.0
 21
241.398
 31
0.0
100
AcDbText
  0
LWPOLYLINE
  5
119
330
1B
100
AcDbEntity
 67
1
  8
A-ANNO-SCHD
420
13227727
100
AcDbPolyline
 90
2
 70
0
 10
24.0
 20
237.054
 10
369.0
 20
237.054
  0
HATCH
  5
11A
330
1B
100
AcDbEntity
 67
1
  8
A-ANNO-SCHD
 62
7
420
15857138
100
AcDbHatch
 10
0.0
 20
0.0
 30
0.0
210
0.0
220
0.0
230
1.0
  2
SOLID
 70
1
 71
0
 91
1
 92
3
 72
0
 73
1
 93
4
 10
24.0
 20
232.86
 10
369.0
 20
232.86
 10
369.0
 20
237.054
 10
24.0
 20
237.054
 97
0
 75
1
 76
1
 98
0
  0
TEXT
  5
11B
330
1B
100
AcDbEntity
 67
1
  8
A-ANNO-SCHD
420
2051386
100
AcDbText
 10
25.0
 20
234.41
 30
0.0
 40
1.6298333333333328
  1
L1-DISC
  7
KR-SANS
 41
0.8
 11
25.0
 21
234.41
 31
0.0
100
AcDbText
1001
KANTOR_RPG
1000
room
1000
L1-DISC
  0
TEXT
  5
11C
330
1B
100
AcDbEntity
 67
1
  8
A-ANNO-SCHD
420
2240554
100
AcDbText
 10
47.0
 20
234.41
 30
0.0
 40
1.6298333333333328
  1
Ruang diskusi
  7
KR-SANS
 41
0.8
 11
47.0
 21
234.41
 31
0.0
100
AcDbText
  0
TEXT
  5
11D
330
1B
100
AcDbEntity
 67
1
  8
A-ANNO-SCHD
420
2240554
100
AcDbText
 10
101.5
 20
234.41
 30
0.0
 40
1.6298333333333328
  1
L1
  7
KR-SANS
 41
0.8
 72
1
 11
101.5
 21
234.41
 31
0.0
100
AcDbText
  0
TEXT
  5
11E
330
1B
100
AcDbEntity
 67
1
  8
A-ANNO-SCHD
420
2240554
100
AcDbText
 10
108.0
 20
234.41
 30
0.0
 40
1.6298333333333328
  1
quiet
  7
KR-SANS
 41
0.8
 11
108.0
 21
234.41
 31
0.0
100
AcDbText
  0
TEXT
  5
11F
330
1B
100
AcDbEntity
 67
1
  8
A-ANNO-SCHD
420
2240554
100
AcDbText
 10
127.0
 20
234.41
 30
0.0
 40
1.6298333333333328
  1
staff
  7
KR-SANS
 41
0.8
 11
127.0
 21
234.41
 31
0.0
100
AcDbText
  0
TEXT
  5
120
330
1B
100
AcDbEntity
 67
1
  8
A-ANNO-SCHD
420
2240554
100
AcDbText
 10
159.0
 20
234.41
 30
0.0
 40
1.6298333333333328
  1
36,00
  7
KR-SANS
 41
0.8
 72
2
 11
159.0
 21
234.41
 31
0.0
100
AcDbText
  0
TEXT
  5
121
330
1B
100
AcDbEntity
 67
1
  8
A-ANNO-SCHD
420
2240554
100
AcDbText
 10
170.0
 20
234.41
 30
0.0
 40
1.6298333333333328
  1
4
  7
KR-SANS
 41
0.8
 72
2
 11
170.0
 21
234.41
 31
0.0
100
AcDbText
  0
TEXT
  5
122
330
1B
100
AcDbEntity
 67
1
  8
A-ANNO-SCHD
420
2240554
100
AcDbText
 10
172.0
 20
234.41
 30
0.0
 40
1.6298333333333328
  1
D-L1-09
  7
KR-SANS
 41
0.8
 11
172.0
 21
234.41
 31
0.0
100
AcDbText
  0
TEXT
  5
123
330
1B
100
AcDbEntity
 67
1
  8
A-ANNO-SCHD
420
2240554
100
AcDbText
 10
248.0
 20
234.41
 30
0.0
 40
1.6298333333333328
  1
karpet tile matte
  7
KR-SANS
 41
0.8
 11
248.0
 21
234.41
 31
0.0
100
AcDbText
  0
TEXT
  5
124
330
1B
100
AcDbEntity
 67
1
  8
A-ANNO-SCHD
420
2240554
100
AcDbText
 10
290.0
 20
234.41
 30
0.0
 40
1.6298333333333328
  1
cat matte krem
  7
KR-SANS
 41
0.8
 11
290.0
 21
234.41
 31
0.0
100
AcDbText
  0
TEXT
  5
125
330
1B
100
AcDbEntity
 67
1
  8
A-ANNO-SCHD
420
2240554
100
AcDbText
 10
330.0
 20
234.41
 30
0.0
 40
1.6298333333333328
  1
akustik panel
  7
KR-SANS
 41
0.8
 11
330.0
 21
234.41
 31
0.0
100
AcDbText
  0
LWPOLYLINE
  5
126
330
1B
100
AcDbEntity
 67
1
  8
A-ANNO-SCHD
420
13227727
100
AcDbPolyline
 90
2
 70
0
 10
24.0
 20
232.86
 10
369.0
 20
232.86
  0
TEXT
  5
127
330
1B
100
AcDbEntity
 67
1
  8
A-ANNO-SCHD
420
2051386
100
AcDbText
 10
25.0
 20
230.216
 30
0.0
 40
1.6298333333333328
  1
L1-IMPL
  7
KR-SANS
 41
0.8
 11
25.0
 21
230.216
 31
0.0
100
AcDbText
1001
KANTOR_RPG
1000
room
1000
L1-IMPL
  0
TEXT
  5
128
330
1B
100
AcDbEntity
 67
1
  8
A-ANNO-SCHD
420
2240554
100
AcDbText
 10
47.0
 20
230.216
 30
0.0
 40
1.6298333333333328
  1
Ruang implementasi & review
  7
KR-SANS
 41
0.8
 11
47.0
 21
230.216
 31
0.0
100
AcDbText
  0
TEXT
  5
129
330
1B
100
AcDbEntity
 67
1
  8
A-ANNO-SCHD
420
2240554
100
AcDbText
 10
101.5
 20
230.216
 30
0.0
 40
1.6298333333333328
  1
L1
  7
KR-SANS
 41
0.8
 72
1
 11
101.5
 21
230.216
 31
0.0
100
AcDbText
  0
TEXT
  5
12A
330
1B
100
AcDbEntity
 67
1
  8
A-ANNO-SCHD
420
2240554
100
AcDbText
 10
108.0
 20
230.216
 30
0.0
 40
1.6298333333333328
  1
work
  7
KR-SANS
 41
0.8
 11
108.0
 21
230.216
 31
0.0
100
AcDbText
  0
TEXT
  5
12B
330
1B
100
AcDbEntity
 67
1
  8
A-ANNO-SCHD
420
2240554
100
AcDbText
 10
127.0
 20
230.216
 30
0.0
 40
1.6298333333333328
  1
staff
  7
KR-SANS
 41
0.8
 11
127.0
 21
230.216
 31
0.0
100
AcDbText
  0
TEXT
  5
12C
330
1B
100
AcDbEntity
 67
1
  8
A-ANNO-SCHD
420
2240554
100
AcDbText
 10
159.0
 20
230.216
 30
0.0
 40
1.6298333333333328
  1
48,00
  7
KR-SANS
 41
0.8
 72
2
 11
159.0
 21
230.216
 31
0.0
100
AcDbText
  0
TEXT
  5
12D
330
1B
100
AcDbEntity
 67
1
  8
A-ANNO-SCHD
420
2240554
100
AcDbText
 10
170.0
 20
230.216
 30
0.0
 40
1.6298333333333328
  1
6
  7
KR-SANS
 41
0.8
 72
2
 11
170.0
 21
230.216
 31
0.0
100
AcDbText
  0
TEXT
  5
12E
330
1B
100
AcDbEntity
 67
1
  8
A-ANNO-SCHD
420
2240554
100
AcDbText
 10
172.0
 20
230.216
 30
0.0
 40
1.6298333333333328
  1
D-L1-10
  7
KR-SANS
 41
0.8
 11
172.0
 21
230.216
 31
0.0
100
AcDbText
  0
TEXT
  5
12F
330
1B
100
AcDbEntity
 67
1
  8
A-ANNO-SCHD
420
2240554
100
AcDbText
 10
248.0
 20
230.216
 30
0.0
 40
1.6298333333333328
  1
karpet tile matte
  7
KR-SANS
 41
0.8
 11
248.0
 21
230.216
 31
0.0
100
AcDbText
  0
TEXT
  5
130
330
1B
100
AcDbEntity
 67
1
  8
A-ANNO-SCHD
420
2240554
100
AcDbText
 10
290.0
 20
230.216
 30
0.0
 40
1.6298333333333328
  1
cat matte krem
  7
KR-SANS
 41
0.8
 11
290.0
 21
230.216
 31
0.0
100
AcDbText
  0
TEXT
  5
131
330
1B
100
AcDbEntity
 67
1
  8
A-ANNO-SCHD
420
2240554
100
AcDbText
 10
330.0
 20
230.216
 30
0.0
 40
1.6298333333333328
  1
akustik panel
  7
KR-SANS
 41
0.8
 11
330.0
 21
230.216
 31
0.0
100
AcDbText
  0
LWPOLYLINE
  5
132
330
1B
100
AcDbEntity
 67
1
  8
A-ANNO-SCHD
420
13227727
100
AcDbPolyline
 90
2
 70
0
 10
24.0
 20
228.66600000000003
 10
369.0
 20
228.66600000000003
  0
HATCH
  5
133
330
1B
100
AcDbEntity
 67
1
  8
A-ANNO-SCHD
 62
7
420
15857138
100
AcDbHatch
 10
0.0
 20
0.0
 30
0.0
210
0.0
220
0.0
230
1.0
  2
SOLID
 70
1
 71
0
 91
1
 92
3
 72
0
 73
1
 93
4
 10
24.0
 20
224.47200000000004
 10
369.0
 20
224.47200000000004
 10
369.0
 20
228.66600000000003
 10
24.0
 20
228.66600000000003
 97
0
 75
1
 76
1
 98
0
  0
TEXT
  5
134
330
1B
100
AcDbEntity
 67
1
  8
A-ANNO-SCHD
420
2051386
100
AcDbText
 10
25.0
 20
226.02200000000002
 30
0.0
 40
1.6298333333333328
  1
L1-CORE
  7
KR-SANS
 41
0.8
 11
25.0
 21
226.02200000000002
 31
0.0
100
AcDbText
1001
KANTOR_RPG
1000
room
1000
L1-CORE
  0
TEXT
  5
135
330
1B
100
AcDbEntity
 67
1
  8
A-ANNO-SCHD
420
2240554
100
AcDbText
 10
47.0
 20
226.02200000000002
 30
0.0
 40
1.6298333333333328
  1
Inti tangga & lift L1
  7
KR-SANS
 41
0.8
 11
47.0
 21
226.02200000000002
 31
0.0
100
AcDbText
  0
TEXT
  5
136
330
1B
100
AcDbEntity
 67
1
  8
A-ANNO-SCHD
420
2240554
100
AcDbText
 10
101.5
 20
226.02200000000002
 30
0.0
 40
1.6298333333333328
  1
L1
  7
KR-SANS
 41
0.8
 72
1
 11
101.5
 21
226.02200000000002
 31
0.0
100
AcDbText
  0
TEXT
  5
137
330
1B
100
AcDbEntity
 67
1
  8
A-ANNO-SCHD
420
2240554
100
AcDbText
 10
108.0
 20
226.02200000000002
 30
0.0
 40
1.6298333333333328
  1
circulation
  7
KR-SANS
 41
0.8
 11
108.0
 21
226.02200000000002
 31
0.0
100
AcDbText
  0
TEXT
  5
138
330
1B
100
AcDbEntity
 67
1
  8
A-ANNO-SCHD
420
2240554
100
AcDbText
 10
127.0
 20
226.02200000000002
 30
0.0
 40
1.6298333333333328
  1
public
  7
KR-SANS
 41
0.8
 11
127.0
 21
226.02200000000002
 31
0.0
100
AcDbText
  0
TEXT
  5
139
330
1B
100
AcDbEntity
 67
1
  8
A-ANNO-SCHD
420
2240554
100
AcDbText
 10
159.0
 20
226.02200000000002
 30
0.0
 40
1.6298333333333328
  1
36,00
  7
KR-SANS
 41
0.8
 72
2
 11
159.0
 21
226.02200000000002
 31
0.0
100
AcDbText
  0
TEXT
  5
13A
330
1B
100
AcDbEntity
 67
1
  8
A-ANNO-SCHD
420
2240554
100
AcDbText
 10
170.0
 20
226.02200000000002
 30
0.0
 40
1.6298333333333328
  1
0
  7
KR-SANS
 41
0.8
 72
2
 11
170.0
 21
226.02200000000002
 31
0.0
100
AcDbText
  0
TEXT
  5
13B
330
1B
100
AcDbEntity
 67
1
  8
A-ANNO-SCHD
420
2240554
100
AcDbText
 10
172.0
 20
226.02200000000002
 30
0.0
 40
1.6298333333333328
  1
D-L1-11, D-L1-14
  7
KR-SANS
 41
0.8
 11
172.0
 21
226.02200000000002
 31
0.0
100
AcDbText
  0
TEXT
  5
13C
330
1B
100
AcDbEntity
 67
1
  8
A-ANNO-SCHD
420
2240554
100
AcDbText
 10
248.0
 20
226.02200000000002
 30
0.0
 40
1.6298333333333328
  1
vinyl motif kayu
  7
KR-SANS
 41
0.8
 11
248.0
 21
226.02200000000002
 31
0.0
100
AcDbText
  0
TEXT
  5
13D
330
1B
100
AcDbEntity
 67
1
  8
A-ANNO-SCHD
420
2240554
100
AcDbText
 10
290.0
 20
226.02200000000002
 30
0.0
 40
1.6298333333333328
  1
cat matte krem + panel kayu
  7
KR-SANS
 41
0.8
 11
290.0
 21
226.02200000000002
 31
0.0
100
AcDbText
  0
TEXT
  5
13E
330
1B
100
AcDbEntity
 67
1
  8
A-ANNO-SCHD
420
2240554
100
AcDbText
 10
330.0
 20
226.02200000000002
 30
0.0
 40
1.6298333333333328
  1
gypsum
  7
KR-SANS
 41
0.8
 11
330.0
 21
226.02200000000002
 31
0.0
100
AcDbText
  0
LWPOLYLINE
  5
13F
330
1B
100
AcDbEntity
 67
1
  8
A-ANNO-SCHD
420
13227727
100
AcDbPolyline
 90
2
 70
0
 10
24.0
 20
224.47200000000004
 10
369.0
 20
224.47200000000004
  0
TEXT
  5
140
330
1B
100
AcDbEntity
 67
1
  8
A-ANNO-SCHD
420
2051386
100
AcDbText
 10
25.0
 20
221.82800000000003
 30
0.0
 40
1.6298333333333328
  1
L1-NOVA
  7
KR-SANS
 41
0.8
 11
25.0
 21
221.82800000000003
 31
0.0
100
AcDbText
1001
KANTOR_RPG
1000
room
1000
L1-NOVA
  0
TEXT
  5
141
330
1B
100
AcDbEntity
 67
1
  8
A-ANNO-SCHD
420
2240554
100
AcDbText
 10
47.0
 20
221.82800000000003
 30
0.0
 40
1.6298333333333328
  1
Area Nova (spesifikasi ICT)
  7
KR-SANS
 41
0.8
 11
47.0
 21
221.82800000000003
 31
0.0
100
AcDbText
  0
TEXT
  5
142
330
1B
100
AcDbEntity
 67
1
  8
A-ANNO-SCHD
420
2240554
100
AcDbText
 10
101.5
 20
221.82800000000003
 30
0.0
 40
1.6298333333333328
  1
L1
  7
KR-SANS
 41
0.8
 72
1
 11
101.5
 21
221.82800000000003
 31
0.0
100
AcDbText
  0
TEXT
  5
143
330
1B
100
AcDbEntity
 67
1
  8
A-ANNO-SCHD
420
2240554
100
AcDbText
 10
108.0
 20
221.82800000000003
 30
0.0
 40
1.6298333333333328
  1
work
  7
KR-SANS
 41
0.8
 11
108.0
 21
221.82800000000003
 31
0.0
100
AcDbText
  0
TEXT
  5
144
330
1B
100
AcDbEntity
 67
1
  8
A-ANNO-SCHD
420
2240554
100
AcDbText
 10
127.0
 20
221.82800000000003
 30
0.0
 40
1.6298333333333328
  1
staff
  7
KR-SANS
 41
0.8
 11
127.0
 21
221.82800000000003
 31
0.0
100
AcDbText
  0
TEXT
  5
145
330
1B
100
AcDbEntity
 67
1
  8
A-ANNO-SCHD
420
2240554
100
AcDbText
 10
159.0
 20
221.82800000000003
 30
0.0
 40
1.6298333333333328
  1
36,00
  7
KR-SANS
 41
0.8
 72
2
 11
159.0
 21
221.82800000000003
 31
0.0
100
AcDbText
  0
TEXT
  5
146
330
1B
100
AcDbEntity
 67
1
  8
A-ANNO-SCHD
420
2240554
100
AcDbText
 10
170.0
 20
221.82800000000003
 30
0.0
 40
1.6298333333333328
  1
2
  7
KR-SANS
 41
0.8
 72
2
 11
170.0
 21
221.82800000000003
 31
0.0
100
AcDbText
  0
TEXT
  5
147
330
1B
100
AcDbEntity
 67
1
  8
A-ANNO-SCHD
420
2240554
100
AcDbText
 10
172.0
 20
221.82800000000003
 30
0.0
 40
1.6298333333333328
  1
D-L1-12
  7
KR-SANS
 41
0.8
 11
172.0
 21
221.82800000000003
 31
0.0
100
AcDbText
  0
TEXT
  5
148
330
1B
100
AcDbEntity
 67
1
  8
A-ANNO-SCHD
420
2240554
100
AcDbText
 10
248.0
 20
221.82800000000003
 30
0.0
 40
1.6298333333333328
  1
karpet tile matte
  7
KR-SANS
 41
0.8
 11
248.0
 21
221.82800000000003
 31
0.0
100
AcDbText
  0
TEXT
  5
149
330
1B
100
AcDbEntity
 67
1
  8
A-ANNO-SCHD
420
2240554
100
AcDbText
 10
290.0
 20
221.82800000000003
 30
0.0
 40
1.6298333333333328
  1
cat matte krem
  7
KR-SANS
 41
0.8
 11
290.0
 21
221.82800000000003
 31
0.0
100
AcDbText
  0
TEXT
  5
14A
330
1B
100
AcDbEntity
 67
1
  8
A-ANNO-SCHD
420
2240554
100
AcDbText
 10
330.0
 20
221.82800000000003
 30
0.0
 40
1.6298333333333328
  1
akustik panel
  7
KR-SANS
 41
0.8
 11
330.0
 21
221.82800000000003
 31
0.0
100
AcDbText
  0
LWPOLYLINE
  5
14B
330
1B
100
AcDbEntity
 67
1
  8
A-ANNO-SCHD
420
13227727
100
AcDbPolyline
 90
2
 70
0
 10
24.0
 20
220.27800000000005
 10
369.0
 20
220.27800000000005
  0
HATCH
  5
14C
330
1B
100
AcDbEntity
 67
1
  8
A-ANNO-SCHD
 62
7
420
15857138
100
AcDbHatch
 10
0.0
 20
0.0
 30
0.0
210
0.0
220
0.0
230
1.0
  2
SOLID
 70
1
 71
0
 91
1
 92
3
 72
0
 73
1
 93
4
 10
24.0
 20
216.08400000000006
 10
369.0
 20
216.08400000000006
 10
369.0
 20
220.27800000000005
 10
24.0
 20
220.27800000000005
 97
0
 75
1
 76
1
 98
0
  0
TEXT
  5
14D
330
1B
100
AcDbEntity
 67
1
  8
A-ANNO-SCHD
420
2051386
100
AcDbText
 10
25.0
 20
217.63400000000004
 30
0.0
 40
1.6298333333333328
  1
L1-LAB
  7
KR-SANS
 41
0.8
 11
25.0
 21
217.63400000000004
 31
0.0
100
AcDbText
1001
KANTOR_RPG
1000
room
1000
L1-LAB
  0
TEXT
  5
14E
330
1B
100
AcDbEntity
 67
1
  8
A-ANNO-SCHD
420
2240554
100
AcDbText
 10
47.0
 20
217.63400000000004
 30
0.0
 40
1.6298333333333328
  1
Lab ICT
  7
KR-SANS
 41
0.8
 11
47.0
 21
217.63400000000004
 31
0.0
100
AcDbText
  0
TEXT
  5
14F
330
1B
100
AcDbEntity
 67
1
  8
A-ANNO-SCHD
420
2240554
100
AcDbText
 10
101.5
 20
217.63400000000004
 30
0.0
 40
1.6298333333333328
  1
L1
  7
KR-SANS
 41
0.8
 72
1
 11
101.5
 21
217.63400000000004
 31
0.0
100
AcDbText
  0
TEXT
  5
150
330
1B
100
AcDbEntity
 67
1
  8
A-ANNO-SCHD
420
2240554
100
AcDbText
 10
108.0
 20
217.63400000000004
 30
0.0
 40
1.6298333333333328
  1
work
  7
KR-SANS
 41
0.8
 11
108.0
 21
217.63400000000004
 31
0.0
100
AcDbText
  0
TEXT
  5
151
330
1B
100
AcDbEntity
 67
1
  8
A-ANNO-SCHD
420
2240554
100
AcDbText
 10
127.0
 20
217.63400000000004
 30
0.0
 40
1.6298333333333328
  1
staff
  7
KR-SANS
 41
0.8
 11
127.0
 21
217.63400000000004
 31
0.0
100
AcDbText
  0
TEXT
  5
152
330
1B
100
AcDbEntity
 67
1
  8
A-ANNO-SCHD
420
2240554
100
AcDbText
 10
159.0
 20
217.63400000000004
 30
0.0
 40
1.6298333333333328
  1
36,00
  7
KR-SANS
 41
0.8
 72
2
 11
159.0
 21
217.63400000000004
 31
0.0
100
AcDbText
  0
TEXT
  5
153
330
1B
100
AcDbEntity
 67
1
  8
A-ANNO-SCHD
420
2240554
100
AcDbText
 10
170.0
 20
217.63400000000004
 30
0.0
 40
1.6298333333333328
  1
1
  7
KR-SANS
 41
0.8
 72
2
 11
170.0
 21
217.63400000000004
 31
0.0
100
AcDbText
  0
TEXT
  5
154
330
1B
100
AcDbEntity
 67
1
  8
A-ANNO-SCHD
420
2240554
100
AcDbText
 10
172.0
 20
217.63400000000004
 30
0.0
 40
1.6298333333333328
  1
D-L1-13, D-L1-22
  7
KR-SANS
 41
0.8
 11
172.0
 21
217.63400000000004
 31
0.0
100
AcDbText
  0
TEXT
  5
155
330
1B
100
AcDbEntity
 67
1
  8
A-ANNO-SCHD
420
2240554
100
AcDbText
 10
248.0
 20
217.63400000000004
 30
0.0
 40
1.6298333333333328
  1
vinyl anti-statik (target)
  7
KR-SANS
 41
0.8
 11
248.0
 21
217.63400000000004
 31
0.0
100
AcDbText
  0
TEXT
  5
156
330
1B
100
AcDbEntity
 67
1
  8
A-ANNO-SCHD
420
2240554
100
AcDbText
 10
290.0
 20
217.63400000000004
 30
0.0
 40
1.6298333333333328
  1
cat matte
  7
KR-SANS
 41
0.8
 11
290.0
 21
217.63400000000004
 31
0.0
100
AcDbText
  0
TEXT
  5
157
330
1B
100
AcDbEntity
 67
1
  8
A-ANNO-SCHD
420
2240554
100
AcDbText
 10
330.0
 20
217.63400000000004
 30
0.0
 40
1.6298333333333328
  1
gypsum + akses tray
  7
KR-SANS
 41
0.8
 11
330.0
 21
217.63400000000004
 31
0.0
100
AcDbText
  0
LWPOLYLINE
  5
158
330
1B
100
AcDbEntity
 67
1
  8
A-ANNO-SCHD
420
13227727
100
AcDbPolyline
 90
2
 70
0
 10
24.0
 20
216.08400000000006
 10
369.0
 20
216.08400000000006
  0
TEXT
  5
159
330
1B
100
AcDbEntity
 67
1
  8
A-ANNO-SCHD
420
2051386
100
AcDbText
 10
25.0
 20
213.44000000000005
 30
0.0
 40
1.6298333333333328
  1
L1-NCORR
  7
KR-SANS
 41
0.8
 11
25.0
 21
213.44000000000005
 31
0.0
100
AcDbText
1001
KANTOR_RPG
1000
room
1000
L1-NCORR
  0
TEXT
  5
15A
330
1B
100
AcDbEntity
 67
1
  8
A-ANNO-SCHD
420
2240554
100
AcDbText
 10
47.0
 20
213.44000000000005
 30
0.0
 40
1.6298333333333328
  1
Koridor utara L1
  7
KR-SANS
 41
0.8
 11
47.0
 21
213.44000000000005
 31
0.0
100
AcDbText
  0
TEXT
  5
15B
330
1B
100
AcDbEntity
 67
1
  8
A-ANNO-SCHD
420
2240554
100
AcDbText
 10
101.5
 20
213.44000000000005
 30
0.0
 40
1.6298333333333328
  1
L1
  7
KR-SANS
 41
0.8
 72
1
 11
101.5
 21
213.44000000000005
 31
0.0
100
AcDbText
  0
TEXT
  5
15C
330
1B
100
AcDbEntity
 67
1
  8
A-ANNO-SCHD
420
2240554
100
AcDbText
 10
108.0
 20
213.44000000000005
 30
0.0
 40
1.6298333333333328
  1
circulation
  7
KR-SANS
 41
0.8
 11
108.0
 21
213.44000000000005
 31
0.0
100
AcDbText
  0
TEXT
  5
15D
330
1B
100
AcDbEntity
 67
1
  8
A-ANNO-SCHD
420
2240554
100
AcDbText
 10
127.0
 20
213.44000000000005
 30
0.0
 40
1.6298333333333328
  1
staff
  7
KR-SANS
 41
0.8
 11
127.0
 21
213.44000000000005
 31
0.0
100
AcDbText
  0
TEXT
  5
15E
330
1B
100
AcDbEntity
 67
1
  8
A-ANNO-SCHD
420
2240554
100
AcDbText
 10
159.0
 20
213.44000000000005
 30
0.0
 40
1.6298333333333328
  1
64,00
  7
KR-SANS
 41
0.8
 72
2
 11
159.0
 21
213.44000000000005
 31
0.0
100
AcDbText
  0
TEXT
  5
15F
330
1B
100
AcDbEntity
 67
1
  8
A-ANNO-SCHD
420
2240554
100
AcDbText
 10
170.0
 20
213.44000000000005
 30
0.0
 40
1.6298333333333328
  1
0
  7
KR-SANS
 41
0.8
 72
2
 11
170.0
 21
213.44000000000005
 31
0.0
100
AcDbText
  0
TEXT
  5
160
330
1B
100
AcDbEntity
 67
1
  8
A-ANNO-SCHD
420
2240554
100
AcDbText
 10
172.0
 20
213.44000000000005
 30
0.0
 40
1.6298333333333328
  1
D-L1-14, D-L1-22, D-L1-EXN, D-L1-15, D-L1-16, D-L1-17, D-L1-18, D-L1-20, D-L1-21
  7
KR-SANS
 41
0.8
 11
172.0
 21
213.44000000000005
 31
0.0
100
AcDbText
  0
TEXT
  5
161
330
1B
100
AcDbEntity
 67
1
  8
A-ANNO-SCHD
420
2240554
100
AcDbText
 10
248.0
 20
213.44000000000005
 30
0.0
 40
1.6298333333333328
  1
vinyl motif kayu
  7
KR-SANS
 41
0.8
 11
248.0
 21
213.44000000000005
 31
0.0
100
AcDbText
  0
TEXT
  5
162
330
1B
100
AcDbEntity
 67
1
  8
A-ANNO-SCHD
420
2240554
100
AcDbText
 10
290.0
 20
213.44000000000005
 30
0.0
 40
1.6298333333333328
  1
cat matte krem + panel kayu
  7
KR-SANS
 41
0.8
 11
290.0
 21
213.44000000000005
 31
0.0
100
AcDbText
  0
TEXT
  5
163
330
1B
100
AcDbEntity
 67
1
  8
A-ANNO-SCHD
420
2240554
100
AcDbText
 10
330.0
 20
213.44000000000005
 30
0.0
 40
1.6298333333333328
  1
gypsum
  7
KR-SANS
 41
0.8
 11
330.0
 21
213.44000000000005
 31
0.0
100
AcDbText
  0
LWPOLYLINE
  5
164
330
1B
100
AcDbEntity
 67
1
  8
A-ANNO-SCHD
420
13227727
100
AcDbPolyline
 90
2
 70
0
 10
24.0
 20
211.89000000000007
 10
369.0
 20
211.89000000000007
  0
HATCH
  5
165
330
1B
100
AcDbEntity
 67
1
  8
A-ANNO-SCHD
 62
7
420
15857138
100
AcDbHatch
 10
0.0
 20
0.0
 30
0.0
210
0.0
220
0.0
230
1.0
  2
SOLID
 70
1
 71
0
 91
1
 92
3
 72
0
 73
1
 93
4
 10
24.0
 20
207.69600000000008
 10
369.0
 20
207.69600000000008
 10
369.0
 20
211.89000000000007
 10
24.0
 20
211.89000000000007
 97
0
 75
1
 76
1
 98
0
  0
TEXT
  5
166
330
1B
100
AcDbEntity
 67
1
  8
A-ANNO-SCHD
420
2051386
100
AcDbText
 10
25.0
 20
209.24600000000007
 30
0.0
 40
1.6298333333333328
  1
L1-CEO
  7
KR-SANS
 41
0.8
 11
25.0
 21
209.24600000000007
 31
0.0
100
AcDbText
1001
KANTOR_RPG
1000
room
1000
L1-CEO
  0
TEXT
  5
167
330
1B
100
AcDbEntity
 67
1
  8
A-ANNO-SCHD
420
2240554
100
AcDbText
 10
47.0
 20
209.24600000000007
 30
0.0
 40
1.6298333333333328
  1
Ruang CEO
  7
KR-SANS
 41
0.8
 11
47.0
 21
209.24600000000007
 31
0.0
100
AcDbText
  0
TEXT
  5
168
330
1B
100
AcDbEntity
 67
1
  8
A-ANNO-SCHD
420
2240554
100
AcDbText
 10
101.5
 20
209.24600000000007
 30
0.0
 40
1.6298333333333328
  1
L1
  7
KR-SANS
 41
0.8
 72
1
 11
101.5
 21
209.24600000000007
 31
0.0
100
AcDbText
  0
TEXT
  5
169
330
1B
100
AcDbEntity
 67
1
  8
A-ANNO-SCHD
420
2240554
100
AcDbText
 10
108.0
 20
209.24600000000007
 30
0.0
 40
1.6298333333333328
  1
quiet
  7
KR-SANS
 41
0.8
 11
108.0
 21
209.24600000000007
 31
0.0
100
AcDbText
  0
TEXT
  5
16A
330
1B
100
AcDbEntity
 67
1
  8
A-ANNO-SCHD
420
2240554
100
AcDbText
 10
127.0
 20
209.24600000000007
 30
0.0
 40
1.6298333333333328
  1
staff
  7
KR-SANS
 41
0.8
 11
127.0
 21
209.24600000000007
 31
0.0
100
AcDbText
  0
TEXT
  5
16B
330
1B
100
AcDbEntity
 67
1
  8
A-ANNO-SCHD
420
2240554
100
AcDbText
 10
159.0
 20
209.24600000000007
 30
0.0
 40
1.6298333333333328
  1
38,50
  7
KR-SANS
 41
0.8
 72
2
 11
159.0
 21
209.24600000000007
 31
0.0
100
AcDbText
  0
TEXT
  5
16C
330
1B
100
AcDbEntity
 67
1
  8
A-ANNO-SCHD
420
2240554
100
AcDbText
 10
170.0
 20
209.24600000000007
 30
0.0
 40
1.6298333333333328
  1
5
  7
KR-SANS
 41
0.8
 72
2
 11
170.0
 21
209.24600000000007
 31
0.0
100
AcDbText
  0
TEXT
  5
16D
330
1B
100
AcDbEntity
 67
1
  8
A-ANNO-SCHD
420
2240554
100
AcDbText
 10
172.0
 20
209.24600000000007
 30
0.0
 40
1.6298333333333328
  1
D-L1-15
  7
KR-SANS
 41
0.8
 11
172.0
 21
209.24600000000007
 31
0.0
100
AcDbText
  0
TEXT
  5
16E
330
1B
100
AcDbEntity
 67
1
  8
A-ANNO-SCHD
420
2240554
100
AcDbText
 10
248.0
 20
209.24600000000007
 30
0.0
 40
1.6298333333333328
  1
karpet tile matte
  7
KR-SANS
 41
0.8
 11
248.0
 21
209.24600000000007
 31
0.0
100
AcDbText
  0
TEXT
  5
16F
330
1B
100
AcDbEntity
 67
1
  8
A-ANNO-SCHD
420
2240554
100
AcDbText
 10
290.0
 20
209.24600000000007
 30
0.0
 40
1.6298333333333328
  1
cat matte krem
  7
KR-SANS
 41
0.8
 11
290.0
 21
209.24600000000007
 31
0.0
100
AcDbText
  0
TEXT
  5
170
330
1B
100
AcDbEntity
 67
1
  8
A-ANNO-SCHD
420
2240554
100
AcDbText
 10
330.0
 20
209.24600000000007
 30
0.0
 40
1.6298333333333328
  1
akustik panel
  7
KR-SANS
 41
0.8
 11
330.0
 21
209.24600000000007
 31
0.0
100
AcDbText
  0
LWPOLYLINE
  5
171
330
1B
100
AcDbEntity
 67
1
  8
A-ANNO-SCHD
420
13227727
100
AcDbPolyline
 90
2
 70
0
 10
24.0
 20
207.69600000000008
 10
369.0
 20
207.69600000000008
  0
TEXT
  5
172
330
1B
100
AcDbEntity
 67
1
  8
A-ANNO-SCHD
420
2051386
100
AcDbText
 10
25.0
 20
205.05200000000008
 30
0.0
 40
1.6298333333333328
  1
L1-HUGO
  7
KR-SANS
 41
0.8
 11
25.0
 21
205.05200000000008
 31
0.0
100
AcDbText
1001
KANTOR_RPG
1000
room
1000
L1-HUGO
  0
TEXT
  5
173
330
1B
100
AcDbEntity
 67
1
  8
A-ANNO-SCHD
420
2240554
100
AcDbText
 10
47.0
 20
205.05200000000008
 30
0.0
 40
1.6298333333333328
  1
Studio Hugo
  7
KR-SANS
 41
0.8
 11
47.0
 21
205.05200000000008
 31
0.0
100
AcDbText
  0
TEXT
  5
174
330
1B
100
AcDbEntity
 67
1
  8
A-ANNO-SCHD
420
2240554
100
AcDbText
 10
101.5
 20
205.05200000000008
 30
0.0
 40
1.6298333333333328
  1
L1
  7
KR-SANS
 41
0.8
 72
1
 11
101.5
 21
205.05200000000008
 31
0.0
100
AcDbText
  0
TEXT
  5
175
330
1B
100
AcDbEntity
 67
1
  8
A-ANNO-SCHD
420
2240554
100
AcDbText
 10
108.0
 20
205.05200000000008
 30
0.0
 40
1.6298333333333328
  1
work
  7
KR-SANS
 41
0.8
 11
108.0
 21
205.05200000000008
 31
0.0
100
AcDbText
  0
TEXT
  5
176
330
1B
100
AcDbEntity
 67
1
  8
A-ANNO-SCHD
420
2240554
100
AcDbText
 10
127.0
 20
205.05200000000008
 30
0.0
 40
1.6298333333333328
  1
staff
  7
KR-SANS
 41
0.8
 11
127.0
 21
205.05200000000008
 31
0.0
100
AcDbText
  0
TEXT
  5
177
330
1B
100
AcDbEntity
 67
1
  8
A-ANNO-SCHD
420
2240554
100
AcDbText
 10
159.0
 20
205.05200000000008
 30
0.0
 40
1.6298333333333328
  1
38,50
  7
KR-SANS
 41
0.8
 72
2
 11
159.0
 21
205.05200000000008
 31
0.0
100
AcDbText
  0
TEXT
  5
178
330
1B
100
AcDbEntity
 67
1
  8
A-ANNO-SCHD
420
2240554
100
AcDbText
 10
170.0
 20
205.05200000000008
 30
0.0
 40
1.6298333333333328
  1
2
  7
KR-SANS
 41
0.8
 72
2
 11
170.0
 21
205.05200000000008
 31
0.0
100
AcDbText
  0
TEXT
  5
179
330
1B
100
AcDbEntity
 67
1
  8
A-ANNO-SCHD
420
2240554
100
AcDbText
 10
172.0
 20
205.05200000000008
 30
0.0
 40
1.6298333333333328
  1
D-L1-16
  7
KR-SANS
 41
0.8
 11
172.0
 21
205.05200000000008
 31
0.0
100
AcDbText
  0
TEXT
  5
17A
330
1B
100
AcDbEntity
 67
1
  8
A-ANNO-SCHD
420
2240554
100
AcDbText
 10
248.0
 20
205.05200000000008
 30
0.0
 40
1.6298333333333328
  1
vinyl motif kayu
  7
KR-SANS
 41
0.8
 11
248.0
 21
205.05200000000008
 31
0.0
100
AcDbText
  0
TEXT
  5
17B
330
1B
100
AcDbEntity
 67
1
  8
A-ANNO-SCHD
420
2240554
100
AcDbText
 10
290.0
 20
205.05200000000008
 30
0.0
 40
1.6298333333333328
  1
cat matte krem + panel kayu
  7
KR-SANS
 41
0.8
 11
290.0
 21
205.05200000000008
 31
0.0
100
AcDbText
  0
TEXT
  5
17C
330
1B
100
AcDbEntity
 67
1
  8
A-ANNO-SCHD
420
2240554
100
AcDbText
 10
330.0
 20
205.05200000000008
 30
0.0
 40
1.6298333333333328
  1
gypsum
  7
KR-SANS
 41
0.8
 11
330.0
 21
205.05200000000008
 31
0.0
100
AcDbText
  0
LWPOLYLINE
  5
17D
330
1B
100
AcDbEntity
 67
1
  8
A-ANNO-SCHD
420
13227727
100
AcDbPolyline
 90
2
 70
0
 10
24.0
 20
203.5020000000001
 10
369.0
 20
203.5020000000001
  0
HATCH
  5
17E
330
1B
100
AcDbEntity
 67
1
  8
A-ANNO-SCHD
 62
7
420
15857138
100
AcDbHatch
 10
0.0
 20
0.0
 30
0.0
210
0.0
220
0.0
230
1.0
  2
SOLID
 70
1
 71
0
 91
1
 92
3
 72
0
 73
1
 93
4
 10
24.0
 20
199.3080000000001
 10
369.0
 20
199.3080000000001
 10
369.0
 20
203.5020000000001
 10
24.0
 20
203.5020000000001
 97
0
 75
1
 76
1
 98
0
  0
TEXT
  5
17F
330
1B
100
AcDbEntity
 67
1
  8
A-ANNO-SCHD
420
2051386
100
AcDbText
 10
25.0
 20
200.8580000000001
 30
0.0
 40
1.6298333333333328
  1
L1-KEVIN
  7
KR-SANS
 41
0.8
 11
25.0
 21
200.8580000000001
 31
0.0
100
AcDbText
1001
KANTOR_RPG
1000
room
1000
L1-KEVIN
  0
TEXT
  5
180
330
1B
100
AcDbEntity
 67
1
  8
A-ANNO-SCHD
420
2240554
100
AcDbText
 10
47.0
 20
200.8580000000001
 30
0.0
 40
1.6298333333333328
  1
Studio Kevin
  7
KR-SANS
 41
0.8
 11
47.0
 21
200.8580000000001
 31
0.0
100
AcDbText
  0
TEXT
  5
181
330
1B
100
AcDbEntity
 67
1
  8
A-ANNO-SCHD
420
2240554
100
AcDbText
 10
101.5
 20
200.8580000000001
 30
0.0
 40
1.6298333333333328
  1
L1
  7
KR-SANS
 41
0.8
 72
1
 11
101.5
 21
200.8580000000001
 31
0.0
100
AcDbText
  0
TEXT
  5
182
330
1B
100
AcDbEntity
 67
1
  8
A-ANNO-SCHD
420
2240554
100
AcDbText
 10
108.0
 20
200.8580000000001
 30
0.0
 40
1.6298333333333328
  1
work
  7
KR-SANS
 41
0.8
 11
108.0
 21
200.8580000000001
 31
0.0
100
AcDbText
  0
TEXT
  5
183
330
1B
100
AcDbEntity
 67
1
  8
A-ANNO-SCHD
420
2240554
100
AcDbText
 10
127.0
 20
200.8580000000001
 30
0.0
 40
1.6298333333333328
  1
staff
  7
KR-SANS
 41
0.8
 11
127.0
 21
200.8580000000001
 31
0.0
100
AcDbText
  0
TEXT
  5
184
330
1B
100
AcDbEntity
 67
1
  8
A-ANNO-SCHD
420
2240554
100
AcDbText
 10
159.0
 20
200.8580000000001
 30
0.0
 40
1.6298333333333328
  1
33,00
  7
KR-SANS
 41
0.8
 72
2
 11
159.0
 21
200.8580000000001
 31
0.0
100
AcDbText
  0
TEXT
  5
185
330
1B
100
AcDbEntity
 67
1
  8
A-ANNO-SCHD
420
2240554
100
AcDbText
 10
170.0
 20
200.8580000000001
 30
0.0
 40
1.6298333333333328
  1
1
  7
KR-SANS
 41
0.8
 72
2
 11
170.0
 21
200.8580000000001
 31
0.0
100
AcDbText
  0
TEXT
  5
186
330
1B
100
AcDbEntity
 67
1
  8
A-ANNO-SCHD
420
2240554
100
AcDbText
 10
172.0
 20
200.8580000000001
 30
0.0
 40
1.6298333333333328
  1
D-L1-17
  7
KR-SANS
 41
0.8
 11
172.0
 21
200.8580000000001
 31
0.0
100
AcDbText
  0
TEXT
  5
187
330
1B
100
AcDbEntity
 67
1
  8
A-ANNO-SCHD
420
2240554
100
AcDbText
 10
248.0
 20
200.8580000000001
 30
0.0
 40
1.6298333333333328
  1
vinyl motif kayu
  7
KR-SANS
 41
0.8
 11
248.0
 21
200.8580000000001
 31
0.0
100
AcDbText
  0
TEXT
  5
188
330
1B
100
AcDbEntity
 67
1
  8
A-ANNO-SCHD
420
2240554
100
AcDbText
 10
290.0
 20
200.8580000000001
 30
0.0
 40
1.6298333333333328
  1
cat matte krem + panel kayu
  7
KR-SANS
 41
0.8
 11
290.0
 21
200.8580000000001
 31
0.0
100
AcDbText
  0
TEXT
  5
189
330
1B
100
AcDbEntity
 67
1
  8
A-ANNO-SCHD
420
2240554
100
AcDbText
 10
330.0
 20
200.8580000000001
 30
0.0
 40
1.6298333333333328
  1
gypsum
  7
KR-SANS
 41
0.8
 11
330.0
 21
200.8580000000001
 31
0.0
100
AcDbText
  0
LWPOLYLINE
  5
18A
330
1B
100
AcDbEntity
 67
1
  8
A-ANNO-SCHD
420
13227727
100
AcDbPolyline
 90
2
 70
0
 10
24.0
 20
199.3080000000001
 10
369.0
 20
199.3080000000001
  0
TEXT
  5
18B
330
1B
100
AcDbEntity
 67
1
  8
A-ANNO-SCHD
420
2051386
100
AcDbText
 10
25.0
 20
196.6640000000001
 30
0.0
 40
1.6298333333333328
  1
L1-BRUNO
  7
KR-SANS
 41
0.8
 11
25.0
 21
196.6640000000001
 31
0.0
100
AcDbText
1001
KANTOR_RPG
1000
room
1000
L1-BRUNO
  0
TEXT
  5
18C
330
1B
100
AcDbEntity
 67
1
  8
A-ANNO-SCHD
420
2240554
100
AcDbText
 10
47.0
 20
196.6640000000001
 30
0.0
 40
1.6298333333333328
  1
Area Bruno
  7
KR-SANS
 41
0.8
 11
47.0
 21
196.6640000000001
 31
0.0
100
AcDbText
  0
TEXT
  5
18D
330
1B
100
AcDbEntity
 67
1
  8
A-ANNO-SCHD
420
2240554
100
AcDbText
 10
101.5
 20
196.6640000000001
 30
0.0
 40
1.6298333333333328
  1
L1
  7
KR-SANS
 41
0.8
 72
1
 11
101.5
 21
196.6640000000001
 31
0.0
100
AcDbText
  0
TEXT
  5
18E
330
1B
100
AcDbEntity
 67
1
  8
A-ANNO-SCHD
420
2240554
100
AcDbText
 10
108.0
 20
196.6640000000001
 30
0.0
 40
1.6298333333333328
  1
work
  7
KR-SANS
 41
0.8
 11
108.0
 21
196.6640000000001
 31
0.0
100
AcDbText
  0
TEXT
  5
18F
330
1B
100
AcDbEntity
 67
1
  8
A-ANNO-SCHD
420
2240554
100
AcDbText
 10
127.0
 20
196.6640000000001
 30
0.0
 40
1.6298333333333328
  1
staff
  7
KR-SANS
 41
0.8
 11
127.0
 21
196.6640000000001
 31
0.0
100
AcDbText
  0
TEXT
  5
190
330
1B
100
AcDbEntity
 67
1
  8
A-ANNO-SCHD
420
2240554
100
AcDbText
 10
159.0
 20
196.6640000000001
 30
0.0
 40
1.6298333333333328
  1
27,50
  7
KR-SANS
 41
0.8
 72
2
 11
159.0
 21
196.6640000000001
 31
0.0
100
AcDbText
  0
TEXT
  5
191
330
1B
100
AcDbEntity
 67
1
  8
A-ANNO-SCHD
420
2240554
100
AcDbText
 10
170.0
 20
196.6640000000001
 30
0.0
 40
1.6298333333333328
  1
1
  7
KR-SANS
 41
0.8
 72
2
 11
170.0
 21
196.6640000000001
 31
0.0
100
AcDbText
  0
TEXT
  5
192
330
1B
100
AcDbEntity
 67
1
  8
A-ANNO-SCHD
420
2240554
100
AcDbText
 10
172.0
 20
196.6640000000001
 30
0.0
 40
1.6298333333333328
  1
D-L1-18, D-L1-19
  7
KR-SANS
 41
0.8
 11
172.0
 21
196.6640000000001
 31
0.0
100
AcDbText
  0
TEXT
  5
193
330
1B
100
AcDbEntity
 67
1
  8
A-ANNO-SCHD
420
2240554
100
AcDbText
 10
248.0
 20
196.6640000000001
 30
0.0
 40
1.6298333333333328
  1
vinyl anti-statik (target)
  7
KR-SANS
 41
0.8
 11
248.0
 21
196.6640000000001
 31
0.0
100
AcDbText
  0
TEXT
  5
194
330
1B
100
AcDbEntity
 67
1
  8
A-ANNO-SCHD
420
2240554
100
AcDbText
 10
290.0
 20
196.6640000000001
 30
0.0
 40
1.6298333333333328
  1
cat matte
  7
KR-SANS
 41
0.8
 11
290.0
 21
196.6640000000001
 31
0.0
100
AcDbText
  0
TEXT
  5
195
330
1B
100
AcDbEntity
 67
1
  8
A-ANNO-SCHD
420
2240554
100
AcDbText
 10
330.0
 20
196.6640000000001
 30
0.0
 40
1.6298333333333328
  1
gypsum + akses tray
  7
KR-SANS
 41
0.8
 11
330.0
 21
196.6640000000001
 31
0.0
100
AcDbText
  0
LWPOLYLINE
  5
196
330
1B
100
AcDbEntity
 67
1
  8
A-ANNO-SCHD
420
13227727
100
AcDbPolyline
 90
2
 70
0
 10
24.0
 20
195.11400000000012
 10
369.0
 20
195.11400000000012
  0
HATCH
  5
197
330
1B
100
AcDbEntity
 67
1
  8
A-ANNO-SCHD
 62
7
420
15857138
100
AcDbHatch
 10
0.0
 20
0.0
 30
0.0
210
0.0
220
0.0
230
1.0
  2
SOLID
 70
1
 71
0
 91
1
 92
3
 72
0
 73
1
 93
4
 10
24.0
 20
190.92000000000013
 10
369.0
 20
190.92000000000013
 10
369.0
 20
195.11400000000012
 10
24.0
 20
195.11400000000012
 97
0
 75
1
 76
1
 98
0
  0
TEXT
  5
198
330
1B
100
AcDbEntity
 67
1
  8
A-ANNO-SCHD
420
2051386
100
AcDbText
 10
25.0
 20
192.4700000000001
 30
0.0
 40
1.6298333333333328
  1
L1-SERVER
  7
KR-SANS
 41
0.8
 11
25.0
 21
192.4700000000001
 31
0.0
100
AcDbText
1001
KANTOR_RPG
1000
room
1000
L1-SERVER
  0
TEXT
  5
199
330
1B
100
AcDbEntity
 67
1
  8
A-ANNO-SCHD
420
2240554
100
AcDbText
 10
47.0
 20
192.4700000000001
 30
0.0
 40
1.6298333333333328
  1
Ruang server
  7
KR-SANS
 41
0.8
 11
47.0
 21
192.4700000000001
 31
0.0
100
AcDbText
  0
TEXT
  5
19A
330
1B
100
AcDbEntity
 67
1
  8
A-ANNO-SCHD
420
2240554
100
AcDbText
 10
101.5
 20
192.4700000000001
 30
0.0
 40
1.6298333333333328
  1
L1
  7
KR-SANS
 41
0.8
 72
1
 11
101.5
 21
192.4700000000001
 31
0.0
100
AcDbText
  0
TEXT
  5
19B
330
1B
100
AcDbEntity
 67
1
  8
A-ANNO-SCHD
420
2240554
100
AcDbText
 10
108.0
 20
192.4700000000001
 30
0.0
 40
1.6298333333333328
  1
restricted
  7
KR-SANS
 41
0.8
 11
108.0
 21
192.4700000000001
 31
0.0
100
AcDbText
  0
TEXT
  5
19C
330
1B
100
AcDbEntity
 67
1
  8
A-ANNO-SCHD
420
2240554
100
AcDbText
 10
127.0
 20
192.4700000000001
 30
0.0
 40
1.6298333333333328
  1
restricted
  7
KR-SANS
 41
0.8
 11
127.0
 21
192.4700000000001
 31
0.0
100
AcDbText
  0
TEXT
  5
19D
330
1B
100
AcDbEntity
 67
1
  8
A-ANNO-SCHD
420
2240554
100
AcDbText
 10
159.0
 20
192.4700000000001
 30
0.0
 40
1.6298333333333328
  1
22,00
  7
KR-SANS
 41
0.8
 72
2
 11
159.0
 21
192.4700000000001
 31
0.0
100
AcDbText
  0
TEXT
  5
19E
330
1B
100
AcDbEntity
 67
1
  8
A-ANNO-SCHD
420
2240554
100
AcDbText
 10
170.0
 20
192.4700000000001
 30
0.0
 40
1.6298333333333328
  1
0
  7
KR-SANS
 41
0.8
 72
2
 11
170.0
 21
192.4700000000001
 31
0.0
100
AcDbText
  0
TEXT
  5
19F
330
1B
100
AcDbEntity
 67
1
  8
A-ANNO-SCHD
420
2240554
100
AcDbText
 10
172.0
 20
192.4700000000001
 30
0.0
 40
1.6298333333333328
  1
D-L1-19
  7
KR-SANS
 41
0.8
 11
172.0
 21
192.4700000000001
 31
0.0
100
AcDbText
  0
TEXT
  5
1A0
330
1B
100
AcDbEntity
 67
1
  8
A-ANNO-SCHD
420
2240554
100
AcDbText
 10
248.0
 20
192.4700000000001
 30
0.0
 40
1.6298333333333328
  1
vinyl anti-statik (target)
  7
KR-SANS
 41
0.8
 11
248.0
 21
192.4700000000001
 31
0.0
100
AcDbText
  0
TEXT
  5
1A1
330
1B
100
AcDbEntity
 67
1
  8
A-ANNO-SCHD
420
2240554
100
AcDbText
 10
290.0
 20
192.4700000000001
 30
0.0
 40
1.6298333333333328
  1
cat matte
  7
KR-SANS
 41
0.8
 11
290.0
 21
192.4700000000001
 31
0.0
100
AcDbText
  0
TEXT
  5
1A2
330
1B
100
AcDbEntity
 67
1
  8
A-ANNO-SCHD
420
2240554
100
AcDbText
 10
330.0
 20
192.4700000000001
 30
0.0
 40
1.6298333333333328
  1
gypsum + akses tray
  7
KR-SANS
 41
0.8
 11
330.0
 21
192.4700000000001
 31
0.0
100
AcDbText
  0
LWPOLYLINE
  5
1A3
330
1B
100
AcDbEntity
 67
1
  8
A-ANNO-SCHD
420
13227727
100
AcDbPolyline
 90
2
 70
0
 10
24.0
 20
190.92000000000013
 10
369.0
 20
190.92000000000013
  0
TEXT
  5
1A4
330
1B
100
AcDbEntity
 67
1
  8
A-ANNO-SCHD
420
2051386
100
AcDbText
 10
25.0
 20
188.27600000000012
 30
0.0
 40
1.6298333333333328
  1
L1-RISER
  7
KR-SANS
 41
0.8
 11
25.0
 21
188.27600000000012
 31
0.0
100
AcDbText
1001
KANTOR_RPG
1000
room
1000
L1-RISER
  0
TEXT
  5
1A5
330
1B
100
AcDbEntity
 67
1
  8
A-ANNO-SCHD
420
2240554
100
AcDbText
 10
47.0
 20
188.27600000000012
 30
0.0
 40
1.6298333333333328
  1
Riser ICT
  7
KR-SANS
 41
0.8
 11
47.0
 21
188.27600000000012
 31
0.0
100
AcDbText
  0
TEXT
  5
1A6
330
1B
100
AcDbEntity
 67
1
  8
A-ANNO-SCHD
420
2240554
100
AcDbText
 10
101.5
 20
188.27600000000012
 30
0.0
 40
1.6298333333333328
  1
L1
  7
KR-SANS
 41
0.8
 72
1
 11
101.5
 21
188.27600000000012
 31
0.0
100
AcDbText
  0
TEXT
  5
1A7
330
1B
100
AcDbEntity
 67
1
  8
A-ANNO-SCHD
420
2240554
100
AcDbText
 10
108.0
 20
188.27600000000012
 30
0.0
 40
1.6298333333333328
  1
shaft
  7
KR-SANS
 41
0.8
 11
108.0
 21
188.27600000000012
 31
0.0
100
AcDbText
  0
TEXT
  5
1A8
330
1B
100
AcDbEntity
 67
1
  8
A-ANNO-SCHD
420
2240554
100
AcDbText
 10
127.0
 20
188.27600000000012
 30
0.0
 40
1.6298333333333328
  1
restricted
  7
KR-SANS
 41
0.8
 11
127.0
 21
188.27600000000012
 31
0.0
100
AcDbText
  0
TEXT
  5
1A9
330
1B
100
AcDbEntity
 67
1
  8
A-ANNO-SCHD
420
2240554
100
AcDbText
 10
159.0
 20
188.27600000000012
 30
0.0
 40
1.6298333333333328
  1
1,50
  7
KR-SANS
 41
0.8
 72
2
 11
159.0
 21
188.27600000000012
 31
0.0
100
AcDbText
  0
TEXT
  5
1AA
330
1B
100
AcDbEntity
 67
1
  8
A-ANNO-SCHD
420
2240554
100
AcDbText
 10
170.0
 20
188.27600000000012
 30
0.0
 40
1.6298333333333328
  1
0
  7
KR-SANS
 41
0.8
 72
2
 11
170.0
 21
188.27600000000012
 31
0.0
100
AcDbText
  0
TEXT
  5
1AB
330
1B
100
AcDbEntity
 67
1
  8
A-ANNO-SCHD
420
2240554
100
AcDbText
 10
172.0
 20
188.27600000000012
 30
0.0
 40
1.6298333333333328
  1
D-L1-20
  7
KR-SANS
 41
0.8
 11
172.0
 21
188.27600000000012
 31
0.0
100
AcDbText
  0
TEXT
  5
1AC
330
1B
100
AcDbEntity
 67
1
  8
A-ANNO-SCHD
420
2240554
100
AcDbText
 10
248.0
 20
188.27600000000012
 30
0.0
 40
1.6298333333333328
  1
-
  7
KR-SANS
 41
0.8
 11
248.0
 21
188.27600000000012
 31
0.0
100
AcDbText
  0
TEXT
  5
1AD
330
1B
100
AcDbEntity
 67
1
  8
A-ANNO-SCHD
420
2240554
100
AcDbText
 10
290.0
 20
188.27600000000012
 30
0.0
 40
1.6298333333333328
  1
-
  7
KR-SANS
 41
0.8
 11
290.0
 21
188.27600000000012
 31
0.0
100
AcDbText
  0
TEXT
  5
1AE
330
1B
100
AcDbEntity
 67
1
  8
A-ANNO-SCHD
420
2240554
100
AcDbText
 10
330.0
 20
188.27600000000012
 30
0.0
 40
1.6298333333333328
  1
-
  7
KR-SANS
 41
0.8
 11
330.0
 21
188.27600000000012
 31
0.0
100
AcDbText
  0
LWPOLYLINE
  5
1AF
330
1B
100
AcDbEntity
 67
1
  8
A-ANNO-SCHD
420
13227727
100
AcDbPolyline
 90
2
 70
0
 10
24.0
 20
186.72600000000014
 10
369.0
 20
186.72600000000014
  0
HATCH
  5
1B0
330
1B
100
AcDbEntity
 67
1
  8
A-ANNO-SCHD
 62
7
420
15857138
100
AcDbHatch
 10
0.0
 20
0.0
 30
0.0
210
0.0
220
0.0
230
1.0
  2
SOLID
 70
1
 71
0
 91
1
 92
3
 72
0
 73
1
 93
4
 10
24.0
 20
182.53200000000015
 10
369.0
 20
182.53200000000015
 10
369.0
 20
186.72600000000014
 10
24.0
 20
186.72600000000014
 97
0
 75
1
 76
1
 98
0
  0
TEXT
  5
1B1
330
1B
100
AcDbEntity
 67
1
  8
A-ANNO-SCHD
420
2051386
100
AcDbText
 10
25.0
 20
184.08200000000014
 30
0.0
 40
1.6298333333333328
  1
L1-STORE
  7
KR-SANS
 41
0.8
 11
25.0
 21
184.08200000000014
 31
0.0
100
AcDbText
1001
KANTOR_RPG
1000
room
1000
L1-STORE
  0
TEXT
  5
1B2
330
1B
100
AcDbEntity
 67
1
  8
A-ANNO-SCHD
420
2240554
100
AcDbText
 10
47.0
 20
184.08200000000014
 30
0.0
 40
1.6298333333333328
  1
Gudang & utilitas
  7
KR-SANS
 41
0.8
 11
47.0
 21
184.08200000000014
 31
0.0
100
AcDbText
  0
TEXT
  5
1B3
330
1B
100
AcDbEntity
 67
1
  8
A-ANNO-SCHD
420
2240554
100
AcDbText
 10
101.5
 20
184.08200000000014
 30
0.0
 40
1.6298333333333328
  1
L1
  7
KR-SANS
 41
0.8
 72
1
 11
101.5
 21
184.08200000000014
 31
0.0
100
AcDbText
  0
TEXT
  5
1B4
330
1B
100
AcDbEntity
 67
1
  8
A-ANNO-SCHD
420
2240554
100
AcDbText
 10
108.0
 20
184.08200000000014
 30
0.0
 40
1.6298333333333328
  1
service
  7
KR-SANS
 41
0.8
 11
108.0
 21
184.08200000000014
 31
0.0
100
AcDbText
  0
TEXT
  5
1B5
330
1B
100
AcDbEntity
 67
1
  8
A-ANNO-SCHD
420
2240554
100
AcDbText
 10
127.0
 20
184.08200000000014
 30
0.0
 40
1.6298333333333328
  1
staff
  7
KR-SANS
 41
0.8
 11
127.0
 21
184.08200000000014
 31
0.0
100
AcDbText
  0
TEXT
  5
1B6
330
1B
100
AcDbEntity
 67
1
  8
A-ANNO-SCHD
420
2240554
100
AcDbText
 10
159.0
 20
184.08200000000014
 30
0.0
 40
1.6298333333333328
  1
15,00
  7
KR-SANS
 41
0.8
 72
2
 11
159.0
 21
184.08200000000014
 31
0.0
100
AcDbText
  0
TEXT
  5
1B7
330
1B
100
AcDbEntity
 67
1
  8
A-ANNO-SCHD
420
2240554
100
AcDbText
 10
170.0
 20
184.08200000000014
 30
0.0
 40
1.6298333333333328
  1
0
  7
KR-SANS
 41
0.8
 72
2
 11
170.0
 21
184.08200000000014
 31
0.0
100
AcDbText
  0
TEXT
  5
1B8
330
1B
100
AcDbEntity
 67
1
  8
A-ANNO-SCHD
420
2240554
100
AcDbText
 10
172.0
 20
184.08200000000014
 30
0.0
 40
1.6298333333333328
  1
D-L1-21
  7
KR-SANS
 41
0.8
 11
172.0
 21
184.08200000000014
 31
0.0
100
AcDbText
  0
TEXT
  5
1B9
330
1B
100
AcDbEntity
 67
1
  8
A-ANNO-SCHD
420
2240554
100
AcDbText
 10
248.0
 20
184.08200000000014
 30
0.0
 40
1.6298333333333328
  1
epoxy
  7
KR-SANS
 41
0.8
 11
248.0
 21
184.08200000000014
 31
0.0
100
AcDbText
  0
TEXT
  5
1BA
330
1B
100
AcDbEntity
 67
1
  8
A-ANNO-SCHD
420
2240554
100
AcDbText
 10
290.0
 20
184.08200000000014
 30
0.0
 40
1.6298333333333328
  1
cat matte
  7
KR-SANS
 41
0.8
 11
290.0
 21
184.08200000000014
 31
0.0
100
AcDbText
  0
TEXT
  5
1BB
330
1B
100
AcDbEntity
 67
1
  8
A-ANNO-SCHD
420
2240554
100
AcDbText
 10
330.0
 20
184.08200000000014
 30
0.0
 40
1.6298333333333328
  1
gypsum
  7
KR-SANS
 41
0.8
 11
330.0
 21
184.08200000000014
 31
0.0
100
AcDbText
  0
LWPOLYLINE
  5
1BC
330
1B
100
AcDbEntity
 67
1
  8
A-ANNO-SCHD
420
13227727
100
AcDbPolyline
 90
2
 70
0
 10
24.0
 20
182.53200000000015
 10
369.0
 20
182.53200000000015
  0
TEXT
  5
1BD
330
1B
100
AcDbEntity
 67
1
  8
A-ANNO-SCHD
420
2051386
100
AcDbText
 10
25.0
 20
179.88800000000015
 30
0.0
 40
1.6298333333333328
  1
Subtotal L1
  7
KR-SANS
 41
0.8
 11
25.0
 21
179.88800000000015
 31
0.0
100
AcDbText
  0
TEXT
  5
1BE
330
1B
100
AcDbEntity
 67
1
  8
A-ANNO-SCHD
420
2240554
100
AcDbText
 10
47.0
 20
179.88800000000015
 30
0.0
 40
1.6298333333333328
  1
20 ruang
  7
KR-SANS
 41
0.8
 11
47.0
 21
179.88800000000015
 31
0.0
100
AcDbText
  0
TEXT
  5
1BF
330
1B
100
AcDbEntity
 67
1
  8
A-ANNO-SCHD
420
2240554
100
AcDbText
 10
101.5
 20
179.88800000000015
 30
0.0
 40
1.6298333333333328
  1

  7
KR-SANS
 41
0.8
 72
1
 11
101.5
 21
179.88800000000015
 31
0.0
100
AcDbText
  0
TEXT
  5
1C0
330
1B
100
AcDbEntity
 67
1
  8
A-ANNO-SCHD
420
2240554
100
AcDbText
 10
108.0
 20
179.88800000000015
 30
0.0
 40
1.6298333333333328
  1

  7
KR-SANS
 41
0.8
 11
108.0
 21
179.88800000000015
 31
0.0
100
AcDbText
  0
TEXT
  5
1C1
330
1B
100
AcDbEntity
 67
1
  8
A-ANNO-SCHD
420
2240554
100
AcDbText
 10
127.0
 20
179.88800000000015
 30
0.0
 40
1.6298333333333328
  1

  7
KR-SANS
 41
0.8
 11
127.0
 21
179.88800000000015
 31
0.0
100
AcDbText
  0
TEXT
  5
1C2
330
1B
100
AcDbEntity
 67
1
  8
A-ANNO-SCHD
420
2240554
100
AcDbText
 10
159.0
 20
179.88800000000015
 30
0.0
 40
1.6298333333333328
  1
768,00
  7
KR-SANS
 41
0.8
 72
2
 11
159.0
 21
179.88800000000015
 31
0.0
100
AcDbText
  0
TEXT
  5
1C3
330
1B
100
AcDbEntity
 67
1
  8
A-ANNO-SCHD
420
2240554
100
AcDbText
 10
170.0
 20
179.88800000000015
 30
0.0
 40
1.6298333333333328
  1
41
  7
KR-SANS
 41
0.8
 72
2
 11
170.0
 21
179.88800000000015
 31
0.0
100
AcDbText
  0
TEXT
  5
1C4
330
1B
100
AcDbEntity
 67
1
  8
A-ANNO-SCHD
420
2240554
100
AcDbText
 10
172.0
 20
179.88800000000015
 30
0.0
 40
1.6298333333333328
  1
cek: jumlah = envelope 768,00 m² COCOK
  7
KR-SANS
 41
0.8
 11
172.0
 21
179.88800000000015
 31
0.0
100
AcDbText
  0
TEXT
  5
1C5
330
1B
100
AcDbEntity
 67
1
  8
A-ANNO-SCHD
420
2240554
100
AcDbText
 10
248.0
 20
179.88800000000015
 30
0.0
 40
1.6298333333333328
  1

  7
KR-SANS
 41
0.8
 11
248.0
 21
179.88800000000015
 31
0.0
100
AcDbText
  0
TEXT
  5
1C6
330
1B
100
AcDbEntity
 67
1
  8
A-ANNO-SCHD
420
2240554
100
AcDbText
 10
290.0
 20
179.88800000000015
 30
0.0
 40
1.6298333333333328
  1

  7
KR-SANS
 41
0.8
 11
290.0
 21
179.88800000000015
 31
0.0
100
AcDbText
  0
TEXT
  5
1C7
330
1B
100
AcDbEntity
 67
1
  8
A-ANNO-SCHD
420
2240554
100
AcDbText
 10
330.0
 20
179.88800000000015
 30
0.0
 40
1.6298333333333328
  1

  7
KR-SANS
 41
0.8
 11
330.0
 21
179.88800000000015
 31
0.0
100
AcDbText
  0
LWPOLYLINE
  5
1C8
330
1B
100
AcDbEntity
 67
1
  8
A-ANNO-SCHD
420
13227727
100
AcDbPolyline
 90
2
 70
0
 10
24.0
 20
178.33800000000016
 10
369.0
 20
178.33800000000016
  0
HATCH
  5
1C9
330
1B
100
AcDbEntity
 67
1
  8
A-ANNO-SCHD
 62
7
420
15857138
100
AcDbHatch
 10
0.0
 20
0.0
 30
0.0
210
0.0
220
0.0
230
1.0
  2
SOLID
 70
1
 71
0
 91
1
 92
3
 72
0
 73
1
 93
4
 10
24.0
 20
174.14400000000018
 10
369.0
 20
174.14400000000018
 10
369.0
 20
178.33800000000016
 10
24.0
 20
178.33800000000016
 97
0
 75
1
 76
1
 98
0
  0
TEXT
  5
1CA
330
1B
100
AcDbEntity
 67
1
  8
A-ANNO-SCHD
420
2051386
100
AcDbText
 10
25.0
 20
175.69400000000016
 30
0.0
 40
1.6298333333333328
  1
L2-READ
  7
KR-SANS
 41
0.8
 11
25.0
 21
175.69400000000016
 31
0.0
100
AcDbText
1001
KANTOR_RPG
1000
room
1000
L2-READ
  0
TEXT
  5
1CB
330
1B
100
AcDbEntity
 67
1
  8
A-ANNO-SCHD
420
2240554
100
AcDbText
 10
47.0
 20
175.69400000000016
 30
0.0
 40
1.6298333333333328
  1
Perpustakaan / reading nook
  7
KR-SANS
 41
0.8
 11
47.0
 21
175.69400000000016
 31
0.0
100
AcDbText
  0
TEXT
  5
1CC
330
1B
100
AcDbEntity
 67
1
  8
A-ANNO-SCHD
420
2240554
100
AcDbText
 10
101.5
 20
175.69400000000016
 30
0.0
 40
1.6298333333333328
  1
L2
  7
KR-SANS
 41
0.8
 72
1
 11
101.5
 21
175.69400000000016
 31
0.0
100
AcDbText
  0
TEXT
  5
1CD
330
1B
100
AcDbEntity
 67
1
  8
A-ANNO-SCHD
420
2240554
100
AcDbText
 10
108.0
 20
175.69400000000016
 30
0.0
 40
1.6298333333333328
  1
quiet
  7
KR-SANS
 41
0.8
 11
108.0
 21
175.69400000000016
 31
0.0
100
AcDbText
  0
TEXT
  5
1CE
330
1B
100
AcDbEntity
 67
1
  8
A-ANNO-SCHD
420
2240554
100
AcDbText
 10
127.0
 20
175.69400000000016
 30
0.0
 40
1.6298333333333328
  1
staff
  7
KR-SANS
 41
0.8
 11
127.0
 21
175.69400000000016
 31
0.0
100
AcDbText
  0
TEXT
  5
1CF
330
1B
100
AcDbEntity
 67
1
  8
A-ANNO-SCHD
420
2240554
100
AcDbText
 10
159.0
 20
175.69400000000016
 30
0.0
 40
1.6298333333333328
  1
64,00
  7
KR-SANS
 41
0.8
 72
2
 11
159.0
 21
175.69400000000016
 31
0.0
100
AcDbText
  0
TEXT
  5
1D0
330
1B
100
AcDbEntity
 67
1
  8
A-ANNO-SCHD
420
2240554
100
AcDbText
 10
170.0
 20
175.69400000000016
 30
0.0
 40
1.6298333333333328
  1
4
  7
KR-SANS
 41
0.8
 72
2
 11
170.0
 21
175.69400000000016
 31
0.0
100
AcDbText
  0
TEXT
  5
1D1
330
1B
100
AcDbEntity
 67
1
  8
A-ANNO-SCHD
420
2240554
100
AcDbText
 10
172.0
 20
175.69400000000016
 30
0.0
 40
1.6298333333333328
  1
D-L2-02
  7
KR-SANS
 41
0.8
 11
172.0
 21
175.69400000000016
 31
0.0
100
AcDbText
  0
TEXT
  5
1D2
330
1B
100
AcDbEntity
 67
1
  8
A-ANNO-SCHD
420
2240554
100
AcDbText
 10
248.0
 20
175.69400000000016
 30
0.0
 40
1.6298333333333328
  1
karpet tile matte
  7
KR-SANS
 41
0.8
 11
248.0
 21
175.69400000000016
 31
0.0
100
AcDbText
  0
TEXT
  5
1D3
330
1B
100
AcDbEntity
 67
1
  8
A-ANNO-SCHD
420
2240554
100
AcDbText
 10
290.0
 20
175.69400000000016
 30
0.0
 40
1.6298333333333328
  1
cat matte krem
  7
KR-SANS
 41
0.8
 11
290.0
 21
175.69400000000016
 31
0.0
100
AcDbText
  0
TEXT
  5
1D4
330
1B
100
AcDbEntity
 67
1
  8
A-ANNO-SCHD
420
2240554
100
AcDbText
 10
330.0
 20
175.69400000000016
 30
0.0
 40
1.6298333333333328
  1
akustik panel
  7
KR-SANS
 41
0.8
 11
330.0
 21
175.69400000000016
 31
0.0
100
AcDbText
  0
LWPOLYLINE
  5
1D5
330
1B
100
AcDbEntity
 67
1
  8
A-ANNO-SCHD
420
13227727
100
AcDbPolyline
 90
2
 70
0
 10
24.0
 20
174.14400000000018
 10
369.0
 20
174.14400000000018
  0
TEXT
  5
1D6
330
1B
100
AcDbEntity
 67
1
  8
A-ANNO-SCHD
420
2051386
100
AcDbText
 10
25.0
 20
171.50000000000017
 30
0.0
 40
1.6298333333333328
  1
L2-LOUNGE
  7
KR-SANS
 41
0.8
 11
25.0
 21
171.50000000000017
 31
0.0
100
AcDbText
1001
KANTOR_RPG
1000
room
1000
L2-LOUNGE
  0
TEXT
  5
1D7
330
1B
100
AcDbEntity
 67
1
  8
A-ANNO-SCHD
420
2240554
100
AcDbText
 10
47.0
 20
171.50000000000017
 30
0.0
 40
1.6298333333333328
  1
Lounge & coffee bar
  7
KR-SANS
 41
0.8
 11
47.0
 21
171.50000000000017
 31
0.0
100
AcDbText
  0
TEXT
  5
1D8
330
1B
100
AcDbEntity
 67
1
  8
A-ANNO-SCHD
420
2240554
100
AcDbText
 10
101.5
 20
171.50000000000017
 30
0.0
 40
1.6298333333333328
  1
L2
  7
KR-SANS
 41
0.8
 72
1
 11
101.5
 21
171.50000000000017
 31
0.0
100
AcDbText
  0
TEXT
  5
1D9
330
1B
100
AcDbEntity
 67
1
  8
A-ANNO-SCHD
420
2240554
100
AcDbText
 10
108.0
 20
171.50000000000017
 30
0.0
 40
1.6298333333333328
  1
recreation
  7
KR-SANS
 41
0.8
 11
108.0
 21
171.50000000000017
 31
0.0
100
AcDbText
  0
TEXT
  5
1DA
330
1B
100
AcDbEntity
 67
1
  8
A-ANNO-SCHD
420
2240554
100
AcDbText
 10
127.0
 20
171.50000000000017
 30
0.0
 40
1.6298333333333328
  1
staff
  7
KR-SANS
 41
0.8
 11
127.0
 21
171.50000000000017
 31
0.0
100
AcDbText
  0
TEXT
  5
1DB
330
1B
100
AcDbEntity
 67
1
  8
A-ANNO-SCHD
420
2240554
100
AcDbText
 10
159.0
 20
171.50000000000017
 30
0.0
 40
1.6298333333333328
  1
96,00
  7
KR-SANS
 41
0.8
 72
2
 11
159.0
 21
171.50000000000017
 31
0.0
100
AcDbText
  0
TEXT
  5
1DC
330
1B
100
AcDbEntity
 67
1
  8
A-ANNO-SCHD
420
2240554
100
AcDbText
 10
170.0
 20
171.50000000000017
 30
0.0
 40
1.6298333333333328
  1
9
  7
KR-SANS
 41
0.8
 72
2
 11
170.0
 21
171.50000000000017
 31
0.0
100
AcDbText
  0
TEXT
  5
1DD
330
1B
100
AcDbEntity
 67
1
  8
A-ANNO-SCHD
420
2240554
100
AcDbText
 10
172.0
 20
171.50000000000017
 30
0.0
 40
1.6298333333333328
  1
D-L2-01, D-L2-04
  7
KR-SANS
 41
0.8
 11
172.0
 21
171.50000000000017
 31
0.0
100
AcDbText
  0
TEXT
  5
1DE
330
1B
100
AcDbEntity
 67
1
  8
A-ANNO-SCHD
420
2240554
100
AcDbText
 10
248.0
 20
171.50000000000017
 30
0.0
 40
1.6298333333333328
  1
vinyl motif kayu
  7
KR-SANS
 41
0.8
 11
248.0
 21
171.50000000000017
 31
0.0
100
AcDbText
  0
TEXT
  5
1DF
330
1B
100
AcDbEntity
 67
1
  8
A-ANNO-SCHD
420
2240554
100
AcDbText
 10
290.0
 20
171.50000000000017
 30
0.0
 40
1.6298333333333328
  1
cat matte krem + panel kayu
  7
KR-SANS
 41
0.8
 11
290.0
 21
171.50000000000017
 31
0.0
100
AcDbText
  0
TEXT
  5
1E0
330
1B
100
AcDbEntity
 67
1
  8
A-ANNO-SCHD
420
2240554
100
AcDbText
 10
330.0
 20
171.50000000000017
 30
0.0
 40
1.6298333333333328
  1
gypsum
  7
KR-SANS
 41
0.8
 11
330.0
 21
171.50000000000017
 31
0.0
100
AcDbText
  0
LWPOLYLINE
  5
1E1
330
1B
100
AcDbEntity
 67
1
  8
A-ANNO-SCHD
420
13227727
100
AcDbPolyline
 90
2
 70
0
 10
24.0
 20
169.9500000000002
 10
369.0
 20
169.9500000000002
  0
HATCH
  5
1E2
330
1B
100
AcDbEntity
 67
1
  8
A-ANNO-SCHD
 62
7
420
15857138
100
AcDbHatch
 10
0.0
 20
0.0
 30
0.0
210
0.0
220
0.0
230
1.0
  2
SOLID
 70
1
 71
0
 91
1
 92
3
 72
0
 73
1
 93
4
 10
24.0
 20
165.7560000000002
 10
369.0
 20
165.7560000000002
 10
369.0
 20
169.9500000000002
 10
24.0
 20
169.9500000000002
 97
0
 75
1
 76
1
 98
0
  0
TEXT
  5
1E3
330
1B
100
AcDbEntity
 67
1
  8
A-ANNO-SCHD
420
2051386
100
AcDbText
 10
25.0
 20
167.30600000000018
 30
0.0
 40
1.6298333333333328
  1
L2-DINE
  7
KR-SANS
 41
0.8
 11
25.0
 21
167.30600000000018
 31
0.0
100
AcDbText
1001
KANTOR_RPG
1000
room
1000
L2-DINE
  0
TEXT
  5
1E4
330
1B
100
AcDbEntity
 67
1
  8
A-ANNO-SCHD
420
2240554
100
AcDbText
 10
47.0
 20
167.30600000000018
 30
0.0
 40
1.6298333333333328
  1
Ruang makan & pantry
  7
KR-SANS
 41
0.8
 11
47.0
 21
167.30600000000018
 31
0.0
100
AcDbText
  0
TEXT
  5
1E5
330
1B
100
AcDbEntity
 67
1
  8
A-ANNO-SCHD
420
2240554
100
AcDbText
 10
101.5
 20
167.30600000000018
 30
0.0
 40
1.6298333333333328
  1
L2
  7
KR-SANS
 41
0.8
 72
1
 11
101.5
 21
167.30600000000018
 31
0.0
100
AcDbText
  0
TEXT
  5
1E6
330
1B
100
AcDbEntity
 67
1
  8
A-ANNO-SCHD
420
2240554
100
AcDbText
 10
108.0
 20
167.30600000000018
 30
0.0
 40
1.6298333333333328
  1
recreation
  7
KR-SANS
 41
0.8
 11
108.0
 21
167.30600000000018
 31
0.0
100
AcDbText
  0
TEXT
  5
1E7
330
1B
100
AcDbEntity
 67
1
  8
A-ANNO-SCHD
420
2240554
100
AcDbText
 10
127.0
 20
167.30600000000018
 30
0.0
 40
1.6298333333333328
  1
staff
  7
KR-SANS
 41
0.8
 11
127.0
 21
167.30600000000018
 31
0.0
100
AcDbText
  0
TEXT
  5
1E8
330
1B
100
AcDbEntity
 67
1
  8
A-ANNO-SCHD
420
2240554
100
AcDbText
 10
159.0
 20
167.30600000000018
 30
0.0
 40
1.6298333333333328
  1
48,00
  7
KR-SANS
 41
0.8
 72
2
 11
159.0
 21
167.30600000000018
 31
0.0
100
AcDbText
  0
TEXT
  5
1E9
330
1B
100
AcDbEntity
 67
1
  8
A-ANNO-SCHD
420
2240554
100
AcDbText
 10
170.0
 20
167.30600000000018
 30
0.0
 40
1.6298333333333328
  1
8
  7
KR-SANS
 41
0.8
 72
2
 11
170.0
 21
167.30600000000018
 31
0.0
100
AcDbText
  0
TEXT
  5
1EA
330
1B
100
AcDbEntity
 67
1
  8
A-ANNO-SCHD
420
2240554
100
AcDbText
 10
172.0
 20
167.30600000000018
 30
0.0
 40
1.6298333333333328
  1
D-L2-03, D-L2-04
  7
KR-SANS
 41
0.8
 11
172.0
 21
167.30600000000018
 31
0.0
100
AcDbText
  0
TEXT
  5
1EB
330
1B
100
AcDbEntity
 67
1
  8
A-ANNO-SCHD
420
2240554
100
AcDbText
 10
248.0
 20
167.30600000000018
 30
0.0
 40
1.6298333333333328
  1
keramik anti-slip
  7
KR-SANS
 41
0.8
 11
248.0
 21
167.30600000000018
 31
0.0
100
AcDbText
  0
TEXT
  5
1EC
330
1B
100
AcDbEntity
 67
1
  8
A-ANNO-SCHD
420
2240554
100
AcDbText
 10
290.0
 20
167.30600000000018
 30
0.0
 40
1.6298333333333328
  1
keramik dinding
  7
KR-SANS
 41
0.8
 11
290.0
 21
167.30600000000018
 31
0.0
100
AcDbText
  0
TEXT
  5
1ED
330
1B
100
AcDbEntity
 67
1
  8
A-ANNO-SCHD
420
2240554
100
AcDbText
 10
330.0
 20
167.30600000000018
 30
0.0
 40
1.6298333333333328
  1
gypsum tahan lembab
  7
KR-SANS
 41
0.8
 11
330.0
 21
167.30600000000018
 31
0.0
100
AcDbText
  0
LWPOLYLINE
  5
1EE
330
1B
100
AcDbEntity
 67
1
  8
A-ANNO-SCHD
420
13227727
100
AcDbPolyline
 90
2
 70
0
 10
24.0
 20
165.7560000000002
 10
369.0
 20
165.7560000000002
  0
TEXT
  5
1EF
330
1B
100
AcDbEntity
 67
1
  8
A-ANNO-SCHD
420
2051386
100
AcDbText
 10
25.0
 20
163.1120000000002
 30
0.0
 40
1.6298333333333328
  1
L2-SHOWER
  7
KR-SANS
 41
0.8
 11
25.0
 21
163.1120000000002
 31
0.0
100
AcDbText
1001
KANTOR_RPG
1000
room
1000
L2-SHOWER
  0
TEXT
  5
1F0
330
1B
100
AcDbEntity
 67
1
  8
A-ANNO-SCHD
420
2240554
100
AcDbText
 10
47.0
 20
163.1120000000002
 30
0.0
 40
1.6298333333333328
  1
Shower & ruang ganti
  7
KR-SANS
 41
0.8
 11
47.0
 21
163.1120000000002
 31
0.0
100
AcDbText
  0
TEXT
  5
1F1
330
1B
100
AcDbEntity
 67
1
  8
A-ANNO-SCHD
420
2240554
100
AcDbText
 10
101.5
 20
163.1120000000002
 30
0.0
 40
1.6298333333333328
  1
L2
  7
KR-SANS
 41
0.8
 72
1
 11
101.5
 21
163.1120000000002
 31
0.0
100
AcDbText
  0
TEXT
  5
1F2
330
1B
100
AcDbEntity
 67
1
  8
A-ANNO-SCHD
420
2240554
100
AcDbText
 10
108.0
 20
163.1120000000002
 30
0.0
 40
1.6298333333333328
  1
wet
  7
KR-SANS
 41
0.8
 11
108.0
 21
163.1120000000002
 31
0.0
100
AcDbText
  0
TEXT
  5
1F3
330
1B
100
AcDbEntity
 67
1
  8
A-ANNO-SCHD
420
2240554
100
AcDbText
 10
127.0
 20
163.1120000000002
 30
0.0
 40
1.6298333333333328
  1
staff
  7
KR-SANS
 41
0.8
 11
127.0
 21
163.1120000000002
 31
0.0
100
AcDbText
  0
TEXT
  5
1F4
330
1B
100
AcDbEntity
 67
1
  8
A-ANNO-SCHD
420
2240554
100
AcDbText
 10
159.0
 20
163.1120000000002
 30
0.0
 40
1.6298333333333328
  1
28,00
  7
KR-SANS
 41
0.8
 72
2
 11
159.0
 21
163.1120000000002
 31
0.0
100
AcDbText
  0
TEXT
  5
1F5
330
1B
100
AcDbEntity
 67
1
  8
A-ANNO-SCHD
420
2240554
100
AcDbText
 10
170.0
 20
163.1120000000002
 30
0.0
 40
1.6298333333333328
  1
2
  7
KR-SANS
 41
0.8
 72
2
 11
170.0
 21
163.1120000000002
 31
0.0
100
AcDbText
  0
TEXT
  5
1F6
330
1B
100
AcDbEntity
 67
1
  8
A-ANNO-SCHD
420
2240554
100
AcDbText
 10
172.0
 20
163.1120000000002
 30
0.0
 40
1.6298333333333328
  1
D-L2-05
  7
KR-SANS
 41
0.8
 11
172.0
 21
163.1120000000002
 31
0.0
100
AcDbText
  0
TEXT
  5
1F7
330
1B
100
AcDbEntity
 67
1
  8
A-ANNO-SCHD
420
2240554
100
AcDbText
 10
248.0
 20
163.1120000000002
 30
0.0
 40
1.6298333333333328
  1
keramik anti-slip
  7
KR-SANS
 41
0.8
 11
248.0
 21
163.1120000000002
 31
0.0
100
AcDbText
  0
TEXT
  5
1F8
330
1B
100
AcDbEntity
 67
1
  8
A-ANNO-SCHD
420
2240554
100
AcDbText
 10
290.0
 20
163.1120000000002
 30
0.0
 40
1.6298333333333328
  1
keramik dinding
  7
KR-SANS
 41
0.8
 11
290.0
 21
163.1120000000002
 31
0.0
100
AcDbText
  0
TEXT
  5
1F9
330
1B
100
AcDbEntity
 67
1
  8
A-ANNO-SCHD
420
2240554
100
AcDbText
 10
330.0
 20
163.1120000000002
 30
0.0
 40
1.6298333333333328
  1
gypsum tahan lembab
  7
KR-SANS
 41
0.8
 11
330.0
 21
163.1120000000002
 31
0.0
100
AcDbText
  0
LWPOLYLINE
  5
1FA
330
1B
100
AcDbEntity
 67
1
  8
A-ANNO-SCHD
420
13227727
100
AcDbPolyline
 90
2
 70
0
 10
24.0
 20
161.5620000000002
 10
369.0
 20
161.5620000000002
  0
HATCH
  5
1FB
330
1B
100
AcDbEntity
 67
1
  8
A-ANNO-SCHD
 62
7
420
15857138
100
AcDbHatch
 10
0.0
 20
0.0
 30
0.0
210
0.0
220
0.0
230
1.0
  2
SOLID
 70
1
 71
0
 91
1
 92
3
 72
0
 73
1
 93
4
 10
24.0
 20
157.36800000000022
 10
369.0
 20
157.36800000000022
 10
369.0
 20
161.5620000000002
 10
24.0
 20
161.5620000000002
 97
0
 75
1
 76
1
 98
0
  0
TEXT
  5
1FC
330
1B
100
AcDbEntity
 67
1
  8
A-ANNO-SCHD
420
2051386
100
AcDbText
 10
25.0
 20
158.9180000000002
 30
0.0
 40
1.6298333333333328
  1
L2-SHAFT-W
  7
KR-SANS
 41
0.8
 11
25.0
 21
158.9180000000002
 31
0.0
100
AcDbText
1001
KANTOR_RPG
1000
room
1000
L2-SHAFT-W
  0
TEXT
  5
1FD
330
1B
100
AcDbEntity
 67
1
  8
A-ANNO-SCHD
420
2240554
100
AcDbText
 10
47.0
 20
158.9180000000002
 30
0.0
 40
1.6298333333333328
  1
Shaft basah L2
  7
KR-SANS
 41
0.8
 11
47.0
 21
158.9180000000002
 31
0.0
100
AcDbText
  0
TEXT
  5
1FE
330
1B
100
AcDbEntity
 67
1
  8
A-ANNO-SCHD
420
2240554
100
AcDbText
 10
101.5
 20
158.9180000000002
 30
0.0
 40
1.6298333333333328
  1
L2
  7
KR-SANS
 41
0.8
 72
1
 11
101.5
 21
158.9180000000002
 31
0.0
100
AcDbText
  0
TEXT
  5
1FF
330
1B
100
AcDbEntity
 67
1
  8
A-ANNO-SCHD
420
2240554
100
AcDbText
 10
108.0
 20
158.9180000000002
 30
0.0
 40
1.6298333333333328
  1
shaft
  7
KR-SANS
 41
0.8
 11
108.0
 21
158.9180000000002
 31
0.0
100
AcDbText
  0
TEXT
  5
200
330
1B
100
AcDbEntity
 67
1
  8
A-ANNO-SCHD
420
2240554
100
AcDbText
 10
127.0
 20
158.9180000000002
 30
0.0
 40
1.6298333333333328
  1
restricted
  7
KR-SANS
 41
0.8
 11
127.0
 21
158.9180000000002
 31
0.0
100
AcDbText
  0
TEXT
  5
201
330
1B
100
AcDbEntity
 67
1
  8
A-ANNO-SCHD
420
2240554
100
AcDbText
 10
159.0
 20
158.9180000000002
 30
0.0
 40
1.6298333333333328
  1
2,50
  7
KR-SANS
 41
0.8
 72
2
 11
159.0
 21
158.9180000000002
 31
0.0
100
AcDbText
  0
TEXT
  5
202
330
1B
100
AcDbEntity
 67
1
  8
A-ANNO-SCHD
420
2240554
100
AcDbText
 10
170.0
 20
158.9180000000002
 30
0.0
 40
1.6298333333333328
  1
0
  7
KR-SANS
 41
0.8
 72
2
 11
170.0
 21
158.9180000000002
 31
0.0
100
AcDbText
  0
TEXT
  5
203
330
1B
100
AcDbEntity
 67
1
  8
A-ANNO-SCHD
420
2240554
100
AcDbText
 10
172.0
 20
158.9180000000002
 30
0.0
 40
1.6298333333333328
  1
D-L2-07
  7
KR-SANS
 41
0.8
 11
172.0
 21
158.9180000000002
 31
0.0
100
AcDbText
  0
TEXT
  5
204
330
1B
100
AcDbEntity
 67
1
  8
A-ANNO-SCHD
420
2240554
100
AcDbText
 10
248.0
 20
158.9180000000002
 30
0.0
 40
1.6298333333333328
  1
-
  7
KR-SANS
 41
0.8
 11
248.0
 21
158.9180000000002
 31
0.0
100
AcDbText
  0
TEXT
  5
205
330
1B
100
AcDbEntity
 67
1
  8
A-ANNO-SCHD
420
2240554
100
AcDbText
 10
290.0
 20
158.9180000000002
 30
0.0
 40
1.6298333333333328
  1
-
  7
KR-SANS
 41
0.8
 11
290.0
 21
158.9180000000002
 31
0.0
100
AcDbText
  0
TEXT
  5
206
330
1B
100
AcDbEntity
 67
1
  8
A-ANNO-SCHD
420
2240554
100
AcDbText
 10
330.0
 20
158.9180000000002
 30
0.0
 40
1.6298333333333328
  1
-
  7
KR-SANS
 41
0.8
 11
330.0
 21
158.9180000000002
 31
0.0
100
AcDbText
  0
LWPOLYLINE
  5
207
330
1B
100
AcDbEntity
 67
1
  8
A-ANNO-SCHD
420
13227727
100
AcDbPolyline
 90
2
 70
0
 10
24.0
 20
157.36800000000022
 10
369.0
 20
157.36800000000022
  0
TEXT
  5
208
330
1B
100
AcDbEntity
 67
1
  8
A-ANNO-SCHD
420
2051386
100
AcDbText
 10
25.0
 20
154.72400000000022
 30
0.0
 40
1.6298333333333328
  1
L2-WC
  7
KR-SANS
 41
0.8
 11
25.0
 21
154.72400000000022
 31
0.0
100
AcDbText
1001
KANTOR_RPG
1000
room
1000
L2-WC
  0
TEXT
  5
209
330
1B
100
AcDbEntity
 67
1
  8
A-ANNO-SCHD
420
2240554
100
AcDbText
 10
47.0
 20
154.72400000000022
 30
0.0
 40
1.6298333333333328
  1
Toilet L2
  7
KR-SANS
 41
0.8
 11
47.0
 21
154.72400000000022
 31
0.0
100
AcDbText
  0
TEXT
  5
20A
330
1B
100
AcDbEntity
 67
1
  8
A-ANNO-SCHD
420
2240554
100
AcDbText
 10
101.5
 20
154.72400000000022
 30
0.0
 40
1.6298333333333328
  1
L2
  7
KR-SANS
 41
0.8
 72
1
 11
101.5
 21
154.72400000000022
 31
0.0
100
AcDbText
  0
TEXT
  5
20B
330
1B
100
AcDbEntity
 67
1
  8
A-ANNO-SCHD
420
2240554
100
AcDbText
 10
108.0
 20
154.72400000000022
 30
0.0
 40
1.6298333333333328
  1
wet
  7
KR-SANS
 41
0.8
 11
108.0
 21
154.72400000000022
 31
0.0
100
AcDbText
  0
TEXT
  5
20C
330
1B
100
AcDbEntity
 67
1
  8
A-ANNO-SCHD
420
2240554
100
AcDbText
 10
127.0
 20
154.72400000000022
 30
0.0
 40
1.6298333333333328
  1
staff
  7
KR-SANS
 41
0.8
 11
127.0
 21
154.72400000000022
 31
0.0
100
AcDbText
  0
TEXT
  5
20D
330
1B
100
AcDbEntity
 67
1
  8
A-ANNO-SCHD
420
2240554
100
AcDbText
 10
159.0
 20
154.72400000000022
 30
0.0
 40
1.6298333333333328
  1
17,50
  7
KR-SANS
 41
0.8
 72
2
 11
159.0
 21
154.72400000000022
 31
0.0
100
AcDbText
  0
TEXT
  5
20E
330
1B
100
AcDbEntity
 67
1
  8
A-ANNO-SCHD
420
2240554
100
AcDbText
 10
170.0
 20
154.72400000000022
 30
0.0
 40
1.6298333333333328
  1
0
  7
KR-SANS
 41
0.8
 72
2
 11
170.0
 21
154.72400000000022
 31
0.0
100
AcDbText
  0
TEXT
  5
20F
330
1B
100
AcDbEntity
 67
1
  8
A-ANNO-SCHD
420
2240554
100
AcDbText
 10
172.0
 20
154.72400000000022
 30
0.0
 40
1.6298333333333328
  1
D-L2-06, D-L2-07
  7
KR-SANS
 41
0.8
 11
172.0
 21
154.72400000000022
 31
0.0
100
AcDbText
  0
TEXT
  5
210
330
1B
100
AcDbEntity
 67
1
  8
A-ANNO-SCHD
420
2240554
100
AcDbText
 10
248.0
 20
154.72400000000022
 30
0.0
 40
1.6298333333333328
  1
keramik anti-slip
  7
KR-SANS
 41
0.8
 11
248.0
 21
154.72400000000022
 31
0.0
100
AcDbText
  0
TEXT
  5
211
330
1B
100
AcDbEntity
 67
1
  8
A-ANNO-SCHD
420
2240554
100
AcDbText
 10
290.0
 20
154.72400000000022
 30
0.0
 40
1.6298333333333328
  1
keramik dinding
  7
KR-SANS
 41
0.8
 11
290.0
 21
154.72400000000022
 31
0.0
100
AcDbText
  0
TEXT
  5
212
330
1B
100
AcDbEntity
 67
1
  8
A-ANNO-SCHD
420
2240554
100
AcDbText
 10
330.0
 20
154.72400000000022
 30
0.0
 40
1.6298333333333328
  1
gypsum tahan lembab
  7
KR-SANS
 41
0.8
 11
330.0
 21
154.72400000000022
 31
0.0
100
AcDbText
  0
LWPOLYLINE
  5
213
330
1B
100
AcDbEntity
 67
1
  8
A-ANNO-SCHD
420
13227727
100
AcDbPolyline
 90
2
 70
0
 10
24.0
 20
153.17400000000023
 10
369.0
 20
153.17400000000023
  0
HATCH
  5
214
330
1B
100
AcDbEntity
 67
1
  8
A-ANNO-SCHD
 62
7
420
15857138
100
AcDbHatch
 10
0.0
 20
0.0
 30
0.0
210
0.0
220
0.0
230
1.0
  2
SOLID
 70
1
 71
0
 91
1
 92
3
 72
0
 73
1
 93
4
 10
24.0
 20
146.18600000000023
 10
369.0
 20
146.18600000000023
 10
369.0
 20
153.17400000000023
 10
24.0
 20
153.17400000000023
 97
0
 75
1
 76
1
 98
0
  0
TEXT
  5
215
330
1B
100
AcDbEntity
 67
1
  8
A-ANNO-SCHD
420
2051386
100
AcDbText
 10
25.0
 20
150.53000000000023
 30
0.0
 40
1.6298333333333328
  1
L2-CORR
  7
KR-SANS
 41
0.8
 11
25.0
 21
150.53000000000023
 31
0.0
100
AcDbText
1001
KANTOR_RPG
1000
room
1000
L2-CORR
  0
TEXT
  5
216
330
1B
100
AcDbEntity
 67
1
  8
A-ANNO-SCHD
420
2240554
100
AcDbText
 10
47.0
 20
150.53000000000023
 30
0.0
 40
1.6298333333333328
  1
Koridor utama L2
  7
KR-SANS
 41
0.8
 11
47.0
 21
150.53000000000023
 31
0.0
100
AcDbText
  0
TEXT
  5
217
330
1B
100
AcDbEntity
 67
1
  8
A-ANNO-SCHD
420
2240554
100
AcDbText
 10
101.5
 20
150.53000000000023
 30
0.0
 40
1.6298333333333328
  1
L2
  7
KR-SANS
 41
0.8
 72
1
 11
101.5
 21
150.53000000000023
 31
0.0
100
AcDbText
  0
TEXT
  5
218
330
1B
100
AcDbEntity
 67
1
  8
A-ANNO-SCHD
420
2240554
100
AcDbText
 10
108.0
 20
150.53000000000023
 30
0.0
 40
1.6298333333333328
  1
circulation
  7
KR-SANS
 41
0.8
 11
108.0
 21
150.53000000000023
 31
0.0
100
AcDbText
  0
TEXT
  5
219
330
1B
100
AcDbEntity
 67
1
  8
A-ANNO-SCHD
420
2240554
100
AcDbText
 10
127.0
 20
150.53000000000023
 30
0.0
 40
1.6298333333333328
  1
staff
  7
KR-SANS
 41
0.8
 11
127.0
 21
150.53000000000023
 31
0.0
100
AcDbText
  0
TEXT
  5
21A
330
1B
100
AcDbEntity
 67
1
  8
A-ANNO-SCHD
420
2240554
100
AcDbText
 10
159.0
 20
150.53000000000023
 30
0.0
 40
1.6298333333333328
  1
80,00
  7
KR-SANS
 41
0.8
 72
2
 11
159.0
 21
150.53000000000023
 31
0.0
100
AcDbText
  0
TEXT
  5
21B
330
1B
100
AcDbEntity
 67
1
  8
A-ANNO-SCHD
420
2240554
100
AcDbText
 10
170.0
 20
150.53000000000023
 30
0.0
 40
1.6298333333333328
  1
0
  7
KR-SANS
 41
0.8
 72
2
 11
170.0
 21
150.53000000000023
 31
0.0
100
AcDbText
  0
TEXT
  5
21C
330
1B
100
AcDbEntity
 67
1
  8
A-ANNO-SCHD
420
2240554
100
AcDbText
 10
172.0
 20
150.53000000000023
 30
0.0
 40
1.6298333333333328
  1
D-L2-01, D-L2-02, D-L2-03, D-L2-05, D-L2-06, D-L2-EXE, D-L2-08, D-L2-09,
  7
KR-SANS
 41
0.8
 11
172.0
 21
150.53000000000023
 31
0.0
100
AcDbText
  0
TEXT
  5
21D
330
1B
100
AcDbEntity
 67
1
  8
A-ANNO-SCHD
420
2240554
100
AcDbText
 10
172.0
 20
147.73600000000025
 30
0.0
 40
1.6298333333333328
  1
D-L2-10, D-L2-11
  7
KR-SANS
 41
0.8
 11
172.0
 21
147.73600000000025
 31
0.0
100
AcDbText
  0
TEXT
  5
21E
330
1B
100
AcDbEntity
 67
1
  8
A-ANNO-SCHD
420
2240554
100
AcDbText
 10
248.0
 20
150.53000000000023
 30
0.0
 40
1.6298333333333328
  1
vinyl motif kayu
  7
KR-SANS
 41
0.8
 11
248.0
 21
150.53000000000023
 31
0.0
100
AcDbText
  0
TEXT
  5
21F
330
1B
100
AcDbEntity
 67
1
  8
A-ANNO-SCHD
420
2240554
100
AcDbText
 10
290.0
 20
150.53000000000023
 30
0.0
 40
1.6298333333333328
  1
cat matte krem + panel kayu
  7
KR-SANS
 41
0.8
 11
290.0
 21
150.53000000000023
 31
0.0
100
AcDbText
  0
TEXT
  5
220
330
1B
100
AcDbEntity
 67
1
  8
A-ANNO-SCHD
420
2240554
100
AcDbText
 10
330.0
 20
150.53000000000023
 30
0.0
 40
1.6298333333333328
  1
gypsum
  7
KR-SANS
 41
0.8
 11
330.0
 21
150.53000000000023
 31
0.0
100
AcDbText
  0
LWPOLYLINE
  5
221
330
1B
100
AcDbEntity
 67
1
  8
A-ANNO-SCHD
420
13227727
100
AcDbPolyline
 90
2
 70
0
 10
24.0
 20
146.18600000000023
 10
369.0
 20
146.18600000000023
  0
TEXT
  5
222
330
1B
100
AcDbEntity
 67
1
  8
A-ANNO-SCHD
420
2051386
100
AcDbText
 10
25.0
 20
143.54200000000023
 30
0.0
 40
1.6298333333333328
  1
L2-CHAT
  7
KR-SANS
 41
0.8
 11
25.0
 21
143.54200000000023
 31
0.0
100
AcDbText
1001
KANTOR_RPG
1000
room
1000
L2-CHAT
  0
TEXT
  5
223
330
1B
100
AcDbEntity
 67
1
  8
A-ANNO-SCHD
420
2240554
100
AcDbText
 10
47.0
 20
143.54200000000023
 30
0.0
 40
1.6298333333333328
  1
Diskusi santai
  7
KR-SANS
 41
0.8
 11
47.0
 21
143.54200000000023
 31
0.0
100
AcDbText
  0
TEXT
  5
224
330
1B
100
AcDbEntity
 67
1
  8
A-ANNO-SCHD
420
2240554
100
AcDbText
 10
101.5
 20
143.54200000000023
 30
0.0
 40
1.6298333333333328
  1
L2
  7
KR-SANS
 41
0.8
 72
1
 11
101.5
 21
143.54200000000023
 31
0.0
100
AcDbText
  0
TEXT
  5
225
330
1B
100
AcDbEntity
 67
1
  8
A-ANNO-SCHD
420
2240554
100
AcDbText
 10
108.0
 20
143.54200000000023
 30
0.0
 40
1.6298333333333328
  1
quiet
  7
KR-SANS
 41
0.8
 11
108.0
 21
143.54200000000023
 31
0.0
100
AcDbText
  0
TEXT
  5
226
330
1B
100
AcDbEntity
 67
1
  8
A-ANNO-SCHD
420
2240554
100
AcDbText
 10
127.0
 20
143.54200000000023
 30
0.0
 40
1.6298333333333328
  1
staff
  7
KR-SANS
 41
0.8
 11
127.0
 21
143.54200000000023
 31
0.0
100
AcDbText
  0
TEXT
  5
227
330
1B
100
AcDbEntity
 67
1
  8
A-ANNO-SCHD
420
2240554
100
AcDbText
 10
159.0
 20
143.54200000000023
 30
0.0
 40
1.6298333333333328
  1
36,00
  7
KR-SANS
 41
0.8
 72
2
 11
159.0
 21
143.54200000000023
 31
0.0
100
AcDbText
  0
TEXT
  5
228
330
1B
100
AcDbEntity
 67
1
  8
A-ANNO-SCHD
420
2240554
100
AcDbText
 10
170.0
 20
143.54200000000023
 30
0.0
 40
1.6298333333333328
  1
4
  7
KR-SANS
 41
0.8
 72
2
 11
170.0
 21
143.54200000000023
 31
0.0
100
AcDbText
  0
TEXT
  5
229
330
1B
100
AcDbEntity
 67
1
  8
A-ANNO-SCHD
420
2240554
100
AcDbText
 10
172.0
 20
143.54200000000023
 30
0.0
 40
1.6298333333333328
  1
D-L2-08
  7
KR-SANS
 41
0.8
 11
172.0
 21
143.54200000000023
 31
0.0
100
AcDbText
  0
TEXT
  5
22A
330
1B
100
AcDbEntity
 67
1
  8
A-ANNO-SCHD
420
2240554
100
AcDbText
 10
248.0
 20
143.54200000000023
 30
0.0
 40
1.6298333333333328
  1
karpet tile matte
  7
KR-SANS
 41
0.8
 11
248.0
 21
143.54200000000023
 31
0.0
100
AcDbText
  0
TEXT
  5
22B
330
1B
100
AcDbEntity
 67
1
  8
A-ANNO-SCHD
420
2240554
100
AcDbText
 10
290.0
 20
143.54200000000023
 30
0.0
 40
1.6298333333333328
  1
cat matte krem
  7
KR-SANS
 41
0.8
 11
290.0
 21
143.54200000000023
 31
0.0
100
AcDbText
  0
TEXT
  5
22C
330
1B
100
AcDbEntity
 67
1
  8
A-ANNO-SCHD
420
2240554
100
AcDbText
 10
330.0
 20
143.54200000000023
 30
0.0
 40
1.6298333333333328
  1
akustik panel
  7
KR-SANS
 41
0.8
 11
330.0
 21
143.54200000000023
 31
0.0
100
AcDbText
  0
LWPOLYLINE
  5
22D
330
1B
100
AcDbEntity
 67
1
  8
A-ANNO-SCHD
420
13227727
100
AcDbPolyline
 90
2
 70
0
 10
24.0
 20
141.99200000000025
 10
369.0
 20
141.99200000000025
  0
HATCH
  5
22E
330
1B
100
AcDbEntity
 67
1
  8
A-ANNO-SCHD
 62
7
420
15857138
100
AcDbHatch
 10
0.0
 20
0.0
 30
0.0
210
0.0
220
0.0
230
1.0
  2
SOLID
 70
1
 71
0
 91
1
 92
3
 72
0
 73
1
 93
4
 10
24.0
 20
137.79800000000026
 10
369.0
 20
137.79800000000026
 10
369.0
 20
141.99200000000025
 10
24.0
 20
141.99200000000025
 97
0
 75
1
 76
1
 98
0
  0
TEXT
  5
22F
330
1B
100
AcDbEntity
 67
1
  8
A-ANNO-SCHD
420
2051386
100
AcDbText
 10
25.0
 20
139.34800000000024
 30
0.0
 40
1.6298333333333328
  1
L2-GARDEN
  7
KR-SANS
 41
0.8
 11
25.0
 21
139.34800000000024
 31
0.0
100
AcDbText
1001
KANTOR_RPG
1000
room
1000
L2-GARDEN
  0
TEXT
  5
230
330
1B
100
AcDbEntity
 67
1
  8
A-ANNO-SCHD
420
2240554
100
AcDbText
 10
47.0
 20
139.34800000000024
 30
0.0
 40
1.6298333333333328
  1
Taman dalam
  7
KR-SANS
 41
0.8
 11
47.0
 21
139.34800000000024
 31
0.0
100
AcDbText
  0
TEXT
  5
231
330
1B
100
AcDbEntity
 67
1
  8
A-ANNO-SCHD
420
2240554
100
AcDbText
 10
101.5
 20
139.34800000000024
 30
0.0
 40
1.6298333333333328
  1
L2
  7
KR-SANS
 41
0.8
 72
1
 11
101.5
 21
139.34800000000024
 31
0.0
100
AcDbText
  0
TEXT
  5
232
330
1B
100
AcDbEntity
 67
1
  8
A-ANNO-SCHD
420
2240554
100
AcDbText
 10
108.0
 20
139.34800000000024
 30
0.0
 40
1.6298333333333328
  1
recreation
  7
KR-SANS
 41
0.8
 11
108.0
 21
139.34800000000024
 31
0.0
100
AcDbText
  0
TEXT
  5
233
330
1B
100
AcDbEntity
 67
1
  8
A-ANNO-SCHD
420
2240554
100
AcDbText
 10
127.0
 20
139.34800000000024
 30
0.0
 40
1.6298333333333328
  1
staff
  7
KR-SANS
 41
0.8
 11
127.0
 21
139.34800000000024
 31
0.0
100
AcDbText
  0
TEXT
  5
234
330
1B
100
AcDbEntity
 67
1
  8
A-ANNO-SCHD
420
2240554
100
AcDbText
 10
159.0
 20
139.34800000000024
 30
0.0
 40
1.6298333333333328
  1
48,00
  7
KR-SANS
 41
0.8
 72
2
 11
159.0
 21
139.34800000000024
 31
0.0
100
AcDbText
  0
TEXT
  5
235
330
1B
100
AcDbEntity
 67
1
  8
A-ANNO-SCHD
420
2240554
100
AcDbText
 10
170.0
 20
139.34800000000024
 30
0.0
 40
1.6298333333333328
  1
2
  7
KR-SANS
 41
0.8
 72
2
 11
170.0
 21
139.34800000000024
 31
0.0
100
AcDbText
  0
TEXT
  5
236
330
1B
100
AcDbEntity
 67
1
  8
A-ANNO-SCHD
420
2240554
100
AcDbText
 10
172.0
 20
139.34800000000024
 30
0.0
 40
1.6298333333333328
  1
D-L2-09
  7
KR-SANS
 41
0.8
 11
172.0
 21
139.34800000000024
 31
0.0
100
AcDbText
  0
TEXT
  5
237
330
1B
100
AcDbEntity
 67
1
  8
A-ANNO-SCHD
420
2240554
100
AcDbText
 10
248.0
 20
139.34800000000024
 30
0.0
 40
1.6298333333333328
  1
deck komposit
  7
KR-SANS
 41
0.8
 11
248.0
 21
139.34800000000024
 31
0.0
100
AcDbText
  0
TEXT
  5
238
330
1B
100
AcDbEntity
 67
1
  8
A-ANNO-SCHD
420
2240554
100
AcDbText
 10
290.0
 20
139.34800000000024
 30
0.0
 40
1.6298333333333328
  1
panel tanaman
  7
KR-SANS
 41
0.8
 11
290.0
 21
139.34800000000024
 31
0.0
100
AcDbText
  0
TEXT
  5
239
330
1B
100
AcDbEntity
 67
1
  8
A-ANNO-SCHD
420
2240554
100
AcDbText
 10
330.0
 20
139.34800000000024
 30
0.0
 40
1.6298333333333328
  1
terbuka/pergola
  7
KR-SANS
 41
0.8
 11
330.0
 21
139.34800000000024
 31
0.0
100
AcDbText
  0
LWPOLYLINE
  5
23A
330
1B
100
AcDbEntity
 67
1
  8
A-ANNO-SCHD
420
13227727
100
AcDbPolyline
 90
2
 70
0
 10
24.0
 20
137.79800000000026
 10
369.0
 20
137.79800000000026
  0
TEXT
  5
23B
330
1B
100
AcDbEntity
 67
1
  8
A-ANNO-SCHD
420
2051386
100
AcDbText
 10
25.0
 20
135.15400000000025
 30
0.0
 40
1.6298333333333328
  1
L2-CORE
  7
KR-SANS
 41
0.8
 11
25.0
 21
135.15400000000025
 31
0.0
100
AcDbText
1001
KANTOR_RPG
1000
room
1000
L2-CORE
  0
TEXT
  5
23C
330
1B
100
AcDbEntity
 67
1
  8
A-ANNO-SCHD
420
2240554
100
AcDbText
 10
47.0
 20
135.15400000000025
 30
0.0
 40
1.6298333333333328
  1
Inti tangga & lift L2
  7
KR-SANS
 41
0.8
 11
47.0
 21
135.15400000000025
 31
0.0
100
AcDbText
  0
TEXT
  5
23D
330
1B
100
AcDbEntity
 67
1
  8
A-ANNO-SCHD
420
2240554
100
AcDbText
 10
101.5
 20
135.15400000000025
 30
0.0
 40
1.6298333333333328
  1
L2
  7
KR-SANS
 41
0.8
 72
1
 11
101.5
 21
135.15400000000025
 31
0.0
100
AcDbText
  0
TEXT
  5
23E
330
1B
100
AcDbEntity
 67
1
  8
A-ANNO-SCHD
420
2240554
100
AcDbText
 10
108.0
 20
135.15400000000025
 30
0.0
 40
1.6298333333333328
  1
circulation
  7
KR-SANS
 41
0.8
 11
108.0
 21
135.15400000000025
 31
0.0
100
AcDbText
  0
TEXT
  5
23F
330
1B
100
AcDbEntity
 67
1
  8
A-ANNO-SCHD
420
2240554
100
AcDbText
 10
127.0
 20
135.15400000000025
 30
0.0
 40
1.6298333333333328
  1
staff
  7
KR-SANS
 41
0.8
 11
127.0
 21
135.15400000000025
 31
0.0
100
AcDbText
  0
TEXT
  5
240
330
1B
100
AcDbEntity
 67
1
  8
A-ANNO-SCHD
420
2240554
100
AcDbText
 10
159.0
 20
135.15400000000025
 30
0.0
 40
1.6298333333333328
  1
36,00
  7
KR-SANS
 41
0.8
 72
2
 11
159.0
 21
135.15400000000025
 31
0.0
100
AcDbText
  0
TEXT
  5
241
330
1B
100
AcDbEntity
 67
1
  8
A-ANNO-SCHD
420
2240554
100
AcDbText
 10
170.0
 20
135.15400000000025
 30
0.0
 40
1.6298333333333328
  1
0
  7
KR-SANS
 41
0.8
 72
2
 11
170.0
 21
135.15400000000025
 31
0.0
100
AcDbText
  0
TEXT
  5
242
330
1B
100
AcDbEntity
 67
1
  8
A-ANNO-SCHD
420
2240554
100
AcDbText
 10
172.0
 20
135.15400000000025
 30
0.0
 40
1.6298333333333328
  1
D-L2-10, D-L2-12
  7
KR-SANS
 41
0.8
 11
172.0
 21
135.15400000000025
 31
0.0
100
AcDbText
  0
TEXT
  5
243
330
1B
100
AcDbEntity
 67
1
  8
A-ANNO-SCHD
420
2240554
100
AcDbText
 10
248.0
 20
135.15400000000025
 30
0.0
 40
1.6298333333333328
  1
vinyl motif kayu
  7
KR-SANS
 41
0.8
 11
248.0
 21
135.15400000000025
 31
0.0
100
AcDbText
  0
TEXT
  5
244
330
1B
100
AcDbEntity
 67
1
  8
A-ANNO-SCHD
420
2240554
100
AcDbText
 10
290.0
 20
135.15400000000025
 30
0.0
 40
1.6298333333333328
  1
cat matte krem + panel kayu
  7
KR-SANS
 41
0.8
 11
290.0
 21
135.15400000000025
 31
0.0
100
AcDbText
  0
TEXT
  5
245
330
1B
100
AcDbEntity
 67
1
  8
A-ANNO-SCHD
420
2240554
100
AcDbText
 10
330.0
 20
135.15400000000025
 30
0.0
 40
1.6298333333333328
  1
gypsum
  7
KR-SANS
 41
0.8
 11
330.0
 21
135.15400000000025
 31
0.0
100
AcDbText
  0
LWPOLYLINE
  5
246
330
1B
100
AcDbEntity
 67
1
  8
A-ANNO-SCHD
420
13227727
100
AcDbPolyline
 90
2
 70
0
 10
24.0
 20
133.60400000000027
 10
369.0
 20
133.60400000000027
  0
HATCH
  5
247
330
1B
100
AcDbEntity
 67
1
  8
A-ANNO-SCHD
 62
7
420
15857138
100
AcDbHatch
 10
0.0
 20
0.0
 30
0.0
210
0.0
220
0.0
230
1.0
  2
SOLID
 70
1
 71
0
 91
1
 92
3
 72
0
 73
1
 93
4
 10
24.0
 20
129.41000000000028
 10
369.0
 20
129.41000000000028
 10
369.0
 20
133.60400000000027
 10
24.0
 20
133.60400000000027
 97
0
 75
1
 76
1
 98
0
  0
TEXT
  5
248
330
1B
100
AcDbEntity
 67
1
  8
A-ANNO-SCHD
420
2051386
100
AcDbText
 10
25.0
 20
130.96000000000026
 30
0.0
 40
1.6298333333333328
  1
L2-GAME
  7
KR-SANS
 41
0.8
 11
25.0
 21
130.96000000000026
 31
0.0
100
AcDbText
1001
KANTOR_RPG
1000
room
1000
L2-GAME
  0
TEXT
  5
249
330
1B
100
AcDbEntity
 67
1
  8
A-ANNO-SCHD
420
2240554
100
AcDbText
 10
47.0
 20
130.96000000000026
 30
0.0
 40
1.6298333333333328
  1
Ruang game
  7
KR-SANS
 41
0.8
 11
47.0
 21
130.96000000000026
 31
0.0
100
AcDbText
  0
TEXT
  5
24A
330
1B
100
AcDbEntity
 67
1
  8
A-ANNO-SCHD
420
2240554
100
AcDbText
 10
101.5
 20
130.96000000000026
 30
0.0
 40
1.6298333333333328
  1
L2
  7
KR-SANS
 41
0.8
 72
1
 11
101.5
 21
130.96000000000026
 31
0.0
100
AcDbText
  0
TEXT
  5
24B
330
1B
100
AcDbEntity
 67
1
  8
A-ANNO-SCHD
420
2240554
100
AcDbText
 10
108.0
 20
130.96000000000026
 30
0.0
 40
1.6298333333333328
  1
recreation
  7
KR-SANS
 41
0.8
 11
108.0
 21
130.96000000000026
 31
0.0
100
AcDbText
  0
TEXT
  5
24C
330
1B
100
AcDbEntity
 67
1
  8
A-ANNO-SCHD
420
2240554
100
AcDbText
 10
127.0
 20
130.96000000000026
 30
0.0
 40
1.6298333333333328
  1
staff
  7
KR-SANS
 41
0.8
 11
127.0
 21
130.96000000000026
 31
0.0
100
AcDbText
  0
TEXT
  5
24D
330
1B
100
AcDbEntity
 67
1
  8
A-ANNO-SCHD
420
2240554
100
AcDbText
 10
159.0
 20
130.96000000000026
 30
0.0
 40
1.6298333333333328
  1
72,00
  7
KR-SANS
 41
0.8
 72
2
 11
159.0
 21
130.96000000000026
 31
0.0
100
AcDbText
  0
TEXT
  5
24E
330
1B
100
AcDbEntity
 67
1
  8
A-ANNO-SCHD
420
2240554
100
AcDbText
 10
170.0
 20
130.96000000000026
 30
0.0
 40
1.6298333333333328
  1
8
  7
KR-SANS
 41
0.8
 72
2
 11
170.0
 21
130.96000000000026
 31
0.0
100
AcDbText
  0
TEXT
  5
24F
330
1B
100
AcDbEntity
 67
1
  8
A-ANNO-SCHD
420
2240554
100
AcDbText
 10
172.0
 20
130.96000000000026
 30
0.0
 40
1.6298333333333328
  1
D-L2-11, D-L2-19
  7
KR-SANS
 41
0.8
 11
172.0
 21
130.96000000000026
 31
0.0
100
AcDbText
  0
TEXT
  5
250
330
1B
100
AcDbEntity
 67
1
  8
A-ANNO-SCHD
420
2240554
100
AcDbText
 10
248.0
 20
130.96000000000026
 30
0.0
 40
1.6298333333333328
  1
vinyl motif kayu
  7
KR-SANS
 41
0.8
 11
248.0
 21
130.96000000000026
 31
0.0
100
AcDbText
  0
TEXT
  5
251
330
1B
100
AcDbEntity
 67
1
  8
A-ANNO-SCHD
420
2240554
100
AcDbText
 10
290.0
 20
130.96000000000026
 30
0.0
 40
1.6298333333333328
  1
cat matte krem + panel kayu
  7
KR-SANS
 41
0.8
 11
290.0
 21
130.96000000000026
 31
0.0
100
AcDbText
  0
TEXT
  5
252
330
1B
100
AcDbEntity
 67
1
  8
A-ANNO-SCHD
420
2240554
100
AcDbText
 10
330.0
 20
130.96000000000026
 30
0.0
 40
1.6298333333333328
  1
gypsum
  7
KR-SANS
 41
0.8
 11
330.0
 21
130.96000000000026
 31
0.0
100
AcDbText
  0
LWPOLYLINE
  5
253
330
1B
100
AcDbEntity
 67
1
  8
A-ANNO-SCHD
420
13227727
100
AcDbPolyline
 90
2
 70
0
 10
24.0
 20
129.41000000000028
 10
369.0
 20
129.41000000000028
  0
TEXT
  5
254
330
1B
100
AcDbEntity
 67
1
  8
A-ANNO-SCHD
420
2051386
100
AcDbText
 10
25.0
 20
126.76600000000029
 30
0.0
 40
1.6298333333333328
  1
L2-NCORR
  7
KR-SANS
 41
0.8
 11
25.0
 21
126.76600000000029
 31
0.0
100
AcDbText
1001
KANTOR_RPG
1000
room
1000
L2-NCORR
  0
TEXT
  5
255
330
1B
100
AcDbEntity
 67
1
  8
A-ANNO-SCHD
420
2240554
100
AcDbText
 10
47.0
 20
126.76600000000029
 30
0.0
 40
1.6298333333333328
  1
Koridor utara L2
  7
KR-SANS
 41
0.8
 11
47.0
 21
126.76600000000029
 31
0.0
100
AcDbText
  0
TEXT
  5
256
330
1B
100
AcDbEntity
 67
1
  8
A-ANNO-SCHD
420
2240554
100
AcDbText
 10
101.5
 20
126.76600000000029
 30
0.0
 40
1.6298333333333328
  1
L2
  7
KR-SANS
 41
0.8
 72
1
 11
101.5
 21
126.76600000000029
 31
0.0
100
AcDbText
  0
TEXT
  5
257
330
1B
100
AcDbEntity
 67
1
  8
A-ANNO-SCHD
420
2240554
100
AcDbText
 10
108.0
 20
126.76600000000029
 30
0.0
 40
1.6298333333333328
  1
circulation
  7
KR-SANS
 41
0.8
 11
108.0
 21
126.76600000000029
 31
0.0
100
AcDbText
  0
TEXT
  5
258
330
1B
100
AcDbEntity
 67
1
  8
A-ANNO-SCHD
420
2240554
100
AcDbText
 10
127.0
 20
126.76600000000029
 30
0.0
 40
1.6298333333333328
  1
staff
  7
KR-SANS
 41
0.8
 11
127.0
 21
126.76600000000029
 31
0.0
100
AcDbText
  0
TEXT
  5
259
330
1B
100
AcDbEntity
 67
1
  8
A-ANNO-SCHD
420
2240554
100
AcDbText
 10
159.0
 20
126.76600000000029
 30
0.0
 40
1.6298333333333328
  1
64,00
  7
KR-SANS
 41
0.8
 72
2
 11
159.0
 21
126.76600000000029
 31
0.0
100
AcDbText
  0
TEXT
  5
25A
330
1B
100
AcDbEntity
 67
1
  8
A-ANNO-SCHD
420
2240554
100
AcDbText
 10
170.0
 20
126.76600000000029
 30
0.0
 40
1.6298333333333328
  1
0
  7
KR-SANS
 41
0.8
 72
2
 11
170.0
 21
126.76600000000029
 31
0.0
100
AcDbText
  0
TEXT
  5
25B
330
1B
100
AcDbEntity
 67
1
  8
A-ANNO-SCHD
420
2240554
100
AcDbText
 10
172.0
 20
126.76600000000029
 30
0.0
 40
1.6298333333333328
  1
D-L2-12, D-L2-19, D-L2-13, D-L2-14, D-L2-15, D-L2-16, D-L2-17, D-L2-18
  7
KR-SANS
 41
0.8
 11
172.0
 21
126.76600000000029
 31
0.0
100
AcDbText
  0
TEXT
  5
25C
330
1B
100
AcDbEntity
 67
1
  8
A-ANNO-SCHD
420
2240554
100
AcDbText
 10
248.0
 20
126.76600000000029
 30
0.0
 40
1.6298333333333328
  1
vinyl motif kayu
  7
KR-SANS
 41
0.8
 11
248.0
 21
126.76600000000029
 31
0.0
100
AcDbText
  0
TEXT
  5
25D
330
1B
100
AcDbEntity
 67
1
  8
A-ANNO-SCHD
420
2240554
100
AcDbText
 10
290.0
 20
126.76600000000029
 30
0.0
 40
1.6298333333333328
  1
cat matte krem + panel kayu
  7
KR-SANS
 41
0.8
 11
290.0
 21
126.76600000000029
 31
0.0
100
AcDbText
  0
TEXT
  5
25E
330
1B
100
AcDbEntity
 67
1
  8
A-ANNO-SCHD
420
2240554
100
AcDbText
 10
330.0
 20
126.76600000000029
 30
0.0
 40
1.6298333333333328
  1
gypsum
  7
KR-SANS
 41
0.8
 11
330.0
 21
126.76600000000029
 31
0.0
100
AcDbText
  0
LWPOLYLINE
  5
25F
330
1B
100
AcDbEntity
 67
1
  8
A-ANNO-SCHD
420
13227727
100
AcDbPolyline
 90
2
 70
0
 10
24.0
 20
125.21600000000028
 10
369.0
 20
125.21600000000028
  0
HATCH
  5
260
330
1B
100
AcDbEntity
 67
1
  8
A-ANNO-SCHD
 62
7
420
15857138
100
AcDbHatch
 10
0.0
 20
0.0
 30
0.0
210
0.0
220
0.0
230
1.0
  2
SOLID
 70
1
 71
0
 91
1
 92
3
 72
0
 73
1
 93
4
 10
24.0
 20
121.02200000000028
 10
369.0
 20
121.02200000000028
 10
369.0
 20
125.21600000000028
 10
24.0
 20
125.21600000000028
 97
0
 75
1
 76
1
 98
0
  0
TEXT
  5
261
330
1B
100
AcDbEntity
 67
1
  8
A-ANNO-SCHD
420
2051386
100
AcDbText
 10
25.0
 20
122.57200000000029
 30
0.0
 40
1.6298333333333328
  1
L2-BALCONY
  7
KR-SANS
 41
0.8
 11
25.0
 21
122.57200000000029
 31
0.0
100
AcDbText
1001
KANTOR_RPG
1000
room
1000
L2-BALCONY
  0
TEXT
  5
262
330
1B
100
AcDbEntity
 67
1
  8
A-ANNO-SCHD
420
2240554
100
AcDbText
 10
47.0
 20
122.57200000000029
 30
0.0
 40
1.6298333333333328
  1
Balkon taman
  7
KR-SANS
 41
0.8
 11
47.0
 21
122.57200000000029
 31
0.0
100
AcDbText
  0
TEXT
  5
263
330
1B
100
AcDbEntity
 67
1
  8
A-ANNO-SCHD
420
2240554
100
AcDbText
 10
101.5
 20
122.57200000000029
 30
0.0
 40
1.6298333333333328
  1
L2
  7
KR-SANS
 41
0.8
 72
1
 11
101.5
 21
122.57200000000029
 31
0.0
100
AcDbText
  0
TEXT
  5
264
330
1B
100
AcDbEntity
 67
1
  8
A-ANNO-SCHD
420
2240554
100
AcDbText
 10
108.0
 20
122.57200000000029
 30
0.0
 40
1.6298333333333328
  1
outdoor
  7
KR-SANS
 41
0.8
 11
108.0
 21
122.57200000000029
 31
0.0
100
AcDbText
  0
TEXT
  5
265
330
1B
100
AcDbEntity
 67
1
  8
A-ANNO-SCHD
420
2240554
100
AcDbText
 10
127.0
 20
122.57200000000029
 30
0.0
 40
1.6298333333333328
  1
staff
  7
KR-SANS
 41
0.8
 11
127.0
 21
122.57200000000029
 31
0.0
100
AcDbText
  0
TEXT
  5
266
330
1B
100
AcDbEntity
 67
1
  8
A-ANNO-SCHD
420
2240554
100
AcDbText
 10
159.0
 20
122.57200000000029
 30
0.0
 40
1.6298333333333328
  1
38,50
  7
KR-SANS
 41
0.8
 72
2
 11
159.0
 21
122.57200000000029
 31
0.0
100
AcDbText
  0
TEXT
  5
267
330
1B
100
AcDbEntity
 67
1
  8
A-ANNO-SCHD
420
2240554
100
AcDbText
 10
170.0
 20
122.57200000000029
 30
0.0
 40
1.6298333333333328
  1
2
  7
KR-SANS
 41
0.8
 72
2
 11
170.0
 21
122.57200000000029
 31
0.0
100
AcDbText
  0
TEXT
  5
268
330
1B
100
AcDbEntity
 67
1
  8
A-ANNO-SCHD
420
2240554
100
AcDbText
 10
172.0
 20
122.57200000000029
 30
0.0
 40
1.6298333333333328
  1
D-L2-13
  7
KR-SANS
 41
0.8
 11
172.0
 21
122.57200000000029
 31
0.0
100
AcDbText
  0
TEXT
  5
269
330
1B
100
AcDbEntity
 67
1
  8
A-ANNO-SCHD
420
2240554
100
AcDbText
 10
248.0
 20
122.57200000000029
 30
0.0
 40
1.6298333333333328
  1
deck komposit
  7
KR-SANS
 41
0.8
 11
248.0
 21
122.57200000000029
 31
0.0
100
AcDbText
  0
TEXT
  5
26A
330
1B
100
AcDbEntity
 67
1
  8
A-ANNO-SCHD
420
2240554
100
AcDbText
 10
290.0
 20
122.57200000000029
 30
0.0
 40
1.6298333333333328
  1
panel tanaman
  7
KR-SANS
 41
0.8
 11
290.0
 21
122.57200000000029
 31
0.0
100
AcDbText
  0
TEXT
  5
26B
330
1B
100
AcDbEntity
 67
1
  8
A-ANNO-SCHD
420
2240554
100
AcDbText
 10
330.0
 20
122.57200000000029
 30
0.0
 40
1.6298333333333328
  1
terbuka/pergola
  7
KR-SANS
 41
0.8
 11
330.0
 21
122.57200000000029
 31
0.0
100
AcDbText
  0
LWPOLYLINE
  5
26C
330
1B
100
AcDbEntity
 67
1
  8
A-ANNO-SCHD
420
13227727
100
AcDbPolyline
 90
2
 70
0
 10
24.0
 20
121.02200000000028
 10
369.0
 20
121.02200000000028
  0
TEXT
  5
26D
330
1B
100
AcDbEntity
 67
1
  8
A-ANNO-SCHD
420
2051386
100
AcDbText
 10
25.0
 20
118.37800000000028
 30
0.0
 40
1.6298333333333328
  1
L2-BILLIARD
  7
KR-SANS
 41
0.8
 11
25.0
 21
118.37800000000028
 31
0.0
100
AcDbText
1001
KANTOR_RPG
1000
room
1000
L2-BILLIARD
  0
TEXT
  5
26E
330
1B
100
AcDbEntity
 67
1
  8
A-ANNO-SCHD
420
2240554
100
AcDbText
 10
47.0
 20
118.37800000000028
 30
0.0
 40
1.6298333333333328
  1
Ruang biliar
  7
KR-SANS
 41
0.8
 11
47.0
 21
118.37800000000028
 31
0.0
100
AcDbText
  0
TEXT
  5
26F
330
1B
100
AcDbEntity
 67
1
  8
A-ANNO-SCHD
420
2240554
100
AcDbText
 10
101.5
 20
118.37800000000028
 30
0.0
 40
1.6298333333333328
  1
L2
  7
KR-SANS
 41
0.8
 72
1
 11
101.5
 21
118.37800000000028
 31
0.0
100
AcDbText
  0
TEXT
  5
270
330
1B
100
AcDbEntity
 67
1
  8
A-ANNO-SCHD
420
2240554
100
AcDbText
 10
108.0
 20
118.37800000000028
 30
0.0
 40
1.6298333333333328
  1
recreation
  7
KR-SANS
 41
0.8
 11
108.0
 21
118.37800000000028
 31
0.0
100
AcDbText
  0
TEXT
  5
271
330
1B
100
AcDbEntity
 67
1
  8
A-ANNO-SCHD
420
2240554
100
AcDbText
 10
127.0
 20
118.37800000000028
 30
0.0
 40
1.6298333333333328
  1
staff
  7
KR-SANS
 41
0.8
 11
127.0
 21
118.37800000000028
 31
0.0
100
AcDbText
  0
TEXT
  5
272
330
1B
100
AcDbEntity
 67
1
  8
A-ANNO-SCHD
420
2240554
100
AcDbText
 10
159.0
 20
118.37800000000028
 30
0.0
 40
1.6298333333333328
  1
38,50
  7
KR-SANS
 41
0.8
 72
2
 11
159.0
 21
118.37800000000028
 31
0.0
100
AcDbText
  0
TEXT
  5
273
330
1B
100
AcDbEntity
 67
1
  8
A-ANNO-SCHD
420
2240554
100
AcDbText
 10
170.0
 20
118.37800000000028
 30
0.0
 40
1.6298333333333328
  1
0
  7
KR-SANS
 41
0.8
 72
2
 11
170.0
 21
118.37800000000028
 31
0.0
100
AcDbText
  0
TEXT
  5
274
330
1B
100
AcDbEntity
 67
1
  8
A-ANNO-SCHD
420
2240554
100
AcDbText
 10
172.0
 20
118.37800000000028
 30
0.0
 40
1.6298333333333328
  1
D-L2-14
  7
KR-SANS
 41
0.8
 11
172.0
 21
118.37800000000028
 31
0.0
100
AcDbText
  0
TEXT
  5
275
330
1B
100
AcDbEntity
 67
1
  8
A-ANNO-SCHD
420
2240554
100
AcDbText
 10
248.0
 20
118.37800000000028
 30
0.0
 40
1.6298333333333328
  1
karpet tile matte
  7
KR-SANS
 41
0.8
 11
248.0
 21
118.37800000000028
 31
0.0
100
AcDbText
  0
TEXT
  5
276
330
1B
100
AcDbEntity
 67
1
  8
A-ANNO-SCHD
420
2240554
100
AcDbText
 10
290.0
 20
118.37800000000028
 30
0.0
 40
1.6298333333333328
  1
cat matte krem
  7
KR-SANS
 41
0.8
 11
290.0
 21
118.37800000000028
 31
0.0
100
AcDbText
  0
TEXT
  5
277
330
1B
100
AcDbEntity
 67
1
  8
A-ANNO-SCHD
420
2240554
100
AcDbText
 10
330.0
 20
118.37800000000028
 30
0.0
 40
1.6298333333333328
  1
akustik panel
  7
KR-SANS
 41
0.8
 11
330.0
 21
118.37800000000028
 31
0.0
100
AcDbText
  0
LWPOLYLINE
  5
278
330
1B
100
AcDbEntity
 67
1
  8
A-ANNO-SCHD
420
13227727
100
AcDbPolyline
 90
2
 70
0
 10
24.0
 20
116.82800000000027
 10
369.0
 20
116.82800000000027
  0
HATCH
  5
279
330
1B
100
AcDbEntity
 67
1
  8
A-ANNO-SCHD
 62
7
420
15857138
100
AcDbHatch
 10
0.0
 20
0.0
 30
0.0
210
0.0
220
0.0
230
1.0
  2
SOLID
 70
1
 71
0
 91
1
 92
3
 72
0
 73
1
 93
4
 10
24.0
 20
112.63400000000027
 10
369.0
 20
112.63400000000027
 10
369.0
 20
116.82800000000027
 10
24.0
 20
116.82800000000027
 97
0
 75
1
 76
1
 98
0
  0
TEXT
  5
27A
330
1B
100
AcDbEntity
 67
1
  8
A-ANNO-SCHD
420
2051386
100
AcDbText
 10
25.0
 20
114.18400000000028
 30
0.0
 40
1.6298333333333328
  1
L2-GYM
  7
KR-SANS
 41
0.8
 11
25.0
 21
114.18400000000028
 31
0.0
100
AcDbText
1001
KANTOR_RPG
1000
room
1000
L2-GYM
  0
TEXT
  5
27B
330
1B
100
AcDbEntity
 67
1
  8
A-ANNO-SCHD
420
2240554
100
AcDbText
 10
47.0
 20
114.18400000000028
 30
0.0
 40
1.6298333333333328
  1
Ruang olahraga
  7
KR-SANS
 41
0.8
 11
47.0
 21
114.18400000000028
 31
0.0
100
AcDbText
  0
TEXT
  5
27C
330
1B
100
AcDbEntity
 67
1
  8
A-ANNO-SCHD
420
2240554
100
AcDbText
 10
101.5
 20
114.18400000000028
 30
0.0
 40
1.6298333333333328
  1
L2
  7
KR-SANS
 41
0.8
 72
1
 11
101.5
 21
114.18400000000028
 31
0.0
100
AcDbText
  0
TEXT
  5
27D
330
1B
100
AcDbEntity
 67
1
  8
A-ANNO-SCHD
420
2240554
100
AcDbText
 10
108.0
 20
114.18400000000028
 30
0.0
 40
1.6298333333333328
  1
recreation
  7
KR-SANS
 41
0.8
 11
108.0
 21
114.18400000000028
 31
0.0
100
AcDbText
  0
TEXT
  5
27E
330
1B
100
AcDbEntity
 67
1
  8
A-ANNO-SCHD
420
2240554
100
AcDbText
 10
127.0
 20
114.18400000000028
 30
0.0
 40
1.6298333333333328
  1
staff
  7
KR-SANS
 41
0.8
 11
127.0
 21
114.18400000000028
 31
0.0
100
AcDbText
  0
TEXT
  5
27F
330
1B
100
AcDbEntity
 67
1
  8
A-ANNO-SCHD
420
2240554
100
AcDbText
 10
159.0
 20
114.18400000000028
 30
0.0
 40
1.6298333333333328
  1
49,50
  7
KR-SANS
 41
0.8
 72
2
 11
159.0
 21
114.18400000000028
 31
0.0
100
AcDbText
  0
TEXT
  5
280
330
1B
100
AcDbEntity
 67
1
  8
A-ANNO-SCHD
420
2240554
100
AcDbText
 10
170.0
 20
114.18400000000028
 30
0.0
 40
1.6298333333333328
  1
3
  7
KR-SANS
 41
0.8
 72
2
 11
170.0
 21
114.18400000000028
 31
0.0
100
AcDbText
  0
TEXT
  5
281
330
1B
100
AcDbEntity
 67
1
  8
A-ANNO-SCHD
420
2240554
100
AcDbText
 10
172.0
 20
114.18400000000028
 30
0.0
 40
1.6298333333333328
  1
D-L2-15
  7
KR-SANS
 41
0.8
 11
172.0
 21
114.18400000000028
 31
0.0
100
AcDbText
  0
TEXT
  5
282
330
1B
100
AcDbEntity
 67
1
  8
A-ANNO-SCHD
420
2240554
100
AcDbText
 10
248.0
 20
114.18400000000028
 30
0.0
 40
1.6298333333333328
  1
lantai karet olahraga
  7
KR-SANS
 41
0.8
 11
248.0
 21
114.18400000000028
 31
0.0
100
AcDbText
  0
TEXT
  5
283
330
1B
100
AcDbEntity
 67
1
  8
A-ANNO-SCHD
420
2240554
100
AcDbText
 10
290.0
 20
114.18400000000028
 30
0.0
 40
1.6298333333333328
  1
cat matte
  7
KR-SANS
 41
0.8
 11
290.0
 21
114.18400000000028
 31
0.0
100
AcDbText
  0
TEXT
  5
284
330
1B
100
AcDbEntity
 67
1
  8
A-ANNO-SCHD
420
2240554
100
AcDbText
 10
330.0
 20
114.18400000000028
 30
0.0
 40
1.6298333333333328
  1
akustik panel
  7
KR-SANS
 41
0.8
 11
330.0
 21
114.18400000000028
 31
0.0
100
AcDbText
  0
LWPOLYLINE
  5
285
330
1B
100
AcDbEntity
 67
1
  8
A-ANNO-SCHD
420
13227727
100
AcDbPolyline
 90
2
 70
0
 10
24.0
 20
112.63400000000027
 10
369.0
 20
112.63400000000027
  0
TEXT
  5
286
330
1B
100
AcDbEntity
 67
1
  8
A-ANNO-SCHD
420
2051386
100
AcDbText
 10
25.0
 20
109.99000000000028
 30
0.0
 40
1.6298333333333328
  1
L2-STORE
  7
KR-SANS
 41
0.8
 11
25.0
 21
109.99000000000028
 31
0.0
100
AcDbText
1001
KANTOR_RPG
1000
room
1000
L2-STORE
  0
TEXT
  5
287
330
1B
100
AcDbEntity
 67
1
  8
A-ANNO-SCHD
420
2240554
100
AcDbText
 10
47.0
 20
109.99000000000028
 30
0.0
 40
1.6298333333333328
  1
Gudang L2
  7
KR-SANS
 41
0.8
 11
47.0
 21
109.99000000000028
 31
0.0
100
AcDbText
  0
TEXT
  5
288
330
1B
100
AcDbEntity
 67
1
  8
A-ANNO-SCHD
420
2240554
100
AcDbText
 10
101.5
 20
109.99000000000028
 30
0.0
 40
1.6298333333333328
  1
L2
  7
KR-SANS
 41
0.8
 72
1
 11
101.5
 21
109.99000000000028
 31
0.0
100
AcDbText
  0
TEXT
  5
289
330
1B
100
AcDbEntity
 67
1
  8
A-ANNO-SCHD
420
2240554
100
AcDbText
 10
108.0
 20
109.99000000000028
 30
0.0
 40
1.6298333333333328
  1
service
  7
KR-SANS
 41
0.8
 11
108.0
 21
109.99000000000028
 31
0.0
100
AcDbText
  0
TEXT
  5
28A
330
1B
100
AcDbEntity
 67
1
  8
A-ANNO-SCHD
420
2240554
100
AcDbText
 10
127.0
 20
109.99000000000028
 30
0.0
 40
1.6298333333333328
  1
staff
  7
KR-SANS
 41
0.8
 11
127.0
 21
109.99000000000028
 31
0.0
100
AcDbText
  0
TEXT
  5
28B
330
1B
100
AcDbEntity
 67
1
  8
A-ANNO-SCHD
420
2240554
100
AcDbText
 10
159.0
 20
109.99000000000028
 30
0.0
 40
1.6298333333333328
  1
33,00
  7
KR-SANS
 41
0.8
 72
2
 11
159.0
 21
109.99000000000028
 31
0.0
100
AcDbText
  0
TEXT
  5
28C
330
1B
100
AcDbEntity
 67
1
  8
A-ANNO-SCHD
420
2240554
100
AcDbText
 10
170.0
 20
109.99000000000028
 30
0.0
 40
1.6298333333333328
  1
0
  7
KR-SANS
 41
0.8
 72
2
 11
170.0
 21
109.99000000000028
 31
0.0
100
AcDbText
  0
TEXT
  5
28D
330
1B
100
AcDbEntity
 67
1
  8
A-ANNO-SCHD
420
2240554
100
AcDbText
 10
172.0
 20
109.99000000000028
 30
0.0
 40
1.6298333333333328
  1
D-L2-16
  7
KR-SANS
 41
0.8
 11
172.0
 21
109.99000000000028
 31
0.0
100
AcDbText
  0
TEXT
  5
28E
330
1B
100
AcDbEntity
 67
1
  8
A-ANNO-SCHD
420
2240554
100
AcDbText
 10
248.0
 20
109.99000000000028
 30
0.0
 40
1.6298333333333328
  1
epoxy
  7
KR-SANS
 41
0.8
 11
248.0
 21
109.99000000000028
 31
0.0
100
AcDbText
  0
TEXT
  5
28F
330
1B
100
AcDbEntity
 67
1
  8
A-ANNO-SCHD
420
2240554
100
AcDbText
 10
290.0
 20
109.99000000000028
 30
0.0
 40
1.6298333333333328
  1
cat matte
  7
KR-SANS
 41
0.8
 11
290.0
 21
109.99000000000028
 31
0.0
100
AcDbText
  0
TEXT
  5
290
330
1B
100
AcDbEntity
 67
1
  8
A-ANNO-SCHD
420
2240554
100
AcDbText
 10
330.0
 20
109.99000000000028
 30
0.0
 40
1.6298333333333328
  1
gypsum
  7
KR-SANS
 41
0.8
 11
330.0
 21
109.99000000000028
 31
0.0
100
AcDbText
  0
LWPOLYLINE
  5
291
330
1B
100
AcDbEntity
 67
1
  8
A-ANNO-SCHD
420
13227727
100
AcDbPolyline
 90
2
 70
0
 10
24.0
 20
108.44000000000027
 10
369.0
 20
108.44000000000027
  0
HATCH
  5
292
330
1B
100
AcDbEntity
 67
1
  8
A-ANNO-SCHD
 62
7
420
15857138
100
AcDbHatch
 10
0.0
 20
0.0
 30
0.0
210
0.0
220
0.0
230
1.0
  2
SOLID
 70
1
 71
0
 91
1
 92
3
 72
0
 73
1
 93
4
 10
24.0
 20
104.24600000000027
 10
369.0
 20
104.24600000000027
 10
369.0
 20
108.44000000000027
 10
24.0
 20
108.44000000000027
 97
0
 75
1
 76
1
 98
0
  0
TEXT
  5
293
330
1B
100
AcDbEntity
 67
1
  8
A-ANNO-SCHD
420
2051386
100
AcDbText
 10
25.0
 20
105.79600000000028
 30
0.0
 40
1.6298333333333328
  1
L2-RISER
  7
KR-SANS
 41
0.8
 11
25.0
 21
105.79600000000028
 31
0.0
100
AcDbText
1001
KANTOR_RPG
1000
room
1000
L2-RISER
  0
TEXT
  5
294
330
1B
100
AcDbEntity
 67
1
  8
A-ANNO-SCHD
420
2240554
100
AcDbText
 10
47.0
 20
105.79600000000028
 30
0.0
 40
1.6298333333333328
  1
Riser ICT L2
  7
KR-SANS
 41
0.8
 11
47.0
 21
105.79600000000028
 31
0.0
100
AcDbText
  0
TEXT
  5
295
330
1B
100
AcDbEntity
 67
1
  8
A-ANNO-SCHD
420
2240554
100
AcDbText
 10
101.5
 20
105.79600000000028
 30
0.0
 40
1.6298333333333328
  1
L2
  7
KR-SANS
 41
0.8
 72
1
 11
101.5
 21
105.79600000000028
 31
0.0
100
AcDbText
  0
TEXT
  5
296
330
1B
100
AcDbEntity
 67
1
  8
A-ANNO-SCHD
420
2240554
100
AcDbText
 10
108.0
 20
105.79600000000028
 30
0.0
 40
1.6298333333333328
  1
shaft
  7
KR-SANS
 41
0.8
 11
108.0
 21
105.79600000000028
 31
0.0
100
AcDbText
  0
TEXT
  5
297
330
1B
100
AcDbEntity
 67
1
  8
A-ANNO-SCHD
420
2240554
100
AcDbText
 10
127.0
 20
105.79600000000028
 30
0.0
 40
1.6298333333333328
  1
restricted
  7
KR-SANS
 41
0.8
 11
127.0
 21
105.79600000000028
 31
0.0
100
AcDbText
  0
TEXT
  5
298
330
1B
100
AcDbEntity
 67
1
  8
A-ANNO-SCHD
420
2240554
100
AcDbText
 10
159.0
 20
105.79600000000028
 30
0.0
 40
1.6298333333333328
  1
1,50
  7
KR-SANS
 41
0.8
 72
2
 11
159.0
 21
105.79600000000028
 31
0.0
100
AcDbText
  0
TEXT
  5
299
330
1B
100
AcDbEntity
 67
1
  8
A-ANNO-SCHD
420
2240554
100
AcDbText
 10
170.0
 20
105.79600000000028
 30
0.0
 40
1.6298333333333328
  1
0
  7
KR-SANS
 41
0.8
 72
2
 11
170.0
 21
105.79600000000028
 31
0.0
100
AcDbText
  0
TEXT
  5
29A
330
1B
100
AcDbEntity
 67
1
  8
A-ANNO-SCHD
420
2240554
100
AcDbText
 10
172.0
 20
105.79600000000028
 30
0.0
 40
1.6298333333333328
  1
D-L2-17
  7
KR-SANS
 41
0.8
 11
172.0
 21
105.79600000000028
 31
0.0
100
AcDbText
  0
TEXT
  5
29B
330
1B
100
AcDbEntity
 67
1
  8
A-ANNO-SCHD
420
2240554
100
AcDbText
 10
248.0
 20
105.79600000000028
 30
0.0
 40
1.6298333333333328
  1
-
  7
KR-SANS
 41
0.8
 11
248.0
 21
105.79600000000028
 31
0.0
100
AcDbText
  0
TEXT
  5
29C
330
1B
100
AcDbEntity
 67
1
  8
A-ANNO-SCHD
420
2240554
100
AcDbText
 10
290.0
 20
105.79600000000028
 30
0.0
 40
1.6298333333333328
  1
-
  7
KR-SANS
 41
0.8
 11
290.0
 21
105.79600000000028
 31
0.0
100
AcDbText
  0
TEXT
  5
29D
330
1B
100
AcDbEntity
 67
1
  8
A-ANNO-SCHD
420
2240554
100
AcDbText
 10
330.0
 20
105.79600000000028
 30
0.0
 40
1.6298333333333328
  1
-
  7
KR-SANS
 41
0.8
 11
330.0
 21
105.79600000000028
 31
0.0
100
AcDbText
  0
LWPOLYLINE
  5
29E
330
1B
100
AcDbEntity
 67
1
  8
A-ANNO-SCHD
420
13227727
100
AcDbPolyline
 90
2
 70
0
 10
24.0
 20
104.24600000000027
 10
369.0
 20
104.24600000000027
  0
TEXT
  5
29F
330
1B
100
AcDbEntity
 67
1
  8
A-ANNO-SCHD
420
2051386
100
AcDbText
 10
25.0
 20
101.60200000000027
 30
0.0
 40
1.6298333333333328
  1
L2-SERVICE
  7
KR-SANS
 41
0.8
 11
25.0
 21
101.60200000000027
 31
0.0
100
AcDbText
1001
KANTOR_RPG
1000
room
1000
L2-SERVICE
  0
TEXT
  5
2A0
330
1B
100
AcDbEntity
 67
1
  8
A-ANNO-SCHD
420
2240554
100
AcDbText
 10
47.0
 20
101.60200000000027
 30
0.0
 40
1.6298333333333328
  1
Area servis L2
  7
KR-SANS
 41
0.8
 11
47.0
 21
101.60200000000027
 31
0.0
100
AcDbText
  0
TEXT
  5
2A1
330
1B
100
AcDbEntity
 67
1
  8
A-ANNO-SCHD
420
2240554
100
AcDbText
 10
101.5
 20
101.60200000000027
 30
0.0
 40
1.6298333333333328
  1
L2
  7
KR-SANS
 41
0.8
 72
1
 11
101.5
 21
101.60200000000027
 31
0.0
100
AcDbText
  0
TEXT
  5
2A2
330
1B
100
AcDbEntity
 67
1
  8
A-ANNO-SCHD
420
2240554
100
AcDbText
 10
108.0
 20
101.60200000000027
 30
0.0
 40
1.6298333333333328
  1
service
  7
KR-SANS
 41
0.8
 11
108.0
 21
101.60200000000027
 31
0.0
100
AcDbText
  0
TEXT
  5
2A3
330
1B
100
AcDbEntity
 67
1
  8
A-ANNO-SCHD
420
2240554
100
AcDbText
 10
127.0
 20
101.60200000000027
 30
0.0
 40
1.6298333333333328
  1
staff
  7
KR-SANS
 41
0.8
 11
127.0
 21
101.60200000000027
 31
0.0
100
AcDbText
  0
TEXT
  5
2A4
330
1B
100
AcDbEntity
 67
1
  8
A-ANNO-SCHD
420
2240554
100
AcDbText
 10
159.0
 20
101.60200000000027
 30
0.0
 40
1.6298333333333328
  1
15,00
  7
KR-SANS
 41
0.8
 72
2
 11
159.0
 21
101.60200000000027
 31
0.0
100
AcDbText
  0
TEXT
  5
2A5
330
1B
100
AcDbEntity
 67
1
  8
A-ANNO-SCHD
420
2240554
100
AcDbText
 10
170.0
 20
101.60200000000027
 30
0.0
 40
1.6298333333333328
  1
0
  7
KR-SANS
 41
0.8
 72
2
 11
170.0
 21
101.60200000000027
 31
0.0
100
AcDbText
  0
TEXT
  5
2A6
330
1B
100
AcDbEntity
 67
1
  8
A-ANNO-SCHD
420
2240554
100
AcDbText
 10
172.0
 20
101.60200000000027
 30
0.0
 40
1.6298333333333328
  1
D-L2-18
  7
KR-SANS
 41
0.8
 11
172.0
 21
101.60200000000027
 31
0.0
100
AcDbText
  0
TEXT
  5
2A7
330
1B
100
AcDbEntity
 67
1
  8
A-ANNO-SCHD
420
2240554
100
AcDbText
 10
248.0
 20
101.60200000000027
 30
0.0
 40
1.6298333333333328
  1
epoxy
  7
KR-SANS
 41
0.8
 11
248.0
 21
101.60200000000027
 31
0.0
100
AcDbText
  0
TEXT
  5
2A8
330
1B
100
AcDbEntity
 67
1
  8
A-ANNO-SCHD
420
2240554
100
AcDbText
 10
290.0
 20
101.60200000000027
 30
0.0
 40
1.6298333333333328
  1
cat matte
  7
KR-SANS
 41
0.8
 11
290.0
 21
101.60200000000027
 31
0.0
100
AcDbText
  0
TEXT
  5
2A9
330
1B
100
AcDbEntity
 67
1
  8
A-ANNO-SCHD
420
2240554
100
AcDbText
 10
330.0
 20
101.60200000000027
 30
0.0
 40
1.6298333333333328
  1
gypsum
  7
KR-SANS
 41
0.8
 11
330.0
 21
101.60200000000027
 31
0.0
100
AcDbText
  0
LWPOLYLINE
  5
2AA
330
1B
100
AcDbEntity
 67
1
  8
A-ANNO-SCHD
420
13227727
100
AcDbPolyline
 90
2
 70
0
 10
24.0
 20
100.05200000000026
 10
369.0
 20
100.05200000000026
  0
HATCH
  5
2AB
330
1B
100
AcDbEntity
 67
1
  8
A-ANNO-SCHD
 62
7
420
15857138
100
AcDbHatch
 10
0.0
 20
0.0
 30
0.0
210
0.0
220
0.0
230
1.0
  2
SOLID
 70
1
 71
0
 91
1
 92
3
 72
0
 73
1
 93
4
 10
24.0
 20
95.85800000000026
 10
369.0
 20
95.85800000000026
 10
369.0
 20
100.05200000000026
 10
24.0
 20
100.05200000000026
 97
0
 75
1
 76
1
 98
0
  0
TEXT
  5
2AC
330
1B
100
AcDbEntity
 67
1
  8
A-ANNO-SCHD
420
2051386
100
AcDbText
 10
25.0
 20
97.40800000000027
 30
0.0
 40
1.6298333333333328
  1
Subtotal L2
  7
KR-SANS
 41
0.8
 11
25.0
 21
97.40800000000027
 31
0.0
100
AcDbText
  0
TEXT
  5
2AD
330
1B
100
AcDbEntity
 67
1
  8
A-ANNO-SCHD
420
2240554
100
AcDbText
 10
47.0
 20
97.40800000000027
 30
0.0
 40
1.6298333333333328
  1
18 ruang
  7
KR-SANS
 41
0.8
 11
47.0
 21
97.40800000000027
 31
0.0
100
AcDbText
  0
TEXT
  5
2AE
330
1B
100
AcDbEntity
 67
1
  8
A-ANNO-SCHD
420
2240554
100
AcDbText
 10
101.5
 20
97.40800000000027
 30
0.0
 40
1.6298333333333328
  1

  7
KR-SANS
 41
0.8
 72
1
 11
101.5
 21
97.40800000000027
 31
0.0
100
AcDbText
  0
TEXT
  5
2AF
330
1B
100
AcDbEntity
 67
1
  8
A-ANNO-SCHD
420
2240554
100
AcDbText
 10
108.0
 20
97.40800000000027
 30
0.0
 40
1.6298333333333328
  1

  7
KR-SANS
 41
0.8
 11
108.0
 21
97.40800000000027
 31
0.0
100
AcDbText
  0
TEXT
  5
2B0
330
1B
100
AcDbEntity
 67
1
  8
A-ANNO-SCHD
420
2240554
100
AcDbText
 10
127.0
 20
97.40800000000027
 30
0.0
 40
1.6298333333333328
  1

  7
KR-SANS
 41
0.8
 11
127.0
 21
97.40800000000027
 31
0.0
100
AcDbText
  0
TEXT
  5
2B1
330
1B
100
AcDbEntity
 67
1
  8
A-ANNO-SCHD
420
2240554
100
AcDbText
 10
159.0
 20
97.40800000000027
 30
0.0
 40
1.6298333333333328
  1
768,00
  7
KR-SANS
 41
0.8
 72
2
 11
159.0
 21
97.40800000000027
 31
0.0
100
AcDbText
  0
TEXT
  5
2B2
330
1B
100
AcDbEntity
 67
1
  8
A-ANNO-SCHD
420
2240554
100
AcDbText
 10
170.0
 20
97.40800000000027
 30
0.0
 40
1.6298333333333328
  1
42
  7
KR-SANS
 41
0.8
 72
2
 11
170.0
 21
97.40800000000027
 31
0.0
100
AcDbText
  0
TEXT
  5
2B3
330
1B
100
AcDbEntity
 67
1
  8
A-ANNO-SCHD
420
2240554
100
AcDbText
 10
172.0
 20
97.40800000000027
 30
0.0
 40
1.6298333333333328
  1
cek: jumlah = envelope 768,00 m² COCOK
  7
KR-SANS
 41
0.8
 11
172.0
 21
97.40800000000027
 31
0.0
100
AcDbText
  0
TEXT
  5
2B4
330
1B
100
AcDbEntity
 67
1
  8
A-ANNO-SCHD
420
2240554
100
AcDbText
 10
248.0
 20
97.40800000000027
 30
0.0
 40
1.6298333333333328
  1

  7
KR-SANS
 41
0.8
 11
248.0
 21
97.40800000000027
 31
0.0
100
AcDbText
  0
TEXT
  5
2B5
330
1B
100
AcDbEntity
 67
1
  8
A-ANNO-SCHD
420
2240554
100
AcDbText
 10
290.0
 20
97.40800000000027
 30
0.0
 40
1.6298333333333328
  1

  7
KR-SANS
 41
0.8
 11
290.0
 21
97.40800000000027
 31
0.0
100
AcDbText
  0
TEXT
  5
2B6
330
1B
100
AcDbEntity
 67
1
  8
A-ANNO-SCHD
420
2240554
100
AcDbText
 10
330.0
 20
97.40800000000027
 30
0.0
 40
1.6298333333333328
  1

  7
KR-SANS
 41
0.8
 11
330.0
 21
97.40800000000027
 31
0.0
100
AcDbText
  0
LWPOLYLINE
  5
2B7
330
1B
100
AcDbEntity
 67
1
  8
A-ANNO-SCHD
420
13227727
100
AcDbPolyline
 90
2
 70
0
 10
24.0
 20
95.85800000000026
 10
369.0
 20
95.85800000000026
  0
LWPOLYLINE
  5
2B8
330
1B
100
AcDbEntity
 67
1
  8
A-ANNO-SCHD
420
2051386
100
AcDbPolyline
 90
2
 70
0
 10
24.0
 20
274.0
 10
369.0
 20
274.0
  0
LWPOLYLINE
  5
2B9
330
1B
100
AcDbEntity
 67
1
  8
A-ANNO-SCHD
420
2051386
100
AcDbPolyline
 90
2
 70
0
 10
24.0
 20
95.85800000000026
 10
369.0
 20
95.85800000000026
  0
HATCH
  5
2BA
330
1B
100
AcDbEntity
 67
1
  8
A-ANNO-NOTE
 62
7
420
2240554
100
AcDbHatch
 10
0.0
 20
0.0
 30
0.0
210
0.0
220
0.0
230
1.0
  2
SOLID
 70
1
 71
0
 91
1
 92
1
 93
1
 72
2
 10
24.8
 20
57.25022222222222
 40
0.38
 50
0
 51
360
 73
1
 97
0
 75
1
 76
1
 98
0
  0
TEXT
  5
2BB
330
1B
100
AcDbEntity
 67
1
  8
A-ANNO-NOTE
420
2240554
100
AcDbText
 10
27.0
 20
56.577777777777776
 30
0.0
 40
1.580444444444444
  1
Sumber: tools/room_schedule.py atas design/world.json revisi P02; tabel dan subtotal dihitung saat render.
  7
KR-SANS
 41
0.8
 11
27.0
 21
56.577777777777776
 31
0.0
100
AcDbText
  0
HATCH
  5
2BC
330
1B
100
AcDbEntity
 67
1
  8
A-ANNO-NOTE
 62
7
420
2240554
100
AcDbHatch
 10
0.0
 20
0.0
 30
0.0
210
0.0
220
0.0
230
1.0
  2
SOLID
 70
1
 71
0
 91
1
 92
1
 93
1
 72
2
 10
24.8
 20
53.628
 40
0.38
 50
0
 51
360
 73
1
 97
0
 75
1
 76
1
 98
0
  0
TEXT
  5
2BD
330
1B
100
AcDbEntity
 67
1
  8
A-ANNO-NOTE
420
2240554
100
AcDbText
 10
27.0
 20
52.955555555555556
 30
0.0
 40
1.580444444444444
  1
Kursi = slot duduk dari fixture (AS-OCC-02), bukan target okupansi.
  7
KR-SANS
 41
0.8
 11
27.0
 21
52.955555555555556
 31
0.0
100
AcDbText
  0
HATCH
  5
2BE
330
1B
100
AcDbEntity
 67
1
  8
A-ANNO-NOTE
 62
7
420
2240554
100
AcDbHatch
 10
0.0
 20
0.0
 30
0.0
210
0.0
220
0.0
230
1.0
  2
SOLID
 70
1
 71
0
 91
1
 92
1
 93
1
 72
2
 10
24.8
 20
50.00577777777778
 40
0.38
 50
0
 51
360
 73
1
 97
0
 75
1
 76
1
 98
0
  0
TEXT
  5
2BF
330
1B
100
AcDbEntity
 67
1
  8
A-ANNO-NOTE
420
2240554
100
AcDbText
 10
27.0
 20
49.333333333333336
 30
0.0
 40
1.580444444444444
  1
Pemeriksaan: jumlah luas ruang per lantai harus sama dengan luas envelope; hasil tertulis di baris subtotal tiap lantai.
  7
KR-SANS
 41
0.8
 11
27.0
 21
49.333333333333336
 31
0.0
100
AcDbText
  0
HATCH
  5
2C0
330
1B
100
AcDbEntity
 67
1
  8
A-ANNO-NOTE
 62
7
420
2240554
100
AcDbHatch
 10
0.0
 20
0.0
 30
0.0
210
0.0
220
0.0
230
1.0
  2
SOLID
 70
1
 71
0
 91
1
 92
1
 93
1
 72
2
 10
24.8
 20
46.38355555555556
 40
0.38
 50
0
 51
360
 73
1
 97
0
 75
1
 76
1
 98
0
  0
TEXT
  5
2C1
330
1B
100
AcDbEntity
 67
1
  8
A-ANNO-NOTE
420
2240554
100
AcDbText
 10
27.0
 20
45.711111111111116
 30
0.0
 40
1.580444444444444
  1
Halaman 1 dari 1.
  7
KR-SANS
 41
0.8
 11
27.0
 21
45.711111111111116
 31
0.0
100
AcDbText
  0
INSERT
  5
2C2
330
1B
100
AcDbEntity
 67
1
  8
A-ANNO-TTLB
100
AcDbBlockReference
 66
1
  2
KR-TTLB-G
 10
235.0
 20
10.0
 30
0.0
  0
ATTRIB
  5
2C4
330
1B
100
AcDbEntity
 67
1
  8
A-ANNO-TTLB
100
AcDbText
 10
238.0
 20
53.0
 30
0.0
 40
4.0
  1
A-103
  7
KR-SANS
 11
238.0
 21
53.0
 31
0.0
100
AcDbAttribute
  2
KR_SHEET_ID
 70
0
 71
1
 72
0
 11
238.0
 21
53.0
 31
0.0
  0
ATTRIB
  5
2C5
330
1B
100
AcDbEntity
 67
1
  8
A-ANNO-TTLB
100
AcDbText
 10
238.0
 20
46.8
 30
0.0
 40
2.0
  1
Room schedule
  7
KR-SANS
 11
238.0
 21
46.8
 31
0.0
100
AcDbAttribute
  2
KR_TITLE
 70
0
 71
1
 72
0
 11
238.0
 21
46.8
 31
0.0
  0
ATTRIB
  5
2C6
330
1B
100
AcDbEntity
 67
1
  8
A-ANNO-TTLB
100
AcDbText
 10
238.0
 20
40.6
 30
0.0
 40
2.0
  1
L1, L2
  7
KR-SANS
 11
238.0
 21
40.6
 31
0.0
100
AcDbAttribute
  2
KR_FLOOR
 70
0
 71
1
 72
0
 11
238.0
 21
40.6
 31
0.0
  0
ATTRIB
  5
2C7
330
1B
100
AcDbEntity
 67
1
  8
A-ANNO-TTLB
100
AcDbText
 10
238.0
 20
34.4
 30
0.0
 40
2.0
  1
NTS @ A3
  7
KR-SANS
 11
238.0
 21
34.4
 31
0.0
100
AcDbAttribute
  2
KR_SCALE
 70
0
 71
1
 72
0
 11
238.0
 21
34.4
 31
0.0
  0
ATTRIB
  5
2C8
330
1B
100
AcDbEntity
 67
1
  8
A-ANNO-TTLB
100
AcDbText
 10
238.0
 20
28.2
 30
0.0
 40
2.0
  1
P02
  7
KR-SANS
 11
238.0
 21
28.2
 31
0.0
100
AcDbAttribute
  2
KR_REVISION
 70
0
 71
1
 72
0
 11
238.0
 21
28.2
 31
0.0
  0
ATTRIB
  5
2C9
330
1B
100
AcDbEntity
 67
1
  8
A-ANNO-TTLB
100
AcDbText
 10
238.0
 20
22.0
 30
0.0
 40
2.0
  1
2026-10-01
  7
KR-SANS
 11
238.0
 21
22.0
 31
0.0
100
AcDbAttribute
  2
KR_REV_DATE
 70
0
 71
1
 72
0
 11
238.0
 21
22.0
 31
0.0
  0
ATTRIB
  5
2CA
330
1B
100
AcDbEntity
 67
1
  8
A-ANNO-TTLB
100
AcDbText
 10
238.0
 20
15.799999999999997
 30
0.0
 40
2.0
  1
2026-10-01T12:12:53Z
  7
KR-SANS
 11
238.0
 21
15.799999999999997
 31
0.0
100
AcDbAttribute
  2
KR_RENDER_UTC
 70
0
 71
1
 72
0
 11
238.0
 21
15.799999999999997
 31
0.0
  0
ATTRIB
  5
2CB
330
1B
100
AcDbEntity
 67
1
  8
A-ANNO-TTLB
100
AcDbText
 10
323.0
 20
53.0
 30
0.0
 40
2.0
  1
KONSEP
  7
KR-SANS
 11
323.0
 21
53.0
 31
0.0
100
AcDbAttribute
  2
KR_STATUS
 70
0
 71
1
 72
0
 11
323.0
 21
53.0
 31
0.0
  0
ATTRIB
  5
2CC
330
1B
100
AcDbEntity
 67
1
  8
A-ANNO-TTLB
100
AcDbText
 10
323.0
 20
46.8
 30
0.0
 40
2.0
  1
Bukan untuk konstruksi
  7
KR-SANS
 11
323.0
 21
46.8
 31
0.0
100
AcDbAttribute
  2
KR_NOTE
 70
0
 71
1
 72
0
 11
323.0
 21
46.8
 31
0.0
  0
ATTRIB
  5
2CD
330
1B
100
AcDbEntity
 67
1
  8
A-ANNO-TTLB
100
AcDbText
 10
323.0
 20
40.6
 30
0.0
 40
2.0
  1
Claude Code cloud (generator)
  7
KR-SANS
 11
323.0
 21
40.6
 31
0.0
100
AcDbAttribute
  2
KR_DRAWN
 70
0
 71
1
 72
0
 11
323.0
 21
40.6
 31
0.0
  0
ATTRIB
  5
2CE
330
1B
100
AcDbEntity
 67
1
  8
A-ANNO-TTLB
100
AcDbText
 10
323.0
 20
34.4
 30
0.0
 40
2.0
  1
Max (supervisor) belum review
  7
KR-SANS
 11
323.0
 21
34.4
 31
0.0
100
AcDbAttribute
  2
KR_CHECK
 70
0
 71
1
 72
0
 11
323.0
 21
34.4
 31
0.0
  0
ATTRIB
  5
2CF
330
1B
100
AcDbEntity
 67
1
  8
A-ANNO-TTLB
100
AcDbText
 10
323.0
 20
28.2
 30
0.0
 40
2.0
  1
1/1
  7
KR-SANS
 11
323.0
 21
28.2
 31
0.0
100
AcDbAttribute
  2
KR_PAGE
 70
0
 71
1
 72
0
 11
323.0
 21
28.2
 31
0.0
  0
ATTRIB
  5
2D0
330
1B
100
AcDbEntity
 67
1
  8
A-ANNO-TTLB
100
AcDbText
 10
323.0
 20
22.0
 30
0.0
 40
1.3
  1
ac39b320919d6410f01d798ea0af1508e8c37de5e08f0e72047b9bf11e1f4afa
  7
KR-SANS
 11
323.0
 21
22.0
 31
0.0
100
AcDbAttribute
  2
KR_WORLD_SHA256
 70
0
 71
1
 72
0
 11
323.0
 21
22.0
 31
0.0
  0
SEQEND
  5
2C3
330
2C2
100
AcDbEntity
 67
1
  8
A-ANNO-TTLB
  0
ENDSEC
  0
SECTION
  2
OBJECTS
  0
DICTIONARY
  5
A
330
0
100
AcDbDictionary
281
1
  3
ACAD_COLOR
350
B
  3
ACAD_GROUP
350
C
  3
ACAD_LAYOUT
350
D
  3
ACAD_MATERIAL
350
E
  3
ACAD_MLEADERSTYLE
350
F
  3
ACAD_MLINESTYLE
350
10
  3
ACAD_PLOTSETTINGS
350
11
  3
ACAD_PLOTSTYLENAME
350
12
  3
ACAD_SCALELIST
350
14
  3
ACAD_TABLESTYLE
350
15
  3
ACAD_VISUALSTYLE
350
16
  3
EZDXF_META
350
2D
  0
DICTIONARY
  5
B
330
A
100
AcDbDictionary
281
1
  0
DICTIONARY
  5
C
330
A
100
AcDbDictionary
281
1
  0
DICTIONARY
  5
D
330
A
100
AcDbDictionary
281
1
  3
Model
350
1A
  3
A-103
350
1E
  0
DICTIONARY
  5
E
330
A
100
AcDbDictionary
281
1
  3
ByBlock
350
1F
  3
ByLayer
350
20
  3
Global
350
21
  0
DICTIONARY
  5
F
330
A
100
AcDbDictionary
281
1
  3
Standard
350
2C
  0
DICTIONARY
  5
10
330
A
100
AcDbDictionary
281
1
  3
Standard
350
22
  0
DICTIONARY
  5
11
330
A
100
AcDbDictionary
281
1
  0
ACDBDICTIONARYWDFLT
  5
12
330
A
100
AcDbDictionary
281
1
  3
Normal
350
13
100
AcDbDictionaryWithDefault
340
13
  0
ACDBPLACEHOLDER
  5
13
330
12
  0
DICTIONARY
  5
14
330
A
100
AcDbDictionary
281
1
  0
DICTIONARY
  5
15
330
A
100
AcDbDictionary
281
1
  0
DICTIONARY
  5
16
330
A
100
AcDbDictionary
281
1
  3
2dWireframe
350
5A
  3
Basic
350
5B
  3
Brighten
350
5C
  3
ColorChange
350
5D
  3
Conceptual
350
5E
  3
Dim
350
5F
  3
EdgeColorOff
350
60
  3
Facepattern
350
61
  3
Flat
350
62
  3
FlatWithEdges
350
63
  3
Gouraud
350
64
  3
GouraudWithEdges
350
65
  3
Hidden
350
66
  3
JitterOff
350
67
  3
Linepattern
350
68
  3
Modeling
350
69
  3
OverhangOff
350
6A
  3
Realistic
350
6B
  3
Shaded
350
6C
  3
Shaded with edges
350
6D
  3
Shades of Gray
350
6E
  3
Sketchy
350
6F
  3
Thicken
350
70
  3
Wireframe
350
71
  3
X-Ray
350
72
  0
LAYOUT
  5
1A
330
D
100
AcDbPlotSettings
  1

  4
A3
  6

 40
7.5
 41
20.0
 42
7.5
 43
20.0
 44
420.0
 45
297.0
 46
0.0
 47
0.0
 48
0.0
 49
0.0
140
0.0
141
0.0
142
1.0
143
1.0
 70
1024
 72
1
 73
0
 74
5
  7

 75
16
 76
0
 77
2
 78
300
147
1.0
148
0.0
149
0.0
100
AcDbLayout
  1
Model
 70
1
 71
0
 10
0.0
 20
0.0
 11
420.0
 21
297.0
 12
0.0
 22
0.0
 32
0.0
 14
1e+20
 24
1e+20
 34
1e+20
 15
-1e+20
 25
-1e+20
 35
-1e+20
146
0.0
 13
0.0
 23
0.0
 33
0.0
 16
1.0
 26
0.0
 36
0.0
 17
0.0
 27
1.0
 37
0.0
 76
1
330
17
  0
LAYOUT
  5
1E
330
D
100
AcDbPlotSettings
  1

  2
DWG to PDF.pc3
  4
ezdxf_(420.00_x_297.00_MM)
  6

 40
0.0
 41
0.0
 42
0.0
 43
0.0
 44
420.0
 45
297.0
 46
0.0
 47
0.0
 48
0.0
 49
0.0
140
0.0
141
0.0
142
0.0078125
143
12.0
 70
672
 72
1
 73
0
 74
5
  7

 75
1
 76
0
 77
2
 78
300
147
1.0
148
0.0
149
0.0
100
AcDbLayout
  1
A-103
 70
1
 71
1
 10
-0.0
 20
-0.0
 11
420.0
 21
297.0
 12
0.0
 22
0.0
 32
0.0
 14
1e+20
 24
1e+20
 34
1e+20
 15
-1e+20
 25
-1e+20
 35
-1e+20
146
0.0
 13
0.0
 23
0.0
 33
0.0
 16
1.0
 26
0.0
 36
0.0
 17
0.0
 27
1.0
 37
0.0
 76
1
330
1B
331
AE
  0
MATERIAL
  5
1F
102
{ACAD_REACTORS
330
E
102
}
330
E
100
AcDbMaterial
  1
ByBlock
  2

 70
0
 40
1.0
 71
1
 41
1.0
 91
-1023410177
 42
1.0
 72
1
  3

 73
1
 74
1
 75
1
 44
0.5
 73
0
 45
1.0
 46
1.0
 77
1
  4

 78
1
 79
1
170
1
 48
1.0
171
1
  6

172
1
173
1
174
1
140
1.0
141
1.0
175
1
  7

176
1
177
1
178
1
143
1.0
179
1
  8

270
1
271
1
272
1
145
1.0
146
1.0
273
1
  9

274
1
275
1
276
1
 42
1.0
 72
1
  3

 73
1
 74
1
 75
1
 94
63
  0
MATERIAL
  5
20
102
{ACAD_REACTORS
330
E
102
}
330
E
100
AcDbMaterial
  1
ByLayer
  2

 70
0
 40
1.0
 71
1
 41
1.0
 91
-1023410177
 42
1.0
 72
1
  3

 73
1
 74
1
 75
1
 44
0.5
 73
0
 45
1.0
 46
1.0
 77
1
  4

 78
1
 79
1
170
1
 48
1.0
171
1
  6

172
1
173
1
174
1
140
1.0
141
1.0
175
1
  7

176
1
177
1
178
1
143
1.0
179
1
  8

270
1
271
1
272
1
145
1.0
146
1.0
273
1
  9

274
1
275
1
276
1
 42
1.0
 72
1
  3

 73
1
 74
1
 75
1
 94
63
  0
MATERIAL
  5
21
102
{ACAD_REACTORS
330
E
102
}
330
E
100
AcDbMaterial
  1
Global
  2

 70
0
 40
1.0
 71
1
 41
1.0
 91
-1023410177
 42
1.0
 72
1
  3

 73
1
 74
1
 75
1
 44
0.5
 73
0
 45
1.0
 46
1.0
 77
1
  4

 78
1
 79
1
170
1
 48
1.0
171
1
  6

172
1
173
1
174
1
140
1.0
141
1.0
175
1
  7

176
1
177
1
178
1
143
1.0
179
1
  8

270
1
271
1
272
1
145
1.0
146
1.0
273
1
  9

274
1
275
1
276
1
 42
1.0
 72
1
  3

 73
1
 74
1
 75
1
 94
63
  0
MLINESTYLE
  5
22
102
{ACAD_REACTORS
330
10
102
}
330
10
100
AcDbMlineStyle
  2
Standard
 70
0
  3

 62
256
 51
90.0
 52
90.0
 71
2
 49
0.5
 62
256
  6
BYLAYER
 49
-0.5
 62
256
  6
BYLAYER
  0
MLEADERSTYLE
  5
2C
102
{ACAD_REACTORS
330
F
102
}
330
F
100
AcDbMLeaderStyle
179
2
170
2
171
1
172
0
 90
2
 40
0.0
 41
0.0
173
1
 91
-1056964608
 92
-2
290
1
 42
2.0
291
1
 43
8.0
  3
Standard
 44
4.0
300

342
29
174
1
175
1
176
0
178
1
 93
-1056964608
 45
4.0
292
0
297
0
 46
4.0
 94
-1056964608
 47
1.0
 49
1.0
140
1.0
294
1
141
0.0
177
0
142
1.0
295
0
296
0
143
3.75
271
0
272
9
273
9
  0
DICTIONARY
  5
2D
330
A
100
AcDbDictionary
280
1
281
1
  3
CREATED_BY_EZDXF
350
2E
  3
WRITTEN_BY_EZDXF
350
2D3
  0
DICTIONARYVAR
  5
2E
330
2D
100
DictionaryVariables
280
0
  1
1.4.4 @ 2026-10-01T12:13:17.729415+00:00
  0
VISUALSTYLE
  5
5A
102
{ACAD_REACTORS
330
16
102
}
330
16
100
AcDbVisualStyle
  2
2dWireframe
 70
4
177
3
291
0
 70
58
 90
2
176
1
 90
2
176
1
 90
0
176
1
 90
0
176
1
 40
0.6
176
1
 40
30.0
176
1
 62
7
420
16777215
176
1
 90
1
176
1
 90
4
176
1
 62
7
176
1
 62
257
176
1
 90
1
176
1
 90
1
176
1
 40
1.0
176
1
 90
8
176
1
 62
7
176
1
 40
1.0
176
1
 90
1
176
1
 90
6
176
1
 90
2
176
1
 62
7
176
1
 90
5
176
1
 90
0
176
1
 90
0
176
1
290
0
176
1
 90
1
176
1
 40
0.0
176
1
 90
0
176
1
290
1
176
1
290
1
176
1
290
0
176
1
290
0
176
1
290
0
176
1
290
0
176
1
290
0
176
1
290
0
176
1
290
0
176
1
 90
50
176
1
 40
0.0
176
1
 40
1.0
176
1
 90
0
176
1
 62
18
420
0
176
1
 90
50
176
1
 90
3
176
1
 62
5
420
255
176
1
290
0
176
1
 90
50
176
1
 90
50
176
1
 90
50
176
1
290
0
176
1
 90
50
176
1
 62
256
176
0
 40
1.0
176
0
 90
2
176
1
  1
strokes_ogs.tif
176
1
290
0
176
1
 40
1.0
176
1
 40
1.0
176
1
  0
VISUALSTYLE
  5
5B
102
{ACAD_REACTORS
330
16
102
}
330
16
100
AcDbVisualStyle
  2
Basic
 70
7
177
3
291
1
 70
58
 90
2
176
1
 90
2
176
1
 90
0
176
1
 90
1
176
1
 40
0.6
176
1
 40
30.0
176
1
 62
7
420
16777215
176
1
 90
1
176
1
 90
4
176
1
 62
7
176
1
 62
257
176
1
 90
1
176
1
 90
1
176
1
 40
1.0
176
1
 90
8
176
1
 62
7
176
1
 40
1.0
176
1
 90
1
176
1
 90
6
176
1
 90
2
176
1
 62
7
176
1
 90
5
176
1
 90
0
176
1
 90
0
176
1
290
0
176
1
 90
1
176
1
 40
0.0
176
1
 90
0
176
1
290
0
176
1
290
1
176
1
290
1
176
1
290
0
176
1
290
0
176
1
290
0
176
1
290
0
176
1
290
0
176
1
290
0
176
1
 90
50
176
1
 40
0.0
176
1
 40
1.0
176
1
 90
0
176
1
 62
18
420
0
176
1
 90
50
176
1
 90
3
176
1
 62
5
420
255
176
1
290
0
176
1
 90
50
176
1
 90
50
176
1
 90
50
176
1
290
0
176
1
 90
50
176
1
 62
256
176
0
 40
1.0
176
0
 90
2
176
1
  1
strokes_ogs.tif
176
1
290
0
176
1
 40
1.0
176
1
 40
1.0
176
1
  0
VISUALSTYLE
  5
5C
102
{ACAD_REACTORS
330
16
102
}
330
16
100
AcDbVisualStyle
  2
Brighten
 70
12
177
3
291
1
 70
58
 90
2
176
1
 90
2
176
1
 90
0
176
1
 90
2
176
1
 40
0.6
176
1
 40
30.0
176
1
 62
7
420
16777215
176
1
 90
1
176
1
 90
4
176
1
 62
7
176
1
 62
257
176
1
 90
1
176
1
 90
1
176
1
 40
1.0
176
1
 90
8
176
1
 62
7
176
1
 40
1.0
176
1
 90
1
176
1
 90
6
176
1
 90
2
176
1
 62
7
176
1
 90
5
176
1
 90
0
176
1
 90
0
176
1
290
0
176
1
 90
1
176
1
 40
0.0
176
1
 90
0
176
1
290
0
176
1
290
1
176
1
290
1
176
1
290
0
176
1
290
0
176
1
290
0
176
1
290
0
176
1
290
0
176
1
290
0
176
1
 90
50
176
1
 40
0.0
176
1
 40
1.0
176
1
 90
0
176
1
 62
18
420
0
176
1
 90
50
176
1
 90
3
176
1
 62
5
420
255
176
1
290
0
176
1
 90
50
176
1
 90
50
176
1
 90
50
176
1
290
0
176
1
 90
50
176
1
 62
256
176
0
 40
1.0
176
0
 90
2
176
1
  1
strokes_ogs.tif
176
1
290
0
176
1
 40
1.0
176
1
 40
1.0
176
1
  0
VISUALSTYLE
  5
5D
102
{ACAD_REACTORS
330
16
102
}
330
16
100
AcDbVisualStyle
  2
ColorChange
 70
16
177
3
291
1
 70
58
 90
2
176
1
 90
2
176
1
 90
0
176
1
 90
2
176
1
 40
0.6
176
1
 40
30.0
176
1
 62
7
420
16777215
176
1
 90
1
176
1
 90
4
176
1
 62
7
176
1
 62
257
176
1
 90
1
176
1
 90
1
176
1
 40
1.0
176
1
 90
8
176
1
 62
7
176
1
 40
1.0
176
1
 90
1
176
1
 90
6
176
1
 90
2
176
1
 62
7
176
1
 90
5
176
1
 90
0
176
1
 90
0
176
1
290
0
176
1
 90
1
176
1
 40
0.0
176
1
 90
0
176
1
290
0
176
1
290
1
176
1
290
1
176
1
290
0
176
1
290
0
176
1
290
0
176
1
290
0
176
1
290
0
176
1
290
0
176
1
 90
50
176
1
 40
0.0
176
1
 40
1.0
176
1
 90
0
176
1
 62
18
420
0
176
1
 90
50
176
1
 90
3
176
1
 62
5
420
255
176
1
290
0
176
1
 90
50
176
1
 90
50
176
1
 90
50
176
1
290
0
176
1
 90
50
176
1
 62
256
176
0
 40
1.0
176
0
 90
2
176
1
  1
strokes_ogs.tif
176
1
290
0
176
1
 40
1.0
176
1
 40
1.0
176
1
  0
VISUALSTYLE
  5
5E
102
{ACAD_REACTORS
330
16
102
}
330
16
100
AcDbVisualStyle
  2
Conceptual
 70
9
177
3
291
0
 70
58
 90
2
176
1
 90
2
176
1
 90
0
176
1
 90
3
176
1
 40
0.6
176
1
 40
30.0
176
1
 62
7
420
16777215
176
1
 90
1
176
1
 90
4
176
1
 62
7
176
1
 62
257
176
1
 90
1
176
1
 90
1
176
1
 40
1.0
176
1
 90
8
176
1
 62
7
176
1
 40
1.0
176
1
 90
1
176
1
 90
6
176
1
 90
2
176
1
 62
7
176
1
 90
5
176
1
 90
0
176
1
 90
0
176
1
290
0
176
1
 90
1
176
1
 40
0.0
176
1
 90
0
176
1
290
0
176
1
290
1
176
1
290
1
176
1
290
0
176
1
290
0
176
1
290
0
176
1
290
0
176
1
290
0
176
1
290
0
176
1
 90
50
176
1
 40
0.0
176
1
 40
1.0
176
1
 90
0
176
1
 62
18
420
0
176
1
 90
50
176
1
 90
3
176
1
 62
5
420
255
176
1
290
0
176
1
 90
50
176
1
 90
50
176
1
 90
50
176
1
290
0
176
1
 90
50
176
1
 62
256
176
0
 40
1.0
176
0
 90
2
176
1
  1
strokes_ogs.tif
176
1
290
0
176
1
 40
1.0
176
1
 40
1.0
176
1
  0
VISUALSTYLE
  5
5F
102
{ACAD_REACTORS
330
16
102
}
330
16
100
AcDbVisualStyle
  2
Dim
 70
11
177
3
291
1
 70
58
 90
2
176
1
 90
2
176
1
 90
0
176
1
 90
2
176
1
 40
0.6
176
1
 40
30.0
176
1
 62
7
420
16777215
176
1
 90
1
176
1
 90
4
176
1
 62
7
176
1
 62
257
176
1
 90
1
176
1
 90
1
176
1
 40
1.0
176
1
 90
8
176
1
 62
7
176
1
 40
1.0
176
1
 90
1
176
1
 90
6
176
1
 90
2
176
1
 62
7
176
1
 90
5
176
1
 90
0
176
1
 90
0
176
1
290
0
176
1
 90
1
176
1
 40
0.0
176
1
 90
0
176
1
290
0
176
1
290
1
176
1
290
1
176
1
290
0
176
1
290
0
176
1
290
0
176
1
290
0
176
1
290
0
176
1
290
0
176
1
 90
50
176
1
 40
0.0
176
1
 40
1.0
176
1
 90
0
176
1
 62
18
420
0
176
1
 90
50
176
1
 90
3
176
1
 62
5
420
255
176
1
290
0
176
1
 90
50
176
1
 90
50
176
1
 90
50
176
1
290
0
176
1
 90
50
176
1
 62
256
176
0
 40
1.0
176
0
 90
2
176
1
  1
strokes_ogs.tif
176
1
290
0
176
1
 40
1.0
176
1
 40
1.0
176
1
  0
VISUALSTYLE
  5
60
102
{ACAD_REACTORS
330
16
102
}
330
16
100
AcDbVisualStyle
  2
EdgeColorOff
 70
22
177
3
291
1
 70
58
 90
2
176
1
 90
2
176
1
 90
0
176
1
 90
2
176
1
 40
0.6
176
1
 40
30.0
176
1
 62
7
420
16777215
176
1
 90
1
176
1
 90
4
176
1
 62
7
176
1
 62
257
176
1
 90
1
176
1
 90
1
176
1
 40
1.0
176
1
 90
8
176
1
 62
7
176
1
 40
1.0
176
1
 90
1
176
1
 90
6
176
1
 90
2
176
1
 62
7
176
1
 90
5
176
1
 90
0
176
1
 90
0
176
1
290
0
176
1
 90
1
176
1
 40
0.0
176
1
 90
0
176
1
290
0
176
1
290
1
176
1
290
1
176
1
290
0
176
1
290
0
176
1
290
0
176
1
290
0
176
1
290
0
176
1
290
0
176
1
 90
50
176
1
 40
0.0
176
1
 40
1.0
176
1
 90
0
176
1
 62
18
420
0
176
1
 90
50
176
1
 90
3
176
1
 62
5
420
255
176
1
290
0
176
1
 90
50
176
1
 90
50
176
1
 90
50
176
1
290
0
176
1
 90
50
176
1
 62
256
176
0
 40
1.0
176
0
 90
2
176
1
  1
strokes_ogs.tif
176
1
290
0
176
1
 40
1.0
176
1
 40
1.0
176
1
  0
VISUALSTYLE
  5
61
102
{ACAD_REACTORS
330
16
102
}
330
16
100
AcDbVisualStyle
  2
Facepattern
 70
15
177
3
291
1
 70
58
 90
2
176
1
 90
2
176
1
 90
0
176
1
 90
2
176
1
 40
0.6
176
1
 40
30.0
176
1
 62
7
420
16777215
176
1
 90
1
176
1
 90
4
176
1
 62
7
176
1
 62
257
176
1
 90
1
176
1
 90
1
176
1
 40
1.0
176
1
 90
8
176
1
 62
7
176
1
 40
1.0
176
1
 90
1
176
1
 90
6
176
1
 90
2
176
1
 62
7
176
1
 90
5
176
1
 90
0
176
1
 90
0
176
1
290
0
176
1
 90
1
176
1
 40
0.0
176
1
 90
0
176
1
290
0
176
1
290
1
176
1
290
1
176
1
290
0
176
1
290
0
176
1
290
0
176
1
290
0
176
1
290
0
176
1
290
0
176
1
 90
50
176
1
 40
0.0
176
1
 40
1.0
176
1
 90
0
176
1
 62
18
420
0
176
1
 90
50
176
1
 90
3
176
1
 62
5
420
255
176
1
290
0
176
1
 90
50
176
1
 90
50
176
1
 90
50
176
1
290
0
176
1
 90
50
176
1
 62
256
176
0
 40
1.0
176
0
 90
2
176
1
  1
strokes_ogs.tif
176
1
290
0
176
1
 40
1.0
176
1
 40
1.0
176
1
  0
VISUALSTYLE
  5
62
102
{ACAD_REACTORS
330
16
102
}
330
16
100
AcDbVisualStyle
  2
Flat
 70
0
177
3
291
1
 70
58
 90
2
176
1
 90
2
176
1
 90
0
176
1
 90
2
176
1
 40
0.6
176
1
 40
30.0
176
1
 62
7
420
16777215
176
1
 90
1
176
1
 90
4
176
1
 62
7
176
1
 62
257
176
1
 90
1
176
1
 90
1
176
1
 40
1.0
176
1
 90
8
176
1
 62
7
176
1
 40
1.0
176
1
 90
1
176
1
 90
6
176
1
 90
2
176
1
 62
7
176
1
 90
5
176
1
 90
0
176
1
 90
0
176
1
290
0
176
1
 90
1
176
1
 40
0.0
176
1
 90
0
176
1
290
0
176
1
290
1
176
1
290
1
176
1
290
0
176
1
290
0
176
1
290
0
176
1
290
0
176
1
290
0
176
1
290
0
176
1
 90
50
176
1
 40
0.0
176
1
 40
1.0
176
1
 90
0
176
1
 62
18
420
0
176
1
 90
50
176
1
 90
3
176
1
 62
5
420
255
176
1
290
0
176
1
 90
50
176
1
 90
50
176
1
 90
50
176
1
290
0
176
1
 90
50
176
1
 62
256
176
0
 40
1.0
176
0
 90
2
176
1
  1
strokes_ogs.tif
176
1
290
0
176
1
 40
1.0
176
1
 40
1.0
176
1
  0
VISUALSTYLE
  5
63
102
{ACAD_REACTORS
330
16
102
}
330
16
100
AcDbVisualStyle
  2
FlatWithEdges
 70
1
177
3
291
1
 70
58
 90
2
176
1
 90
2
176
1
 90
0
176
1
 90
2
176
1
 40
0.6
176
1
 40
30.0
176
1
 62
7
420
16777215
176
1
 90
1
176
1
 90
4
176
1
 62
7
176
1
 62
257
176
1
 90
1
176
1
 90
1
176
1
 40
1.0
176
1
 90
8
176
1
 62
7
176
1
 40
1.0
176
1
 90
1
176
1
 90
6
176
1
 90
2
176
1
 62
7
176
1
 90
5
176
1
 90
0
176
1
 90
0
176
1
290
0
176
1
 90
1
176
1
 40
0.0
176
1
 90
0
176
1
290
0
176
1
290
1
176
1
290
1
176
1
290
0
176
1
290
0
176
1
290
0
176
1
290
0
176
1
290
0
176
1
290
0
176
1
 90
50
176
1
 40
0.0
176
1
 40
1.0
176
1
 90
0
176
1
 62
18
420
0
176
1
 90
50
176
1
 90
3
176
1
 62
5
420
255
176
1
290
0
176
1
 90
50
176
1
 90
50
176
1
 90
50
176
1
290
0
176
1
 90
50
176
1
 62
256
176
0
 40
1.0
176
0
 90
2
176
1
  1
strokes_ogs.tif
176
1
290
0
176
1
 40
1.0
176
1
 40
1.0
176
1
  0
VISUALSTYLE
  5
64
102
{ACAD_REACTORS
330
16
102
}
330
16
100
AcDbVisualStyle
  2
Gouraud
 70
2
177
3
291
1
 70
58
 90
2
176
1
 90
2
176
1
 90
0
176
1
 90
2
176
1
 40
0.6
176
1
 40
30.0
176
1
 62
7
420
16777215
176
1
 90
1
176
1
 90
4
176
1
 62
7
176
1
 62
257
176
1
 90
1
176
1
 90
1
176
1
 40
1.0
176
1
 90
8
176
1
 62
7
176
1
 40
1.0
176
1
 90
1
176
1
 90
6
176
1
 90
2
176
1
 62
7
176
1
 90
5
176
1
 90
0
176
1
 90
0
176
1
290
0
176
1
 90
1
176
1
 40
0.0
176
1
 90
0
176
1
290
0
176
1
290
1
176
1
290
1
176
1
290
0
176
1
290
0
176
1
290
0
176
1
290
0
176
1
290
0
176
1
290
0
176
1
 90
50
176
1
 40
0.0
176
1
 40
1.0
176
1
 90
0
176
1
 62
18
420
0
176
1
 90
50
176
1
 90
3
176
1
 62
5
420
255
176
1
290
0
176
1
 90
50
176
1
 90
50
176
1
 90
50
176
1
290
0
176
1
 90
50
176
1
 62
256
176
0
 40
1.0
176
0
 90
2
176
1
  1
strokes_ogs.tif
176
1
290
0
176
1
 40
1.0
176
1
 40
1.0
176
1
  0
VISUALSTYLE
  5
65
102
{ACAD_REACTORS
330
16
102
}
330
16
100
AcDbVisualStyle
  2
GouraudWithEdges
 70
3
177
3
291
1
 70
58
 90
2
176
1
 90
2
176
1
 90
0
176
1
 90
2
176
1
 40
0.6
176
1
 40
30.0
176
1
 62
7
420
16777215
176
1
 90
1
176
1
 90
4
176
1
 62
7
176
1
 62
257
176
1
 90
1
176
1
 90
1
176
1
 40
1.0
176
1
 90
8
176
1
 62
7
176
1
 40
1.0
176
1
 90
1
176
1
 90
6
176
1
 90
2
176
1
 62
7
176
1
 90
5
176
1
 90
0
176
1
 90
0
176
1
290
0
176
1
 90
1
176
1
 40
0.0
176
1
 90
0
176
1
290
0
176
1
290
1
176
1
290
1
176
1
290
0
176
1
290
0
176
1
290
0
176
1
290
0
176
1
290
0
176
1
290
0
176
1
 90
50
176
1
 40
0.0
176
1
 40
1.0
176
1
 90
0
176
1
 62
18
420
0
176
1
 90
50
176
1
 90
3
176
1
 62
5
420
255
176
1
290
0
176
1
 90
50
176
1
 90
50
176
1
 90
50
176
1
290
0
176
1
 90
50
176
1
 62
256
176
0
 40
1.0
176
0
 90
2
176
1
  1
strokes_ogs.tif
176
1
290
0
176
1
 40
1.0
176
1
 40
1.0
176
1
  0
VISUALSTYLE
  5
66
102
{ACAD_REACTORS
330
16
102
}
330
16
100
AcDbVisualStyle
  2
Hidden
 70
6
177
3
291
0
 70
58
 90
2
176
1
 90
2
176
1
 90
0
176
1
 90
1
176
1
 40
0.6
176
1
 40
30.0
176
1
 62
7
420
16777215
176
1
 90
1
176
1
 90
4
176
1
 62
7
176
1
 62
257
176
1
 90
1
176
1
 90
1
176
1
 40
1.0
176
1
 90
8
176
1
 62
7
176
1
 40
1.0
176
1
 90
1
176
1
 90
6
176
1
 90
2
176
1
 62
7
176
1
 90
5
176
1
 90
0
176
1
 90
0
176
1
290
0
176
1
 90
1
176
1
 40
0.0
176
1
 90
0
176
1
290
0
176
1
290
1
176
1
290
1
176
1
290
0
176
1
290
0
176
1
290
0
176
1
290
0
176
1
290
0
176
1
290
0
176
1
 90
50
176
1
 40
0.0
176
1
 40
1.0
176
1
 90
0
176
1
 62
18
420
0
176
1
 90
50
176
1
 90
3
176
1
 62
5
420
255
176
1
290
0
176
1
 90
50
176
1
 90
50
176
1
 90
50
176
1
290
0
176
1
 90
50
176
1
 62
256
176
0
 40
1.0
176
0
 90
2
176
1
  1
strokes_ogs.tif
176
1
290
0
176
1
 40
1.0
176
1
 40
1.0
176
1
  0
VISUALSTYLE
  5
67
102
{ACAD_REACTORS
330
16
102
}
330
16
100
AcDbVisualStyle
  2
JitterOff
 70
20
177
3
291
1
 70
58
 90
2
176
1
 90
2
176
1
 90
0
176
1
 90
2
176
1
 40
0.6
176
1
 40
30.0
176
1
 62
7
420
16777215
176
1
 90
1
176
1
 90
4
176
1
 62
7
176
1
 62
257
176
1
 90
1
176
1
 90
1
176
1
 40
1.0
176
1
 90
8
176
1
 62
7
176
1
 40
1.0
176
1
 90
1
176
1
 90
6
176
1
 90
2
176
1
 62
7
176
1
 90
5
176
1
 90
0
176
1
 90
0
176
1
290
0
176
1
 90
1
176
1
 40
0.0
176
1
 90
0
176
1
290
0
176
1
290
1
176
1
290
1
176
1
290
0
176
1
290
0
176
1
290
0
176
1
290
0
176
1
290
0
176
1
290
0
176
1
 90
50
176
1
 40
0.0
176
1
 40
1.0
176
1
 90
0
176
1
 62
18
420
0
176
1
 90
50
176
1
 90
3
176
1
 62
5
420
255
176
1
290
0
176
1
 90
50
176
1
 90
50
176
1
 90
50
176
1
290
0
176
1
 90
50
176
1
 62
256
176
0
 40
1.0
176
0
 90
2
176
1
  1
strokes_ogs.tif
176
1
290
0
176
1
 40
1.0
176
1
 40
1.0
176
1
  0
VISUALSTYLE
  5
68
102
{ACAD_REACTORS
330
16
102
}
330
16
100
AcDbVisualStyle
  2
Linepattern
 70
14
177
3
291
1
 70
58
 90
2
176
1
 90
2
176
1
 90
0
176
1
 90
2
176
1
 40
0.6
176
1
 40
30.0
176
1
 62
7
420
16777215
176
1
 90
1
176
1
 90
4
176
1
 62
7
176
1
 62
257
176
1
 90
1
176
1
 90
1
176
1
 40
1.0
176
1
 90
8
176
1
 62
7
176
1
 40
1.0
176
1
 90
1
176
1
 90
6
176
1
 90
2
176
1
 62
7
176
1
 90
5
176
1
 90
0
176
1
 90
0
176
1
290
0
176
1
 90
1
176
1
 40
0.0
176
1
 90
0
176
1
290
0
176
1
290
1
176
1
290
1
176
1
290
0
176
1
290
0
176
1
290
0
176
1
290
0
176
1
290
0
176
1
290
0
176
1
 90
50
176
1
 40
0.0
176
1
 40
1.0
176
1
 90
0
176
1
 62
18
420
0
176
1
 90
50
176
1
 90
3
176
1
 62
5
420
255
176
1
290
0
176
1
 90
50
176
1
 90
50
176
1
 90
50
176
1
290
0
176
1
 90
50
176
1
 62
256
176
0
 40
1.0
176
0
 90
2
176
1
  1
strokes_ogs.tif
176
1
290
0
176
1
 40
1.0
176
1
 40
1.0
176
1
  0
VISUALSTYLE
  5
69
102
{ACAD_REACTORS
330
16
102
}
330
16
100
AcDbVisualStyle
  2
Modeling
 70
10
177
3
291
0
 70
58
 90
2
176
1
 90
2
176
1
 90
0
176
1
 90
2
176
1
 40
0.6
176
1
 40
30.0
176
1
 62
7
420
16777215
176
1
 90
1
176
1
 90
4
176
1
 62
7
176
1
 62
257
176
1
 90
1
176
1
 90
1
176
1
 40
1.0
176
1
 90
8
176
1
 62
7
176
1
 40
1.0
176
1
 90
1
176
1
 90
6
176
1
 90
2
176
1
 62
7
176
1
 90
5
176
1
 90
0
176
1
 90
0
176
1
290
0
176
1
 90
1
176
1
 40
0.0
176
1
 90
0
176
1
290
0
176
1
290
1
176
1
290
1
176
1
290
0
176
1
290
0
176
1
290
0
176
1
290
0
176
1
290
0
176
1
290
0
176
1
 90
50
176
1
 40
0.0
176
1
 40
1.0
176
1
 90
0
176
1
 62
18
420
0
176
1
 90
50
176
1
 90
3
176
1
 62
5
420
255
176
1
290
0
176
1
 90
50
176
1
 90
50
176
1
 90
50
176
1
290
0
176
1
 90
50
176
1
 62
256
176
0
 40
1.0
176
0
 90
2
176
1
  1
strokes_ogs.tif
176
1
290
0
176
1
 40
1.0
176
1
 40
1.0
176
1
  0
VISUALSTYLE
  5
6A
102
{ACAD_REACTORS
330
16
102
}
330
16
100
AcDbVisualStyle
  2
OverhangOff
 70
21
177
3
291
1
 70
58
 90
2
176
1
 90
2
176
1
 90
0
176
1
 90
2
176
1
 40
0.6
176
1
 40
30.0
176
1
 62
7
420
16777215
176
1
 90
1
176
1
 90
4
176
1
 62
7
176
1
 62
257
176
1
 90
1
176
1
 90
1
176
1
 40
1.0
176
1
 90
8
176
1
 62
7
176
1
 40
1.0
176
1
 90
1
176
1
 90
6
176
1
 90
2
176
1
 62
7
176
1
 90
5
176
1
 90
0
176
1
 90
0
176
1
290
0
176
1
 90
1
176
1
 40
0.0
176
1
 90
0
176
1
290
0
176
1
290
1
176
1
290
1
176
1
290
0
176
1
290
0
176
1
290
0
176
1
290
0
176
1
290
0
176
1
290
0
176
1
 90
50
176
1
 40
0.0
176
1
 40
1.0
176
1
 90
0
176
1
 62
18
420
0
176
1
 90
50
176
1
 90
3
176
1
 62
5
420
255
176
1
290
0
176
1
 90
50
176
1
 90
50
176
1
 90
50
176
1
290
0
176
1
 90
50
176
1
 62
256
176
0
 40
1.0
176
0
 90
2
176
1
  1
strokes_ogs.tif
176
1
290
0
176
1
 40
1.0
176
1
 40
1.0
176
1
  0
VISUALSTYLE
  5
6B
102
{ACAD_REACTORS
330
16
102
}
330
16
100
AcDbVisualStyle
  2
Realistic
 70
8
177
3
291
0
 70
58
 90
2
176
1
 90
2
176
1
 90
0
176
1
 90
2
176
1
 40
0.6
176
1
 40
30.0
176
1
 62
7
420
16777215
176
1
 90
1
176
1
 90
4
176
1
 62
7
176
1
 62
257
176
1
 90
1
176
1
 90
1
176
1
 40
1.0
176
1
 90
8
176
1
 62
7
176
1
 40
1.0
176
1
 90
1
176
1
 90
6
176
1
 90
2
176
1
 62
7
176
1
 90
5
176
1
 90
0
176
1
 90
0
176
1
290
0
176
1
 90
1
176
1
 40
0.0
176
1
 90
0
176
1
290
0
176
1
290
1
176
1
290
1
176
1
290
0
176
1
290
0
176
1
290
0
176
1
290
0
176
1
290
0
176
1
290
0
176
1
 90
50
176
1
 40
0.0
176
1
 40
1.0
176
1
 90
0
176
1
 62
18
420
0
176
1
 90
50
176
1
 90
3
176
1
 62
5
420
255
176
1
290
0
176
1
 90
50
176
1
 90
50
176
1
 90
50
176
1
290
0
176
1
 90
50
176
1
 62
256
176
0
 40
1.0
176
0
 90
2
176
1
  1
strokes_ogs.tif
176
1
290
0
176
1
 40
1.0
176
1
 40
1.0
176
1
  0
VISUALSTYLE
  5
6C
102
{ACAD_REACTORS
330
16
102
}
330
16
100
AcDbVisualStyle
  2
Shaded
 70
27
177
3
291
0
 70
58
 90
2
176
1
 90
2
176
1
 90
0
176
1
 90
2
176
1
 40
0.6
176
1
 40
30.0
176
1
 62
7
420
16777215
176
1
 90
1
176
1
 90
4
176
1
 62
7
176
1
 62
257
176
1
 90
1
176
1
 90
1
176
1
 40
1.0
176
1
 90
8
176
1
 62
7
176
1
 40
1.0
176
1
 90
1
176
1
 90
6
176
1
 90
2
176
1
 62
7
176
1
 90
5
176
1
 90
0
176
1
 90
0
176
1
290
0
176
1
 90
1
176
1
 40
0.0
176
1
 90
0
176
1
290
0
176
1
290
1
176
1
290
1
176
1
290
0
176
1
290
0
176
1
290
0
176
1
290
0
176
1
290
0
176
1
290
0
176
1
 90
50
176
1
 40
0.0
176
1
 40
1.0
176
1
 90
0
176
1
 62
18
420
0
176
1
 90
50
176
1
 90
3
176
1
 62
5
420
255
176
1
290
0
176
1
 90
50
176
1
 90
50
176
1
 90
50
176
1
290
0
176
1
 90
50
176
1
 62
256
176
0
 40
1.0
176
0
 90
2
176
1
  1
strokes_ogs.tif
176
1
290
0
176
1
 40
1.0
176
1
 40
1.0
176
1
  0
VISUALSTYLE
  5
6D
102
{ACAD_REACTORS
330
16
102
}
330
16
100
AcDbVisualStyle
  2
Shaded with edges
 70
26
177
3
291
0
 70
58
 90
2
176
1
 90
2
176
1
 90
0
176
1
 90
2
176
1
 40
0.6
176
1
 40
30.0
176
1
 62
7
420
16777215
176
1
 90
1
176
1
 90
4
176
1
 62
7
176
1
 62
257
176
1
 90
1
176
1
 90
1
176
1
 40
1.0
176
1
 90
8
176
1
 62
7
176
1
 40
1.0
176
1
 90
1
176
1
 90
6
176
1
 90
2
176
1
 62
7
176
1
 90
5
176
1
 90
0
176
1
 90
0
176
1
290
0
176
1
 90
1
176
1
 40
0.0
176
1
 90
0
176
1
290
0
176
1
290
1
176
1
290
1
176
1
290
0
176
1
290
0
176
1
290
0
176
1
290
0
176
1
290
0
176
1
290
0
176
1
 90
50
176
1
 40
0.0
176
1
 40
1.0
176
1
 90
0
176
1
 62
18
420
0
176
1
 90
50
176
1
 90
3
176
1
 62
5
420
255
176
1
290
0
176
1
 90
50
176
1
 90
50
176
1
 90
50
176
1
290
0
176
1
 90
50
176
1
 62
256
176
0
 40
1.0
176
0
 90
2
176
1
  1
strokes_ogs.tif
176
1
290
0
176
1
 40
1.0
176
1
 40
1.0
176
1
  0
VISUALSTYLE
  5
6E
102
{ACAD_REACTORS
330
16
102
}
330
16
100
AcDbVisualStyle
  2
Shades of Gray
 70
23
177
3
291
0
 70
58
 90
2
176
1
 90
2
176
1
 90
0
176
1
 90
2
176
1
 40
0.6
176
1
 40
30.0
176
1
 62
7
420
16777215
176
1
 90
1
176
1
 90
4
176
1
 62
7
176
1
 62
257
176
1
 90
1
176
1
 90
1
176
1
 40
1.0
176
1
 90
8
176
1
 62
7
176
1
 40
1.0
176
1
 90
1
176
1
 90
6
176
1
 90
2
176
1
 62
7
176
1
 90
5
176
1
 90
0
176
1
 90
0
176
1
290
0
176
1
 90
1
176
1
 40
0.0
176
1
 90
0
176
1
290
0
176
1
290
1
176
1
290
1
176
1
290
0
176
1
290
0
176
1
290
0
176
1
290
0
176
1
290
0
176
1
290
0
176
1
 90
50
176
1
 40
0.0
176
1
 40
1.0
176
1
 90
0
176
1
 62
18
420
0
176
1
 90
50
176
1
 90
3
176
1
 62
5
420
255
176
1
290
0
176
1
 90
50
176
1
 90
50
176
1
 90
50
176
1
290
0
176
1
 90
50
176
1
 62
256
176
0
 40
1.0
176
0
 90
2
176
1
  1
strokes_ogs.tif
176
1
290
0
176
1
 40
1.0
176
1
 40
1.0
176
1
  0
VISUALSTYLE
  5
6F
102
{ACAD_REACTORS
330
16
102
}
330
16
100
AcDbVisualStyle
  2
Sketchy
 70
24
177
3
291
0
 70
58
 90
2
176
1
 90
2
176
1
 90
0
176
1
 90
1
176
1
 40
0.6
176
1
 40
30.0
176
1
 62
7
420
16777215
176
1
 90
1
176
1
 90
4
176
1
 62
7
176
1
 62
257
176
1
 90
1
176
1
 90
1
176
1
 40
1.0
176
1
 90
8
176
1
 62
7
176
1
 40
1.0
176
1
 90
1
176
1
 90
6
176
1
 90
2
176
1
 62
7
176
1
 90
5
176
1
 90
0
176
1
 90
0
176
1
290
0
176
1
 90
1
176
1
 40
0.0
176
1
 90
0
176
1
290
0
176
1
290
1
176
1
290
1
176
1
290
0
176
1
290
0
176
1
290
0
176
1
290
0
176
1
290
0
176
1
290
0
176
1
 90
50
176
1
 40
0.0
176
1
 40
1.0
176
1
 90
0
176
1
 62
18
420
0
176
1
 90
50
176
1
 90
3
176
1
 62
5
420
255
176
1
290
0
176
1
 90
50
176
1
 90
50
176
1
 90
50
176
1
290
0
176
1
 90
50
176
1
 62
256
176
0
 40
1.0
176
0
 90
2
176
1
  1
strokes_ogs.tif
176
1
290
0
176
1
 40
1.0
176
1
 40
1.0
176
1
  0
VISUALSTYLE
  5
70
102
{ACAD_REACTORS
330
16
102
}
330
16
100
AcDbVisualStyle
  2
Thicken
 70
13
177
3
291
1
 70
58
 90
2
176
1
 90
2
176
1
 90
0
176
1
 90
2
176
1
 40
0.6
176
1
 40
30.0
176
1
 62
7
420
16777215
176
1
 90
1
176
1
 90
4
176
1
 62
7
176
1
 62
257
176
1
 90
1
176
1
 90
1
176
1
 40
1.0
176
1
 90
8
176
1
 62
7
176
1
 40
1.0
176
1
 90
1
176
1
 90
6
176
1
 90
2
176
1
 62
7
176
1
 90
5
176
1
 90
0
176
1
 90
0
176
1
290
0
176
1
 90
1
176
1
 40
0.0
176
1
 90
0
176
1
290
0
176
1
290
1
176
1
290
1
176
1
290
0
176
1
290
0
176
1
290
0
176
1
290
0
176
1
290
0
176
1
290
0
176
1
 90
50
176
1
 40
0.0
176
1
 40
1.0
176
1
 90
0
176
1
 62
18
420
0
176
1
 90
50
176
1
 90
3
176
1
 62
5
420
255
176
1
290
0
176
1
 90
50
176
1
 90
50
176
1
 90
50
176
1
290
0
176
1
 90
50
176
1
 62
256
176
0
 40
1.0
176
0
 90
2
176
1
  1
strokes_ogs.tif
176
1
290
0
176
1
 40
1.0
176
1
 40
1.0
176
1
  0
VISUALSTYLE
  5
71
102
{ACAD_REACTORS
330
16
102
}
330
16
100
AcDbVisualStyle
  2
Wireframe
 70
5
177
3
291
0
 70
58
 90
2
176
1
 90
2
176
1
 90
0
176
1
 90
0
176
1
 40
0.6
176
1
 40
30.0
176
1
 62
7
420
16777215
176
1
 90
1
176
1
 90
4
176
1
 62
7
176
1
 62
257
176
1
 90
1
176
1
 90
1
176
1
 40
1.0
176
1
 90
8
176
1
 62
7
176
1
 40
1.0
176
1
 90
1
176
1
 90
6
176
1
 90
2
176
1
 62
7
176
1
 90
5
176
1
 90
0
176
1
 90
0
176
1
290
0
176
1
 90
1
176
1
 40
0.0
176
1
 90
0
176
1
290
0
176
1
290
1
176
1
290
1
176
1
290
0
176
1
290
0
176
1
290
0
176
1
290
0
176
1
290
0
176
1
290
0
176
1
 90
50
176
1
 40
0.0
176
1
 40
1.0
176
1
 90
0
176
1
 62
18
420
0
176
1
 90
50
176
1
 90
3
176
1
 62
5
420
255
176
1
290
0
176
1
 90
50
176
1
 90
50
176
1
 90
50
176
1
290
0
176
1
 90
50
176
1
 62
256
176
0
 40
1.0
176
0
 90
2
176
1
  1
strokes_ogs.tif
176
1
290
0
176
1
 40
1.0
176
1
 40
1.0
176
1
  0
VISUALSTYLE
  5
72
102
{ACAD_REACTORS
330
16
102
}
330
16
100
AcDbVisualStyle
  2
X-Ray
 70
25
177
3
291
0
 70
58
 90
2
176
1
 90
2
176
1
 90
0
176
1
 90
2
176
1
 40
0.5
176
1
 40
30.0
176
1
 62
7
420
16777215
176
1
 90
1
176
1
 90
4
176
1
 62
7
176
1
 62
257
176
1
 90
1
176
1
 90
1
176
1
 40
1.0
176
1
 90
8
176
1
 62
7
176
1
 40
1.0
176
1
 90
1
176
1
 90
6
176
1
 90
2
176
1
 62
7
176
1
 90
5
176
1
 90
0
176
1
 90
0
176
1
290
0
176
1
 90
1
176
1
 40
0.0
176
1
 90
0
176
1
290
0
176
1
290
1
176
1
290
1
176
1
290
0
176
1
290
0
176
1
290
0
176
1
290
0
176
1
290
0
176
1
290
0
176
1
 90
50
176
1
 40
0.0
176
1
 40
1.0
176
1
 90
0
176
1
 62
18
420
0
176
1
 90
50
176
1
 90
3
176
1
 62
5
420
255
176
1
290
0
176
1
 90
50
176
1
 90
50
176
1
 90
50
176
1
290
0
176
1
 90
50
176
1
 62
256
176
0
 40
1.0
176
0
 90
2
176
1
  1
strokes_ogs.tif
176
1
290
0
176
1
 40
1.0
176
1
 40
1.0
176
1
  0
DICTIONARYVAR
  5
2D3
330
2D
100
DictionaryVariables
280
0
  1
1.4.4 @ 2026-10-01T12:13:17.781369+00:00
  0
ENDSEC
  0
EOF
