  0
SECTION
  2
HEADER
  9
$ACADVER
  1
AC1032
  9
$ACADMAINTVER
 90
4
  9
$DWGCODEPAGE
  3
ANSI_1252
  9
$LASTSAVEDBY
  1
ezdxf
  9
$CUSTOMPROPERTYTAG
  1
KR_SHEET_ID
  9
$CUSTOMPROPERTY
  1
ICT-001
  9
$CUSTOMPROPERTYTAG
  1
KR_TITLE
  9
$CUSTOMPROPERTY
  1
Topologi jaringan (virtual)
  9
$CUSTOMPROPERTYTAG
  1
KR_FLOOR
  9
$CUSTOMPROPERTY
  1
-
  9
$CUSTOMPROPERTYTAG
  1
KR_SCALE
  9
$CUSTOMPROPERTY
  1
NTS @ A3
  9
$CUSTOMPROPERTYTAG
  1
KR_REVISION
  9
$CUSTOMPROPERTY
  1
P02
  9
$CUSTOMPROPERTYTAG
  1
KR_REV_DATE
  9
$CUSTOMPROPERTY
  1
2026-10-01
  9
$CUSTOMPROPERTYTAG
  1
KR_RENDER_UTC
  9
$CUSTOMPROPERTY
  1
2026-10-01T12:12:53Z
  9
$CUSTOMPROPERTYTAG
  1
KR_STATUS
  9
$CUSTOMPROPERTY
  1
KONSEP
  9
$CUSTOMPROPERTYTAG
  1
KR_NOTE
  9
$CUSTOMPROPERTY
  1
Bukan untuk konstruksi
  9
$CUSTOMPROPERTYTAG
  1
KR_DRAWN
  9
$CUSTOMPROPERTY
  1
Claude Code cloud (generator)
  9
$CUSTOMPROPERTYTAG
  1
KR_CHECK
  9
$CUSTOMPROPERTY
  1
Max (supervisor) belum review
  9
$CUSTOMPROPERTYTAG
  1
KR_WORLD_SHA256
  9
$CUSTOMPROPERTY
  1
ac39b320919d6410f01d798ea0af1508e8c37de5e08f0e72047b9bf11e1f4afa
  9
$CUSTOMPROPERTYTAG
  1
KR_GENERATOR
  9
$CUSTOMPROPERTY
  1
cad/generate.py v1
  9
$REQUIREDVERSIONS
160
0
  9
$INSBASE
 10
0.0
 20
0.0
 30
0.0
  9
$EXTMIN
 10
1e+20
 20
1e+20
 30
1e+20
  9
$EXTMAX
 10
-1e+20
 20
-1e+20
 30
-1e+20
  9
$LIMMIN
 10
0.0
 20
0.0
  9
$LIMMAX
 10
420.0
 20
297.0
  9
$ORTHOMODE
 70
0
  9
$REGENMODE
 70
1
  9
$FILLMODE
 70
1
  9
$QTEXTMODE
 70
0
  9
$MIRRTEXT
 70
1
  9
$LTSCALE
 40
1.0
  9
$ATTMODE
 70
1
  9
$TEXTSIZE
 40
2.5
  9
$TRACEWID
 40
1.0
  9
$TEXTSTYLE
  7
OpenSans
  9
$CLAYER
  8
0
  9
$CELTYPE
  6
ByLayer
  9
$CECOLOR
 62
256
  9
$CELTSCALE
 40
1.0
  9
$DISPSILH
 70
0
  9
$DIMSCALE
 40
1.0
  9
$DIMASZ
 40
0.175
  9
$DIMEXO
 40
0.125
  9
$DIMDLI
 40
3.75
  9
$DIMRND
 40
0.0
  9
$DIMDLE
 40
0.0
  9
$DIMEXE
 40
0.375
  9
$DIMTP
 40
0.0
  9
$DIMTM
 40
0.0
  9
$DIMTXT
 40
0.25
  9
$DIMCEN
 40
2.5
  9
$DIMTSZ
 40
0.0
  9
$DIMTOL
 70
0
  9
$DIMLIM
 70
0
  9
$DIMTIH
 70
0
  9
$DIMTOH
 70
0
  9
$DIMSE1
 70
0
  9
$DIMSE2
 70
0
  9
$DIMTAD
 70
1
  9
$DIMZIN
 70
12
  9
$DIMBLK
  1
ARCHTICK
  9
$DIMASO
 70
1
  9
$DIMSHO
 70
1
  9
$DIMPOST
  1

  9
$DIMAPOST
  1

  9
$DIMALT
 70
0
  9
$DIMALTD
 70
3
  9
$DIMALTF
 40
0.03937007874
  9
$DIMLFAC
 40
100.0
  9
$DIMTOFL
 70
1
  9
$DIMTVP
 40
0.0
  9
$DIMTIX
 70
0
  9
$DIMSOXD
 70
0
  9
$DIMSAH
 70
0
  9
$DIMBLK1
  1

  9
$DIMBLK2
  1

  9
$DIMSTYLE
  2
EZDXF
  9
$DIMCLRD
 70
0
  9
$DIMCLRE
 70
0
  9
$DIMCLRT
 70
0
  9
$DIMTFAC
 40
0.5
  9
$DIMGAP
 40
0.1
  9
$DIMJUST
 70
0
  9
$DIMSD1
 70
0
  9
$DIMSD2
 70
0
  9
$DIMTOLJ
 70
0
  9
$DIMTZIN
 70
8
  9
$DIMALTZ
 70
0
  9
$DIMALTTZ
 70
0
  9
$DIMUPT
 70
1
  9
$DIMDEC
 70
2
  9
$DIMTDEC
 70
2
  9
$DIMALTU
 70
2
  9
$DIMALTTD
 70
3
  9
$DIMTXSTY
  7
OpenSansCondensed-Light
  9
$DIMAUNIT
 70
0
  9
$DIMADEC
 70
2
  9
$DIMALTRND
 40
0.0
  9
$DIMAZIN
 70
3
  9
$DIMDSEP
 70
46
  9
$DIMATFIT
 70
3
  9
$DIMFRAC
 70
0
  9
$DIMLDRBLK
  1

  9
$DIMLUNIT
 70
2
  9
$DIMLWD
 70
-2
  9
$DIMLWE
 70
-2
  9
$DIMTMOVE
 70
2
  9
$DIMFXL
 40
1.0
  9
$DIMFXLON
 70
0
  9
$DIMJOGANG
 40
0.785398163397
  9
$DIMTFILL
 70
0
  9
$DIMTFILLCLR
 70
0
  9
$DIMARCSYM
 70
0
  9
$DIMLTYPE
  6

  9
$DIMLTEX1
  6

  9
$DIMLTEX2
  6

  9
$DIMTXTDIRECTION
 70
0
  9
$LUNITS
 70
2
  9
$LUPREC
 70
4
  9
$SKETCHINC
 40
1.0
  9
$FILLETRAD
 40
10.0
  9
$AUNITS
 70
0
  9
$AUPREC
 70
2
  9
$MENU
  1
.
  9
$ELEVATION
 40
0.0
  9
$PELEVATION
 40
0.0
  9
$THICKNESS
 40
0.0
  9
$LIMCHECK
 70
0
  9
$CHAMFERA
 40
0.0
  9
$CHAMFERB
 40
0.0
  9
$CHAMFERC
 40
0.0
  9
$CHAMFERD
 40
0.0
  9
$SKPOLY
 70
0
  9
$TDCREATE
 40
2461315.509513889
  9
$TDUCREATE
 40
2458532.153996898
  9
$TDUPDATE
 40
2461315.509513889
  9
$TDUUPDATE
 40
2458532.1544311
  9
$TDINDWG
 40
0.0
  9
$TDUSRTIMER
 40
0.0
  9
$USRTIMER
 70
1
  9
$ANGBASE
 50
0.0
  9
$ANGDIR
 70
0
  9
$PDMODE
 70
0
  9
$PDSIZE
 40
0.0
  9
$PLINEWID
 40
0.0
  9
$SPLFRAME
 70
0
  9
$SPLINETYPE
 70
6
  9
$SPLINESEGS
 70
8
  9
$HANDSEED
  5
165
  9
$SURFTAB1
 70
6
  9
$SURFTAB2
 70
6
  9
$SURFTYPE
 70
6
  9
$SURFU
 70
6
  9
$SURFV
 70
6
  9
$UCSBASE
  2

  9
$UCSNAME
  2

  9
$UCSORG
 10
0.0
 20
0.0
 30
0.0
  9
$UCSXDIR
 10
1.0
 20
0.0
 30
0.0
  9
$UCSYDIR
 10
0.0
 20
1.0
 30
0.0
  9
$UCSORTHOREF
  2

  9
$UCSORTHOVIEW
 70
0
  9
$UCSORGTOP
 10
0.0
 20
0.0
 30
0.0
  9
$UCSORGBOTTOM
 10
0.0
 20
0.0
 30
0.0
  9
$UCSORGLEFT
 10
0.0
 20
0.0
 30
0.0
  9
$UCSORGRIGHT
 10
0.0
 20
0.0
 30
0.0
  9
$UCSORGFRONT
 10
0.0
 20
0.0
 30
0.0
  9
$UCSORGBACK
 10
0.0
 20
0.0
 30
0.0
  9
$PUCSBASE
  2

  9
$PUCSNAME
  2

  9
$PUCSORG
 10
0.0
 20
0.0
 30
0.0
  9
$PUCSXDIR
 10
1.0
 20
0.0
 30
0.0
  9
$PUCSYDIR
 10
0.0
 20
1.0
 30
0.0
  9
$PUCSORTHOREF
  2

  9
$PUCSORTHOVIEW
 70
0
  9
$PUCSORGTOP
 10
0.0
 20
0.0
 30
0.0
  9
$PUCSORGBOTTOM
 10
0.0
 20
0.0
 30
0.0
  9
$PUCSORGLEFT
 10
0.0
 20
0.0
 30
0.0
  9
$PUCSORGRIGHT
 10
0.0
 20
0.0
 30
0.0
  9
$PUCSORGFRONT
 10
0.0
 20
0.0
 30
0.0
  9
$PUCSORGBACK
 10
0.0
 20
0.0
 30
0.0
  9
$USERI1
 70
0
  9
$USERI2
 70
0
  9
$USERI3
 70
0
  9
$USERI4
 70
0
  9
$USERI5
 70
0
  9
$USERR1
 40
0.0
  9
$USERR2
 40
0.0
  9
$USERR3
 40
0.0
  9
$USERR4
 40
0.0
  9
$USERR5
 40
0.0
  9
$WORLDVIEW
 70
1
  9
$SHADEDGE
 70
3
  9
$SHADEDIF
 70
70
  9
$TILEMODE
 70
1
  9
$MAXACTVP
 70
64
  9
$PINSBASE
 10
0.0
 20
0.0
 30
0.0
  9
$PLIMCHECK
 70
0
  9
$PEXTMIN
 10
1e+20
 20
1e+20
 30
1e+20
  9
$PEXTMAX
 10
-1e+20
 20
-1e+20
 30
-1e+20
  9
$PLIMMIN
 10
-0.0
 20
-0.0
  9
$PLIMMAX
 10
420.0
 20
297.0
  9
$UNITMODE
 70
0
  9
$VISRETAIN
 70
1
  9
$PLINEGEN
 70
0
  9
$PSLTSCALE
 70
0
  9
$TREEDEPTH
 70
3020
  9
$CMLSTYLE
  2
Standard
  9
$CMLJUST
 70
0
  9
$CMLSCALE
 40
20.0
  9
$PROXYGRAPHICS
 70
1
  9
$MEASUREMENT
 70
1
  9
$CELWEIGHT
370
-1
  9
$ENDCAPS
280
0
  9
$JOINSTYLE
280
0
  9
$LWDISPLAY
290
0
  9
$INSUNITS
 70
4
  9
$HYPERLINKBASE
  1

  9
$STYLESHEET
  1

  9
$XEDIT
290
1
  9
$CEPSNTYPE
380
0
  9
$PSTYLEMODE
290
1
  9
$FINGERPRINTGUID
  2
{0EE6F3DF-9953-4E9B-AFCD-5B87C120274A}
  9
$VERSIONGUID
  2
{6D52BE43-43B5-4774-A7E2-3DECE8CE53C9}
  9
$EXTNAMES
290
1
  9
$PSVPSCALE
 40
0.0
  9
$OLESTARTUP
290
0
  9
$SORTENTS
280
127
  9
$INDEXCTL
280
0
  9
$HIDETEXT
280
1
  9
$XCLIPFRAME
280
1
  9
$HALOGAP
280
0
  9
$OBSCOLOR
 70
257
  9
$OBSLTYPE
280
0
  9
$INTERSECTIONDISPLAY
280
0
  9
$INTERSECTIONCOLOR
 70
257
  9
$DIMASSOC
280
2
  9
$PROJECTNAME
  1

  9
$CAMERADISPLAY
290
0
  9
$LENSLENGTH
 40
50.0
  9
$CAMERAHEIGHT
 40
0.0
  9
$STEPSPERSEC
 40
24.0
  9
$STEPSIZE
 40
100.0
  9
$3DDWFPREC
 40
2.0
  9
$PSOLWIDTH
 40
0.005
  9
$PSOLHEIGHT
 40
0.08
  9
$LOFTANG1
 40
1.570796326795
  9
$LOFTANG2
 40
1.570796326795
  9
$LOFTMAG1
 40
0.0
  9
$LOFTMAG2
 40
0.0
  9
$LOFTPARAM
 70
7
  9
$LOFTNORMALS
280
1
  9
$LATITUDE
 40
37.795
  9
$LONGITUDE
 40
-122.394
  9
$NORTHDIRECTION
 40
0.0
  9
$TIMEZONE
 70
-8000
  9
$LIGHTGLYPHDISPLAY
280
1
  9
$TILEMODELIGHTSYNCH
280
1
  9
$CMATERIAL
347
20
  9
$SOLIDHIST
280
0
  9
$SHOWHIST
280
1
  9
$DWFFRAME
280
2
  9
$DGNFRAME
280
2
  9
$REALWORLDSCALE
290
1
  9
$INTERFERECOLOR
 62
256
  9
$CSHADOW
280
0
  9
$SHADOWPLANELOCATION
 40
0.0
  0
ENDSEC
  0
SECTION
  2
CLASSES
  0
CLASS
  1
ACDBDICTIONARYWDFLT
  2
AcDbDictionaryWithDefault
  3
ObjectDBX Classes
 90
0
 91
0
280
0
281
0
  0
CLASS
  1
SUN
  2
AcDbSun
  3
SCENEOE
 90
1153
 91
0
280
0
281
0
  0
CLASS
  1
VISUALSTYLE
  2
AcDbVisualStyle
  3
ObjectDBX Classes
 90
4095
 91
0
280
0
281
0
  0
CLASS
  1
MATERIAL
  2
AcDbMaterial
  3
ObjectDBX Classes
 90
1153
 91
0
280
0
281
0
  0
CLASS
  1
SCALE
  2
AcDbScale
  3
ObjectDBX Classes
 90
1153
 91
0
280
0
281
0
  0
CLASS
  1
TABLESTYLE
  2
AcDbTableStyle
  3
ObjectDBX Classes
 90
4095
 91
0
280
0
281
0
  0
CLASS
  1
MLEADERSTYLE
  2
AcDbMLeaderStyle
  3
ACDB_MLEADERSTYLE_CLASS
 90
4095
 91
0
280
0
281
0
  0
CLASS
  1
DICTIONARYVAR
  2
AcDbDictionaryVar
  3
ObjectDBX Classes
 90
0
 91
0
280
0
281
0
  0
CLASS
  1
CELLSTYLEMAP
  2
AcDbCellStyleMap
  3
ObjectDBX Classes
 90
1152
 91
0
280
0
281
0
  0
CLASS
  1
MENTALRAYRENDERSETTINGS
  2
AcDbMentalRayRenderSettings
  3
SCENEOE
 90
1024
 91
0
280
0
281
0
  0
CLASS
  1
ACDBDETAILVIEWSTYLE
  2
AcDbDetailViewStyle
  3
ObjectDBX Classes
 90
1025
 91
0
280
0
281
0
  0
CLASS
  1
ACDBSECTIONVIEWSTYLE
  2
AcDbSectionViewStyle
  3
ObjectDBX Classes
 90
1025
 91
0
280
0
281
0
  0
CLASS
  1
RASTERVARIABLES
  2
AcDbRasterVariables
  3
ISM
 90
0
 91
0
280
0
281
0
  0
CLASS
  1
LAYOUT
  2
AcDbLayout
  3
ObjectDBX Classes
 90
0
 91
0
280
0
281
0
  0
CLASS
  1
ACDBPLACEHOLDER
  2
AcDbPlaceHolder
  3
ObjectDBX Classes
 90
0
 91
0
280
0
281
0
  0
ENDSEC
  0
SECTION
  2
TABLES
  0
TABLE
  2
VPORT
  5
8
330
0
100
AcDbSymbolTable
 70
1
  0
VPORT
  5
23
330
8
100
AcDbSymbolTableRecord
100
AcDbViewportTableRecord
  2
*Active
 70
0
 10
0.0
 20
0.0
 11
1.0
 21
1.0
 12
0.0
 22
0.0
 13
0.0
 23
0.0
 14
0.5
 24
0.5
 15
0.5
 25
0.5
 16
0.0
 26
0.0
 36
1.0
 17
0.0
 27
0.0
 37
0.0
 40
1000.0
 41
1.34
 42
50.0
 43
0.0
 44
0.0
 50
0.0
 51
0.0
 71
0
 72
1000
 73
1
 74
3
 75
0
 76
0
 77
0
 78
0
281
0
 65
0
146
0.0
  0
ENDTAB
  0
TABLE
  2
LTYPE
  5
2
330
0
100
AcDbSymbolTable
 70
21
  0
LTYPE
  5
24
330
2
100
AcDbSymbolTableRecord
100
AcDbLinetypeTableRecord
  2
ByBlock
 70
0
  3

 72
65
 73
0
 40
0.0
  0
LTYPE
  5
25
330
2
100
AcDbSymbolTableRecord
100
AcDbLinetypeTableRecord
  2
ByLayer
 70
0
  3

 72
65
 73
0
 40
0.0
  0
LTYPE
  5
26
330
2
100
AcDbSymbolTableRecord
100
AcDbLinetypeTableRecord
  2
Continuous
 70
0
  3

 72
65
 73
0
 40
0.0
  0
LTYPE
  5
2F
330
2
100
AcDbSymbolTableRecord
100
AcDbLinetypeTableRecord
  2
CENTER
 70
0
  3
Center ____ _ ____ _ ____ _ ____ _ ____ _ ____
 72
65
 73
4
 40
5.08
 49
3.175
 74
0
 49
-0.635
 74
0
 49
0.635
 74
0
 49
-0.635
 74
0
  0
LTYPE
  5
30
330
2
100
AcDbSymbolTableRecord
100
AcDbLinetypeTableRecord
  2
CENTERX2
 70
0
  3
Center (2x) ________  __  ________  __  ________
 72
65
 73
4
 40
8.89
 49
6.35
 74
0
 49
-0.635
 74
0
 49
1.27
 74
0
 49
-0.635
 74
0
  0
LTYPE
  5
31
330
2
100
AcDbSymbolTableRecord
100
AcDbLinetypeTableRecord
  2
CENTER2
 70
0
  3
Center (.5x) ____ _ ____ _ ____ _ ____ _ ____
 72
65
 73
4
 40
2.54
 49
1.587
 74
0
 49
-0.318
 74
0
 49
0.318
 74
0
 49
-0.318
 74
0
  0
LTYPE
  5
32
330
2
100
AcDbSymbolTableRecord
100
AcDbLinetypeTableRecord
  2
DASHED
 70
0
  3
Dashed __ __ __ __ __ __ __ __ __ __ __ __ __ _
 72
65
 73
2
 40
1.524
 49
1.27
 74
0
 49
-0.254
 74
0
  0
LTYPE
  5
33
330
2
100
AcDbSymbolTableRecord
100
AcDbLinetypeTableRecord
  2
DASHEDX2
 70
0
  3
Dashed (2x) ____  ____  ____  ____  ____  ____
 72
65
 73
2
 40
3.048
 49
2.54
 74
0
 49
-0.508
 74
0
  0
LTYPE
  5
34
330
2
100
AcDbSymbolTableRecord
100
AcDbLinetypeTableRecord
  2
DASHED2
 70
0
  3
Dashed (.5x) _ _ _ _ _ _ _ _ _ _ _ _ _ _
 72
65
 73
2
 40
0.762
 49
0.635
 74
0
 49
-0.127
 74
0
  0
LTYPE
  5
35
330
2
100
AcDbSymbolTableRecord
100
AcDbLinetypeTableRecord
  2
PHANTOM
 70
0
  3
Phantom ______  __  __  ______  __  __  ______
 72
65
 73
6
 40
6.35
 49
3.175
 74
0
 49
-0.635
 74
0
 49
0.635
 74
0
 49
-0.635
 74
0
 49
0.635
 74
0
 49
-0.635
 74
0
  0
LTYPE
  5
36
330
2
100
AcDbSymbolTableRecord
100
AcDbLinetypeTableRecord
  2
PHANTOMX2
 70
0
  3
Phantom (2x)____________    ____    ____    ____________
 72
65
 73
6
 40
10.795
 49
6.35
 74
0
 49
-0.635
 74
0
 49
1.27
 74
0
 49
-0.635
 74
0
 49
1.27
 74
0
 49
-0.635
 74
0
  0
LTYPE
  5
37
330
2
100
AcDbSymbolTableRecord
100
AcDbLinetypeTableRecord
  2
PHANTOM2
 70
0
  3
Phantom (.5x) ___ _ _ ___ _ _ ___ _ _ ___ _ _ ___
 72
65
 73
6
 40
3.175
 49
1.587
 74
0
 49
-0.318
 74
0
 49
0.318
 74
0
 49
-0.318
 74
0
 49
0.318
 74
0
 49
-0.318
 74
0
  0
LTYPE
  5
38
330
2
100
AcDbSymbolTableRecord
100
AcDbLinetypeTableRecord
  2
DASHDOT
 70
0
  3
Dash dot __ . __ . __ . __ . __ . __ . __ . __
 72
65
 73
4
 40
3.556
 49
2.54
 74
0
 49
-0.508
 74
0
 49
0.0
 74
0
 49
-0.508
 74
0
  0
LTYPE
  5
39
330
2
100
AcDbSymbolTableRecord
100
AcDbLinetypeTableRecord
  2
DASHDOTX2
 70
0
  3
Dash dot (2x) ____  .  ____  .  ____  .  ____
 72
65
 73
4
 40
6.096
 49
5.08
 74
0
 49
-0.508
 74
0
 49
0.0
 74
0
 49
-0.508
 74
0
  0
LTYPE
  5
3A
330
2
100
AcDbSymbolTableRecord
100
AcDbLinetypeTableRecord
  2
DASHDOT2
 70
0
  3
Dash dot (.5x) _ . _ . _ . _ . _ . _ . _ . _
 72
65
 73
4
 40
1.778
 49
1.27
 74
0
 49
-0.254
 74
0
 49
0.0
 74
0
 49
-0.254
 74
0
  0
LTYPE
  5
3B
330
2
100
AcDbSymbolTableRecord
100
AcDbLinetypeTableRecord
  2
DOT
 70
0
  3
Dot .  .  .  .  .  .  .  .  .  .  .  .  .  .  .  .
 72
65
 73
2
 40
0.508
 49
0.0
 74
0
 49
-0.508
 74
0
  0
LTYPE
  5
3C
330
2
100
AcDbSymbolTableRecord
100
AcDbLinetypeTableRecord
  2
DOTX2
 70
0
  3
Dot (2x) .    .    .    .    .    .    .    . 
 72
65
 73
2
 40
1.016
 49
0.0
 74
0
 49
-1.016
 74
0
  0
LTYPE
  5
3D
330
2
100
AcDbSymbolTableRecord
100
AcDbLinetypeTableRecord
  2
DOT2
 70
0
  3
Dot (.5) . . . . . . . . . . . . . . . . . . . 
 72
65
 73
2
 40
0.254
 49
0.0
 74
0
 49
-0.254
 74
0
  0
LTYPE
  5
3E
330
2
100
AcDbSymbolTableRecord
100
AcDbLinetypeTableRecord
  2
DIVIDE
 70
0
  3
Divide __ . . __ . . __ . . __ . . __ . . __
 72
65
 73
6
 40
4.064
 49
2.54
 74
0
 49
-0.508
 74
0
 49
0.0
 74
0
 49
-0.508
 74
0
 49
0.0
 74
0
 49
-0.508
 74
0
  0
LTYPE
  5
3F
330
2
100
AcDbSymbolTableRecord
100
AcDbLinetypeTableRecord
  2
DIVIDEX2
 70
0
  3
Divide (2x) ____  . .  ____  . .  ____  . .  ____
 72
65
 73
6
 40
6.604
 49
5.08
 74
0
 49
-0.508
 74
0
 49
0.0
 74
0
 49
-0.508
 74
0
 49
0.0
 74
0
 49
-0.508
 74
0
  0
LTYPE
  5
40
330
2
100
AcDbSymbolTableRecord
100
AcDbLinetypeTableRecord
  2
DIVIDE2
 70
0
  3
Divide(.5x) _ . _ . _ . _ . _ . _ . _ . _
 72
65
 73
6
 40
2.032
 49
1.27
 74
0
 49
-0.254
 74
0
 49
0.0
 74
0
 49
-0.254
 74
0
 49
0.0
 74
0
 49
-0.254
 74
0
  0
ENDTAB
  0
TABLE
  2
LAYER
  5
1
330
0
100
AcDbSymbolTable
 70
19
  0
LAYER
  5
27
330
1
100
AcDbSymbolTableRecord
100
AcDbLayerTableRecord
  2
0
 70
0
 62
7
  6
Continuous
370
-3
390
13
347
21
  0
LAYER
  5
28
330
1
100
AcDbSymbolTableRecord
100
AcDbLayerTableRecord
  2
Defpoints
 70
0
 62
7
  6
Continuous
290
0
370
-3
390
13
347
21
  0
LAYER
  5
8B
330
1
100
AcDbSymbolTableRecord
100
AcDbLayerTableRecord
  2
A-WALL
 70
0
 62
3
420
2051386
  6
Continuous
370
50
390
13
347
21
  0
LAYER
  5
8C
330
1
100
AcDbSymbolTableRecord
100
AcDbLayerTableRecord
  2
A-DOOR
 70
0
 62
3
420
2051386
  6
Continuous
370
25
390
13
347
21
  0
LAYER
  5
8D
330
1
100
AcDbSymbolTableRecord
100
AcDbLayerTableRecord
  2
A-DOOR-IDEN
 70
0
 62
8
420
4020812
  6
Continuous
370
13
390
13
347
21
  0
LAYER
  5
8E
330
1
100
AcDbSymbolTableRecord
100
AcDbLayerTableRecord
  2
A-AREA
 70
0
 62
9
420
10532010
  6
Continuous
290
0
370
13
390
13
347
21
  0
LAYER
  5
8F
330
1
100
AcDbSymbolTableRecord
100
AcDbLayerTableRecord
  2
A-ANNO-RMNM
 70
0
 62
7
420
2240554
  6
Continuous
370
18
390
13
347
21
  0
LAYER
  5
90
330
1
100
AcDbSymbolTableRecord
100
AcDbLayerTableRecord
  2
A-FURN
 70
0
 62
8
420
9076854
  6
Continuous
370
18
390
13
347
21
  0
LAYER
  5
91
330
1
100
AcDbSymbolTableRecord
100
AcDbLayerTableRecord
  2
A-FURN-IDEN
 70
0
 62
8
420
9076854
  6
Continuous
370
9
390
13
347
21
  0
LAYER
  5
92
330
1
100
AcDbSymbolTableRecord
100
AcDbLayerTableRecord
  2
A-STRS
 70
0
 62
30
420
11883311
  6
Continuous
370
25
390
13
347
21
  0
LAYER
  5
93
330
1
100
AcDbSymbolTableRecord
100
AcDbLayerTableRecord
  2
A-ANNO-DIMS
 70
0
 62
7
420
3097144
  6
Continuous
370
18
390
13
347
21
  0
LAYER
  5
94
330
1
100
AcDbSymbolTableRecord
100
AcDbLayerTableRecord
  2
A-GRID
 70
0
 62
8
420
9415067
  6
CENTER
370
13
390
13
347
21
  0
LAYER
  5
95
330
1
100
AcDbSymbolTableRecord
100
AcDbLayerTableRecord
  2
A-GRID-IDEN
 70
0
 62
8
420
3097144
  6
Continuous
370
18
390
13
347
21
  0
LAYER
  5
96
330
1
100
AcDbSymbolTableRecord
100
AcDbLayerTableRecord
  2
A-ANNO-TTLB
 70
0
 62
3
420
2051386
  6
Continuous
370
35
390
13
347
21
  0
LAYER
  5
97
330
1
100
AcDbSymbolTableRecord
100
AcDbLayerTableRecord
  2
A-ANNO-NOTE
 70
0
 62
7
420
2240554
  6
Continuous
370
18
390
13
347
21
  0
LAYER
  5
98
330
1
100
AcDbSymbolTableRecord
100
AcDbLayerTableRecord
  2
A-ANNO-WMRK
 70
0
 62
9
420
15265514
  6
Continuous
370
13
390
13
347
21
  0
LAYER
  5
99
330
1
100
AcDbSymbolTableRecord
100
AcDbLayerTableRecord
  2
A-ANNO-VPRT
 70
0
 62
8
420
8421504
  6
Continuous
290
0
370
13
390
13
347
21
  0
LAYER
  5
9C
330
1
100
AcDbSymbolTableRecord
100
AcDbLayerTableRecord
  2
A-ANNO-SCHD
 70
0
 62
7
  6
Continuous
370
-3
390
13
347
21
  0
LAYER
  5
9D
330
1
100
AcDbSymbolTableRecord
100
AcDbLayerTableRecord
  2
ICT-TOPO
 70
0
 62
7
  6
Continuous
370
-3
390
13
347
21
  0
ENDTAB
  0
TABLE
  2
STYLE
  5
5
330
0
100
AcDbSymbolTable
 70
27
  0
STYLE
  5
29
330
5
100
AcDbSymbolTableRecord
100
AcDbTextStyleTableRecord
  2
Standard
 70
0
 40
0.0
 41
1.0
 50
0.0
 71
0
 42
2.5
  3
txt
  4

  0
STYLE
  5
41
330
5
100
AcDbSymbolTableRecord
100
AcDbTextStyleTableRecord
  2
OpenSans-Light
 70
0
 40
0.0
 41
1.0
 50
0.0
 71
0
 42
2.5
  3
OpenSans-Light.ttf
  4

  0
STYLE
  5
42
330
5
100
AcDbSymbolTableRecord
100
AcDbTextStyleTableRecord
  2
OpenSans-Light-Italic
 70
0
 40
0.0
 41
1.0
 50
0.0
 71
0
 42
2.5
  3
OpenSans-LightItalic.ttf
  4

  0
STYLE
  5
43
330
5
100
AcDbSymbolTableRecord
100
AcDbTextStyleTableRecord
  2
OpenSans
 70
0
 40
0.0
 41
1.0
 50
0.0
 71
0
 42
2.5
  3
OpenSans-Regular.ttf
  4

  0
STYLE
  5
44
330
5
100
AcDbSymbolTableRecord
100
AcDbTextStyleTableRecord
  2
OpenSans-Italic
 70
0
 40
0.0
 41
1.0
 50
0.0
 71
0
 42
2.5
  3
OpenSans-Italic.ttf
  4

  0
STYLE
  5
45
330
5
100
AcDbSymbolTableRecord
100
AcDbTextStyleTableRecord
  2
OpenSans-SemiBold
 70
0
 40
0.0
 41
1.0
 50
0.0
 71
0
 42
2.5
  3
OpenSans-SemiBold.ttf
  4

  0
STYLE
  5
46
330
5
100
AcDbSymbolTableRecord
100
AcDbTextStyleTableRecord
  2
OpenSans-SemiBoldItalic
 70
0
 40
0.0
 41
1.0
 50
0.0
 71
0
 42
2.5
  3
OpenSans-SemiBoldItalic.ttf
  4

  0
STYLE
  5
47
330
5
100
AcDbSymbolTableRecord
100
AcDbTextStyleTableRecord
  2
OpenSans-Bold
 70
0
 40
0.0
 41
1.0
 50
0.0
 71
0
 42
2.5
  3
OpenSans-Bold.ttf
  4

  0
STYLE
  5
48
330
5
100
AcDbSymbolTableRecord
100
AcDbTextStyleTableRecord
  2
OpenSans-BoldItalic
 70
0
 40
0.0
 41
1.0
 50
0.0
 71
0
 42
2.5
  3
OpenSans-BoldItalic.ttf
  4

  0
STYLE
  5
49
330
5
100
AcDbSymbolTableRecord
100
AcDbTextStyleTableRecord
  2
OpenSans-ExtraBold
 70
0
 40
0.0
 41
1.0
 50
0.0
 71
0
 42
2.5
  3
OpenSans-ExtraBold.ttf
  4

  0
STYLE
  5
4A
330
5
100
AcDbSymbolTableRecord
100
AcDbTextStyleTableRecord
  2
OpenSans-ExtraBoldItalic
 70
0
 40
0.0
 41
1.0
 50
0.0
 71
0
 42
2.5
  3
OpenSans-ExtraBoldItalic.ttf
  4

  0
STYLE
  5
4B
330
5
100
AcDbSymbolTableRecord
100
AcDbTextStyleTableRecord
  2
OpenSansCondensed-Bold
 70
0
 40
0.0
 41
1.0
 50
0.0
 71
0
 42
2.5
  3
OpenSansCondensed-Bold.ttf
  4

  0
STYLE
  5
4C
330
5
100
AcDbSymbolTableRecord
100
AcDbTextStyleTableRecord
  2
OpenSansCondensed-Light
 70
0
 40
0.0
 41
1.0
 50
0.0
 71
0
 42
2.5
  3
OpenSansCondensed-Light.ttf
  4

  0
STYLE
  5
4D
330
5
100
AcDbSymbolTableRecord
100
AcDbTextStyleTableRecord
  2
OpenSansCondensed-Italic
 70
0
 40
0.0
 41
1.0
 50
0.0
 71
0
 42
2.5
  3
OpenSansCondensed-LightItalic.ttf
  4

  0
STYLE
  5
4E
330
5
100
AcDbSymbolTableRecord
100
AcDbTextStyleTableRecord
  2
LiberationSans
 70
0
 40
0.0
 41
1.0
 50
0.0
 71
0
 42
2.5
  3
LiberationSans-Regular.ttf
  4

  0
STYLE
  5
4F
330
5
100
AcDbSymbolTableRecord
100
AcDbTextStyleTableRecord
  2
LiberationSans-Bold
 70
0
 40
0.0
 41
1.0
 50
0.0
 71
0
 42
2.5
  3
LiberationSans-Bold.ttf
  4

  0
STYLE
  5
50
330
5
100
AcDbSymbolTableRecord
100
AcDbTextStyleTableRecord
  2
LiberationSans-BoldItalic
 70
0
 40
0.0
 41
1.0
 50
0.0
 71
0
 42
2.5
  3
LiberationSans-BoldItalic.ttf
  4

  0
STYLE
  5
51
330
5
100
AcDbSymbolTableRecord
100
AcDbTextStyleTableRecord
  2
LiberationSans-Italic
 70
0
 40
0.0
 41
1.0
 50
0.0
 71
0
 42
2.5
  3
LiberationSans-Italic.ttf
  4

  0
STYLE
  5
52
330
5
100
AcDbSymbolTableRecord
100
AcDbTextStyleTableRecord
  2
LiberationSerif
 70
0
 40
0.0
 41
1.0
 50
0.0
 71
0
 42
2.5
  3
LiberationSerif-Regular.ttf
  4

  0
STYLE
  5
53
330
5
100
AcDbSymbolTableRecord
100
AcDbTextStyleTableRecord
  2
LiberationSerif-Bold
 70
0
 40
0.0
 41
1.0
 50
0.0
 71
0
 42
2.5
  3
LiberationSerif-Bold.ttf
  4

  0
STYLE
  5
54
330
5
100
AcDbSymbolTableRecord
100
AcDbTextStyleTableRecord
  2
LiberationSerif-BoldItalic
 70
0
 40
0.0
 41
1.0
 50
0.0
 71
0
 42
2.5
  3
LiberationSerif-BoldItalic.ttf
  4

  0
STYLE
  5
55
330
5
100
AcDbSymbolTableRecord
100
AcDbTextStyleTableRecord
  2
LiberationSerif-Italic
 70
0
 40
0.0
 41
1.0
 50
0.0
 71
0
 42
2.5
  3
LiberationSerif-Italic.ttf
  4

  0
STYLE
  5
56
330
5
100
AcDbSymbolTableRecord
100
AcDbTextStyleTableRecord
  2
LiberationMono
 70
0
 40
0.0
 41
1.0
 50
0.0
 71
0
 42
2.5
  3
LiberationMono-Regular.ttf
  4

  0
STYLE
  5
57
330
5
100
AcDbSymbolTableRecord
100
AcDbTextStyleTableRecord
  2
LiberationMono-Bold
 70
0
 40
0.0
 41
1.0
 50
0.0
 71
0
 42
2.5
  3
LiberationMono-Bold.ttf
  4

  0
STYLE
  5
58
330
5
100
AcDbSymbolTableRecord
100
AcDbTextStyleTableRecord
  2
LiberationMono-BoldItalic
 70
0
 40
0.0
 41
1.0
 50
0.0
 71
0
 42
2.5
  3
LiberationMono-BoldItalic.ttf
  4

  0
STYLE
  5
59
330
5
100
AcDbSymbolTableRecord
100
AcDbTextStyleTableRecord
  2
LiberationMono-Italic
 70
0
 40
0.0
 41
1.0
 50
0.0
 71
0
 42
2.5
  3
LiberationMono-Italic.ttf
  4

  0
STYLE
  5
9A
330
5
100
AcDbSymbolTableRecord
100
AcDbTextStyleTableRecord
  2
KR-SANS
 70
0
 40
0.0
 41
0.8
 50
0.0
 71
0
 42
2.5
  3
DejaVuSans.ttf
  4

  0
ENDTAB
  0
TABLE
  2
VIEW
  5
7
330
0
100
AcDbSymbolTable
 70
0
  0
ENDTAB
  0
TABLE
  2
UCS
  5
6
330
0
100
AcDbSymbolTable
 70
0
  0
ENDTAB
  0
TABLE
  2
APPID
  5
3
330
0
100
AcDbSymbolTable
 70
4
  0
APPID
  5
2A
330
3
100
AcDbSymbolTableRecord
100
AcDbRegAppTableRecord
  2
ACAD
 70
0
  0
APPID
  5
8A
330
3
100
AcDbSymbolTableRecord
100
AcDbRegAppTableRecord
  2
KANTOR_RPG
 70
0
  0
APPID
  5
162
330
3
100
AcDbSymbolTableRecord
100
AcDbRegAppTableRecord
  2
HATCHBACKGROUNDCOLOR
 70
0
  0
APPID
  5
163
330
3
100
AcDbSymbolTableRecord
100
AcDbRegAppTableRecord
  2
EZDXF
 70
0
  0
ENDTAB
  0
TABLE
  2
DIMSTYLE
  5
4
330
0
100
AcDbSymbolTable
 70
13
100
AcDbDimStyleTable
  0
DIMSTYLE
105
2B
330
4
100
AcDbSymbolTableRecord
100
AcDbDimStyleTableRecord
  2
Standard
 70
0
 40
1.0
 41
2.5
 42
0.625
 43
3.75
 44
1.25
 45
0.0
 46
0.0
 47
0.0
 48
0.0
 49
2.5
140
2.5
141
2.5
142
0.0
143
0.03937007874
144
1.0
145
0.0
146
1.0
147
0.625
148
0.0
 69
0
 70
0
 71
0
 72
0
 73
0
 74
0
 75
0
 76
0
 77
1
 78
8
 79
3
170
0
171
3
172
1
173
0
174
0
175
0
176
0
177
0
178
0
179
2
271
2
272
2
273
2
274
3
275
0
276
0
277
2
278
44
279
0
280
0
281
0
282
0
283
0
284
8
285
0
286
0
288
0
289
3
290
0
371
-2
372
-2
  0
DIMSTYLE
105
73
330
4
100
AcDbSymbolTableRecord
100
AcDbDimStyleTableRecord
  2
EZDXF
 70
0
 40
1.0
 41
0.175
 42
0.125
 43
3.75
 44
0.375
 45
0.0
 46
0.0
 47
0.0
 48
0.0
 49
2.5
140
0.25
141
2.5
142
0.0
143
0.03937007874
144
100.0
145
0.0
146
0.5
147
0.1
148
0.0
 69
0
 70
0
 71
0
 72
0
 73
0
 74
0
 75
0
 76
0
 77
1
 78
12
 79
3
170
0
171
3
172
1
173
0
174
0
175
0
176
0
177
0
178
0
179
2
271
2
272
2
273
2
274
3
275
0
276
0
277
2
278
46
279
2
280
0
281
0
282
0
283
0
284
8
285
0
286
0
288
1
289
3
290
0
340
4C
342
74
371
-2
372
-2
  0
DIMSTYLE
105
7C
330
4
100
AcDbSymbolTableRecord
100
AcDbDimStyleTableRecord
  2
EZ_M_100_H25_CM
 70
0
 40
1.0
 41
0.25
 42
0.125
 43
3.75
 44
0.375
 45
0.0
 46
0.0
 47
0.0
 48
0.0
 49
2.5
140
0.25
141
2.5
142
0.125
143
0.03937007874
144
100.0
145
0.0
146
0.5
147
0.1
148
0.0
 69
0
 70
0
 71
0
 72
0
 73
0
 74
0
 75
0
 76
0
 77
1
 78
12
 79
3
170
0
171
3
172
1
173
0
174
0
175
0
176
0
177
0
178
0
179
2
271
2
272
2
273
2
274
3
275
0
276
0
277
2
278
46
279
2
280
0
281
0
282
0
283
0
284
8
285
0
286
0
288
1
289
3
290
0
340
4C
371
-2
372
-2
  0
DIMSTYLE
105
7D
330
4
100
AcDbSymbolTableRecord
100
AcDbDimStyleTableRecord
  2
EZ_M_50_H25_CM
 70
0
 40
1.0
 41
0.125
 42
0.0625
 43
3.75
 44
0.1875
 45
0.0
 46
0.0
 47
0.0
 48
0.0
 49
2.5
140
0.125
141
2.5
142
0.0625
143
0.03937007874
144
100.0
145
0.0
146
0.5
147
0.05
148
0.0
 69
0
 70
0
 71
0
 72
0
 73
0
 74
0
 75
0
 76
0
 77
1
 78
12
 79
3
170
0
171
3
172
1
173
0
174
0
175
0
176
0
177
0
178
0
179
2
271
2
272
2
273
2
274
3
275
0
276
0
277
2
278
46
279
2
280
0
281
0
282
0
283
0
284
8
285
0
286
0
288
1
289
3
290
0
340
4C
371
-2
372
-2
  0
DIMSTYLE
105
7E
330
4
100
AcDbSymbolTableRecord
100
AcDbDimStyleTableRecord
  2
EZ_M_25_H25_CM
 70
0
 40
1.0
 41
0.0625
 42
0.03125
 43
3.75
 44
0.09375
 45
0.0
 46
0.0
 47
0.0
 48
0.0
 49
2.5
140
0.0625
141
2.5
142
0.03125
143
0.03937007874
144
100.0
145
0.0
146
0.5
147
0.025
148
0.0
 69
0
 70
0
 71
0
 72
0
 73
0
 74
0
 75
0
 76
0
 77
1
 78
12
 79
3
170
0
171
3
172
1
173
0
174
0
175
0
176
0
177
0
178
0
179
2
271
2
272
2
273
2
274
3
275
0
276
0
277
2
278
46
279
2
280
0
281
0
282
0
283
0
284
8
285
0
286
0
288
1
289
3
290
0
340
4C
371
-2
372
-2
  0
DIMSTYLE
105
7F
330
4
100
AcDbSymbolTableRecord
100
AcDbDimStyleTableRecord
  2
EZ_M_20_H25_CM
 70
0
 40
1.0
 41
0.05
 42
0.025
 43
3.75
 44
0.07500000000000001
 45
0.0
 46
0.0
 47
0.0
 48
0.0
 49
2.5
140
0.05
141
2.5
142
0.025
143
0.03937007874
144
100.0
145
0.0
146
0.5
147
0.020000000000000004
148
0.0
 69
0
 70
0
 71
0
 72
0
 73
0
 74
0
 75
0
 76
0
 77
1
 78
12
 79
3
170
0
171
3
172
1
173
0
174
0
175
0
176
0
177
0
178
0
179
2
271
2
272
2
273
2
274
3
275
0
276
0
277
2
278
46
279
2
280
0
281
0
282
0
283
0
284
8
285
0
286
0
288
1
289
3
290
0
340
4C
371
-2
372
-2
  0
DIMSTYLE
105
80
330
4
100
AcDbSymbolTableRecord
100
AcDbDimStyleTableRecord
  2
EZ_M_10_H25_CM
 70
0
 40
1.0
 41
0.025
 42
0.0125
 43
3.75
 44
0.037500000000000006
 45
0.0
 46
0.0
 47
0.0
 48
0.0
 49
2.5
140
0.025
141
2.5
142
0.0125
143
0.03937007874
144
100.0
145
0.0
146
0.5
147
0.010000000000000002
148
0.0
 69
0
 70
0
 71
0
 72
0
 73
0
 74
0
 75
0
 76
0
 77
1
 78
12
 79
3
170
0
171
3
172
1
173
0
174
0
175
0
176
0
177
0
178
0
179
2
271
2
272
2
273
2
274
3
275
0
276
0
277
2
278
46
279
2
280
0
281
0
282
0
283
0
284
8
285
0
286
0
288
1
289
3
290
0
340
4C
371
-2
372
-2
  0
DIMSTYLE
105
81
330
4
100
AcDbSymbolTableRecord
100
AcDbDimStyleTableRecord
  2
EZ_M_5_H25_CM
 70
0
 40
1.0
 41
0.0125
 42
0.00625
 43
3.75
 44
0.018750000000000003
 45
0.0
 46
0.0
 47
0.0
 48
0.0
 49
2.5
140
0.0125
141
2.5
142
0.00625
143
0.03937007874
144
100.0
145
0.0
146
0.5
147
0.005000000000000001
148
0.0
 69
0
 70
0
 71
0
 72
0
 73
0
 74
0
 75
0
 76
0
 77
1
 78
12
 79
3
170
0
171
3
172
1
173
0
174
0
175
0
176
0
177
0
178
0
179
2
271
2
272
2
273
2
274
3
275
0
276
0
277
2
278
46
279
2
280
0
281
0
282
0
283
0
284
8
285
0
286
0
288
1
289
3
290
0
340
4C
371
-2
372
-2
  0
DIMSTYLE
105
82
330
4
100
AcDbSymbolTableRecord
100
AcDbDimStyleTableRecord
  2
EZ_M_1_H25_CM
 70
0
 40
1.0
 41
0.0025
 42
0.00125
 43
3.75
 44
0.00375
 45
0.0
 46
0.0
 47
0.0
 48
0.0
 49
2.5
140
0.0025
141
2.5
142
0.00125
143
0.03937007874
144
100.0
145
0.0
146
0.5
147
0.001
148
0.0
 69
0
 70
0
 71
0
 72
0
 73
0
 74
0
 75
0
 76
0
 77
1
 78
12
 79
3
170
0
171
3
172
1
173
0
174
0
175
0
176
0
177
0
178
0
179
2
271
2
272
2
273
2
274
3
275
0
276
0
277
2
278
46
279
2
280
0
281
0
282
0
283
0
284
8
285
0
286
0
288
1
289
3
290
0
340
4C
371
-2
372
-2
  0
DIMSTYLE
105
83
330
4
100
AcDbSymbolTableRecord
100
AcDbDimStyleTableRecord
  2
EZ_RADIUS
 70
0
 40
1.0
 41
0.25
 42
0.125
 43
3.75
 44
0.375
 45
0.0
 46
0.0
 47
0.0
 48
0.0
 49
2.5
140
0.25
141
0.0
142
0.0
143
0.03937007874
144
100.0
145
0.0
146
0.5
147
0.1
148
0.0
 69
0
 70
0
 71
0
 72
0
 73
0
 74
0
 75
0
 76
0
 77
1
 78
12
 79
3
170
0
171
3
172
0
173
0
174
0
175
0
176
0
177
0
178
0
179
2
271
2
272
2
273
2
274
3
275
0
276
0
277
2
278
46
279
1
280
0
281
0
282
0
283
0
284
8
285
0
286
0
288
1
289
3
290
0
340
4C
342
84
371
-2
372
-2
  0
DIMSTYLE
105
88
330
4
100
AcDbSymbolTableRecord
100
AcDbDimStyleTableRecord
  2
EZ_RADIUS_INSIDE
 70
0
 40
1.0
 41
0.25
 42
0.125
 43
3.75
 44
0.375
 45
0.0
 46
0.0
 47
0.0
 48
0.0
 49
2.5
140
0.25
141
0.0
142
0.0
143
0.03937007874
144
100.0
145
0.0
146
0.5
147
0.1
148
0.0
 69
0
 70
0
 71
0
 72
0
 73
0
 74
0
 75
0
 76
0
 77
0
 78
12
 79
3
170
0
171
3
172
0
173
0
174
1
175
0
176
0
177
0
178
0
179
2
271
2
272
2
273
2
274
3
275
0
276
0
277
2
278
46
279
0
280
0
281
0
282
0
283
0
284
8
285
0
286
0
288
1
289
0
290
0
340
4C
342
84
371
-2
372
-2
  0
DIMSTYLE
105
89
330
4
100
AcDbSymbolTableRecord
100
AcDbDimStyleTableRecord
  2
EZ_CURVED
 70
0
 40
1.0
 41
0.25
 42
0.125
 43
3.75
 44
0.375
 45
0.0
 46
0.0
 47
0.0
 48
0.0
 49
2.5
140
0.25
141
2.5
142
0.0
143
0.03937007874
144
100.0
145
0.0
146
0.5
147
0.1
148
0.0
 69
0
 70
0
 71
0
 72
0
 73
0
 74
0
 75
0
 76
0
 77
1
 78
12
 79
2
 90
2
170
0
171
3
172
1
173
0
174
0
175
0
176
0
177
0
178
0
179
2
271
2
272
2
273
2
274
3
275
0
276
0
277
2
278
46
279
2
280
0
281
0
282
0
283
0
284
8
285
0
286
0
288
1
289
3
290
0
340
4C
371
-2
372
-2
  0
DIMSTYLE
105
9B
330
4
100
AcDbSymbolTableRecord
100
AcDbDimStyleTableRecord
  2
KR-100
 70
0
 40
100.0
 41
0.0
 42
1.0
 43
3.75
 44
1.5
 45
0.0
 46
0.0
 47
0.0
 48
0.0
 49
2.5
140
2.0
141
2.5
142
1.0
143
0.03937007874
144
1.0
145
0.0
146
1.0
147
0.8
148
0.0
 69
0
 70
0
 71
0
 72
0
 73
0
 74
0
 75
0
 76
0
 77
1
 78
8
 79
3
170
0
171
3
172
1
173
0
174
0
175
0
176
256
177
256
178
256
179
2
271
0
272
2
273
2
274
3
275
0
276
0
277
2
278
44
279
0
280
0
281
0
282
0
283
0
284
8
285
0
286
0
288
0
289
3
290
0
340
9A
371
-2
372
-2
  0
ENDTAB
  0
TABLE
  2
BLOCK_RECORD
  5
9
330
0
100
AcDbSymbolTable
 70
6
  0
BLOCK_RECORD
  5
17
330
9
100
AcDbSymbolTableRecord
100
AcDbBlockTableRecord
  2
*Model_Space
340
1A
 70
0
280
1
281
0
  0
BLOCK_RECORD
  5
1B
330
9
100
AcDbSymbolTableRecord
100
AcDbBlockTableRecord
  2
*Paper_Space
340
1E
 70
0
280
1
281
0
  0
BLOCK_RECORD
  5
74
330
9
100
AcDbSymbolTableRecord
100
AcDbBlockTableRecord
  2
_ARCHTICK
340
0
 70
0
280
1
281
0
  0
BLOCK_RECORD
  5
78
330
9
100
AcDbSymbolTableRecord
100
AcDbBlockTableRecord
  2
_CLOSEDFILLED
340
0
 70
0
280
1
281
0
  0
BLOCK_RECORD
  5
84
330
9
100
AcDbSymbolTableRecord
100
AcDbBlockTableRecord
  2
_CLOSEDBLANK
340
0
 70
0
280
1
281
0
  0
BLOCK_RECORD
  5
9E
330
9
100
AcDbSymbolTableRecord
100
AcDbBlockTableRecord
  2
KR-TTLB-G
340
0
 70
0
280
1
281
0
  0
ENDTAB
  0
ENDSEC
  0
SECTION
  2
BLOCKS
  0
BLOCK
  5
18
330
17
100
AcDbEntity
  8
0
100
AcDbBlockBegin
  2
*Model_Space
 70
0
 10
0.0
 20
0.0
 30
0.0
  3
*Model_Space
  1

  0
ENDBLK
  5
19
330
17
100
AcDbEntity
  8
0
100
AcDbBlockEnd
  0
BLOCK
  5
1C
330
1B
100
AcDbEntity
  8
0
100
AcDbBlockBegin
  2
*Paper_Space
 70
0
 10
0.0
 20
0.0
 30
0.0
  3
*Paper_Space
  1

  0
ENDBLK
  5
1D
330
1B
100
AcDbEntity
  8
0
100
AcDbBlockEnd
  0
BLOCK
  5
75
330
74
100
AcDbEntity
  8
0
100
AcDbBlockBegin
  2
_ARCHTICK
 70
0
 10
0.0
 20
0.0
 30
0.0
  3
_ARCHTICK
  1

  0
LWPOLYLINE
  5
77
330
74
100
AcDbEntity
  8
0
  6
BYBLOCK
 62
0
100
AcDbPolyline
 90
2
 70
0
 43
0.15
 10
-0.5
 20
-0.5
 10
0.5
 20
0.5
  0
ENDBLK
  5
76
330
74
100
AcDbEntity
  8
0
100
AcDbBlockEnd
  0
BLOCK
  5
79
330
78
100
AcDbEntity
  8
0
100
AcDbBlockBegin
  2
_CLOSEDFILLED
 70
0
 10
0.0
 20
0.0
 30
0.0
  3
_CLOSEDFILLED
  1

  0
SOLID
  5
7B
330
78
100
AcDbEntity
  8
0
  6
BYBLOCK
 62
0
100
AcDbTrace
 10
-1.0
 20
0.16439898372402537
 30
0.0
 11
0.0
 21
0.0
 31
0.0
 12
-1.0
 22
-0.16439898372402537
 32
0.0
 13
-1.0
 23
-0.16439898372402537
 33
0.0
  0
ENDBLK
  5
7A
330
78
100
AcDbEntity
  8
0
100
AcDbBlockEnd
  0
BLOCK
  5
85
330
84
100
AcDbEntity
  8
0
100
AcDbBlockBegin
  2
_CLOSEDBLANK
 70
0
 10
0.0
 20
0.0
 30
0.0
  3
_CLOSEDBLANK
  1

  0
LWPOLYLINE
  5
87
330
84
100
AcDbEntity
  8
0
  6
BYBLOCK
 62
0
100
AcDbPolyline
 90
3
 70
1
 10
-1.0
 20
0.16439898372402537
 10
0.0
 20
0.0
 10
-1.0
 20
-0.16439898372402537
  0
ENDBLK
  5
86
330
84
100
AcDbEntity
  8
0
100
AcDbBlockEnd
  0
BLOCK
  5
9F
330
9E
100
AcDbEntity
  8
0
100
AcDbBlockBegin
  2
KR-TTLB-G
 70
2
 10
0.0
 20
0.0
 30
0.0
  3
KR-TTLB-G
  1

  0
ATTDEF
  5
A1
330
9E
100
AcDbEntity
  8
A-ANNO-TTLB
100
AcDbText
 10
3.0
 20
43.0
 30
0.0
 40
4.0
  1

  7
KR-SANS
100
AcDbAttributeDefinition
  3

  2
KR_SHEET_ID
 70
0
 71
1
 72
0
  0
ATTDEF
  5
A2
330
9E
100
AcDbEntity
  8
A-ANNO-TTLB
100
AcDbText
 10
3.0
 20
36.8
 30
0.0
 40
2.0
  1

  7
KR-SANS
100
AcDbAttributeDefinition
  3

  2
KR_TITLE
 70
0
 71
1
 72
0
  0
ATTDEF
  5
A3
330
9E
100
AcDbEntity
  8
A-ANNO-TTLB
100
AcDbText
 10
3.0
 20
30.6
 30
0.0
 40
2.0
  1

  7
KR-SANS
100
AcDbAttributeDefinition
  3

  2
KR_FLOOR
 70
0
 71
1
 72
0
  0
ATTDEF
  5
A4
330
9E
100
AcDbEntity
  8
A-ANNO-TTLB
100
AcDbText
 10
3.0
 20
24.4
 30
0.0
 40
2.0
  1

  7
KR-SANS
100
AcDbAttributeDefinition
  3

  2
KR_SCALE
 70
0
 71
1
 72
0
  0
ATTDEF
  5
A5
330
9E
100
AcDbEntity
  8
A-ANNO-TTLB
100
AcDbText
 10
3.0
 20
18.2
 30
0.0
 40
2.0
  1

  7
KR-SANS
100
AcDbAttributeDefinition
  3

  2
KR_REVISION
 70
0
 71
1
 72
0
  0
ATTDEF
  5
A6
330
9E
100
AcDbEntity
  8
A-ANNO-TTLB
100
AcDbText
 10
3.0
 20
12.0
 30
0.0
 40
2.0
  1

  7
KR-SANS
100
AcDbAttributeDefinition
  3

  2
KR_REV_DATE
 70
0
 71
1
 72
0
  0
ATTDEF
  5
A7
330
9E
100
AcDbEntity
  8
A-ANNO-TTLB
100
AcDbText
 10
3.0
 20
5.799999999999997
 30
0.0
 40
2.0
  1

  7
KR-SANS
100
AcDbAttributeDefinition
  3

  2
KR_RENDER_UTC
 70
0
 71
1
 72
0
  0
ATTDEF
  5
A8
330
9E
100
AcDbEntity
  8
A-ANNO-TTLB
100
AcDbText
 10
88.0
 20
43.0
 30
0.0
 40
2.0
  1

  7
KR-SANS
100
AcDbAttributeDefinition
  3

  2
KR_STATUS
 70
0
 71
1
 72
0
  0
ATTDEF
  5
A9
330
9E
100
AcDbEntity
  8
A-ANNO-TTLB
100
AcDbText
 10
88.0
 20
36.8
 30
0.0
 40
2.0
  1

  7
KR-SANS
100
AcDbAttributeDefinition
  3

  2
KR_NOTE
 70
0
 71
1
 72
0
  0
ATTDEF
  5
AA
330
9E
100
AcDbEntity
  8
A-ANNO-TTLB
100
AcDbText
 10
88.0
 20
30.6
 30
0.0
 40
2.0
  1

  7
KR-SANS
100
AcDbAttributeDefinition
  3

  2
KR_DRAWN
 70
0
 71
1
 72
0
  0
ATTDEF
  5
AB
330
9E
100
AcDbEntity
  8
A-ANNO-TTLB
100
AcDbText
 10
88.0
 20
24.4
 30
0.0
 40
2.0
  1

  7
KR-SANS
100
AcDbAttributeDefinition
  3

  2
KR_CHECK
 70
0
 71
1
 72
0
  0
ATTDEF
  5
AC
330
9E
100
AcDbEntity
  8
A-ANNO-TTLB
100
AcDbText
 10
88.0
 20
18.2
 30
0.0
 40
2.0
  1

  7
KR-SANS
100
AcDbAttributeDefinition
  3

  2
KR_PAGE
 70
0
 71
1
 72
0
  0
ATTDEF
  5
AD
330
9E
100
AcDbEntity
  8
A-ANNO-TTLB
100
AcDbText
 10
88.0
 20
12.0
 30
0.0
 40
1.3
  1

  7
KR-SANS
100
AcDbAttributeDefinition
  3

  2
KR_WORLD_SHA256
 70
0
 71
1
 72
0
  0
LWPOLYLINE
  5
AE
330
9E
100
AcDbEntity
  8
A-ANNO-TTLB
100
AcDbPolyline
 90
4
 70
1
 10
0.0
 20
0.0
 10
175.0
 20
0.0
 10
175.0
 20
50.0
 10
0.0
 20
50.0
  0
ENDBLK
  5
A0
330
9E
100
AcDbEntity
  8
0
100
AcDbBlockEnd
  0
ENDSEC
  0
SECTION
  2
ENTITIES
  0
VIEWPORT
  5
AF
330
1B
100
AcDbEntity
 67
1
  8
VIEWPORTS
100
AcDbViewport
 10
322560.0
 20
228096.0
 30
0.0
 40
709632.0
 41
501811.2
 68
1
 69
1
 12
322560.0
 22
228096.0
 13
0.0
 23
0.0
 14
10.0
 24
10.0
 15
10.0
 25
10.0
 16
0.0
 26
0.0
 36
1.0
 17
0.0
 27
0.0
 37
0.0
 42
50.0
 43
0.0
 44
0.0
 45
501811.2
 50
0.0
 51
0.0
 72
100
 90
557088
  1

281
0
 71
0
 74
0
110
0.0
120
0.0
130
0.0
111
1.0
121
0.0
131
0.0
112
0.0
122
1.0
132
0.0
 79
0
146
0.0
282
0
  0
LWPOLYLINE
  5
B0
330
1B
100
AcDbEntity
 67
1
  8
A-ANNO-TTLB
420
2051386
100
AcDbPolyline
 90
4
 70
1
 10
20.0
 20
10.0
 10
410.0
 20
10.0
 10
410.0
 20
287.0
 10
20.0
 20
287.0
  0
HATCH
  5
B1
330
1B
100
AcDbEntity
 67
1
  8
A-ANNO-TTLB
 62
7
420
16777215
100
AcDbHatch
 10
0.0
 20
0.0
 30
0.0
210
0.0
220
0.0
230
1.0
  2
SOLID
 70
1
 71
0
 91
1
 92
3
 72
0
 73
1
 93
4
 10
235.0
 20
10.0
 10
410.0
 20
10.0
 10
410.0
 20
60.0
 10
235.0
 20
60.0
 97
0
 75
1
 76
1
 98
0
  0
LWPOLYLINE
  5
B2
330
1B
100
AcDbEntity
 67
1
  8
A-ANNO-TTLB
420
2051386
100
AcDbPolyline
 90
4
 70
1
 10
235.0
 20
10.0
 10
410.0
 20
10.0
 10
410.0
 20
60.0
 10
235.0
 20
60.0
  0
TEXT
  5
B3
330
1B
100
AcDbEntity
 67
1
  8
A-ANNO-WMRK
420
14542049
100
AcDbText
 10
215.0
 20
148.5
 30
0.0
 40
10.865555555555554
  1
KONSEP - BUKAN UNTUK KONSTRUKSI
 50
35.38451811434469
  7
KR-SANS
 41
0.8
 72
1
 11
215.0
 21
148.5
 31
0.0
100
AcDbText
  0
TEXT
  5
B4
330
1B
100
AcDbEntity
 67
1
  8
ICT-TOPO
420
2051386
100
AcDbText
 10
26.0
 20
277.0
 30
0.0
 40
3.2102777777777773
  1
TOPOLOGI JARINGAN (VIRTUAL)
  7
KR-SANS
 41
0.8
 11
26.0
 21
277.0
 31
0.0
100
AcDbText
  0
HATCH
  5
B5
330
1B
100
AcDbEntity
 67
1
  8
ICT-TOPO
 62
7
420
11883311
100
AcDbHatch
 10
0.0
 20
0.0
 30
0.0
210
0.0
220
0.0
230
1.0
  2
SOLID
 70
1
 71
0
 91
1
 92
3
 72
0
 73
1
 93
4
 10
26.0
 20
268.0
 10
101.6341
 20
268.0
 10
101.6341
 20
273.5
 10
26.0
 20
273.5
 97
0
 75
1
 76
1
 98
0
  0
TEXT
  5
B6
330
1B
100
AcDbEntity
 67
1
  8
ICT-TOPO
420
16777215
100
AcDbText
 10
29.0
 20
269.4
 30
0.0
 40
2.2224999999999997
  1
RANCANGAN VIRTUAL, BUKAN TOPOLOGI PRODUKSI
  7
KR-SANS
 41
0.8
 11
29.0
 21
269.4
 31
0.0
100
AcDbText
  0
HATCH
  5
B7
330
1B
100
AcDbEntity
 67
1
  8
ICT-TOPO
 62
7
420
15660272
100
AcDbHatch
 10
0.0
 20
0.0
 30
0.0
210
0.0
220
0.0
230
1.0
  2
SOLID
 70
1
 71
0
 91
1
 92
3
 72
0
 73
1
 93
4
 10
110.0
 20
236.0
 10
170.0
 20
236.0
 10
170.0
 20
252.0
 10
110.0
 20
252.0
 97
0
 75
1
 76
1
 98
0
1001
KANTOR_RPG
1000
device
1000
GW-DEMO-01
  0
LWPOLYLINE
  5
B8
330
1B
100
AcDbEntity
 67
1
  8
ICT-TOPO
420
2051386
100
AcDbPolyline
 90
4
 70
1
 10
110.0
 20
236.0
 10
170.0
 20
236.0
 10
170.0
 20
252.0
 10
110.0
 20
252.0
1001
KANTOR_RPG
1000
device
1000
GW-DEMO-01
  0
TEXT
  5
B9
330
1B
100
AcDbEntity
 67
1
  8
ICT-TOPO
420
2051386
100
AcDbText
 10
112.0
 20
247.6
 30
0.0
 40
1.9755555555555553
  1
GW-DEMO-01
  7
KR-SANS
 41
0.8
 11
112.0
 21
247.6
 31
0.0
100
AcDbText
1001
KANTOR_RPG
1000
device
1000
GW-DEMO-01
  0
TEXT
  5
BA
330
1B
100
AcDbEntity
 67
1
  8
ICT-TOPO
420
2240554
100
AcDbText
 10
112.0
 20
243.6
 30
0.0
 40
1.580444444444444
  1
gateway virtual · RK-L1-01 U26
  7
KR-SANS
 41
0.8
 11
112.0
 21
243.6
 31
0.0
100
AcDbText
  0
TEXT
  5
BB
330
1B
100
AcDbEntity
 67
1
  8
ICT-TOPO
420
2240554
100
AcDbText
 10
112.0
 20
240.4
 30
0.0
 40
1.580444444444444
  1
tanpa ISP/IP nyata (AS-NET-01)
  7
KR-SANS
 41
0.8
 11
112.0
 21
240.4
 31
0.0
100
AcDbText
  0
HATCH
  5
BC
330
1B
100
AcDbEntity
 67
1
  8
ICT-TOPO
 62
7
420
15660272
100
AcDbHatch
 10
0.0
 20
0.0
 30
0.0
210
0.0
220
0.0
230
1.0
  2
SOLID
 70
1
 71
0
 91
1
 92
3
 72
0
 73
1
 93
4
 10
110.0
 20
206.0
 10
170.0
 20
206.0
 10
170.0
 20
222.0
 10
110.0
 20
222.0
 97
0
 75
1
 76
1
 98
0
1001
KANTOR_RPG
1000
device
1000
SW-AGG-01
  0
LWPOLYLINE
  5
BD
330
1B
100
AcDbEntity
 67
1
  8
ICT-TOPO
420
2051386
100
AcDbPolyline
 90
4
 70
1
 10
110.0
 20
206.0
 10
170.0
 20
206.0
 10
170.0
 20
222.0
 10
110.0
 20
222.0
1001
KANTOR_RPG
1000
device
1000
SW-AGG-01
  0
TEXT
  5
BE
330
1B
100
AcDbEntity
 67
1
  8
ICT-TOPO
420
2051386
100
AcDbText
 10
112.0
 20
217.6
 30
0.0
 40
1.9755555555555553
  1
SW-AGG-01
  7
KR-SANS
 41
0.8
 11
112.0
 21
217.6
 31
0.0
100
AcDbText
1001
KANTOR_RPG
1000
device
1000
SW-AGG-01
  0
TEXT
  5
BF
330
1B
100
AcDbEntity
 67
1
  8
ICT-TOPO
420
2240554
100
AcDbText
 10
112.0
 20
213.6
 30
0.0
 40
1.580444444444444
  1
switch agregasi · RK-L1-01 U28
  7
KR-SANS
 41
0.8
 11
112.0
 21
213.6
 31
0.0
100
AcDbText
  0
TEXT
  5
C0
330
1B
100
AcDbEntity
 67
1
  8
ICT-TOPO
420
2240554
100
AcDbText
 10
112.0
 20
210.4
 30
0.0
 40
1.580444444444444
  1
24 port, 2 uplink
  7
KR-SANS
 41
0.8
 11
112.0
 21
210.4
 31
0.0
100
AcDbText
  0
LWPOLYLINE
  5
C1
330
1B
100
AcDbEntity
 67
1
  8
ICT-TOPO
  6
DASHED
 48
0.17638888888888887
420
2051386
100
AcDbPolyline
 90
2
 70
0
 10
140.0
 20
236.0
 10
140.0
 20
222.0
  0
TEXT
  5
C2
330
1B
100
AcDbEntity
 67
1
  8
ICT-TOPO
420
5919307
100
AcDbText
 10
141.0
 20
229.0
 30
0.0
 40
1.3335
  1
uplink konsep
  7
KR-SANS
 41
0.8
 11
141.0
 21
229.0
 31
0.0
100
AcDbText
  0
HATCH
  5
C3
330
1B
100
AcDbEntity
 67
1
  8
ICT-TOPO
 62
7
420
15660272
100
AcDbHatch
 10
0.0
 20
0.0
 30
0.0
210
0.0
220
0.0
230
1.0
  2
SOLID
 70
1
 71
0
 91
1
 92
3
 72
0
 73
1
 93
4
 10
32.0
 20
166.0
 10
102.0
 20
166.0
 10
102.0
 20
190.0
 10
32.0
 20
190.0
 97
0
 75
1
 76
1
 98
0
1001
KANTOR_RPG
1000
device
1000
SW-ACC-01
  0
LWPOLYLINE
  5
C4
330
1B
100
AcDbEntity
 67
1
  8
ICT-TOPO
420
2051386
100
AcDbPolyline
 90
4
 70
1
 10
32.0
 20
166.0
 10
102.0
 20
166.0
 10
102.0
 20
190.0
 10
32.0
 20
190.0
1001
KANTOR_RPG
1000
device
1000
SW-ACC-01
  0
TEXT
  5
C5
330
1B
100
AcDbEntity
 67
1
  8
ICT-TOPO
420
2051386
100
AcDbText
 10
34.0
 20
185.6
 30
0.0
 40
1.9755555555555553
  1
SW-ACC-01
  7
KR-SANS
 41
0.8
 11
34.0
 21
185.6
 31
0.0
100
AcDbText
1001
KANTOR_RPG
1000
device
1000
SW-ACC-01
  0
TEXT
  5
C6
330
1B
100
AcDbEntity
 67
1
  8
ICT-TOPO
420
2240554
100
AcDbText
 10
34.0
 20
181.6
 30
0.0
 40
1.580444444444444
  1
akses 48 PoE · RK-L1-01 U31
  7
KR-SANS
 41
0.8
 11
34.0
 21
181.6
 31
0.0
100
AcDbText
  0
TEXT
  5
C7
330
1B
100
AcDbEntity
 67
1
  8
ICT-TOPO
420
2240554
100
AcDbText
 10
34.0
 20
178.4
 30
0.0
 40
1.580444444444444
  1
terpakai 24/48, cadangan uplink 4
  7
KR-SANS
 41
0.8
 11
34.0
 21
178.4
 31
0.0
100
AcDbText
  0
TEXT
  5
C8
330
1B
100
AcDbEntity
 67
1
  8
ICT-TOPO
420
2240554
100
AcDbText
 10
34.0
 20
175.20000000000002
 30
0.0
 40
1.580444444444444
  1
PoE worst-case 407 W; budget belum divalidasi
  7
KR-SANS
 41
0.8
 11
34.0
 21
175.20000000000002
 31
0.0
100
AcDbText
  0
LWPOLYLINE
  5
C9
330
1B
100
AcDbEntity
 67
1
  8
ICT-TOPO
  6
DASHED
 48
0.17638888888888887
420
2051386
100
AcDbPolyline
 90
2
 70
0
 10
140.0
 20
206.0
 10
67.0
 20
190.0
  0
HATCH
  5
CA
330
1B
100
AcDbEntity
 67
1
  8
ICT-TOPO
 62
7
420
15660272
100
AcDbHatch
 10
0.0
 20
0.0
 30
0.0
210
0.0
220
0.0
230
1.0
  2
SOLID
 70
1
 71
0
 91
1
 92
3
 72
0
 73
1
 93
4
 10
105.33333333333333
 20
166.0
 10
175.33333333333331
 20
166.0
 10
175.33333333333331
 20
190.0
 10
105.33333333333333
 20
190.0
 97
0
 75
1
 76
1
 98
0
1001
KANTOR_RPG
1000
device
1000
SW-ACC-02
  0
LWPOLYLINE
  5
CB
330
1B
100
AcDbEntity
 67
1
  8
ICT-TOPO
420
2051386
100
AcDbPolyline
 90
4
 70
1
 10
105.33333333333333
 20
166.0
 10
175.33333333333331
 20
166.0
 10
175.33333333333331
 20
190.0
 10
105.33333333333333
 20
190.0
1001
KANTOR_RPG
1000
device
1000
SW-ACC-02
  0
TEXT
  5
CC
330
1B
100
AcDbEntity
 67
1
  8
ICT-TOPO
420
2051386
100
AcDbText
 10
107.33333333333333
 20
185.6
 30
0.0
 40
1.9755555555555553
  1
SW-ACC-02
  7
KR-SANS
 41
0.8
 11
107.33333333333333
 21
185.6
 31
0.0
100
AcDbText
1001
KANTOR_RPG
1000
device
1000
SW-ACC-02
  0
TEXT
  5
CD
330
1B
100
AcDbEntity
 67
1
  8
ICT-TOPO
420
2240554
100
AcDbText
 10
107.33333333333333
 20
181.6
 30
0.0
 40
1.580444444444444
  1
akses 48 PoE · RK-L1-01 U30
  7
KR-SANS
 41
0.8
 11
107.33333333333333
 21
181.6
 31
0.0
100
AcDbText
  0
TEXT
  5
CE
330
1B
100
AcDbEntity
 67
1
  8
ICT-TOPO
420
2240554
100
AcDbText
 10
107.33333333333333
 20
178.4
 30
0.0
 40
1.580444444444444
  1
terpakai 24/48, cadangan uplink 4
  7
KR-SANS
 41
0.8
 11
107.33333333333333
 21
178.4
 31
0.0
100
AcDbText
  0
TEXT
  5
CF
330
1B
100
AcDbEntity
 67
1
  8
ICT-TOPO
420
2240554
100
AcDbText
 10
107.33333333333333
 20
175.20000000000002
 30
0.0
 40
1.580444444444444
  1
PoE 0 W; budget belum divalidasi
  7
KR-SANS
 41
0.8
 11
107.33333333333333
 21
175.20000000000002
 31
0.0
100
AcDbText
  0
LWPOLYLINE
  5
D0
330
1B
100
AcDbEntity
 67
1
  8
ICT-TOPO
  6
DASHED
 48
0.17638888888888887
420
2051386
100
AcDbPolyline
 90
2
 70
0
 10
140.0
 20
206.0
 10
140.33333333333331
 20
190.0
  0
HATCH
  5
D1
330
1B
100
AcDbEntity
 67
1
  8
ICT-TOPO
 62
7
420
15660272
100
AcDbHatch
 10
0.0
 20
0.0
 30
0.0
210
0.0
220
0.0
230
1.0
  2
SOLID
 70
1
 71
0
 91
1
 92
3
 72
0
 73
1
 93
4
 10
178.66666666666666
 20
166.0
 10
248.66666666666666
 20
166.0
 10
248.66666666666666
 20
190.0
 10
178.66666666666666
 20
190.0
 97
0
 75
1
 76
1
 98
0
1001
KANTOR_RPG
1000
device
1000
SW-ACC-03
  0
LWPOLYLINE
  5
D2
330
1B
100
AcDbEntity
 67
1
  8
ICT-TOPO
420
2051386
100
AcDbPolyline
 90
4
 70
1
 10
178.66666666666666
 20
166.0
 10
248.66666666666666
 20
166.0
 10
248.66666666666666
 20
190.0
 10
178.66666666666666
 20
190.0
1001
KANTOR_RPG
1000
device
1000
SW-ACC-03
  0
TEXT
  5
D3
330
1B
100
AcDbEntity
 67
1
  8
ICT-TOPO
420
2051386
100
AcDbText
 10
180.66666666666666
 20
185.6
 30
0.0
 40
1.9755555555555553
  1
SW-ACC-03
  7
KR-SANS
 41
0.8
 11
180.66666666666666
 21
185.6
 31
0.0
100
AcDbText
1001
KANTOR_RPG
1000
device
1000
SW-ACC-03
  0
TEXT
  5
D4
330
1B
100
AcDbEntity
 67
1
  8
ICT-TOPO
420
2240554
100
AcDbText
 10
180.66666666666666
 20
181.6
 30
0.0
 40
1.580444444444444
  1
akses 48 PoE · RK-L1-01 U29
  7
KR-SANS
 41
0.8
 11
180.66666666666666
 21
181.6
 31
0.0
100
AcDbText
  0
TEXT
  5
D5
330
1B
100
AcDbEntity
 67
1
  8
ICT-TOPO
420
2240554
100
AcDbText
 10
180.66666666666666
 20
178.4
 30
0.0
 40
1.580444444444444
  1
terpakai 24/48, cadangan uplink 4
  7
KR-SANS
 41
0.8
 11
180.66666666666666
 21
178.4
 31
0.0
100
AcDbText
  0
TEXT
  5
D6
330
1B
100
AcDbEntity
 67
1
  8
ICT-TOPO
420
2240554
100
AcDbText
 10
180.66666666666666
 20
175.20000000000002
 30
0.0
 40
1.580444444444444
  1
PoE 0 W; budget belum divalidasi
  7
KR-SANS
 41
0.8
 11
180.66666666666666
 21
175.20000000000002
 31
0.0
100
AcDbText
  0
LWPOLYLINE
  5
D7
330
1B
100
AcDbEntity
 67
1
  8
ICT-TOPO
  6
DASHED
 48
0.17638888888888887
420
2051386
100
AcDbPolyline
 90
2
 70
0
 10
140.0
 20
206.0
 10
213.66666666666666
 20
190.0
  0
TEXT
  5
D8
330
1B
100
AcDbEntity
 67
1
  8
ICT-TOPO
420
5919307
100
AcDbText
 10
172.0
 20
198.0
 30
0.0
 40
1.3335
  1
uplink konsep: hierarki dari tipe perangkat, port uplink belum dipetakan
  7
KR-SANS
 41
0.8
 11
172.0
 21
198.0
 31
0.0
100
AcDbText
  0
HATCH
  5
D9
330
1B
100
AcDbEntity
 67
1
  8
ICT-TOPO
 62
7
420
16184042
100
AcDbHatch
 10
0.0
 20
0.0
 30
0.0
210
0.0
220
0.0
230
1.0
  2
SOLID
 70
1
 71
0
 91
1
 92
3
 72
0
 73
1
 93
4
 10
32.0
 20
128.0
 10
84.0
 20
128.0
 10
84.0
 20
145.0
 10
32.0
 20
145.0
 97
0
 75
1
 76
1
 98
0
1001
KANTOR_RPG
1000
device
1000
PP-01
  0
LWPOLYLINE
  5
DA
330
1B
100
AcDbEntity
 67
1
  8
ICT-TOPO
420
2051386
100
AcDbPolyline
 90
4
 70
1
 10
32.0
 20
128.0
 10
84.0
 20
128.0
 10
84.0
 20
145.0
 10
32.0
 20
145.0
1001
KANTOR_RPG
1000
device
1000
PP-01
  0
TEXT
  5
DB
330
1B
100
AcDbEntity
 67
1
  8
ICT-TOPO
420
2051386
100
AcDbText
 10
34.0
 20
140.6
 30
0.0
 40
1.9755555555555553
  1
PP-01
  7
KR-SANS
 41
0.8
 11
34.0
 21
140.6
 31
0.0
100
AcDbText
1001
KANTOR_RPG
1000
device
1000
PP-01
  0
TEXT
  5
DC
330
1B
100
AcDbEntity
 67
1
  8
ICT-TOPO
420
2240554
100
AcDbText
 10
34.0
 20
136.6
 30
0.0
 40
1.580444444444444
  1
patch panel 24 · RK-L1-01 U40
  7
KR-SANS
 41
0.8
 11
34.0
 21
136.6
 31
0.0
100
AcDbText
  0
TEXT
  5
DD
330
1B
100
AcDbEntity
 67
1
  8
ICT-TOPO
420
2240554
100
AcDbText
 10
34.0
 20
133.4
 30
0.0
 40
1.580444444444444
  1
port terpakai 24/24
  7
KR-SANS
 41
0.8
 11
34.0
 21
133.4
 31
0.0
100
AcDbText
  0
HATCH
  5
DE
330
1B
100
AcDbEntity
 67
1
  8
ICT-TOPO
 62
7
420
16184042
100
AcDbHatch
 10
0.0
 20
0.0
 30
0.0
210
0.0
220
0.0
230
1.0
  2
SOLID
 70
1
 71
0
 91
1
 92
3
 72
0
 73
1
 93
4
 10
87.0
 20
128.0
 10
139.0
 20
128.0
 10
139.0
 20
145.0
 10
87.0
 20
145.0
 97
0
 75
1
 76
1
 98
0
1001
KANTOR_RPG
1000
device
1000
PP-02
  0
LWPOLYLINE
  5
DF
330
1B
100
AcDbEntity
 67
1
  8
ICT-TOPO
420
2051386
100
AcDbPolyline
 90
4
 70
1
 10
87.0
 20
128.0
 10
139.0
 20
128.0
 10
139.0
 20
145.0
 10
87.0
 20
145.0
1001
KANTOR_RPG
1000
device
1000
PP-02
  0
TEXT
  5
E0
330
1B
100
AcDbEntity
 67
1
  8
ICT-TOPO
420
2051386
100
AcDbText
 10
89.0
 20
140.6
 30
0.0
 40
1.9755555555555553
  1
PP-02
  7
KR-SANS
 41
0.8
 11
89.0
 21
140.6
 31
0.0
100
AcDbText
1001
KANTOR_RPG
1000
device
1000
PP-02
  0
TEXT
  5
E1
330
1B
100
AcDbEntity
 67
1
  8
ICT-TOPO
420
2240554
100
AcDbText
 10
89.0
 20
136.6
 30
0.0
 40
1.580444444444444
  1
patch panel 24 · RK-L1-01 U38
  7
KR-SANS
 41
0.8
 11
89.0
 21
136.6
 31
0.0
100
AcDbText
  0
TEXT
  5
E2
330
1B
100
AcDbEntity
 67
1
  8
ICT-TOPO
420
2240554
100
AcDbText
 10
89.0
 20
133.4
 30
0.0
 40
1.580444444444444
  1
port terpakai 24/24
  7
KR-SANS
 41
0.8
 11
89.0
 21
133.4
 31
0.0
100
AcDbText
  0
HATCH
  5
E3
330
1B
100
AcDbEntity
 67
1
  8
ICT-TOPO
 62
7
420
16184042
100
AcDbHatch
 10
0.0
 20
0.0
 30
0.0
210
0.0
220
0.0
230
1.0
  2
SOLID
 70
1
 71
0
 91
1
 92
3
 72
0
 73
1
 93
4
 10
142.0
 20
128.0
 10
194.0
 20
128.0
 10
194.0
 20
145.0
 10
142.0
 20
145.0
 97
0
 75
1
 76
1
 98
0
1001
KANTOR_RPG
1000
device
1000
PP-03
  0
LWPOLYLINE
  5
E4
330
1B
100
AcDbEntity
 67
1
  8
ICT-TOPO
420
2051386
100
AcDbPolyline
 90
4
 70
1
 10
142.0
 20
128.0
 10
194.0
 20
128.0
 10
194.0
 20
145.0
 10
142.0
 20
145.0
1001
KANTOR_RPG
1000
device
1000
PP-03
  0
TEXT
  5
E5
330
1B
100
AcDbEntity
 67
1
  8
ICT-TOPO
420
2051386
100
AcDbText
 10
144.0
 20
140.6
 30
0.0
 40
1.9755555555555553
  1
PP-03
  7
KR-SANS
 41
0.8
 11
144.0
 21
140.6
 31
0.0
100
AcDbText
1001
KANTOR_RPG
1000
device
1000
PP-03
  0
TEXT
  5
E6
330
1B
100
AcDbEntity
 67
1
  8
ICT-TOPO
420
2240554
100
AcDbText
 10
144.0
 20
136.6
 30
0.0
 40
1.580444444444444
  1
patch panel 24 · RK-L1-01 U36
  7
KR-SANS
 41
0.8
 11
144.0
 21
136.6
 31
0.0
100
AcDbText
  0
TEXT
  5
E7
330
1B
100
AcDbEntity
 67
1
  8
ICT-TOPO
420
2240554
100
AcDbText
 10
144.0
 20
133.4
 30
0.0
 40
1.580444444444444
  1
port terpakai 24/24
  7
KR-SANS
 41
0.8
 11
144.0
 21
133.4
 31
0.0
100
AcDbText
  0
HATCH
  5
E8
330
1B
100
AcDbEntity
 67
1
  8
ICT-TOPO
 62
7
420
16184042
100
AcDbHatch
 10
0.0
 20
0.0
 30
0.0
210
0.0
220
0.0
230
1.0
  2
SOLID
 70
1
 71
0
 91
1
 92
3
 72
0
 73
1
 93
4
 10
197.0
 20
128.0
 10
249.0
 20
128.0
 10
249.0
 20
145.0
 10
197.0
 20
145.0
 97
0
 75
1
 76
1
 98
0
1001
KANTOR_RPG
1000
device
1000
PP-04
  0
LWPOLYLINE
  5
E9
330
1B
100
AcDbEntity
 67
1
  8
ICT-TOPO
420
2051386
100
AcDbPolyline
 90
4
 70
1
 10
197.0
 20
128.0
 10
249.0
 20
128.0
 10
249.0
 20
145.0
 10
197.0
 20
145.0
1001
KANTOR_RPG
1000
device
1000
PP-04
  0
TEXT
  5
EA
330
1B
100
AcDbEntity
 67
1
  8
ICT-TOPO
420
2051386
100
AcDbText
 10
199.0
 20
140.6
 30
0.0
 40
1.9755555555555553
  1
PP-04
  7
KR-SANS
 41
0.8
 11
199.0
 21
140.6
 31
0.0
100
AcDbText
1001
KANTOR_RPG
1000
device
1000
PP-04
  0
TEXT
  5
EB
330
1B
100
AcDbEntity
 67
1
  8
ICT-TOPO
420
2240554
100
AcDbText
 10
199.0
 20
136.6
 30
0.0
 40
1.580444444444444
  1
patch panel 24 · RK-L1-01 U34
  7
KR-SANS
 41
0.8
 11
199.0
 21
136.6
 31
0.0
100
AcDbText
  0
TEXT
  5
EC
330
1B
100
AcDbEntity
 67
1
  8
ICT-TOPO
420
2240554
100
AcDbText
 10
199.0
 20
133.4
 30
0.0
 40
1.580444444444444
  1
port terpakai 0/24
  7
KR-SANS
 41
0.8
 11
199.0
 21
133.4
 31
0.0
100
AcDbText
  0
LWPOLYLINE
  5
ED
330
1B
100
AcDbEntity
 67
1
  8
ICT-TOPO
420
2051386
100
AcDbPolyline
 90
2
 70
0
 10
67.0
 20
166.0
 10
58.0
 20
145.0
  0
TEXT
  5
EE
330
1B
100
AcDbEntity
 67
1
  8
ICT-TOPO
420
5919307
100
AcDbText
 10
63.5
 20
155.5
 30
0.0
 40
1.3335
  1
24 kabel patch
  7
KR-SANS
 41
0.8
 11
63.5
 21
155.5
 31
0.0
100
AcDbText
  0
LWPOLYLINE
  5
EF
330
1B
100
AcDbEntity
 67
1
  8
ICT-TOPO
420
2051386
100
AcDbPolyline
 90
2
 70
0
 10
140.33333333333331
 20
166.0
 10
113.0
 20
145.0
  0
TEXT
  5
F0
330
1B
100
AcDbEntity
 67
1
  8
ICT-TOPO
420
5919307
100
AcDbText
 10
127.66666666666666
 20
155.5
 30
0.0
 40
1.3335
  1
24 kabel patch
  7
KR-SANS
 41
0.8
 11
127.66666666666666
 21
155.5
 31
0.0
100
AcDbText
  0
LWPOLYLINE
  5
F1
330
1B
100
AcDbEntity
 67
1
  8
ICT-TOPO
420
2051386
100
AcDbPolyline
 90
2
 70
0
 10
213.66666666666666
 20
166.0
 10
168.0
 20
145.0
  0
TEXT
  5
F2
330
1B
100
AcDbEntity
 67
1
  8
ICT-TOPO
420
5919307
100
AcDbText
 10
191.83333333333331
 20
155.5
 30
0.0
 40
1.3335
  1
24 kabel patch
  7
KR-SANS
 41
0.8
 11
191.83333333333331
 21
155.5
 31
0.0
100
AcDbText
  0
HATCH
  5
F3
330
1B
100
AcDbEntity
 67
1
  8
ICT-TOPO
 62
7
420
16777215
100
AcDbHatch
 10
0.0
 20
0.0
 30
0.0
210
0.0
220
0.0
230
1.0
  2
SOLID
 70
1
 71
0
 91
1
 92
3
 72
0
 73
1
 93
4
 10
32.0
 20
63.0
 10
102.0
 20
63.0
 10
102.0
 20
104.0
 10
32.0
 20
104.0
 97
0
 75
1
 76
1
 98
0
1001
KANTOR_RPG
1000
device
1000
EP-SW-ACC-01
  0
LWPOLYLINE
  5
F4
330
1B
100
AcDbEntity
 67
1
  8
ICT-TOPO
420
5919307
100
AcDbPolyline
 90
4
 70
1
 10
32.0
 20
63.0
 10
102.0
 20
63.0
 10
102.0
 20
104.0
 10
32.0
 20
104.0
1001
KANTOR_RPG
1000
device
1000
EP-SW-ACC-01
  0
TEXT
  5
F5
330
1B
100
AcDbEntity
 67
1
  8
ICT-TOPO
420
2051386
100
AcDbText
 10
34.0
 20
99.6
 30
0.0
 40
1.9755555555555553
  1
Endpoint SW-ACC-01
  7
KR-SANS
 41
0.8
 11
34.0
 21
99.6
 31
0.0
100
AcDbText
1001
KANTOR_RPG
1000
device
1000
EP-SW-ACC-01
  0
TEXT
  5
F6
330
1B
100
AcDbEntity
 67
1
  8
ICT-TOPO
420
2240554
100
AcDbText
 10
34.0
 20
95.6
 30
0.0
 40
1.580444444444444
  1
ap: 11
  7
KR-SANS
 41
0.8
 11
34.0
 21
95.6
 31
0.0
100
AcDbText
  0
TEXT
  5
F7
330
1B
100
AcDbEntity
 67
1
  8
ICT-TOPO
420
2240554
100
AcDbText
 10
34.0
 20
92.39999999999999
 30
0.0
 40
1.580444444444444
  1
camera: 5
  7
KR-SANS
 41
0.8
 11
34.0
 21
92.39999999999999
 31
0.0
100
AcDbText
  0
TEXT
  5
F8
330
1B
100
AcDbEntity
 67
1
  8
ICT-TOPO
420
2240554
100
AcDbText
 10
34.0
 20
89.19999999999999
 30
0.0
 40
1.580444444444444
  1
display: 1
  7
KR-SANS
 41
0.8
 11
34.0
 21
89.19999999999999
 31
0.0
100
AcDbText
  0
TEXT
  5
F9
330
1B
100
AcDbEntity
 67
1
  8
ICT-TOPO
420
2240554
100
AcDbText
 10
34.0
 20
85.99999999999999
 30
0.0
 40
1.580444444444444
  1
phone_or_spare: 1
  7
KR-SANS
 41
0.8
 11
34.0
 21
85.99999999999999
 31
0.0
100
AcDbText
  0
TEXT
  5
FA
330
1B
100
AcDbEntity
 67
1
  8
ICT-TOPO
420
2240554
100
AcDbText
 10
34.0
 20
82.79999999999998
 30
0.0
 40
1.580444444444444
  1
printer: 1
  7
KR-SANS
 41
0.8
 11
34.0
 21
82.79999999999998
 31
0.0
100
AcDbText
  0
TEXT
  5
FB
330
1B
100
AcDbEntity
 67
1
  8
ICT-TOPO
420
2240554
100
AcDbText
 10
34.0
 20
79.59999999999998
 30
0.0
 40
1.580444444444444
  1
signage: 1
  7
KR-SANS
 41
0.8
 11
34.0
 21
79.59999999999998
 31
0.0
100
AcDbText
  0
TEXT
  5
FC
330
1B
100
AcDbEntity
 67
1
  8
ICT-TOPO
420
2240554
100
AcDbText
 10
34.0
 20
76.39999999999998
 30
0.0
 40
1.580444444444444
  1
spare: 1
  7
KR-SANS
 41
0.8
 11
34.0
 21
76.39999999999998
 31
0.0
100
AcDbText
  0
TEXT
  5
FD
330
1B
100
AcDbEntity
 67
1
  8
ICT-TOPO
420
2240554
100
AcDbText
 10
34.0
 20
73.19999999999997
 30
0.0
 40
1.580444444444444
  1
table_box: 1
  7
KR-SANS
 41
0.8
 11
34.0
 21
73.19999999999997
 31
0.0
100
AcDbText
  0
TEXT
  5
FE
330
1B
100
AcDbEntity
 67
1
  8
ICT-TOPO
420
2240554
100
AcDbText
 10
34.0
 20
69.99999999999997
 30
0.0
 40
1.580444444444444
  1
workstation: 2
  7
KR-SANS
 41
0.8
 11
34.0
 21
69.99999999999997
 31
0.0
100
AcDbText
  0
TEXT
  5
FF
330
1B
100
AcDbEntity
 67
1
  8
ICT-TOPO
420
2240554
100
AcDbText
 10
34.0
 20
66.79999999999997
 30
0.0
 40
1.580444444444444
  1
lantai L1 16, L2 8
  7
KR-SANS
 41
0.8
 11
34.0
 21
66.79999999999997
 31
0.0
100
AcDbText
  0
HATCH
  5
100
330
1B
100
AcDbEntity
 67
1
  8
ICT-TOPO
 62
7
420
16777215
100
AcDbHatch
 10
0.0
 20
0.0
 30
0.0
210
0.0
220
0.0
230
1.0
  2
SOLID
 70
1
 71
0
 91
1
 92
3
 72
0
 73
1
 93
4
 10
105.33333333333333
 20
79.0
 10
175.33333333333331
 20
79.0
 10
175.33333333333331
 20
104.0
 10
105.33333333333333
 20
104.0
 97
0
 75
1
 76
1
 98
0
1001
KANTOR_RPG
1000
device
1000
EP-SW-ACC-02
  0
LWPOLYLINE
  5
101
330
1B
100
AcDbEntity
 67
1
  8
ICT-TOPO
420
5919307
100
AcDbPolyline
 90
4
 70
1
 10
105.33333333333333
 20
79.0
 10
175.33333333333331
 20
79.0
 10
175.33333333333331
 20
104.0
 10
105.33333333333333
 20
104.0
1001
KANTOR_RPG
1000
device
1000
EP-SW-ACC-02
  0
TEXT
  5
102
330
1B
100
AcDbEntity
 67
1
  8
ICT-TOPO
420
2051386
100
AcDbText
 10
107.33333333333333
 20
99.6
 30
0.0
 40
1.9755555555555553
  1
Endpoint SW-ACC-02
  7
KR-SANS
 41
0.8
 11
107.33333333333333
 21
99.6
 31
0.0
100
AcDbText
1001
KANTOR_RPG
1000
device
1000
EP-SW-ACC-02
  0
TEXT
  5
103
330
1B
100
AcDbEntity
 67
1
  8
ICT-TOPO
420
2240554
100
AcDbText
 10
107.33333333333333
 20
95.6
 30
0.0
 40
1.580444444444444
  1
display: 1
  7
KR-SANS
 41
0.8
 11
107.33333333333333
 21
95.6
 31
0.0
100
AcDbText
  0
TEXT
  5
104
330
1B
100
AcDbEntity
 67
1
  8
ICT-TOPO
420
2240554
100
AcDbText
 10
107.33333333333333
 20
92.39999999999999
 30
0.0
 40
1.580444444444444
  1
lab_device: 9
  7
KR-SANS
 41
0.8
 11
107.33333333333333
 21
92.39999999999999
 31
0.0
100
AcDbText
  0
TEXT
  5
105
330
1B
100
AcDbEntity
 67
1
  8
ICT-TOPO
420
2240554
100
AcDbText
 10
107.33333333333333
 20
89.19999999999999
 30
0.0
 40
1.580444444444444
  1
phone_or_spare: 7
  7
KR-SANS
 41
0.8
 11
107.33333333333333
 21
89.19999999999999
 31
0.0
100
AcDbText
  0
TEXT
  5
106
330
1B
100
AcDbEntity
 67
1
  8
ICT-TOPO
420
2240554
100
AcDbText
 10
107.33333333333333
 20
85.99999999999999
 30
0.0
 40
1.580444444444444
  1
workstation: 7
  7
KR-SANS
 41
0.8
 11
107.33333333333333
 21
85.99999999999999
 31
0.0
100
AcDbText
  0
TEXT
  5
107
330
1B
100
AcDbEntity
 67
1
  8
ICT-TOPO
420
2240554
100
AcDbText
 10
107.33333333333333
 20
82.79999999999998
 30
0.0
 40
1.580444444444444
  1
lantai L1 24
  7
KR-SANS
 41
0.8
 11
107.33333333333333
 21
82.79999999999998
 31
0.0
100
AcDbText
  0
HATCH
  5
108
330
1B
100
AcDbEntity
 67
1
  8
ICT-TOPO
 62
7
420
16777215
100
AcDbHatch
 10
0.0
 20
0.0
 30
0.0
210
0.0
220
0.0
230
1.0
  2
SOLID
 70
1
 71
0
 91
1
 92
3
 72
0
 73
1
 93
4
 10
178.66666666666666
 20
66.2
 10
248.66666666666666
 20
66.2
 10
248.66666666666666
 20
104.0
 10
178.66666666666666
 20
104.0
 97
0
 75
1
 76
1
 98
0
1001
KANTOR_RPG
1000
device
1000
EP-SW-ACC-03
  0
LWPOLYLINE
  5
109
330
1B
100
AcDbEntity
 67
1
  8
ICT-TOPO
420
5919307
100
AcDbPolyline
 90
4
 70
1
 10
178.66666666666666
 20
66.2
 10
248.66666666666666
 20
66.2
 10
248.66666666666666
 20
104.0
 10
178.66666666666666
 20
104.0
1001
KANTOR_RPG
1000
device
1000
EP-SW-ACC-03
  0
TEXT
  5
10A
330
1B
100
AcDbEntity
 67
1
  8
ICT-TOPO
420
2051386
100
AcDbText
 10
180.66666666666666
 20
99.6
 30
0.0
 40
1.9755555555555553
  1
Endpoint SW-ACC-03
  7
KR-SANS
 41
0.8
 11
180.66666666666666
 21
99.6
 31
0.0
100
AcDbText
1001
KANTOR_RPG
1000
device
1000
EP-SW-ACC-03
  0
TEXT
  5
10B
330
1B
100
AcDbEntity
 67
1
  8
ICT-TOPO
420
2240554
100
AcDbText
 10
180.66666666666666
 20
95.6
 30
0.0
 40
1.580444444444444
  1
arcade: 2
  7
KR-SANS
 41
0.8
 11
180.66666666666666
 21
95.6
 31
0.0
100
AcDbText
  0
TEXT
  5
10C
330
1B
100
AcDbEntity
 67
1
  8
ICT-TOPO
420
2240554
100
AcDbText
 10
180.66666666666666
 20
92.39999999999999
 30
0.0
 40
1.580444444444444
  1
console: 2
  7
KR-SANS
 41
0.8
 11
180.66666666666666
 21
92.39999999999999
 31
0.0
100
AcDbText
  0
TEXT
  5
10D
330
1B
100
AcDbEntity
 67
1
  8
ICT-TOPO
420
2240554
100
AcDbText
 10
180.66666666666666
 20
89.19999999999999
 30
0.0
 40
1.580444444444444
  1
display: 5
  7
KR-SANS
 41
0.8
 11
180.66666666666666
 21
89.19999999999999
 31
0.0
100
AcDbText
  0
TEXT
  5
10E
330
1B
100
AcDbEntity
 67
1
  8
ICT-TOPO
420
2240554
100
AcDbText
 10
180.66666666666666
 20
85.99999999999999
 30
0.0
 40
1.580444444444444
  1
lab_device: 3
  7
KR-SANS
 41
0.8
 11
180.66666666666666
 21
85.99999999999999
 31
0.0
100
AcDbText
  0
TEXT
  5
10F
330
1B
100
AcDbEntity
 67
1
  8
ICT-TOPO
420
2240554
100
AcDbText
 10
180.66666666666666
 20
82.79999999999998
 30
0.0
 40
1.580444444444444
  1
lab_uplink: 1
  7
KR-SANS
 41
0.8
 11
180.66666666666666
 21
82.79999999999998
 31
0.0
100
AcDbText
  0
TEXT
  5
110
330
1B
100
AcDbEntity
 67
1
  8
ICT-TOPO
420
2240554
100
AcDbText
 10
180.66666666666666
 20
79.59999999999998
 30
0.0
 40
1.580444444444444
  1
phone_or_spare: 5
  7
KR-SANS
 41
0.8
 11
180.66666666666666
 21
79.59999999999998
 31
0.0
100
AcDbText
  0
TEXT
  5
111
330
1B
100
AcDbEntity
 67
1
  8
ICT-TOPO
420
2240554
100
AcDbText
 10
180.66666666666666
 20
76.39999999999998
 30
0.0
 40
1.580444444444444
  1
spare: 1
  7
KR-SANS
 41
0.8
 11
180.66666666666666
 21
76.39999999999998
 31
0.0
100
AcDbText
  0
TEXT
  5
112
330
1B
100
AcDbEntity
 67
1
  8
ICT-TOPO
420
2240554
100
AcDbText
 10
180.66666666666666
 20
73.19999999999997
 30
0.0
 40
1.580444444444444
  1
workstation: 5
  7
KR-SANS
 41
0.8
 11
180.66666666666666
 21
73.19999999999997
 31
0.0
100
AcDbText
  0
TEXT
  5
113
330
1B
100
AcDbEntity
 67
1
  8
ICT-TOPO
420
2240554
100
AcDbText
 10
180.66666666666666
 20
69.99999999999997
 30
0.0
 40
1.580444444444444
  1
lantai L1 15, L2 9
  7
KR-SANS
 41
0.8
 11
180.66666666666666
 21
69.99999999999997
 31
0.0
100
AcDbText
  0
LWPOLYLINE
  5
114
330
1B
100
AcDbEntity
 67
1
  8
ICT-TOPO
  6
DASHED
 48
0.17638888888888887
420
5919307
100
AcDbPolyline
 90
2
 70
0
 10
58.0
 20
128.0
 10
58.0
 20
108.0
  0
LWPOLYLINE
  5
115
330
1B
100
AcDbEntity
 67
1
  8
ICT-TOPO
  6
DASHED
 48
0.17638888888888887
420
5919307
100
AcDbPolyline
 90
2
 70
0
 10
113.0
 20
128.0
 10
113.0
 20
108.0
  0
LWPOLYLINE
  5
116
330
1B
100
AcDbEntity
 67
1
  8
ICT-TOPO
  6
DASHED
 48
0.17638888888888887
420
5919307
100
AcDbPolyline
 90
2
 70
0
 10
168.0
 20
128.0
 10
168.0
 20
108.0
  0
LWPOLYLINE
  5
117
330
1B
100
AcDbEntity
 67
1
  8
ICT-TOPO
  6
DASHED
 48
0.17638888888888887
420
5919307
100
AcDbPolyline
 90
2
 70
0
 10
223.0
 20
128.0
 10
223.0
 20
108.0
  0
TEXT
  5
118
330
1B
100
AcDbEntity
 67
1
  8
ICT-TOPO
420
5919307
100
AcDbText
 10
32.0
 20
120.0
 30
0.0
 40
1.5310555555555554
  1
kabel horizontal ke outlet (detail per port di ICT-401)
  7
KR-SANS
 41
0.8
 11
32.0
 21
120.0
 31
0.0
100
AcDbText
  0
TEXT
  5
119
330
1B
100
AcDbEntity
 67
1
  8
A-ANNO-NOTE
420
2051386
100
AcDbText
 10
266.0
 20
260.1777777777778
 30
0.0
 40
1.9755555555555553
  1
DOMAIN (ID abstrak, AS-NET-01)
  7
KR-SANS
 41
0.8
 11
266.0
 21
260.1777777777778
 31
0.0
100
AcDbText
  0
LWPOLYLINE
  5
11A
330
1B
100
AcDbEntity
 67
1
  8
A-ANNO-NOTE
420
2051386
100
AcDbPolyline
 90
2
 70
0
 10
266.0
 20
258.7777777777778
 10
406.0
 20
258.7777777777778
  0
HATCH
  5
11B
330
1B
100
AcDbEntity
 67
1
  8
A-ANNO-SCHD
 62
7
420
14674403
100
AcDbHatch
 10
0.0
 20
0.0
 30
0.0
210
0.0
220
0.0
230
1.0
  2
SOLID
 70
1
 71
0
 91
1
 92
3
 72
0
 73
1
 93
4
 10
266.0
 20
252.55311111111115
 10
406.0
 20
252.55311111111115
 10
406.0
 20
257.1777777777778
 10
266.0
 20
257.1777777777778
 97
0
 75
1
 76
1
 98
0
  0
TEXT
  5
11C
330
1B
100
AcDbEntity
 67
1
  8
A-ANNO-SCHD
420
2051386
100
AcDbText
 10
267.0
 20
253.30311111111115
 30
0.0
 40
1.5310555555555554
  1
Domain
  7
KR-SANS
 41
0.8
 11
267.0
 21
253.30311111111115
 31
0.0
100
AcDbText
  0
TEXT
  5
11D
330
1B
100
AcDbEntity
 67
1
  8
A-ANNO-SCHD
420
2051386
100
AcDbText
 10
297.0
 20
253.30311111111115
 30
0.0
 40
1.5310555555555554
  1
Label
  7
KR-SANS
 41
0.8
 11
297.0
 21
253.30311111111115
 31
0.0
100
AcDbText
  0
TEXT
  5
11E
330
1B
100
AcDbEntity
 67
1
  8
A-ANNO-SCHD
420
2051386
100
AcDbText
 10
325.0
 20
253.30311111111115
 30
0.0
 40
1.5310555555555554
  1
Port
  7
KR-SANS
 41
0.8
 72
2
 11
325.0
 21
253.30311111111115
 31
0.0
100
AcDbText
  0
TEXT
  5
11F
330
1B
100
AcDbEntity
 67
1
  8
A-ANNO-SCHD
420
2051386
100
AcDbText
 10
327.0
 20
253.30311111111115
 30
0.0
 40
1.5310555555555554
  1
Catatan
  7
KR-SANS
 41
0.8
 11
327.0
 21
253.30311111111115
 31
0.0
100
AcDbText
  0
TEXT
  5
120
330
1B
100
AcDbEntity
 67
1
  8
A-ANNO-SCHD
420
2051386
100
AcDbText
 10
267.0
 20
250.0784444444445
 30
0.0
 40
1.5310555555555554
  1
NET-OFFICE
  7
KR-SANS
 41
0.8
 11
267.0
 21
250.0784444444445
 31
0.0
100
AcDbText
  0
TEXT
  5
121
330
1B
100
AcDbEntity
 67
1
  8
A-ANNO-SCHD
420
2240554
100
AcDbText
 10
297.0
 20
250.0784444444445
 30
0.0
 40
1.5310555555555554
  1
office
  7
KR-SANS
 41
0.8
 11
297.0
 21
250.0784444444445
 31
0.0
100
AcDbText
  0
TEXT
  5
122
330
1B
100
AcDbEntity
 67
1
  8
A-ANNO-SCHD
420
2240554
100
AcDbText
 10
325.0
 20
250.0784444444445
 30
0.0
 40
1.5310555555555554
  1
48
  7
KR-SANS
 41
0.8
 72
2
 11
325.0
 21
250.0784444444445
 31
0.0
100
AcDbText
  0
TEXT
  5
123
330
1B
100
AcDbEntity
 67
1
  8
A-ANNO-SCHD
420
2240554
100
AcDbText
 10
327.0
 20
250.0784444444445
 30
0.0
 40
1.5310555555555554
  1
abstrak
  7
KR-SANS
 41
0.8
 11
327.0
 21
250.0784444444445
 31
0.0
100
AcDbText
  0
LWPOLYLINE
  5
124
330
1B
100
AcDbEntity
 67
1
  8
A-ANNO-SCHD
420
13227727
100
AcDbPolyline
 90
2
 70
0
 10
266.0
 20
248.5284444444445
 10
406.0
 20
248.5284444444445
  0
HATCH
  5
125
330
1B
100
AcDbEntity
 67
1
  8
A-ANNO-SCHD
 62
7
420
15857138
100
AcDbHatch
 10
0.0
 20
0.0
 30
0.0
210
0.0
220
0.0
230
1.0
  2
SOLID
 70
1
 71
0
 91
1
 92
3
 72
0
 73
1
 93
4
 10
266.0
 20
244.50377777777783
 10
406.0
 20
244.50377777777783
 10
406.0
 20
248.5284444444445
 10
266.0
 20
248.5284444444445
 97
0
 75
1
 76
1
 98
0
  0
TEXT
  5
126
330
1B
100
AcDbEntity
 67
1
  8
A-ANNO-SCHD
420
2051386
100
AcDbText
 10
267.0
 20
246.05377777777784
 30
0.0
 40
1.5310555555555554
  1
NET-DEMO
  7
KR-SANS
 41
0.8
 11
267.0
 21
246.05377777777784
 31
0.0
100
AcDbText
  0
TEXT
  5
127
330
1B
100
AcDbEntity
 67
1
  8
A-ANNO-SCHD
420
2240554
100
AcDbText
 10
297.0
 20
246.05377777777784
 30
0.0
 40
1.5310555555555554
  1
demo
  7
KR-SANS
 41
0.8
 11
297.0
 21
246.05377777777784
 31
0.0
100
AcDbText
  0
TEXT
  5
128
330
1B
100
AcDbEntity
 67
1
  8
A-ANNO-SCHD
420
2240554
100
AcDbText
 10
325.0
 20
246.05377777777784
 30
0.0
 40
1.5310555555555554
  1
10
  7
KR-SANS
 41
0.8
 72
2
 11
325.0
 21
246.05377777777784
 31
0.0
100
AcDbText
  0
TEXT
  5
129
330
1B
100
AcDbEntity
 67
1
  8
A-ANNO-SCHD
420
2240554
100
AcDbText
 10
327.0
 20
246.05377777777784
 30
0.0
 40
1.5310555555555554
  1
abstrak
  7
KR-SANS
 41
0.8
 11
327.0
 21
246.05377777777784
 31
0.0
100
AcDbText
  0
LWPOLYLINE
  5
12A
330
1B
100
AcDbEntity
 67
1
  8
A-ANNO-SCHD
420
13227727
100
AcDbPolyline
 90
2
 70
0
 10
266.0
 20
244.50377777777783
 10
406.0
 20
244.50377777777783
  0
TEXT
  5
12B
330
1B
100
AcDbEntity
 67
1
  8
A-ANNO-SCHD
420
2051386
100
AcDbText
 10
267.0
 20
242.02911111111118
 30
0.0
 40
1.5310555555555554
  1
NET-GUEST
  7
KR-SANS
 41
0.8
 11
267.0
 21
242.02911111111118
 31
0.0
100
AcDbText
  0
TEXT
  5
12C
330
1B
100
AcDbEntity
 67
1
  8
A-ANNO-SCHD
420
2240554
100
AcDbText
 10
297.0
 20
242.02911111111118
 30
0.0
 40
1.5310555555555554
  1
guest
  7
KR-SANS
 41
0.8
 11
297.0
 21
242.02911111111118
 31
0.0
100
AcDbText
  0
TEXT
  5
12D
330
1B
100
AcDbEntity
 67
1
  8
A-ANNO-SCHD
420
2240554
100
AcDbText
 10
325.0
 20
242.02911111111118
 30
0.0
 40
1.5310555555555554
  1
0
  7
KR-SANS
 41
0.8
 72
2
 11
325.0
 21
242.02911111111118
 31
0.0
100
AcDbText
  0
TEXT
  5
12E
330
1B
100
AcDbEntity
 67
1
  8
A-ANNO-SCHD
420
2240554
100
AcDbText
 10
327.0
 20
242.02911111111118
 30
0.0
 40
1.5310555555555554
  1
abstrak, SSID tamu konsep
  7
KR-SANS
 41
0.8
 11
327.0
 21
242.02911111111118
 31
0.0
100
AcDbText
  0
LWPOLYLINE
  5
12F
330
1B
100
AcDbEntity
 67
1
  8
A-ANNO-SCHD
420
13227727
100
AcDbPolyline
 90
2
 70
0
 10
266.0
 20
240.47911111111117
 10
406.0
 20
240.47911111111117
  0
HATCH
  5
130
330
1B
100
AcDbEntity
 67
1
  8
A-ANNO-SCHD
 62
7
420
15857138
100
AcDbHatch
 10
0.0
 20
0.0
 30
0.0
210
0.0
220
0.0
230
1.0
  2
SOLID
 70
1
 71
0
 91
1
 92
3
 72
0
 73
1
 93
4
 10
266.0
 20
236.4544444444445
 10
406.0
 20
236.4544444444445
 10
406.0
 20
240.47911111111117
 10
266.0
 20
240.47911111111117
 97
0
 75
1
 76
1
 98
0
  0
TEXT
  5
131
330
1B
100
AcDbEntity
 67
1
  8
A-ANNO-SCHD
420
2051386
100
AcDbText
 10
267.0
 20
238.00444444444452
 30
0.0
 40
1.5310555555555554
  1
NET-LAB
  7
KR-SANS
 41
0.8
 11
267.0
 21
238.00444444444452
 31
0.0
100
AcDbText
  0
TEXT
  5
132
330
1B
100
AcDbEntity
 67
1
  8
A-ANNO-SCHD
420
2240554
100
AcDbText
 10
297.0
 20
238.00444444444452
 30
0.0
 40
1.5310555555555554
  1
lab
  7
KR-SANS
 41
0.8
 11
297.0
 21
238.00444444444452
 31
0.0
100
AcDbText
  0
TEXT
  5
133
330
1B
100
AcDbEntity
 67
1
  8
A-ANNO-SCHD
420
2240554
100
AcDbText
 10
325.0
 20
238.00444444444452
 30
0.0
 40
1.5310555555555554
  1
14
  7
KR-SANS
 41
0.8
 72
2
 11
325.0
 21
238.00444444444452
 31
0.0
100
AcDbText
  0
TEXT
  5
134
330
1B
100
AcDbEntity
 67
1
  8
A-ANNO-SCHD
420
2240554
100
AcDbText
 10
327.0
 20
238.00444444444452
 30
0.0
 40
1.5310555555555554
  1
abstrak, terisolasi konsep
  7
KR-SANS
 41
0.8
 11
327.0
 21
238.00444444444452
 31
0.0
100
AcDbText
  0
LWPOLYLINE
  5
135
330
1B
100
AcDbEntity
 67
1
  8
A-ANNO-SCHD
420
13227727
100
AcDbPolyline
 90
2
 70
0
 10
266.0
 20
236.4544444444445
 10
406.0
 20
236.4544444444445
  0
TEXT
  5
136
330
1B
100
AcDbEntity
 67
1
  8
A-ANNO-SCHD
420
2051386
100
AcDbText
 10
267.0
 20
233.97977777777785
 30
0.0
 40
1.5310555555555554
  1
NET-SERVER
  7
KR-SANS
 41
0.8
 11
267.0
 21
233.97977777777785
 31
0.0
100
AcDbText
  0
TEXT
  5
137
330
1B
100
AcDbEntity
 67
1
  8
A-ANNO-SCHD
420
2240554
100
AcDbText
 10
297.0
 20
233.97977777777785
 30
0.0
 40
1.5310555555555554
  1
server
  7
KR-SANS
 41
0.8
 11
297.0
 21
233.97977777777785
 31
0.0
100
AcDbText
  0
TEXT
  5
138
330
1B
100
AcDbEntity
 67
1
  8
A-ANNO-SCHD
420
2240554
100
AcDbText
 10
325.0
 20
233.97977777777785
 30
0.0
 40
1.5310555555555554
  1
0
  7
KR-SANS
 41
0.8
 72
2
 11
325.0
 21
233.97977777777785
 31
0.0
100
AcDbText
  0
TEXT
  5
139
330
1B
100
AcDbEntity
 67
1
  8
A-ANNO-SCHD
420
2240554
100
AcDbText
 10
327.0
 20
233.97977777777785
 30
0.0
 40
1.5310555555555554
  1
abstrak
  7
KR-SANS
 41
0.8
 11
327.0
 21
233.97977777777785
 31
0.0
100
AcDbText
  0
LWPOLYLINE
  5
13A
330
1B
100
AcDbEntity
 67
1
  8
A-ANNO-SCHD
420
13227727
100
AcDbPolyline
 90
2
 70
0
 10
266.0
 20
232.42977777777784
 10
406.0
 20
232.42977777777784
  0
LWPOLYLINE
  5
13B
330
1B
100
AcDbEntity
 67
1
  8
A-ANNO-SCHD
420
2051386
100
AcDbPolyline
 90
2
 70
0
 10
266.0
 20
257.1777777777778
 10
406.0
 20
257.1777777777778
  0
LWPOLYLINE
  5
13C
330
1B
100
AcDbEntity
 67
1
  8
A-ANNO-SCHD
420
2051386
100
AcDbPolyline
 90
2
 70
0
 10
266.0
 20
232.42977777777784
 10
406.0
 20
232.42977777777784
  0
TEXT
  5
13D
330
1B
100
AcDbEntity
 67
1
  8
A-ANNO-NOTE
420
2051386
100
AcDbText
 10
266.0
 20
225.60755555555562
 30
0.0
 40
1.9755555555555553
  1
JUMLAH DARI DATA
  7
KR-SANS
 41
0.8
 11
266.0
 21
225.60755555555562
 31
0.0
100
AcDbText
  0
LWPOLYLINE
  5
13E
330
1B
100
AcDbEntity
 67
1
  8
A-ANNO-NOTE
420
2051386
100
AcDbPolyline
 90
2
 70
0
 10
266.0
 20
224.20755555555562
 10
406.0
 20
224.20755555555562
  0
TEXT
  5
13F
330
1B
100
AcDbEntity
 67
1
  8
ICT-TOPO
420
2051386
100
AcDbText
 10
266.0
 20
220.00755555555563
 30
0.0
 40
1.580444444444444
  1
Outlet
  7
KR-SANS
 41
0.8
 11
266.0
 21
220.00755555555563
 31
0.0
100
AcDbText
  0
TEXT
  5
140
330
1B
100
AcDbEntity
 67
1
  8
A-ANNO-NOTE
420
2240554
100
AcDbText
 10
288.0
 20
220.1853333333334
 30
0.0
 40
1.580444444444444
  1
45 outlet, 72 port
  7
KR-SANS
 41
0.8
 11
288.0
 21
220.1853333333334
 31
0.0
100
AcDbText
  0
TEXT
  5
141
330
1B
100
AcDbEntity
 67
1
  8
ICT-TOPO
420
2051386
100
AcDbText
 10
266.0
 20
216.3853333333334
 30
0.0
 40
1.580444444444444
  1
Patch panel
  7
KR-SANS
 41
0.8
 11
266.0
 21
216.3853333333334
 31
0.0
100
AcDbText
  0
TEXT
  5
142
330
1B
100
AcDbEntity
 67
1
  8
A-ANNO-NOTE
420
2240554
100
AcDbText
 10
288.0
 20
216.56311111111117
 30
0.0
 40
1.580444444444444
  1
4 x 24 = 96 port, terpakai 72
  7
KR-SANS
 41
0.8
 11
288.0
 21
216.56311111111117
 31
0.0
100
AcDbText
  0
TEXT
  5
143
330
1B
100
AcDbEntity
 67
1
  8
ICT-TOPO
420
2051386
100
AcDbText
 10
266.0
 20
212.76311111111116
 30
0.0
 40
1.580444444444444
  1
Access point
  7
KR-SANS
 41
0.8
 11
266.0
 21
212.76311111111116
 31
0.0
100
AcDbText
  0
TEXT
  5
144
330
1B
100
AcDbEntity
 67
1
  8
A-ANNO-NOTE
420
2240554
100
AcDbText
 10
288.0
 20
212.94088888888894
 30
0.0
 40
1.580444444444444
  1
11 placeholder (AS-ICT-01): L1 5, L2 6
  7
KR-SANS
 41
0.8
 11
288.0
 21
212.94088888888894
 31
0.0
100
AcDbText
  0
TEXT
  5
145
330
1B
100
AcDbEntity
 67
1
  8
ICT-TOPO
420
2051386
100
AcDbText
 10
266.0
 20
209.14088888888892
 30
0.0
 40
1.580444444444444
  1
Kamera
  7
KR-SANS
 41
0.8
 11
266.0
 21
209.14088888888892
 31
0.0
100
AcDbText
  0
TEXT
  5
146
330
1B
100
AcDbEntity
 67
1
  8
A-ANNO-NOTE
420
2240554
100
AcDbText
 10
288.0
 20
209.3186666666667
 30
0.0
 40
1.580444444444444
  1
5 opsional konsep: L1 3, L2 2
  7
KR-SANS
 41
0.8
 11
288.0
 21
209.3186666666667
 31
0.0
100
AcDbText
  0
TEXT
  5
147
330
1B
100
AcDbEntity
 67
1
  8
ICT-TOPO
420
2051386
100
AcDbText
 10
266.0
 20
205.5186666666667
 30
0.0
 40
1.580444444444444
  1
Kabel
  7
KR-SANS
 41
0.8
 11
266.0
 21
205.5186666666667
 31
0.0
100
AcDbText
  0
TEXT
  5
148
330
1B
100
AcDbEntity
 67
1
  8
A-ANNO-NOTE
420
2240554
100
AcDbText
 10
288.0
 20
205.69644444444447
 30
0.0
 40
1.580444444444444
  1
72 kabel, total 2074,8 m (AS-ICT-02)
  7
KR-SANS
 41
0.8
 11
288.0
 21
205.69644444444447
 31
0.0
100
AcDbText
  0
TEXT
  5
149
330
1B
100
AcDbEntity
 67
1
  8
ICT-TOPO
420
2051386
100
AcDbText
 10
266.0
 20
201.89644444444446
 30
0.0
 40
1.580444444444444
  1
PoE
  7
KR-SANS
 41
0.8
 11
266.0
 21
201.89644444444446
 31
0.0
100
AcDbText
  0
TEXT
  5
14A
330
1B
100
AcDbEntity
 67
1
  8
A-ANNO-NOTE
420
2240554
100
AcDbText
 10
288.0
 20
202.07422222222223
 30
0.0
 40
1.580444444444444
  1
worst-case 407 W dari kelas IEEE (AS-ICT-04); belum divalidasi
  7
KR-SANS
 41
0.8
 11
288.0
 21
202.07422222222223
 31
0.0
100
AcDbText
  0
TEXT
  5
14B
330
1B
100
AcDbEntity
 67
1
  8
A-ANNO-NOTE
420
2051386
100
AcDbText
 10
266.0
 20
195.052
 30
0.0
 40
1.9755555555555553
  1
RACK
  7
KR-SANS
 41
0.8
 11
266.0
 21
195.052
 31
0.0
100
AcDbText
  0
LWPOLYLINE
  5
14C
330
1B
100
AcDbEntity
 67
1
  8
A-ANNO-NOTE
420
2051386
100
AcDbPolyline
 90
2
 70
0
 10
266.0
 20
193.652
 10
406.0
 20
193.652
  0
TEXT
  5
14D
330
1B
100
AcDbEntity
 67
1
  8
ICT-TOPO
420
2051386
100
AcDbText
 10
266.0
 20
189.452
 30
0.0
 40
1.580444444444444
  1
RK-L1-01
  7
KR-SANS
 41
0.8
 11
266.0
 21
189.452
 31
0.0
100
AcDbText
1001
KANTOR_RPG
1000
rack
1000
RK-L1-01
  0
TEXT
  5
14E
330
1B
100
AcDbEntity
 67
1
  8
A-ANNO-NOTE
420
2240554
100
AcDbText
 10
288.0
 20
189.80616666666666
 30
0.0
 40
1.4816666666666662
  1
L1-SERVER, 42U: PP-01 U40, CM-01 U39, PP-02 U38, CM-02 U37, PP-03 U36, CM-03 U35, PP-04 U34, CM-04 U33, SW-ACC-01 U31, SW-ACC-02
  7
KR-SANS
 41
0.8
 11
288.0
 21
189.80616666666666
 31
0.0
100
AcDbText
  0
TEXT
  5
14F
330
1B
100
AcDbEntity
 67
1
  8
A-ANNO-NOTE
420
2240554
100
AcDbText
 10
288.0
 20
187.16033333333334
 30
0.0
 40
1.4816666666666662
  1
U30, SW-ACC-03 U29, SW-AGG-01 U28, GW-DEMO-01 U26
  7
KR-SANS
 41
0.8
 11
288.0
 21
187.16033333333334
 31
0.0
100
AcDbText
  0
TEXT
  5
150
330
1B
100
AcDbEntity
 67
1
  8
ICT-TOPO
420
2051386
100
AcDbText
 10
266.0
 20
183.36033333333333
 30
0.0
 40
1.580444444444444
  1
RK-L1-02
  7
KR-SANS
 41
0.8
 11
266.0
 21
183.36033333333333
 31
0.0
100
AcDbText
1001
KANTOR_RPG
1000
rack
1000
RK-L1-02
  0
TEXT
  5
151
330
1B
100
AcDbEntity
 67
1
  8
A-ANNO-NOTE
420
2240554
100
AcDbText
 10
288.0
 20
183.7145
 30
0.0
 40
1.4816666666666662
  1
L1-SERVER, 42U: SRV-DEMO-01 U20, NAS-DEMO-01 U17, PDU-01 U10, UPS-01 U1
  7
KR-SANS
 41
0.8
 11
288.0
 21
183.7145
 31
0.0
100
AcDbText
  0
TEXT
  5
152
330
1B
100
AcDbEntity
 67
1
  8
A-ANNO-NOTE
420
5919307
100
AcDbText
 10
266.0
 20
178.26866666666663
 30
0.0
 40
1.4816666666666662
  1
SRV-DEMO-01 dan NAS-DEMO-01 belum punya port map; koneksinya tidak digambar.
  7
KR-SANS
 41
0.8
 11
266.0
 21
178.26866666666663
 31
0.0
100
AcDbText
  0
INSERT
  5
153
330
1B
100
AcDbEntity
 67
1
  8
A-ANNO-TTLB
100
AcDbBlockReference
 66
1
  2
KR-TTLB-G
 10
235.0
 20
10.0
 30
0.0
  0
ATTRIB
  5
155
330
1B
100
AcDbEntity
 67
1
  8
A-ANNO-TTLB
100
AcDbText
 10
238.0
 20
53.0
 30
0.0
 40
4.0
  1
ICT-001
  7
KR-SANS
 11
238.0
 21
53.0
 31
0.0
100
AcDbAttribute
  2
KR_SHEET_ID
 70
0
 71
1
 72
0
 11
238.0
 21
53.0
 31
0.0
  0
ATTRIB
  5
156
330
1B
100
AcDbEntity
 67
1
  8
A-ANNO-TTLB
100
AcDbText
 10
238.0
 20
46.8
 30
0.0
 40
2.0
  1
Topologi jaringan (virtual)
  7
KR-SANS
 11
238.0
 21
46.8
 31
0.0
100
AcDbAttribute
  2
KR_TITLE
 70
0
 71
1
 72
0
 11
238.0
 21
46.8
 31
0.0
  0
ATTRIB
  5
157
330
1B
100
AcDbEntity
 67
1
  8
A-ANNO-TTLB
100
AcDbText
 10
238.0
 20
40.6
 30
0.0
 40
2.0
  1
-
  7
KR-SANS
 11
238.0
 21
40.6
 31
0.0
100
AcDbAttribute
  2
KR_FLOOR
 70
0
 71
1
 72
0
 11
238.0
 21
40.6
 31
0.0
  0
ATTRIB
  5
158
330
1B
100
AcDbEntity
 67
1
  8
A-ANNO-TTLB
100
AcDbText
 10
238.0
 20
34.4
 30
0.0
 40
2.0
  1
NTS @ A3
  7
KR-SANS
 11
238.0
 21
34.4
 31
0.0
100
AcDbAttribute
  2
KR_SCALE
 70
0
 71
1
 72
0
 11
238.0
 21
34.4
 31
0.0
  0
ATTRIB
  5
159
330
1B
100
AcDbEntity
 67
1
  8
A-ANNO-TTLB
100
AcDbText
 10
238.0
 20
28.2
 30
0.0
 40
2.0
  1
P02
  7
KR-SANS
 11
238.0
 21
28.2
 31
0.0
100
AcDbAttribute
  2
KR_REVISION
 70
0
 71
1
 72
0
 11
238.0
 21
28.2
 31
0.0
  0
ATTRIB
  5
15A
330
1B
100
AcDbEntity
 67
1
  8
A-ANNO-TTLB
100
AcDbText
 10
238.0
 20
22.0
 30
0.0
 40
2.0
  1
2026-10-01
  7
KR-SANS
 11
238.0
 21
22.0
 31
0.0
100
AcDbAttribute
  2
KR_REV_DATE
 70
0
 71
1
 72
0
 11
238.0
 21
22.0
 31
0.0
  0
ATTRIB
  5
15B
330
1B
100
AcDbEntity
 67
1
  8
A-ANNO-TTLB
100
AcDbText
 10
238.0
 20
15.799999999999997
 30
0.0
 40
2.0
  1
2026-10-01T12:12:53Z
  7
KR-SANS
 11
238.0
 21
15.799999999999997
 31
0.0
100
AcDbAttribute
  2
KR_RENDER_UTC
 70
0
 71
1
 72
0
 11
238.0
 21
15.799999999999997
 31
0.0
  0
ATTRIB
  5
15C
330
1B
100
AcDbEntity
 67
1
  8
A-ANNO-TTLB
100
AcDbText
 10
323.0
 20
53.0
 30
0.0
 40
2.0
  1
KONSEP
  7
KR-SANS
 11
323.0
 21
53.0
 31
0.0
100
AcDbAttribute
  2
KR_STATUS
 70
0
 71
1
 72
0
 11
323.0
 21
53.0
 31
0.0
  0
ATTRIB
  5
15D
330
1B
100
AcDbEntity
 67
1
  8
A-ANNO-TTLB
100
AcDbText
 10
323.0
 20
46.8
 30
0.0
 40
2.0
  1
Bukan untuk konstruksi
  7
KR-SANS
 11
323.0
 21
46.8
 31
0.0
100
AcDbAttribute
  2
KR_NOTE
 70
0
 71
1
 72
0
 11
323.0
 21
46.8
 31
0.0
  0
ATTRIB
  5
15E
330
1B
100
AcDbEntity
 67
1
  8
A-ANNO-TTLB
100
AcDbText
 10
323.0
 20
40.6
 30
0.0
 40
2.0
  1
Claude Code cloud (generator)
  7
KR-SANS
 11
323.0
 21
40.6
 31
0.0
100
AcDbAttribute
  2
KR_DRAWN
 70
0
 71
1
 72
0
 11
323.0
 21
40.6
 31
0.0
  0
ATTRIB
  5
15F
330
1B
100
AcDbEntity
 67
1
  8
A-ANNO-TTLB
100
AcDbText
 10
323.0
 20
34.4
 30
0.0
 40
2.0
  1
Max (supervisor) belum review
  7
KR-SANS
 11
323.0
 21
34.4
 31
0.0
100
AcDbAttribute
  2
KR_CHECK
 70
0
 71
1
 72
0
 11
323.0
 21
34.4
 31
0.0
  0
ATTRIB
  5
160
330
1B
100
AcDbEntity
 67
1
  8
A-ANNO-TTLB
100
AcDbText
 10
323.0
 20
28.2
 30
0.0
 40
2.0
  1
1/1
  7
KR-SANS
 11
323.0
 21
28.2
 31
0.0
100
AcDbAttribute
  2
KR_PAGE
 70
0
 71
1
 72
0
 11
323.0
 21
28.2
 31
0.0
  0
ATTRIB
  5
161
330
1B
100
AcDbEntity
 67
1
  8
A-ANNO-TTLB
100
AcDbText
 10
323.0
 20
22.0
 30
0.0
 40
1.3
  1
ac39b320919d6410f01d798ea0af1508e8c37de5e08f0e72047b9bf11e1f4afa
  7
KR-SANS
 11
323.0
 21
22.0
 31
0.0
100
AcDbAttribute
  2
KR_WORLD_SHA256
 70
0
 71
1
 72
0
 11
323.0
 21
22.0
 31
0.0
  0
SEQEND
  5
154
330
153
100
AcDbEntity
 67
1
  8
A-ANNO-TTLB
  0
ENDSEC
  0
SECTION
  2
OBJECTS
  0
DICTIONARY
  5
A
330
0
100
AcDbDictionary
281
1
  3
ACAD_COLOR
350
B
  3
ACAD_GROUP
350
C
  3
ACAD_LAYOUT
350
D
  3
ACAD_MATERIAL
350
E
  3
ACAD_MLEADERSTYLE
350
F
  3
ACAD_MLINESTYLE
350
10
  3
ACAD_PLOTSETTINGS
350
11
  3
ACAD_PLOTSTYLENAME
350
12
  3
ACAD_SCALELIST
350
14
  3
ACAD_TABLESTYLE
350
15
  3
ACAD_VISUALSTYLE
350
16
  3
EZDXF_META
350
2D
  0
DICTIONARY
  5
B
330
A
100
AcDbDictionary
281
1
  0
DICTIONARY
  5
C
330
A
100
AcDbDictionary
281
1
  0
DICTIONARY
  5
D
330
A
100
AcDbDictionary
281
1
  3
Model
350
1A
  3
ICT-001
350
1E
  0
DICTIONARY
  5
E
330
A
100
AcDbDictionary
281
1
  3
ByBlock
350
1F
  3
ByLayer
350
20
  3
Global
350
21
  0
DICTIONARY
  5
F
330
A
100
AcDbDictionary
281
1
  3
Standard
350
2C
  0
DICTIONARY
  5
10
330
A
100
AcDbDictionary
281
1
  3
Standard
350
22
  0
DICTIONARY
  5
11
330
A
100
AcDbDictionary
281
1
  0
ACDBDICTIONARYWDFLT
  5
12
330
A
100
AcDbDictionary
281
1
  3
Normal
350
13
100
AcDbDictionaryWithDefault
340
13
  0
ACDBPLACEHOLDER
  5
13
330
12
  0
DICTIONARY
  5
14
330
A
100
AcDbDictionary
281
1
  0
DICTIONARY
  5
15
330
A
100
AcDbDictionary
281
1
  0
DICTIONARY
  5
16
330
A
100
AcDbDictionary
281
1
  3
2dWireframe
350
5A
  3
Basic
350
5B
  3
Brighten
350
5C
  3
ColorChange
350
5D
  3
Conceptual
350
5E
  3
Dim
350
5F
  3
EdgeColorOff
350
60
  3
Facepattern
350
61
  3
Flat
350
62
  3
FlatWithEdges
350
63
  3
Gouraud
350
64
  3
GouraudWithEdges
350
65
  3
Hidden
350
66
  3
JitterOff
350
67
  3
Linepattern
350
68
  3
Modeling
350
69
  3
OverhangOff
350
6A
  3
Realistic
350
6B
  3
Shaded
350
6C
  3
Shaded with edges
350
6D
  3
Shades of Gray
350
6E
  3
Sketchy
350
6F
  3
Thicken
350
70
  3
Wireframe
350
71
  3
X-Ray
350
72
  0
LAYOUT
  5
1A
330
D
100
AcDbPlotSettings
  1

  4
A3
  6

 40
7.5
 41
20.0
 42
7.5
 43
20.0
 44
420.0
 45
297.0
 46
0.0
 47
0.0
 48
0.0
 49
0.0
140
0.0
141
0.0
142
1.0
143
1.0
 70
1024
 72
1
 73
0
 74
5
  7

 75
16
 76
0
 77
2
 78
300
147
1.0
148
0.0
149
0.0
100
AcDbLayout
  1
Model
 70
1
 71
0
 10
0.0
 20
0.0
 11
420.0
 21
297.0
 12
0.0
 22
0.0
 32
0.0
 14
1e+20
 24
1e+20
 34
1e+20
 15
-1e+20
 25
-1e+20
 35
-1e+20
146
0.0
 13
0.0
 23
0.0
 33
0.0
 16
1.0
 26
0.0
 36
0.0
 17
0.0
 27
1.0
 37
0.0
 76
1
330
17
  0
LAYOUT
  5
1E
330
D
100
AcDbPlotSettings
  1

  2
DWG to PDF.pc3
  4
ezdxf_(420.00_x_297.00_MM)
  6

 40
0.0
 41
0.0
 42
0.0
 43
0.0
 44
420.0
 45
297.0
 46
0.0
 47
0.0
 48
0.0
 49
0.0
140
0.0
141
0.0
142
0.0078125
143
12.0
 70
672
 72
1
 73
0
 74
5
  7

 75
1
 76
0
 77
2
 78
300
147
1.0
148
0.0
149
0.0
100
AcDbLayout
  1
ICT-001
 70
1
 71
1
 10
-0.0
 20
-0.0
 11
420.0
 21
297.0
 12
0.0
 22
0.0
 32
0.0
 14
1e+20
 24
1e+20
 34
1e+20
 15
-1e+20
 25
-1e+20
 35
-1e+20
146
0.0
 13
0.0
 23
0.0
 33
0.0
 16
1.0
 26
0.0
 36
0.0
 17
0.0
 27
1.0
 37
0.0
 76
1
330
1B
331
AF
  0
MATERIAL
  5
1F
102
{ACAD_REACTORS
330
E
102
}
330
E
100
AcDbMaterial
  1
ByBlock
  2

 70
0
 40
1.0
 71
1
 41
1.0
 91
-1023410177
 42
1.0
 72
1
  3

 73
1
 74
1
 75
1
 44
0.5
 73
0
 45
1.0
 46
1.0
 77
1
  4

 78
1
 79
1
170
1
 48
1.0
171
1
  6

172
1
173
1
174
1
140
1.0
141
1.0
175
1
  7

176
1
177
1
178
1
143
1.0
179
1
  8

270
1
271
1
272
1
145
1.0
146
1.0
273
1
  9

274
1
275
1
276
1
 42
1.0
 72
1
  3

 73
1
 74
1
 75
1
 94
63
  0
MATERIAL
  5
20
102
{ACAD_REACTORS
330
E
102
}
330
E
100
AcDbMaterial
  1
ByLayer
  2

 70
0
 40
1.0
 71
1
 41
1.0
 91
-1023410177
 42
1.0
 72
1
  3

 73
1
 74
1
 75
1
 44
0.5
 73
0
 45
1.0
 46
1.0
 77
1
  4

 78
1
 79
1
170
1
 48
1.0
171
1
  6

172
1
173
1
174
1
140
1.0
141
1.0
175
1
  7

176
1
177
1
178
1
143
1.0
179
1
  8

270
1
271
1
272
1
145
1.0
146
1.0
273
1
  9

274
1
275
1
276
1
 42
1.0
 72
1
  3

 73
1
 74
1
 75
1
 94
63
  0
MATERIAL
  5
21
102
{ACAD_REACTORS
330
E
102
}
330
E
100
AcDbMaterial
  1
Global
  2

 70
0
 40
1.0
 71
1
 41
1.0
 91
-1023410177
 42
1.0
 72
1
  3

 73
1
 74
1
 75
1
 44
0.5
 73
0
 45
1.0
 46
1.0
 77
1
  4

 78
1
 79
1
170
1
 48
1.0
171
1
  6

172
1
173
1
174
1
140
1.0
141
1.0
175
1
  7

176
1
177
1
178
1
143
1.0
179
1
  8

270
1
271
1
272
1
145
1.0
146
1.0
273
1
  9

274
1
275
1
276
1
 42
1.0
 72
1
  3

 73
1
 74
1
 75
1
 94
63
  0
MLINESTYLE
  5
22
102
{ACAD_REACTORS
330
10
102
}
330
10
100
AcDbMlineStyle
  2
Standard
 70
0
  3

 62
256
 51
90.0
 52
90.0
 71
2
 49
0.5
 62
256
  6
BYLAYER
 49
-0.5
 62
256
  6
BYLAYER
  0
MLEADERSTYLE
  5
2C
102
{ACAD_REACTORS
330
F
102
}
330
F
100
AcDbMLeaderStyle
179
2
170
2
171
1
172
0
 90
2
 40
0.0
 41
0.0
173
1
 91
-1056964608
 92
-2
290
1
 42
2.0
291
1
 43
8.0
  3
Standard
 44
4.0
300

342
29
174
1
175
1
176
0
178
1
 93
-1056964608
 45
4.0
292
0
297
0
 46
4.0
 94
-1056964608
 47
1.0
 49
1.0
140
1.0
294
1
141
0.0
177
0
142
1.0
295
0
296
0
143
3.75
271
0
272
9
273
9
  0
DICTIONARY
  5
2D
330
A
100
AcDbDictionary
280
1
281
1
  3
CREATED_BY_EZDXF
350
2E
  3
WRITTEN_BY_EZDXF
350
164
  0
DICTIONARYVAR
  5
2E
330
2D
100
DictionaryVariables
280
0
  1
1.4.4 @ 2026-10-01T12:13:42.321442+00:00
  0
VISUALSTYLE
  5
5A
102
{ACAD_REACTORS
330
16
102
}
330
16
100
AcDbVisualStyle
  2
2dWireframe
 70
4
177
3
291
0
 70
58
 90
2
176
1
 90
2
176
1
 90
0
176
1
 90
0
176
1
 40
0.6
176
1
 40
30.0
176
1
 62
7
420
16777215
176
1
 90
1
176
1
 90
4
176
1
 62
7
176
1
 62
257
176
1
 90
1
176
1
 90
1
176
1
 40
1.0
176
1
 90
8
176
1
 62
7
176
1
 40
1.0
176
1
 90
1
176
1
 90
6
176
1
 90
2
176
1
 62
7
176
1
 90
5
176
1
 90
0
176
1
 90
0
176
1
290
0
176
1
 90
1
176
1
 40
0.0
176
1
 90
0
176
1
290
1
176
1
290
1
176
1
290
0
176
1
290
0
176
1
290
0
176
1
290
0
176
1
290
0
176
1
290
0
176
1
290
0
176
1
 90
50
176
1
 40
0.0
176
1
 40
1.0
176
1
 90
0
176
1
 62
18
420
0
176
1
 90
50
176
1
 90
3
176
1
 62
5
420
255
176
1
290
0
176
1
 90
50
176
1
 90
50
176
1
 90
50
176
1
290
0
176
1
 90
50
176
1
 62
256
176
0
 40
1.0
176
0
 90
2
176
1
  1
strokes_ogs.tif
176
1
290
0
176
1
 40
1.0
176
1
 40
1.0
176
1
  0
VISUALSTYLE
  5
5B
102
{ACAD_REACTORS
330
16
102
}
330
16
100
AcDbVisualStyle
  2
Basic
 70
7
177
3
291
1
 70
58
 90
2
176
1
 90
2
176
1
 90
0
176
1
 90
1
176
1
 40
0.6
176
1
 40
30.0
176
1
 62
7
420
16777215
176
1
 90
1
176
1
 90
4
176
1
 62
7
176
1
 62
257
176
1
 90
1
176
1
 90
1
176
1
 40
1.0
176
1
 90
8
176
1
 62
7
176
1
 40
1.0
176
1
 90
1
176
1
 90
6
176
1
 90
2
176
1
 62
7
176
1
 90
5
176
1
 90
0
176
1
 90
0
176
1
290
0
176
1
 90
1
176
1
 40
0.0
176
1
 90
0
176
1
290
0
176
1
290
1
176
1
290
1
176
1
290
0
176
1
290
0
176
1
290
0
176
1
290
0
176
1
290
0
176
1
290
0
176
1
 90
50
176
1
 40
0.0
176
1
 40
1.0
176
1
 90
0
176
1
 62
18
420
0
176
1
 90
50
176
1
 90
3
176
1
 62
5
420
255
176
1
290
0
176
1
 90
50
176
1
 90
50
176
1
 90
50
176
1
290
0
176
1
 90
50
176
1
 62
256
176
0
 40
1.0
176
0
 90
2
176
1
  1
strokes_ogs.tif
176
1
290
0
176
1
 40
1.0
176
1
 40
1.0
176
1
  0
VISUALSTYLE
  5
5C
102
{ACAD_REACTORS
330
16
102
}
330
16
100
AcDbVisualStyle
  2
Brighten
 70
12
177
3
291
1
 70
58
 90
2
176
1
 90
2
176
1
 90
0
176
1
 90
2
176
1
 40
0.6
176
1
 40
30.0
176
1
 62
7
420
16777215
176
1
 90
1
176
1
 90
4
176
1
 62
7
176
1
 62
257
176
1
 90
1
176
1
 90
1
176
1
 40
1.0
176
1
 90
8
176
1
 62
7
176
1
 40
1.0
176
1
 90
1
176
1
 90
6
176
1
 90
2
176
1
 62
7
176
1
 90
5
176
1
 90
0
176
1
 90
0
176
1
290
0
176
1
 90
1
176
1
 40
0.0
176
1
 90
0
176
1
290
0
176
1
290
1
176
1
290
1
176
1
290
0
176
1
290
0
176
1
290
0
176
1
290
0
176
1
290
0
176
1
290
0
176
1
 90
50
176
1
 40
0.0
176
1
 40
1.0
176
1
 90
0
176
1
 62
18
420
0
176
1
 90
50
176
1
 90
3
176
1
 62
5
420
255
176
1
290
0
176
1
 90
50
176
1
 90
50
176
1
 90
50
176
1
290
0
176
1
 90
50
176
1
 62
256
176
0
 40
1.0
176
0
 90
2
176
1
  1
strokes_ogs.tif
176
1
290
0
176
1
 40
1.0
176
1
 40
1.0
176
1
  0
VISUALSTYLE
  5
5D
102
{ACAD_REACTORS
330
16
102
}
330
16
100
AcDbVisualStyle
  2
ColorChange
 70
16
177
3
291
1
 70
58
 90
2
176
1
 90
2
176
1
 90
0
176
1
 90
2
176
1
 40
0.6
176
1
 40
30.0
176
1
 62
7
420
16777215
176
1
 90
1
176
1
 90
4
176
1
 62
7
176
1
 62
257
176
1
 90
1
176
1
 90
1
176
1
 40
1.0
176
1
 90
8
176
1
 62
7
176
1
 40
1.0
176
1
 90
1
176
1
 90
6
176
1
 90
2
176
1
 62
7
176
1
 90
5
176
1
 90
0
176
1
 90
0
176
1
290
0
176
1
 90
1
176
1
 40
0.0
176
1
 90
0
176
1
290
0
176
1
290
1
176
1
290
1
176
1
290
0
176
1
290
0
176
1
290
0
176
1
290
0
176
1
290
0
176
1
290
0
176
1
 90
50
176
1
 40
0.0
176
1
 40
1.0
176
1
 90
0
176
1
 62
18
420
0
176
1
 90
50
176
1
 90
3
176
1
 62
5
420
255
176
1
290
0
176
1
 90
50
176
1
 90
50
176
1
 90
50
176
1
290
0
176
1
 90
50
176
1
 62
256
176
0
 40
1.0
176
0
 90
2
176
1
  1
strokes_ogs.tif
176
1
290
0
176
1
 40
1.0
176
1
 40
1.0
176
1
  0
VISUALSTYLE
  5
5E
102
{ACAD_REACTORS
330
16
102
}
330
16
100
AcDbVisualStyle
  2
Conceptual
 70
9
177
3
291
0
 70
58
 90
2
176
1
 90
2
176
1
 90
0
176
1
 90
3
176
1
 40
0.6
176
1
 40
30.0
176
1
 62
7
420
16777215
176
1
 90
1
176
1
 90
4
176
1
 62
7
176
1
 62
257
176
1
 90
1
176
1
 90
1
176
1
 40
1.0
176
1
 90
8
176
1
 62
7
176
1
 40
1.0
176
1
 90
1
176
1
 90
6
176
1
 90
2
176
1
 62
7
176
1
 90
5
176
1
 90
0
176
1
 90
0
176
1
290
0
176
1
 90
1
176
1
 40
0.0
176
1
 90
0
176
1
290
0
176
1
290
1
176
1
290
1
176
1
290
0
176
1
290
0
176
1
290
0
176
1
290
0
176
1
290
0
176
1
290
0
176
1
 90
50
176
1
 40
0.0
176
1
 40
1.0
176
1
 90
0
176
1
 62
18
420
0
176
1
 90
50
176
1
 90
3
176
1
 62
5
420
255
176
1
290
0
176
1
 90
50
176
1
 90
50
176
1
 90
50
176
1
290
0
176
1
 90
50
176
1
 62
256
176
0
 40
1.0
176
0
 90
2
176
1
  1
strokes_ogs.tif
176
1
290
0
176
1
 40
1.0
176
1
 40
1.0
176
1
  0
VISUALSTYLE
  5
5F
102
{ACAD_REACTORS
330
16
102
}
330
16
100
AcDbVisualStyle
  2
Dim
 70
11
177
3
291
1
 70
58
 90
2
176
1
 90
2
176
1
 90
0
176
1
 90
2
176
1
 40
0.6
176
1
 40
30.0
176
1
 62
7
420
16777215
176
1
 90
1
176
1
 90
4
176
1
 62
7
176
1
 62
257
176
1
 90
1
176
1
 90
1
176
1
 40
1.0
176
1
 90
8
176
1
 62
7
176
1
 40
1.0
176
1
 90
1
176
1
 90
6
176
1
 90
2
176
1
 62
7
176
1
 90
5
176
1
 90
0
176
1
 90
0
176
1
290
0
176
1
 90
1
176
1
 40
0.0
176
1
 90
0
176
1
290
0
176
1
290
1
176
1
290
1
176
1
290
0
176
1
290
0
176
1
290
0
176
1
290
0
176
1
290
0
176
1
290
0
176
1
 90
50
176
1
 40
0.0
176
1
 40
1.0
176
1
 90
0
176
1
 62
18
420
0
176
1
 90
50
176
1
 90
3
176
1
 62
5
420
255
176
1
290
0
176
1
 90
50
176
1
 90
50
176
1
 90
50
176
1
290
0
176
1
 90
50
176
1
 62
256
176
0
 40
1.0
176
0
 90
2
176
1
  1
strokes_ogs.tif
176
1
290
0
176
1
 40
1.0
176
1
 40
1.0
176
1
  0
VISUALSTYLE
  5
60
102
{ACAD_REACTORS
330
16
102
}
330
16
100
AcDbVisualStyle
  2
EdgeColorOff
 70
22
177
3
291
1
 70
58
 90
2
176
1
 90
2
176
1
 90
0
176
1
 90
2
176
1
 40
0.6
176
1
 40
30.0
176
1
 62
7
420
16777215
176
1
 90
1
176
1
 90
4
176
1
 62
7
176
1
 62
257
176
1
 90
1
176
1
 90
1
176
1
 40
1.0
176
1
 90
8
176
1
 62
7
176
1
 40
1.0
176
1
 90
1
176
1
 90
6
176
1
 90
2
176
1
 62
7
176
1
 90
5
176
1
 90
0
176
1
 90
0
176
1
290
0
176
1
 90
1
176
1
 40
0.0
176
1
 90
0
176
1
290
0
176
1
290
1
176
1
290
1
176
1
290
0
176
1
290
0
176
1
290
0
176
1
290
0
176
1
290
0
176
1
290
0
176
1
 90
50
176
1
 40
0.0
176
1
 40
1.0
176
1
 90
0
176
1
 62
18
420
0
176
1
 90
50
176
1
 90
3
176
1
 62
5
420
255
176
1
290
0
176
1
 90
50
176
1
 90
50
176
1
 90
50
176
1
290
0
176
1
 90
50
176
1
 62
256
176
0
 40
1.0
176
0
 90
2
176
1
  1
strokes_ogs.tif
176
1
290
0
176
1
 40
1.0
176
1
 40
1.0
176
1
  0
VISUALSTYLE
  5
61
102
{ACAD_REACTORS
330
16
102
}
330
16
100
AcDbVisualStyle
  2
Facepattern
 70
15
177
3
291
1
 70
58
 90
2
176
1
 90
2
176
1
 90
0
176
1
 90
2
176
1
 40
0.6
176
1
 40
30.0
176
1
 62
7
420
16777215
176
1
 90
1
176
1
 90
4
176
1
 62
7
176
1
 62
257
176
1
 90
1
176
1
 90
1
176
1
 40
1.0
176
1
 90
8
176
1
 62
7
176
1
 40
1.0
176
1
 90
1
176
1
 90
6
176
1
 90
2
176
1
 62
7
176
1
 90
5
176
1
 90
0
176
1
 90
0
176
1
290
0
176
1
 90
1
176
1
 40
0.0
176
1
 90
0
176
1
290
0
176
1
290
1
176
1
290
1
176
1
290
0
176
1
290
0
176
1
290
0
176
1
290
0
176
1
290
0
176
1
290
0
176
1
 90
50
176
1
 40
0.0
176
1
 40
1.0
176
1
 90
0
176
1
 62
18
420
0
176
1
 90
50
176
1
 90
3
176
1
 62
5
420
255
176
1
290
0
176
1
 90
50
176
1
 90
50
176
1
 90
50
176
1
290
0
176
1
 90
50
176
1
 62
256
176
0
 40
1.0
176
0
 90
2
176
1
  1
strokes_ogs.tif
176
1
290
0
176
1
 40
1.0
176
1
 40
1.0
176
1
  0
VISUALSTYLE
  5
62
102
{ACAD_REACTORS
330
16
102
}
330
16
100
AcDbVisualStyle
  2
Flat
 70
0
177
3
291
1
 70
58
 90
2
176
1
 90
2
176
1
 90
0
176
1
 90
2
176
1
 40
0.6
176
1
 40
30.0
176
1
 62
7
420
16777215
176
1
 90
1
176
1
 90
4
176
1
 62
7
176
1
 62
257
176
1
 90
1
176
1
 90
1
176
1
 40
1.0
176
1
 90
8
176
1
 62
7
176
1
 40
1.0
176
1
 90
1
176
1
 90
6
176
1
 90
2
176
1
 62
7
176
1
 90
5
176
1
 90
0
176
1
 90
0
176
1
290
0
176
1
 90
1
176
1
 40
0.0
176
1
 90
0
176
1
290
0
176
1
290
1
176
1
290
1
176
1
290
0
176
1
290
0
176
1
290
0
176
1
290
0
176
1
290
0
176
1
290
0
176
1
 90
50
176
1
 40
0.0
176
1
 40
1.0
176
1
 90
0
176
1
 62
18
420
0
176
1
 90
50
176
1
 90
3
176
1
 62
5
420
255
176
1
290
0
176
1
 90
50
176
1
 90
50
176
1
 90
50
176
1
290
0
176
1
 90
50
176
1
 62
256
176
0
 40
1.0
176
0
 90
2
176
1
  1
strokes_ogs.tif
176
1
290
0
176
1
 40
1.0
176
1
 40
1.0
176
1
  0
VISUALSTYLE
  5
63
102
{ACAD_REACTORS
330
16
102
}
330
16
100
AcDbVisualStyle
  2
FlatWithEdges
 70
1
177
3
291
1
 70
58
 90
2
176
1
 90
2
176
1
 90
0
176
1
 90
2
176
1
 40
0.6
176
1
 40
30.0
176
1
 62
7
420
16777215
176
1
 90
1
176
1
 90
4
176
1
 62
7
176
1
 62
257
176
1
 90
1
176
1
 90
1
176
1
 40
1.0
176
1
 90
8
176
1
 62
7
176
1
 40
1.0
176
1
 90
1
176
1
 90
6
176
1
 90
2
176
1
 62
7
176
1
 90
5
176
1
 90
0
176
1
 90
0
176
1
290
0
176
1
 90
1
176
1
 40
0.0
176
1
 90
0
176
1
290
0
176
1
290
1
176
1
290
1
176
1
290
0
176
1
290
0
176
1
290
0
176
1
290
0
176
1
290
0
176
1
290
0
176
1
 90
50
176
1
 40
0.0
176
1
 40
1.0
176
1
 90
0
176
1
 62
18
420
0
176
1
 90
50
176
1
 90
3
176
1
 62
5
420
255
176
1
290
0
176
1
 90
50
176
1
 90
50
176
1
 90
50
176
1
290
0
176
1
 90
50
176
1
 62
256
176
0
 40
1.0
176
0
 90
2
176
1
  1
strokes_ogs.tif
176
1
290
0
176
1
 40
1.0
176
1
 40
1.0
176
1
  0
VISUALSTYLE
  5
64
102
{ACAD_REACTORS
330
16
102
}
330
16
100
AcDbVisualStyle
  2
Gouraud
 70
2
177
3
291
1
 70
58
 90
2
176
1
 90
2
176
1
 90
0
176
1
 90
2
176
1
 40
0.6
176
1
 40
30.0
176
1
 62
7
420
16777215
176
1
 90
1
176
1
 90
4
176
1
 62
7
176
1
 62
257
176
1
 90
1
176
1
 90
1
176
1
 40
1.0
176
1
 90
8
176
1
 62
7
176
1
 40
1.0
176
1
 90
1
176
1
 90
6
176
1
 90
2
176
1
 62
7
176
1
 90
5
176
1
 90
0
176
1
 90
0
176
1
290
0
176
1
 90
1
176
1
 40
0.0
176
1
 90
0
176
1
290
0
176
1
290
1
176
1
290
1
176
1
290
0
176
1
290
0
176
1
290
0
176
1
290
0
176
1
290
0
176
1
290
0
176
1
 90
50
176
1
 40
0.0
176
1
 40
1.0
176
1
 90
0
176
1
 62
18
420
0
176
1
 90
50
176
1
 90
3
176
1
 62
5
420
255
176
1
290
0
176
1
 90
50
176
1
 90
50
176
1
 90
50
176
1
290
0
176
1
 90
50
176
1
 62
256
176
0
 40
1.0
176
0
 90
2
176
1
  1
strokes_ogs.tif
176
1
290
0
176
1
 40
1.0
176
1
 40
1.0
176
1
  0
VISUALSTYLE
  5
65
102
{ACAD_REACTORS
330
16
102
}
330
16
100
AcDbVisualStyle
  2
GouraudWithEdges
 70
3
177
3
291
1
 70
58
 90
2
176
1
 90
2
176
1
 90
0
176
1
 90
2
176
1
 40
0.6
176
1
 40
30.0
176
1
 62
7
420
16777215
176
1
 90
1
176
1
 90
4
176
1
 62
7
176
1
 62
257
176
1
 90
1
176
1
 90
1
176
1
 40
1.0
176
1
 90
8
176
1
 62
7
176
1
 40
1.0
176
1
 90
1
176
1
 90
6
176
1
 90
2
176
1
 62
7
176
1
 90
5
176
1
 90
0
176
1
 90
0
176
1
290
0
176
1
 90
1
176
1
 40
0.0
176
1
 90
0
176
1
290
0
176
1
290
1
176
1
290
1
176
1
290
0
176
1
290
0
176
1
290
0
176
1
290
0
176
1
290
0
176
1
290
0
176
1
 90
50
176
1
 40
0.0
176
1
 40
1.0
176
1
 90
0
176
1
 62
18
420
0
176
1
 90
50
176
1
 90
3
176
1
 62
5
420
255
176
1
290
0
176
1
 90
50
176
1
 90
50
176
1
 90
50
176
1
290
0
176
1
 90
50
176
1
 62
256
176
0
 40
1.0
176
0
 90
2
176
1
  1
strokes_ogs.tif
176
1
290
0
176
1
 40
1.0
176
1
 40
1.0
176
1
  0
VISUALSTYLE
  5
66
102
{ACAD_REACTORS
330
16
102
}
330
16
100
AcDbVisualStyle
  2
Hidden
 70
6
177
3
291
0
 70
58
 90
2
176
1
 90
2
176
1
 90
0
176
1
 90
1
176
1
 40
0.6
176
1
 40
30.0
176
1
 62
7
420
16777215
176
1
 90
1
176
1
 90
4
176
1
 62
7
176
1
 62
257
176
1
 90
1
176
1
 90
1
176
1
 40
1.0
176
1
 90
8
176
1
 62
7
176
1
 40
1.0
176
1
 90
1
176
1
 90
6
176
1
 90
2
176
1
 62
7
176
1
 90
5
176
1
 90
0
176
1
 90
0
176
1
290
0
176
1
 90
1
176
1
 40
0.0
176
1
 90
0
176
1
290
0
176
1
290
1
176
1
290
1
176
1
290
0
176
1
290
0
176
1
290
0
176
1
290
0
176
1
290
0
176
1
290
0
176
1
 90
50
176
1
 40
0.0
176
1
 40
1.0
176
1
 90
0
176
1
 62
18
420
0
176
1
 90
50
176
1
 90
3
176
1
 62
5
420
255
176
1
290
0
176
1
 90
50
176
1
 90
50
176
1
 90
50
176
1
290
0
176
1
 90
50
176
1
 62
256
176
0
 40
1.0
176
0
 90
2
176
1
  1
strokes_ogs.tif
176
1
290
0
176
1
 40
1.0
176
1
 40
1.0
176
1
  0
VISUALSTYLE
  5
67
102
{ACAD_REACTORS
330
16
102
}
330
16
100
AcDbVisualStyle
  2
JitterOff
 70
20
177
3
291
1
 70
58
 90
2
176
1
 90
2
176
1
 90
0
176
1
 90
2
176
1
 40
0.6
176
1
 40
30.0
176
1
 62
7
420
16777215
176
1
 90
1
176
1
 90
4
176
1
 62
7
176
1
 62
257
176
1
 90
1
176
1
 90
1
176
1
 40
1.0
176
1
 90
8
176
1
 62
7
176
1
 40
1.0
176
1
 90
1
176
1
 90
6
176
1
 90
2
176
1
 62
7
176
1
 90
5
176
1
 90
0
176
1
 90
0
176
1
290
0
176
1
 90
1
176
1
 40
0.0
176
1
 90
0
176
1
290
0
176
1
290
1
176
1
290
1
176
1
290
0
176
1
290
0
176
1
290
0
176
1
290
0
176
1
290
0
176
1
290
0
176
1
 90
50
176
1
 40
0.0
176
1
 40
1.0
176
1
 90
0
176
1
 62
18
420
0
176
1
 90
50
176
1
 90
3
176
1
 62
5
420
255
176
1
290
0
176
1
 90
50
176
1
 90
50
176
1
 90
50
176
1
290
0
176
1
 90
50
176
1
 62
256
176
0
 40
1.0
176
0
 90
2
176
1
  1
strokes_ogs.tif
176
1
290
0
176
1
 40
1.0
176
1
 40
1.0
176
1
  0
VISUALSTYLE
  5
68
102
{ACAD_REACTORS
330
16
102
}
330
16
100
AcDbVisualStyle
  2
Linepattern
 70
14
177
3
291
1
 70
58
 90
2
176
1
 90
2
176
1
 90
0
176
1
 90
2
176
1
 40
0.6
176
1
 40
30.0
176
1
 62
7
420
16777215
176
1
 90
1
176
1
 90
4
176
1
 62
7
176
1
 62
257
176
1
 90
1
176
1
 90
1
176
1
 40
1.0
176
1
 90
8
176
1
 62
7
176
1
 40
1.0
176
1
 90
1
176
1
 90
6
176
1
 90
2
176
1
 62
7
176
1
 90
5
176
1
 90
0
176
1
 90
0
176
1
290
0
176
1
 90
1
176
1
 40
0.0
176
1
 90
0
176
1
290
0
176
1
290
1
176
1
290
1
176
1
290
0
176
1
290
0
176
1
290
0
176
1
290
0
176
1
290
0
176
1
290
0
176
1
 90
50
176
1
 40
0.0
176
1
 40
1.0
176
1
 90
0
176
1
 62
18
420
0
176
1
 90
50
176
1
 90
3
176
1
 62
5
420
255
176
1
290
0
176
1
 90
50
176
1
 90
50
176
1
 90
50
176
1
290
0
176
1
 90
50
176
1
 62
256
176
0
 40
1.0
176
0
 90
2
176
1
  1
strokes_ogs.tif
176
1
290
0
176
1
 40
1.0
176
1
 40
1.0
176
1
  0
VISUALSTYLE
  5
69
102
{ACAD_REACTORS
330
16
102
}
330
16
100
AcDbVisualStyle
  2
Modeling
 70
10
177
3
291
0
 70
58
 90
2
176
1
 90
2
176
1
 90
0
176
1
 90
2
176
1
 40
0.6
176
1
 40
30.0
176
1
 62
7
420
16777215
176
1
 90
1
176
1
 90
4
176
1
 62
7
176
1
 62
257
176
1
 90
1
176
1
 90
1
176
1
 40
1.0
176
1
 90
8
176
1
 62
7
176
1
 40
1.0
176
1
 90
1
176
1
 90
6
176
1
 90
2
176
1
 62
7
176
1
 90
5
176
1
 90
0
176
1
 90
0
176
1
290
0
176
1
 90
1
176
1
 40
0.0
176
1
 90
0
176
1
290
0
176
1
290
1
176
1
290
1
176
1
290
0
176
1
290
0
176
1
290
0
176
1
290
0
176
1
290
0
176
1
290
0
176
1
 90
50
176
1
 40
0.0
176
1
 40
1.0
176
1
 90
0
176
1
 62
18
420
0
176
1
 90
50
176
1
 90
3
176
1
 62
5
420
255
176
1
290
0
176
1
 90
50
176
1
 90
50
176
1
 90
50
176
1
290
0
176
1
 90
50
176
1
 62
256
176
0
 40
1.0
176
0
 90
2
176
1
  1
strokes_ogs.tif
176
1
290
0
176
1
 40
1.0
176
1
 40
1.0
176
1
  0
VISUALSTYLE
  5
6A
102
{ACAD_REACTORS
330
16
102
}
330
16
100
AcDbVisualStyle
  2
OverhangOff
 70
21
177
3
291
1
 70
58
 90
2
176
1
 90
2
176
1
 90
0
176
1
 90
2
176
1
 40
0.6
176
1
 40
30.0
176
1
 62
7
420
16777215
176
1
 90
1
176
1
 90
4
176
1
 62
7
176
1
 62
257
176
1
 90
1
176
1
 90
1
176
1
 40
1.0
176
1
 90
8
176
1
 62
7
176
1
 40
1.0
176
1
 90
1
176
1
 90
6
176
1
 90
2
176
1
 62
7
176
1
 90
5
176
1
 90
0
176
1
 90
0
176
1
290
0
176
1
 90
1
176
1
 40
0.0
176
1
 90
0
176
1
290
0
176
1
290
1
176
1
290
1
176
1
290
0
176
1
290
0
176
1
290
0
176
1
290
0
176
1
290
0
176
1
290
0
176
1
 90
50
176
1
 40
0.0
176
1
 40
1.0
176
1
 90
0
176
1
 62
18
420
0
176
1
 90
50
176
1
 90
3
176
1
 62
5
420
255
176
1
290
0
176
1
 90
50
176
1
 90
50
176
1
 90
50
176
1
290
0
176
1
 90
50
176
1
 62
256
176
0
 40
1.0
176
0
 90
2
176
1
  1
strokes_ogs.tif
176
1
290
0
176
1
 40
1.0
176
1
 40
1.0
176
1
  0
VISUALSTYLE
  5
6B
102
{ACAD_REACTORS
330
16
102
}
330
16
100
AcDbVisualStyle
  2
Realistic
 70
8
177
3
291
0
 70
58
 90
2
176
1
 90
2
176
1
 90
0
176
1
 90
2
176
1
 40
0.6
176
1
 40
30.0
176
1
 62
7
420
16777215
176
1
 90
1
176
1
 90
4
176
1
 62
7
176
1
 62
257
176
1
 90
1
176
1
 90
1
176
1
 40
1.0
176
1
 90
8
176
1
 62
7
176
1
 40
1.0
176
1
 90
1
176
1
 90
6
176
1
 90
2
176
1
 62
7
176
1
 90
5
176
1
 90
0
176
1
 90
0
176
1
290
0
176
1
 90
1
176
1
 40
0.0
176
1
 90
0
176
1
290
0
176
1
290
1
176
1
290
1
176
1
290
0
176
1
290
0
176
1
290
0
176
1
290
0
176
1
290
0
176
1
290
0
176
1
 90
50
176
1
 40
0.0
176
1
 40
1.0
176
1
 90
0
176
1
 62
18
420
0
176
1
 90
50
176
1
 90
3
176
1
 62
5
420
255
176
1
290
0
176
1
 90
50
176
1
 90
50
176
1
 90
50
176
1
290
0
176
1
 90
50
176
1
 62
256
176
0
 40
1.0
176
0
 90
2
176
1
  1
strokes_ogs.tif
176
1
290
0
176
1
 40
1.0
176
1
 40
1.0
176
1
  0
VISUALSTYLE
  5
6C
102
{ACAD_REACTORS
330
16
102
}
330
16
100
AcDbVisualStyle
  2
Shaded
 70
27
177
3
291
0
 70
58
 90
2
176
1
 90
2
176
1
 90
0
176
1
 90
2
176
1
 40
0.6
176
1
 40
30.0
176
1
 62
7
420
16777215
176
1
 90
1
176
1
 90
4
176
1
 62
7
176
1
 62
257
176
1
 90
1
176
1
 90
1
176
1
 40
1.0
176
1
 90
8
176
1
 62
7
176
1
 40
1.0
176
1
 90
1
176
1
 90
6
176
1
 90
2
176
1
 62
7
176
1
 90
5
176
1
 90
0
176
1
 90
0
176
1
290
0
176
1
 90
1
176
1
 40
0.0
176
1
 90
0
176
1
290
0
176
1
290
1
176
1
290
1
176
1
290
0
176
1
290
0
176
1
290
0
176
1
290
0
176
1
290
0
176
1
290
0
176
1
 90
50
176
1
 40
0.0
176
1
 40
1.0
176
1
 90
0
176
1
 62
18
420
0
176
1
 90
50
176
1
 90
3
176
1
 62
5
420
255
176
1
290
0
176
1
 90
50
176
1
 90
50
176
1
 90
50
176
1
290
0
176
1
 90
50
176
1
 62
256
176
0
 40
1.0
176
0
 90
2
176
1
  1
strokes_ogs.tif
176
1
290
0
176
1
 40
1.0
176
1
 40
1.0
176
1
  0
VISUALSTYLE
  5
6D
102
{ACAD_REACTORS
330
16
102
}
330
16
100
AcDbVisualStyle
  2
Shaded with edges
 70
26
177
3
291
0
 70
58
 90
2
176
1
 90
2
176
1
 90
0
176
1
 90
2
176
1
 40
0.6
176
1
 40
30.0
176
1
 62
7
420
16777215
176
1
 90
1
176
1
 90
4
176
1
 62
7
176
1
 62
257
176
1
 90
1
176
1
 90
1
176
1
 40
1.0
176
1
 90
8
176
1
 62
7
176
1
 40
1.0
176
1
 90
1
176
1
 90
6
176
1
 90
2
176
1
 62
7
176
1
 90
5
176
1
 90
0
176
1
 90
0
176
1
290
0
176
1
 90
1
176
1
 40
0.0
176
1
 90
0
176
1
290
0
176
1
290
1
176
1
290
1
176
1
290
0
176
1
290
0
176
1
290
0
176
1
290
0
176
1
290
0
176
1
290
0
176
1
 90
50
176
1
 40
0.0
176
1
 40
1.0
176
1
 90
0
176
1
 62
18
420
0
176
1
 90
50
176
1
 90
3
176
1
 62
5
420
255
176
1
290
0
176
1
 90
50
176
1
 90
50
176
1
 90
50
176
1
290
0
176
1
 90
50
176
1
 62
256
176
0
 40
1.0
176
0
 90
2
176
1
  1
strokes_ogs.tif
176
1
290
0
176
1
 40
1.0
176
1
 40
1.0
176
1
  0
VISUALSTYLE
  5
6E
102
{ACAD_REACTORS
330
16
102
}
330
16
100
AcDbVisualStyle
  2
Shades of Gray
 70
23
177
3
291
0
 70
58
 90
2
176
1
 90
2
176
1
 90
0
176
1
 90
2
176
1
 40
0.6
176
1
 40
30.0
176
1
 62
7
420
16777215
176
1
 90
1
176
1
 90
4
176
1
 62
7
176
1
 62
257
176
1
 90
1
176
1
 90
1
176
1
 40
1.0
176
1
 90
8
176
1
 62
7
176
1
 40
1.0
176
1
 90
1
176
1
 90
6
176
1
 90
2
176
1
 62
7
176
1
 90
5
176
1
 90
0
176
1
 90
0
176
1
290
0
176
1
 90
1
176
1
 40
0.0
176
1
 90
0
176
1
290
0
176
1
290
1
176
1
290
1
176
1
290
0
176
1
290
0
176
1
290
0
176
1
290
0
176
1
290
0
176
1
290
0
176
1
 90
50
176
1
 40
0.0
176
1
 40
1.0
176
1
 90
0
176
1
 62
18
420
0
176
1
 90
50
176
1
 90
3
176
1
 62
5
420
255
176
1
290
0
176
1
 90
50
176
1
 90
50
176
1
 90
50
176
1
290
0
176
1
 90
50
176
1
 62
256
176
0
 40
1.0
176
0
 90
2
176
1
  1
strokes_ogs.tif
176
1
290
0
176
1
 40
1.0
176
1
 40
1.0
176
1
  0
VISUALSTYLE
  5
6F
102
{ACAD_REACTORS
330
16
102
}
330
16
100
AcDbVisualStyle
  2
Sketchy
 70
24
177
3
291
0
 70
58
 90
2
176
1
 90
2
176
1
 90
0
176
1
 90
1
176
1
 40
0.6
176
1
 40
30.0
176
1
 62
7
420
16777215
176
1
 90
1
176
1
 90
4
176
1
 62
7
176
1
 62
257
176
1
 90
1
176
1
 90
1
176
1
 40
1.0
176
1
 90
8
176
1
 62
7
176
1
 40
1.0
176
1
 90
1
176
1
 90
6
176
1
 90
2
176
1
 62
7
176
1
 90
5
176
1
 90
0
176
1
 90
0
176
1
290
0
176
1
 90
1
176
1
 40
0.0
176
1
 90
0
176
1
290
0
176
1
290
1
176
1
290
1
176
1
290
0
176
1
290
0
176
1
290
0
176
1
290
0
176
1
290
0
176
1
290
0
176
1
 90
50
176
1
 40
0.0
176
1
 40
1.0
176
1
 90
0
176
1
 62
18
420
0
176
1
 90
50
176
1
 90
3
176
1
 62
5
420
255
176
1
290
0
176
1
 90
50
176
1
 90
50
176
1
 90
50
176
1
290
0
176
1
 90
50
176
1
 62
256
176
0
 40
1.0
176
0
 90
2
176
1
  1
strokes_ogs.tif
176
1
290
0
176
1
 40
1.0
176
1
 40
1.0
176
1
  0
VISUALSTYLE
  5
70
102
{ACAD_REACTORS
330
16
102
}
330
16
100
AcDbVisualStyle
  2
Thicken
 70
13
177
3
291
1
 70
58
 90
2
176
1
 90
2
176
1
 90
0
176
1
 90
2
176
1
 40
0.6
176
1
 40
30.0
176
1
 62
7
420
16777215
176
1
 90
1
176
1
 90
4
176
1
 62
7
176
1
 62
257
176
1
 90
1
176
1
 90
1
176
1
 40
1.0
176
1
 90
8
176
1
 62
7
176
1
 40
1.0
176
1
 90
1
176
1
 90
6
176
1
 90
2
176
1
 62
7
176
1
 90
5
176
1
 90
0
176
1
 90
0
176
1
290
0
176
1
 90
1
176
1
 40
0.0
176
1
 90
0
176
1
290
0
176
1
290
1
176
1
290
1
176
1
290
0
176
1
290
0
176
1
290
0
176
1
290
0
176
1
290
0
176
1
290
0
176
1
 90
50
176
1
 40
0.0
176
1
 40
1.0
176
1
 90
0
176
1
 62
18
420
0
176
1
 90
50
176
1
 90
3
176
1
 62
5
420
255
176
1
290
0
176
1
 90
50
176
1
 90
50
176
1
 90
50
176
1
290
0
176
1
 90
50
176
1
 62
256
176
0
 40
1.0
176
0
 90
2
176
1
  1
strokes_ogs.tif
176
1
290
0
176
1
 40
1.0
176
1
 40
1.0
176
1
  0
VISUALSTYLE
  5
71
102
{ACAD_REACTORS
330
16
102
}
330
16
100
AcDbVisualStyle
  2
Wireframe
 70
5
177
3
291
0
 70
58
 90
2
176
1
 90
2
176
1
 90
0
176
1
 90
0
176
1
 40
0.6
176
1
 40
30.0
176
1
 62
7
420
16777215
176
1
 90
1
176
1
 90
4
176
1
 62
7
176
1
 62
257
176
1
 90
1
176
1
 90
1
176
1
 40
1.0
176
1
 90
8
176
1
 62
7
176
1
 40
1.0
176
1
 90
1
176
1
 90
6
176
1
 90
2
176
1
 62
7
176
1
 90
5
176
1
 90
0
176
1
 90
0
176
1
290
0
176
1
 90
1
176
1
 40
0.0
176
1
 90
0
176
1
290
0
176
1
290
1
176
1
290
1
176
1
290
0
176
1
290
0
176
1
290
0
176
1
290
0
176
1
290
0
176
1
290
0
176
1
 90
50
176
1
 40
0.0
176
1
 40
1.0
176
1
 90
0
176
1
 62
18
420
0
176
1
 90
50
176
1
 90
3
176
1
 62
5
420
255
176
1
290
0
176
1
 90
50
176
1
 90
50
176
1
 90
50
176
1
290
0
176
1
 90
50
176
1
 62
256
176
0
 40
1.0
176
0
 90
2
176
1
  1
strokes_ogs.tif
176
1
290
0
176
1
 40
1.0
176
1
 40
1.0
176
1
  0
VISUALSTYLE
  5
72
102
{ACAD_REACTORS
330
16
102
}
330
16
100
AcDbVisualStyle
  2
X-Ray
 70
25
177
3
291
0
 70
58
 90
2
176
1
 90
2
176
1
 90
0
176
1
 90
2
176
1
 40
0.5
176
1
 40
30.0
176
1
 62
7
420
16777215
176
1
 90
1
176
1
 90
4
176
1
 62
7
176
1
 62
257
176
1
 90
1
176
1
 90
1
176
1
 40
1.0
176
1
 90
8
176
1
 62
7
176
1
 40
1.0
176
1
 90
1
176
1
 90
6
176
1
 90
2
176
1
 62
7
176
1
 90
5
176
1
 90
0
176
1
 90
0
176
1
290
0
176
1
 90
1
176
1
 40
0.0
176
1
 90
0
176
1
290
0
176
1
290
1
176
1
290
1
176
1
290
0
176
1
290
0
176
1
290
0
176
1
290
0
176
1
290
0
176
1
290
0
176
1
 90
50
176
1
 40
0.0
176
1
 40
1.0
176
1
 90
0
176
1
 62
18
420
0
176
1
 90
50
176
1
 90
3
176
1
 62
5
420
255
176
1
290
0
176
1
 90
50
176
1
 90
50
176
1
 90
50
176
1
290
0
176
1
 90
50
176
1
 62
256
176
0
 40
1.0
176
0
 90
2
176
1
  1
strokes_ogs.tif
176
1
290
0
176
1
 40
1.0
176
1
 40
1.0
176
1
  0
DICTIONARYVAR
  5
164
330
2D
100
DictionaryVariables
280
0
  1
1.4.4 @ 2026-10-01T12:13:42.345175+00:00
  0
ENDSEC
  0
EOF
